<svg width="1011" height="792" viewBox="0 0 1011 792" fill="none" xmlns="http://www.w3.org/2000/svg">
<g opacity="0.504511">
<path fill-rule="evenodd" clip-rule="evenodd" d="M936.075 571.632C948.63 651.694 644.148 703.916 382.074 667.472C119.999 631.027 -0.228134 488.709 124.83 412.876C249.887 337.042 923.52 491.57 936.075 571.632Z" fill="#F2F2F2"/>
</g>
<path fill-rule="evenodd" clip-rule="evenodd" d="M559.417 238.011C564.154 234.924 571.504 236.891 576.273 238.714C578.111 239.417 582.807 241.664 586.29 244.194C585.83 242.44 585.42 240.672 585.061 238.888C583.588 231.556 582.573 224.085 582.085 216.657C581.957 214.72 582.123 212.556 582.291 210.363L582.291 210.362C582.348 209.619 582.405 208.873 582.451 208.131C582.26 207.956 582.131 207.714 582.077 207.387C582.057 207.522 582.046 207.631 582.037 207.715C582.023 207.848 582.016 207.916 581.991 207.923C581.966 207.93 581.922 207.873 581.833 207.756C581.799 207.712 581.758 207.658 581.709 207.597C578.184 203.101 575.224 198.036 574.818 192.467C574.473 187.745 579.023 178.809 585.473 184.995C588.358 187.757 587.609 207.159 583.275 208.348C584.433 214.777 585.888 221.195 587.712 227.532C587.985 227.491 588.264 227.487 588.539 227.519C588.513 225.944 588.51 224.225 588.586 223.634C589.236 218.542 594.223 208.203 602.162 210.211C608.263 211.753 604.524 218.103 602.448 220.882C599.105 225.357 595.325 227.294 590.537 229.621C590.441 230.583 589.714 231.142 588.856 231.324C592.061 241.557 596.274 251.538 601.786 260.965L601.932 260.367L601.932 260.366C602.632 257.505 603.448 254.168 603.965 253.467C606.667 249.8 612.648 245.32 618.163 247.49C629.746 252.054 617.173 265.171 607.312 266.598C606.902 267.081 606.468 267.47 606.007 267.693C607.923 270.539 609.97 273.325 612.162 276.04C615.448 280.123 618.979 284.194 622.682 288.24C622.796 285.075 624.262 278.02 624.677 277.262C627.206 272.659 634.494 267.923 640.407 271.193C647.057 274.88 641.027 281.847 637.234 285C635.679 286.292 627.99 291.03 625.277 291.051C634.223 300.593 644.096 309.972 654.135 319.012C653.304 314.965 652.217 303.82 652.339 302.583C652.962 296.199 657.881 285.987 667.571 288.475C676.973 290.886 672.814 301.494 669.596 306.551C667.646 309.612 664.951 312.722 661.7 314.856C661.114 315.241 660.349 315.555 659.585 315.868C658.664 316.246 657.745 316.623 657.144 317.123C656.609 317.568 656.445 318.079 656.282 318.585C656.11 319.12 655.939 319.651 655.335 320.094C660.76 324.958 666.223 329.72 671.608 334.351C674.149 336.537 676.736 338.68 679.348 340.796C680.778 340.29 682.816 340.955 682.709 342.682C682.694 342.933 682.626 343.149 682.534 343.348C684.514 344.919 686.507 346.479 688.515 348.022C688.469 347.573 688.482 346.939 688.574 346.063C687.129 347.818 687.189 345.262 687.235 343.314L687.235 343.314C687.252 342.626 687.266 342.013 687.212 341.694C686.999 340.442 686.724 339.202 686.45 337.965C685.864 335.321 685.279 332.685 685.309 329.957C685.372 324.165 689.671 314.456 698.719 317.905C707.038 321.071 704.011 329.655 700.873 335.036C698.886 338.442 696.167 341.483 693.326 344.394C692.819 344.913 692.257 345.617 691.7 346.313C690.874 347.348 690.06 348.367 689.458 348.746C697.182 354.653 705.088 360.387 712.995 366.122L712.996 366.122C716.537 368.691 720.078 371.259 723.604 373.843C723.757 373.276 723.884 372.713 723.993 372.187C723.773 372.4 723.473 372.499 723.088 372.48C722.985 372.045 722.837 371.468 722.658 370.774L722.658 370.773C720.481 362.303 713.85 336.503 731.805 341.503C744.961 345.177 735.675 367.642 725.863 375.501C731.818 379.888 737.715 384.332 743.475 388.908C747.643 392.219 751.688 395.644 755.579 399.183C753.565 394.601 751.668 388.669 752.913 383.948C754.726 377.077 763.22 370.591 771.514 374.5C781.852 379.395 773.899 386.079 766.44 392.347C762.632 395.548 758.952 398.64 757.903 401.33C770.271 412.939 780.831 425.836 787.886 440.526C795.56 456.502 802.683 477.969 798.744 495.842C799.471 487.983 796.36 478.115 794.175 471.185L794.175 471.185C793.878 470.241 793.597 469.352 793.346 468.53C790.064 457.781 785.4 447.323 779.254 437.535C769.41 421.857 756.406 408.549 741.394 396.466C737.975 397.483 734.262 399.365 731.187 400.924C729.301 401.88 727.655 402.715 726.464 403.153C720.72 405.268 709.691 408.3 706.032 401.638C702.434 395.087 711.618 391.423 717.31 389.955C722.81 388.538 727.769 388.709 732.9 389.87C724.954 383.857 716.814 378.035 708.676 372.213L708.675 372.213C707.178 371.142 705.681 370.071 704.185 368.999C702.117 370.447 699.832 372.54 697.406 374.762C689.706 381.814 680.583 390.17 672.436 383.343C660.142 373.042 683.656 362.571 693.674 363.389C694.904 363.488 696.094 363.71 697.254 364.011C687.038 356.608 676.98 349.053 667.467 340.967C665.76 341.233 663.042 343.377 659.778 345.953C652.441 351.741 642.34 359.71 634.732 353.436C629.24 348.906 631.121 341.852 636.43 337.818C641.759 333.768 649.486 333.774 656.053 335.139C658.892 335.725 661.511 336.846 663.953 338.211C664.005 338.213 664.057 338.216 664.108 338.218L664.112 338.218C664.161 338.221 664.208 338.223 664.256 338.225C654.895 330.184 645.478 321.962 636.407 313.46C636.249 313.503 636.086 313.548 635.924 313.593C635.375 314.167 634.457 314.377 633.616 314.25C633.152 314.385 632.678 314.525 632.195 314.667C625.01 316.784 615.776 319.505 608.615 318.332C603.344 317.468 598.562 313.811 603.023 309.308C606.65 305.646 616.491 306.172 621.29 307.039C623.632 307.463 626.181 308.691 628.739 309.923C629.814 310.44 630.89 310.959 631.953 311.418C632.229 310.943 632.711 310.638 633.26 310.491C624.303 301.947 615.755 293.108 608.003 283.884C605.657 284.195 603.055 285.075 600.371 285.982C593.912 288.166 586.981 290.509 582.006 285.462C574.662 278.009 588.474 273.66 595.039 274.367C597.257 274.606 599.443 275.143 601.553 275.851C595.912 268.257 591.604 260.14 588.578 251.616C588.548 251.628 588.521 251.641 588.494 251.654C588.451 251.675 588.409 251.695 588.356 251.715C588.401 251.694 588.441 251.672 588.481 251.65L588.482 251.65C588.511 251.634 588.541 251.617 588.572 251.602C588.27 250.749 587.981 249.892 587.705 249.032C587.192 248.789 586.712 248.609 586.483 248.535C589.466 250.291 576.881 251.15 574.524 251.311C569.313 251.666 562.333 251.799 558.51 248.155C555.299 245.094 555.487 240.572 559.417 238.011ZM799.303 495.867C799.082 498.458 798.533 500.829 797.51 502.785C798.277 500.558 798.866 498.244 799.303 495.867Z" fill="#F2F2F2"/>
<path opacity="0.2" fill-rule="evenodd" clip-rule="evenodd" d="M322.834 72.5955C319.376 70.3646 314.009 71.7897 310.526 73.1089C309.184 73.6178 305.754 75.2445 303.21 77.0748C303.547 75.8068 303.847 74.5276 304.11 73.2381C305.189 67.9357 305.933 62.5331 306.293 57.1619C306.386 55.7611 306.266 54.1962 306.145 52.6108L306.145 52.6102L306.145 52.6094C306.104 52.0724 306.062 51.5331 306.029 50.997C306.168 50.8702 306.262 50.6952 306.302 50.4582C306.317 50.5564 306.325 50.6352 306.331 50.6955C306.341 50.7917 306.347 50.8407 306.365 50.8459C306.383 50.8512 306.415 50.8098 306.48 50.7256C306.505 50.6933 306.535 50.6547 306.571 50.6101C309.146 47.3583 311.31 43.6945 311.609 39.6679C311.862 36.2528 308.544 29.793 303.833 34.2679C301.725 36.2664 302.263 50.2955 305.427 51.1539C304.579 55.8031 303.513 60.4445 302.179 65.027C301.98 64.9973 301.776 64.9948 301.575 65.0181C301.595 63.8789 301.598 62.6358 301.543 62.2085C301.071 58.5266 297.434 51.0527 291.636 52.5065C287.18 53.6239 289.908 58.2143 291.423 60.2233C293.861 63.4578 296.621 64.8577 300.116 66.5388C300.185 67.2341 300.716 67.6381 301.343 67.7692C298.997 75.1699 295.917 82.3883 291.889 89.2071L291.782 88.7737C291.272 86.7048 290.678 84.2925 290.301 83.786C288.33 81.1349 283.965 77.8976 279.937 79.4686C271.478 82.7723 280.652 92.2532 287.852 93.2818C288.151 93.6311 288.467 93.912 288.804 94.073C287.404 96.1313 285.907 98.1469 284.306 100.111C281.905 103.064 279.325 106.009 276.62 108.936C276.538 106.647 275.471 101.546 275.168 100.998C273.324 97.6708 268.004 94.2483 263.686 96.6147C258.829 99.2827 263.228 104.319 265.996 106.597C267.131 107.532 272.743 110.955 274.724 110.969C268.188 117.872 260.975 124.657 253.641 131.197C254.25 128.27 255.048 120.211 254.96 119.317C254.508 114.701 250.921 107.318 243.844 109.12C236.978 110.866 240.011 118.536 242.358 122.191C243.78 124.404 245.747 126.652 248.119 128.194C248.547 128.472 249.106 128.699 249.663 128.925C250.335 129.198 251.006 129.471 251.445 129.832C251.836 130.153 251.955 130.523 252.074 130.889C252.199 131.276 252.324 131.659 252.765 131.979C248.802 135.498 244.811 138.944 240.877 142.294C239.021 143.875 237.131 145.426 235.223 146.957C234.179 146.592 232.691 147.073 232.768 148.322C232.779 148.503 232.828 148.659 232.895 148.803C231.449 149.94 229.994 151.068 228.527 152.185C228.56 151.86 228.551 151.402 228.484 150.768C229.539 152.037 229.496 150.189 229.463 148.78C229.451 148.282 229.441 147.84 229.481 147.608C229.637 146.703 229.838 145.807 230.039 144.912L230.039 144.912C230.468 143 230.896 141.094 230.876 139.121C230.832 134.933 227.697 127.914 221.09 130.411C215.014 132.702 217.22 138.908 219.509 142.799C220.958 145.261 222.942 147.459 225.015 149.563C225.385 149.938 225.795 150.447 226.201 150.95L226.202 150.95C226.805 151.698 227.399 152.434 227.838 152.709C222.196 156.983 216.421 161.131 210.645 165.28C208.058 167.139 205.471 168.997 202.896 170.867C202.784 170.457 202.692 170.05 202.612 169.67C202.773 169.823 202.992 169.895 203.273 169.881C203.348 169.566 203.457 169.149 203.587 168.647C205.181 162.521 210.034 143.864 196.921 147.485C187.314 150.146 194.085 166.387 201.245 172.066C196.896 175.241 192.588 178.456 188.38 181.767C185.336 184.162 182.381 186.64 179.538 189.2C181.01 185.886 182.398 181.596 181.491 178.183C180.17 173.216 173.971 168.528 167.914 171.357C160.364 174.9 166.168 179.731 171.611 184.261C174.39 186.574 177.076 188.809 177.84 190.754C168.805 199.152 161.089 208.481 155.931 219.106C150.322 230.66 145.111 246.185 147.98 259.108C147.452 253.425 149.728 246.289 151.326 241.277C151.544 240.594 151.749 239.951 151.933 239.357C154.334 231.583 157.744 224.02 162.236 216.94C169.43 205.6 178.93 195.973 189.897 187.231C192.392 187.965 195.102 189.325 197.347 190.451C198.723 191.142 199.925 191.745 200.794 192.062C204.987 193.59 213.039 195.778 215.713 190.96C218.343 186.221 211.639 183.575 207.484 182.515C203.469 181.492 199.848 181.618 196.101 182.459C201.905 178.108 207.851 173.896 213.796 169.683L213.797 169.683L213.811 169.673C214.9 168.902 215.988 168.13 217.076 167.358C218.586 168.405 220.253 169.917 222.023 171.523C227.642 176.62 234.299 182.659 240.251 177.72C249.232 170.268 232.068 162.704 224.753 163.298C223.855 163.37 222.986 163.531 222.139 163.749C229.601 158.393 236.949 152.927 243.897 147.077C245.144 147.268 247.127 148.818 249.51 150.679C254.864 154.863 262.235 160.622 267.793 156.082C271.805 152.806 270.435 147.705 266.561 144.79C262.671 141.863 257.029 141.87 252.234 142.859C250.161 143.284 248.248 144.095 246.465 145.083L246.351 145.088L246.243 145.093C253.081 139.275 259.961 133.327 266.588 127.177L266.707 127.209C266.784 127.23 266.862 127.251 266.941 127.273C267.341 127.688 268.011 127.839 268.625 127.747C268.964 127.845 269.31 127.946 269.662 128.048C274.907 129.577 281.649 131.541 286.878 130.691C290.727 130.064 294.22 127.418 290.964 124.164C288.318 121.517 281.133 121.9 277.628 122.529C275.918 122.836 274.056 123.725 272.188 124.617L272.187 124.617C271.403 124.991 270.617 125.366 269.84 125.699C269.639 125.355 269.287 125.135 268.887 125.029C275.431 118.848 281.675 112.454 287.339 105.782C289.052 106.005 290.952 106.641 292.911 107.296C297.626 108.873 302.686 110.565 306.32 106.914C311.686 101.523 301.603 98.382 296.809 98.896C295.19 99.0693 293.593 99.4578 292.052 99.9708C296.174 94.478 299.323 88.6074 301.537 82.4423C301.558 82.4514 301.578 82.4607 301.598 82.4701L301.598 82.4702C301.629 82.4849 301.66 82.4997 301.698 82.5138C301.665 82.4986 301.636 82.4827 301.607 82.4668C301.585 82.4551 301.563 82.4434 301.54 82.4321C301.761 81.8153 301.973 81.1957 302.175 80.5739C302.55 80.3975 302.9 80.2677 303.067 80.2142C300.888 81.4847 310.077 82.1019 311.798 82.2175C315.602 82.4726 320.699 82.5663 323.492 79.9303C325.837 77.716 325.702 74.4463 322.834 72.5955ZM147.41 258.598C147.578 260.324 148.078 261.899 149.061 263.19C148.339 261.714 147.798 260.178 147.41 258.598Z" fill="#C1DEE2"/>
<g opacity="0.7">
<path fill-rule="evenodd" clip-rule="evenodd" d="M780.821 435.77C794.474 435.062 811.358 443.031 812.815 457.871C813.873 468.653 813.545 479.405 815.182 490.172C816.492 498.776 819.261 507.036 823.038 514.874C826.669 522.411 834.203 528.827 836.162 536.879C837.411 542.01 836.712 549.227 834.99 554.245C832.895 560.347 834.008 559.865 838.181 564.985C846.359 575.018 853.722 585.307 858.929 597.29C866.43 614.55 871.347 634.725 868.563 653.618C868.209 656.017 867.789 664.627 864.486 665.229C860.796 665.902 862.521 660.978 862.718 659.387C863.974 649.238 865.089 640.367 863.575 630.059C857.731 590.288 829.2 564.085 810.623 530.331C809.602 528.59 807.446 524.445 805.947 521.711C803.58 517.393 801.201 509.179 797.997 505.977C791.963 499.947 797.51 512.071 798.686 514.385C800.172 517.313 801.808 520.425 803.331 522.99C810.301 534.882 818.081 547.862 825.28 560.121C794.146 567.214 772.22 529.785 763.866 505.178C756.982 484.905 748.746 437.505 780.821 435.77Z" fill="#69A1AC"/>
<path fill-rule="evenodd" clip-rule="evenodd" d="M963.805 398.121C940.983 399.932 926.331 414.992 919.511 436.056C915.835 447.407 915.413 459.068 913.37 470.734C910.298 488.284 903.686 501.585 890.764 514.089C886.762 517.961 883.812 521.937 881.716 526.191C877.554 530.438 873.931 535.244 871.269 541.12C867.869 548.624 866.907 557.628 870.832 565.109C871.888 567.121 874.521 571.158 877.25 572.992C867.033 594.752 861.415 618.584 862.048 642.386C862.431 656.753 863.132 671.127 863.951 685.477C864.171 689.33 865.426 695.693 867.31 689.231C869.035 683.32 866.872 674.041 866.672 667.867C865.698 637.786 864.866 610.435 877.248 582.331C878.547 579.385 879.924 576.463 881.357 573.565C881.442 573.516 881.52 573.457 881.599 573.4C881.653 573.442 881.703 573.487 881.758 573.529C881.849 573.365 881.975 573.171 882.121 572.954C882.532 572.529 882.891 571.993 883.233 571.395C884.331 569.873 885.574 568.084 885.581 567.105C885.581 567.098 885.577 567.086 885.577 567.078C893.242 554.565 902.022 542.742 910.99 531.149C910.923 531.234 920.718 517.897 919.204 525.272C918.474 528.827 911.269 535.595 908.359 539.36C901.922 547.735 894.363 558.348 888.082 568.61C887.237 569.096 886.043 571.48 885.179 573.257C884.702 574.157 884.257 575.064 883.82 575.855C906.077 583.208 923.39 568.396 935.196 551.168C935.21 551.147 935.223 551.126 935.236 551.106C938.829 546.346 942.509 541.619 947.107 537.856C954.777 531.576 962.992 530.468 972.036 527.378C996.7 518.951 1007.19 486.987 1010.52 463.27C1014.27 436.513 995.894 395.483 963.805 398.121Z" fill="#89C5CC"/>
<path fill-rule="evenodd" clip-rule="evenodd" d="M918.724 323.191C895.3 347.569 883.983 381.383 875.023 413.172C865.015 448.676 858.404 484.728 858.15 521.642C857.984 545.895 857.324 570.299 858.74 594.523C859.242 603.126 860.1 611.745 861.463 620.256C861.576 620.955 864.627 639.958 867.546 635.53C869.206 633.012 864.418 615.817 864.057 612.953C862.022 596.822 861.549 580.573 861.648 564.326C861.811 537.575 861.022 510.962 863.734 484.31C864.138 480.33 864.458 476.151 865.403 472.258C866.407 468.119 865.128 469.926 868.397 468.287C871.574 466.695 875.499 466.922 878.795 464.924C891.867 456.997 898.554 436.635 903.759 423.276C909.712 407.998 913.33 391.706 916.22 375.629C918.342 363.816 919.859 352.075 920.717 340.11C920.988 336.339 921.004 332.396 921.745 328.688C921.945 327.688 922.946 325.919 922.91 325.033C922.833 323.158 921.702 322.056 921.609 320.481C920.628 321.363 919.666 322.267 918.724 323.191Z" fill="#89C5CC"/>
<path fill-rule="evenodd" clip-rule="evenodd" d="M791 648C791 688.317 823.683 721 864 721C904.317 721 937 688.317 937 648" fill="#89C5CC"/>
<path fill-rule="evenodd" clip-rule="evenodd" d="M914.028 584.085C932.095 582.753 952.271 597.329 960.986 612.497C968.012 624.726 966.828 640.785 962.489 653.778C959.583 662.476 953.241 674.878 942.665 674.999C929.433 675.15 928.795 658.796 928.539 649.236C928.199 636.525 926.593 625.453 916.577 616.789C915.341 615.72 914.043 614.719 912.746 613.718C911.594 612.829 910.443 611.941 909.334 611.005C909.157 610.855 908.978 610.706 908.8 610.556C905.258 607.579 901.539 604.453 901.086 599.546C900.43 592.436 904.443 591.156 910.571 592.477C910.769 592.52 911.306 592.723 912.036 593C915.166 594.186 921.844 596.718 920.581 593.692C920.105 592.552 918.368 591.648 916.175 590.971C910.501 590.354 903.733 589.638 901.787 590.066C880.792 594.672 872.617 623.755 870.446 642.233C870.212 644.227 870.023 646.228 869.857 648.232H866C866.268 643.393 866.621 638.562 867.43 633.776C870.525 615.473 880.2 588.591 901.42 585.62C902.203 585.51 905.083 585.491 908.571 585.696C910.224 584.772 912.076 584.213 914.028 584.085Z" fill="#69A1AC"/>
</g>
<g opacity="0.5">
<path fill-rule="evenodd" clip-rule="evenodd" d="M200.223 302.445C204.425 296.453 212.224 281.235 218.138 279.094C221.948 277.715 220.837 291.98 220.884 294.7C221.067 305.224 220.043 315.681 218.778 326.116C216.498 344.937 209.045 361.697 198.822 377.715C193.562 385.957 187.391 394.3 178.845 399.442C174.912 401.811 170.179 402.207 166.294 404.248C161.769 406.623 164.233 404.703 162.194 409.417C159.363 415.963 158.457 424.408 157.147 431.392C151.132 463.455 136.568 632.945 139.093 665.558C139.317 668.449 135.287 669.14 135.085 665.611C134.016 646.9 143.27 517.322 147.94 474.947C152.609 432.571 157.334 395.134 162.071 380.474C167.819 362.687 178.199 341.298 186.84 324.711C190.854 317.006 195.229 309.565 200.223 302.445Z" fill="#69A1AC"/>
<path fill-rule="evenodd" clip-rule="evenodd" d="M231.414 510.278C242.349 502.25 254.186 517.401 244.29 525.43C238.82 529.868 233.101 528.29 229.882 524.591C227.792 527.139 225.836 529.803 223.956 532.052C218.229 538.909 212.817 545.928 207.644 553.111C196.898 568.035 187.689 583.801 178.06 599.278C168.558 614.554 159.132 629.908 150.519 645.571C143.223 658.841 133.498 674.452 131 689C134.79 658.146 149.172 628.49 166.298 601.291C183.285 574.314 202.779 544.853 229.081 523.564C226.404 519.627 226.33 514.008 231.414 510.278Z" fill="#C1DEE2"/>
<path fill-rule="evenodd" clip-rule="evenodd" d="M23.9132 435.031C30.0324 436.227 40.0312 450.07 45.0753 455.344C51.0699 461.612 56.5084 468.292 61.6349 475.292C72.6711 490.358 82.5411 506.376 90.9339 523.08C104.616 550.311 115.578 578.265 123.533 607.918C128.403 626.069 131.556 644.883 133.424 663.565C133.777 667.089 137.471 694.253 132.148 694.985C127.361 695.644 128.84 674.359 128.609 671.463C125.998 638.798 118.177 607.015 107.299 576.226C104.929 569.519 102.728 561.304 98.9381 555.268C96.2092 550.921 98.9186 552.437 94.1228 550.792C90.0049 549.378 85.3131 549.724 81.0963 547.993C71.9356 544.237 64.6006 536.944 58.1709 529.608C45.6758 515.351 35.774 499.928 30.6126 481.66C27.7495 471.532 25.1184 461.344 23.6583 450.902C23.2806 448.203 19.9718 434.26 23.9132 435.031Z" fill="#69A1AC"/>
<path fill-rule="evenodd" clip-rule="evenodd" d="M48.0614 204.716C71.1113 244.69 90.0528 288.601 102.283 333.076C109.694 360.023 114.876 387.675 120.025 415.126C127.997 457.632 135.538 500.134 137.683 543.395C139.841 586.906 144.108 637.092 129.861 679C136.978 636.452 130.202 591.162 129.002 548.35C128.429 527.912 126.768 507.674 124.588 487.355C122.473 467.645 119.018 448.029 115.801 428.474C114.234 418.95 112.588 409.441 110.912 399.937C110.411 397.101 110.2 388.687 108.401 386.75C106.591 384.8 97.3543 384.005 94.4544 382.574C88.6149 379.693 83.1221 375.6 78.2609 371.275C68.9418 362.984 60.8347 352.151 54.4359 341.472C39.6307 316.764 33.7116 286.61 34.0108 257.994C34.0682 252.438 43.0034 192.61 39.4149 191.786C39.631 191.533 39.8353 191.272 40.028 191C42.7448 195.549 45.4108 200.128 48.0614 204.716Z" fill="#89C5CC"/>
<path fill-rule="evenodd" clip-rule="evenodd" d="M296.846 348.887C297.202 348.374 299.517 344.807 298.351 345.035C300.724 344.57 295.087 348.969 301 346.27C298.192 348.922 299.813 352.366 299.85 355.935C299.911 361.73 298.942 367.476 297.851 373.146C296.126 382.109 293.557 390.823 289.828 399.159C281.701 417.326 267.901 434.814 251.518 446.172C243.43 451.779 235.504 453.689 226.28 456.27C220.453 457.901 219.991 460.915 216.898 466.569C210.46 478.345 204.136 490.078 198.457 502.251C191.677 516.788 185.095 531.34 178.886 546.132C157.969 595.957 140.945 647.578 132.005 701C131.786 669.519 139.069 637.095 148.255 607.088C154.947 585.226 163.658 564.151 172.95 543.29C175.201 538.236 178.613 531.735 179.57 526.155C180.239 522.245 178.192 518.486 177.255 514.367C173.601 498.33 173.863 480.363 177.071 464.24C180.609 446.461 190.839 438.209 208.145 435.691C214.474 434.769 222.519 435.107 228.322 432.408C234.645 429.47 237.253 419.81 240.849 413.61C250.506 396.953 261.98 380.979 275.155 366.945C278.803 363.059 282.726 359.473 286.888 356.15C289.513 354.053 295.058 351.47 296.846 348.887Z" fill="#89C5CC"/>
<path fill-rule="evenodd" clip-rule="evenodd" d="M97.845 672.729C97.3997 669.71 99.7396 667 102.791 667H164.209C167.26 667 169.6 669.71 169.155 672.729L164.408 704.918C162.961 714.73 154.541 722 144.622 722H122.378C112.459 722 104.039 714.73 102.592 704.918L97.845 672.729Z" fill="#C1DEE2"/>
</g>
<path fill-rule="evenodd" clip-rule="evenodd" d="M47.418 683.456C47.418 704.743 49.0979 722 71.6458 722C94.1938 722 95.8737 704.743 95.8737 683.456" fill="#F2F2F2"/>
<path fill-rule="evenodd" clip-rule="evenodd" d="M78.3534 670.174C77.5269 671.603 76.79 673.061 76.139 674.54C76.116 671.493 76.2845 668.424 76.7446 665.313C77.531 659.983 78.7322 654.682 79.8609 649.388C80.6721 645.584 80.6208 638.752 83.6994 635.72C84.5436 635.065 84.7468 636.351 84.7468 636.908C84.7575 637.026 84.7445 634.632 83.9251 635.049C79.0544 637.564 77.4763 645.474 75.9169 649.434C73.6418 655.215 71.7061 661.124 70.909 667.138C70.7076 668.657 70.598 670.176 70.5727 671.692C70.4071 671.287 70.2516 670.878 70.0796 670.474C67.2684 663.881 63.4747 657.447 58.7431 651.514C57.5784 650.054 42.9342 635.649 41.7878 637.854C41.9009 638.174 42.1377 638.44 42.4988 638.651C42.52 638.675 42.5206 638.662 42.5083 638.626C43.3683 640.016 45.8137 642.161 46.5754 643.379C48.4923 646.442 49.9821 649.693 51.4961 652.882C54.6948 659.622 57.6621 666.429 60.5386 673.25C61.2084 674.839 61.9065 676.419 62.6187 677.994C55.2769 667.405 45.4826 657.791 32 652.287C36.6049 654.63 39.624 659.037 42.7339 662.412C46.4846 666.483 50.4351 670.444 54.1929 674.51C58.6253 679.307 63.8405 684.358 68.1038 689.666C72.2333 698.336 76.2462 707.015 78.7234 716.128C77.7084 712.98 78.6438 708.628 78.4701 705.324C78.3322 702.693 78.0247 700.084 77.6035 697.48C78.1243 698.655 78.5732 699.83 78.7764 700.924C78.5908 699.09 78.377 697.268 78.1472 695.455C78.7369 693.758 79.316 692.175 79.7072 690.87C81.7118 684.179 84.0988 677.602 87.3495 671.193C90.3574 665.264 93.8077 659.41 97.5673 653.735C99.321 651.089 101.099 648.453 102.866 645.812C104.022 644.083 105.123 641.316 106.733 639.659C96.3261 649.174 84.956 658.757 78.3534 670.174Z" fill="#F2F2F2"/>
<path fill-rule="evenodd" clip-rule="evenodd" d="M980.634 123.828C977.651 113.877 970.647 106.088 963.376 98.9516C949.221 85.0588 941.608 76.4689 936.563 56.1462C933.596 44.194 930.576 31.5282 921.166 22.8567C914.314 16.5419 902.522 11.2364 893.359 15.7583C879.262 24.1723 875.476 41.4392 876.898 56.9007C878.66 76.0641 887.611 87.8802 904.808 94.9386C914.498 98.9139 920.939 104.159 926.199 113.299C930.406 120.608 932.859 129.76 938.146 136.385C946.051 146.289 955.942 150.692 968.135 149.047C956.715 128.035 943.372 106.826 927.279 89.1358C925.772 87.3572 916.887 80.5498 918.679 77.5187C920.653 74.1812 929.775 86.7181 929.71 86.6424C934.387 92.0109 938.715 97.7158 942.964 103.475C942.954 103.481 942.941 103.484 942.929 103.49C947.305 109.4 951.645 115.397 955.903 121.47C957.625 124.038 959.301 126.64 960.906 129.306C963.26 133.219 966.997 144.325 970.85 146.731C971.674 147.246 972.437 147.533 973.149 147.652C975.778 151.956 978.336 156.295 980.769 160.685C987.122 172.151 992.575 184.258 995.077 197.203C995.808 200.981 995.291 215.115 997.87 217.842C1002.59 222.831 1001.2 213.224 1000.92 210.324C998.58 186.311 989.959 165.852 977.442 145.664C981.287 140.642 981.843 127.86 980.634 123.828Z" fill="#F2F2F2"/>
<path fill-rule="evenodd" clip-rule="evenodd" d="M819.131 135.43C824.102 129.573 836.053 128.579 843.361 128.971C852.405 129.456 861.694 131.658 870.298 134.32C884.472 138.704 898.244 146.706 910.727 154.451C912.232 155.384 930.765 166.529 929.124 168.485C927.499 170.423 909.305 157.184 905.251 154.902C896.598 150.032 888.663 144.272 879.125 141.055C869.25 137.724 858.805 136.405 848.421 136.496C847.088 136.508 842.741 135.579 842.647 137.551C842.555 139.479 849.748 138.473 851.017 138.485C856.256 138.533 861.527 139.026 866.692 139.934C876.369 141.635 885.466 145.061 893.754 150.317C891.441 155.694 885.897 158.173 880.082 156.828C875.056 155.664 870.157 152.795 865.235 151.966C861.846 151.395 858.452 151.735 855.165 152.69C846.495 155.209 841.495 160.371 831.962 156.78C824.489 153.966 811.992 143.853 819.131 135.43Z" fill="#F2F2F2"/>
<path fill-rule="evenodd" clip-rule="evenodd" d="M797.753 41.0513C786.715 40.2462 774.388 49.0557 769.064 58.2232C764.772 65.6147 765.495 75.3207 768.146 83.1734C769.921 88.4307 773.796 95.9263 780.257 95.9994C788.341 96.0908 788.731 86.2066 788.887 80.4283C789.095 72.7462 790.076 66.054 796.195 60.8177C796.951 60.1715 797.744 59.5664 798.536 58.9614C799.24 58.4243 799.943 57.8873 800.621 57.3217C800.729 57.2313 800.838 57.1408 800.947 57.0501C803.111 55.251 805.383 53.3615 805.66 50.3961C806.061 46.0986 803.609 45.3252 799.865 46.1236C799.744 46.1493 799.416 46.2724 798.97 46.4397C797.058 47.1566 792.978 48.6865 793.749 46.8577C794.04 46.1686 795.102 45.6225 796.441 45.2134C799.908 44.8405 804.042 44.4078 805.231 44.6663C818.059 47.4502 823.053 65.0278 824.379 76.1957C824.529 77.4603 824.649 78.7292 824.754 80H827.105C826.941 77.0154 826.726 74.0357 826.222 71.0845C824.331 60.0223 818.42 43.7749 805.456 41.9794C804.977 41.9125 803.218 41.9012 801.087 42.0249C800.077 41.4665 798.945 41.1289 797.753 41.0513Z" fill="#F2F2F2"/>
</svg>
