<svg width="1046" height="722" viewBox="0 0 1046 722" fill="none" xmlns="http://www.w3.org/2000/svg">
<path fill-rule="evenodd" clip-rule="evenodd" d="M76.3866 551.604C99.428 462.519 332.58 513.269 485.432 485.729C638.284 458.188 819.12 329.926 938.801 392.755C1058.48 455.584 931.142 607.461 656.646 641.734C382.15 676.008 53.3452 640.688 76.3866 551.604Z" fill="#F2F2F2"/>
<g opacity="0.5">
<path fill-rule="evenodd" clip-rule="evenodd" d="M274.605 167.69C273.173 169.12 273.729 174.204 273.699 176.085C273.653 179.014 273.835 181.917 274.08 184.835C274.244 186.789 275.169 205.436 277.743 204.004C279.194 203.197 278.284 197.803 278.281 196.097C278.276 192.304 278.118 188.52 277.865 184.735C277.63 181.222 277.482 177.749 277.618 174.228C277.651 173.369 278.454 163.834 274.605 167.69Z" fill="#89C5CC"/>
<path fill-rule="evenodd" clip-rule="evenodd" d="M336.999 165.391C324.69 165.488 312.386 166.096 300.083 166.468C294.163 166.647 288.247 166.874 282.333 167.202C280.318 167.314 275.996 166.669 274.318 167.743C270.591 170.126 276.601 170.684 278.203 170.626C302.551 169.743 326.906 168.58 351.274 168.525C363.228 168.498 375.175 168.839 387.13 168.762C391.7 168.733 396.76 166.764 397.914 172.083C399.217 178.086 397.72 184.768 397.313 190.8C397.041 194.826 397.138 198.769 397.319 202.792C397.435 205.369 397.133 208.273 397.588 210.802C398.027 213.237 399.777 214.698 401.382 211.97C402.341 210.339 401.864 206.314 401.928 204.426C402.014 201.882 401.933 199.34 401.933 196.796C401.932 190.587 402.809 184.402 402.693 178.195C402.618 174.192 402.406 166.935 397.357 165.973C391.797 164.913 384.963 165.979 379.273 165.914C365.175 165.753 351.101 165.28 336.999 165.391Z" fill="#89C5CC"/>
<path fill-rule="evenodd" clip-rule="evenodd" d="M303.081 204.227C298.44 204.227 293.798 204.255 289.158 204.331C285.177 204.397 278.919 203.568 275.215 204.992C272.679 205.967 272.005 208.798 275.215 209.552C278.715 210.375 283.991 209.03 287.654 208.965C306.02 208.641 324.563 208.218 342.904 209.38C360.089 210.468 377.606 211.523 394.817 210.375C396.265 210.278 403.65 209.984 400.28 207.216C398.314 205.6 390.345 206.663 387.79 206.585C378.778 206.313 369.757 206.253 360.748 205.911C351.856 205.574 343.004 204.574 334.109 204.327C323.775 204.039 313.418 204.227 303.081 204.227Z" fill="#89C5CC"/>
<path fill-rule="evenodd" clip-rule="evenodd" d="M298.438 177.829C305.672 178.145 312.829 188.636 305.51 193.706C298.643 198.464 285.774 193.25 289.593 184.024C289.044 185.358 290.287 182.575 290.302 182.557C291.028 181.701 292.332 180.754 293.227 180.08C294.251 179.308 295.318 178.459 296.553 178.072C297.363 177.818 297.236 178.773 298.438 177.829ZM294.916 174.045C291.53 175.367 289.985 176.858 287.658 179.557C286.048 181.424 283.996 182.406 284.014 184.93C284.018 185.489 284.735 186.103 284.859 186.64C285.03 187.384 284.832 188.336 284.968 189.126C286.368 197.278 296.094 200.026 303.213 198.487C309.414 197.146 314.052 191.194 312.616 184.721C311.169 178.205 301.507 171.467 294.916 174.045Z" fill="#89C5CC"/>
<path fill-rule="evenodd" clip-rule="evenodd" d="M291.898 185.424C291.898 188.357 296.53 188.357 296.53 185.424C296.53 182.525 291.898 182.401 291.898 185.424Z" fill="#89C5CC"/>
<path fill-rule="evenodd" clip-rule="evenodd" d="M297.693 184.831C297.693 187.161 301.374 187.161 301.374 184.831C301.374 182.528 297.693 182.429 297.693 184.831Z" fill="#89C5CC"/>
<path fill-rule="evenodd" clip-rule="evenodd" d="M298.834 189.636C297.656 190.089 296.161 189.15 295.193 189.768C293.48 190.865 295.198 191.858 296.116 192.299C300.252 194.283 300.987 188.811 298.834 189.636Z" fill="#89C5CC"/>
<path fill-rule="evenodd" clip-rule="evenodd" d="M361.991 183.137C361.868 183.189 361.429 183.375 361.991 183.137V183.137ZM343.982 180.504C340.887 181.203 338.273 184.094 334.91 183.707C332.333 183.411 330.588 180.924 328.044 180.562C324.79 180.1 315.932 187.524 320.589 188.798C323.306 189.541 324.813 184.576 327.214 184.312C329.112 184.103 331.695 186.432 333.662 186.763C337.333 187.382 339.854 185.36 343.076 184.056C346.578 182.639 348.57 183.915 351.615 185.49C354.019 186.733 356.283 187.542 359.033 187.029C361.615 186.548 364.857 183.894 367.456 184.166C370.001 184.433 371.817 187.089 374.435 187.335C375.514 187.437 377.12 187.805 376.939 186.139C376.794 184.806 375.306 185.032 374.375 184.547C371.982 183.301 369.743 181.093 366.854 181.281C364.681 181.423 362.703 182.95 360.701 183.68C354.143 186.072 350.456 179.052 343.982 180.504Z" fill="#89C5CC"/>
<path fill-rule="evenodd" clip-rule="evenodd" d="M349.46 222.74C336.81 222.856 324.117 223.044 311.502 224.058C308.511 224.299 277.973 227.182 278.031 227.39C278.138 227.774 282.066 228.361 282.042 228.451C281.777 227.795 281.172 227.523 280.227 227.637C309.189 227.637 338.06 225.043 367.061 225.51C374.348 225.627 381.662 225.578 388.944 225.808C390.762 225.865 395.266 227.168 396.694 226.347C400.44 224.193 393.634 223.944 392.506 223.854C378.234 222.712 363.772 222.597 349.46 222.74Z" fill="#69A1AC"/>
<path fill-rule="evenodd" clip-rule="evenodd" d="M274.282 228.886C272.391 230.782 274.133 237.604 274.207 240.167C274.315 243.874 274.226 247.607 274.551 251.304C274.923 255.527 275.498 260.026 276.606 264.123C277.217 266.38 279.359 269.967 280.207 265.866C280.813 262.936 279.893 259.05 279.573 256.066C279.145 252.074 279.041 248.134 279.025 244.123C279.011 240.627 278.943 237.118 278.657 233.633C278.508 231.824 277.598 225.588 274.282 228.886Z" fill="#69A1AC"/>
<path fill-rule="evenodd" clip-rule="evenodd" d="M321.864 263.626C312.887 263.78 303.89 263.991 294.928 264.552C291.255 264.782 287.585 265.125 283.925 265.513C283.178 265.592 274.912 265.928 278.606 268.978C280.273 270.355 287.131 268.451 289.396 268.253C293.205 267.919 297.013 267.702 300.834 267.54C309.686 267.164 318.565 266.832 327.426 266.986C343.608 267.267 359.687 267.392 375.874 267.031C378.173 266.98 396.191 267.462 396.803 265.069C397.296 263.141 390.852 264.025 389.678 264.06C385.368 264.189 381.058 264.159 376.746 264.137C358.483 264.043 340.113 263.317 321.864 263.626Z" fill="#69A1AC"/>
<path fill-rule="evenodd" clip-rule="evenodd" d="M393.751 225.687C394.036 233.68 395.398 241.664 395.833 249.681C396.032 253.346 396.266 257.007 396.445 260.673C396.503 261.856 396.027 264.706 397.425 265.386C399.343 266.319 399.602 264.439 399.961 263.167C400.998 259.494 400.296 254.722 400.202 250.949C400.111 247.296 400.105 243.635 399.836 239.988C399.559 236.262 398.809 232.607 398.461 228.894C398.314 227.324 398.829 224.71 397.162 223.736C395.721 222.894 393.689 223.955 393.751 225.687Z" fill="#69A1AC"/>
<path fill-rule="evenodd" clip-rule="evenodd" d="M305.515 238.982C305.549 239.008 305.583 239.035 305.617 239.062C305.583 239.035 305.549 239.009 305.515 238.982ZM297.887 236.614C300.732 237.427 303.068 237.123 305.786 239.194C308.038 240.912 310.349 243.424 311.096 246.2C312.822 252.615 306.97 256.13 301.483 256.199C295.864 256.27 287.545 254.967 287.833 247.763C288.054 242.229 292.095 236.829 297.887 236.614ZM298.086 232.989C290.709 233.356 284.759 241.641 284.823 248.614C284.9 257.065 294.476 259.243 301.279 259.301C308.956 259.367 316.612 254.066 314.555 245.432C312.907 238.515 305.18 232.62 298.086 232.989Z" fill="#69A1AC"/>
<path fill-rule="evenodd" clip-rule="evenodd" d="M290.666 244.337C290.666 246.694 294.39 246.694 294.39 244.337C294.39 242.007 290.666 241.907 290.666 244.337Z" fill="#69A1AC"/>
<path fill-rule="evenodd" clip-rule="evenodd" d="M298.477 243.302C298.477 245.678 302.23 245.678 302.23 243.302C302.23 240.954 298.477 240.853 298.477 243.302Z" fill="#69A1AC"/>
<path fill-rule="evenodd" clip-rule="evenodd" d="M294.171 248.679C291.747 251.099 300.261 255.341 302.269 251.975C303.918 249.21 300.327 250.127 299.055 249.977C297.671 249.814 295.3 247.553 294.171 248.679Z" fill="#69A1AC"/>
<path fill-rule="evenodd" clip-rule="evenodd" d="M362.243 243.352C362.01 243.45 362.01 243.45 362.243 243.352V243.352ZM330.27 239.412C327.816 239.872 319.763 242.589 319.654 245.501C319.455 250.793 327.343 245.372 329.055 244.676C333.708 242.785 336.153 246.642 340.827 246.846C344.886 247.023 348.618 243.549 352.442 243.96C356.449 244.39 358.376 248.652 363.001 246.389C365.448 245.192 365.386 243.347 362.639 243.173C360.979 243.067 359.839 243.754 358.108 243.039C355.401 241.923 354.311 240.105 351.071 240.394C348.627 240.611 346.418 241.989 344.032 242.522C338.568 243.743 335.538 238.425 330.27 239.412Z" fill="#69A1AC"/>
<path fill-rule="evenodd" clip-rule="evenodd" d="M381.091 245.65C380.922 245.721 380.922 245.721 381.091 245.65V245.65ZM381.71 243.446C381.737 243.458 381.922 243.714 381.71 243.446V243.446ZM378.897 241.764C378.791 241.846 378.791 241.846 378.897 241.764V241.764ZM378.958 241.744C379.503 242.07 383.889 245.069 380.704 245.775C379.086 246.134 377.748 242.88 378.958 241.744ZM377.506 238.421C370.48 241.624 378.04 253.087 383.554 248.43C385.874 246.47 386.179 242.509 383.922 240.467C382.57 239.243 379.342 237.582 377.506 238.421Z" fill="#69A1AC"/>
<path fill-rule="evenodd" clip-rule="evenodd" d="M311.557 283.593C302.791 283.596 293.947 283.412 285.192 283.931C283.719 284.019 278.106 283.738 277.347 285.279C275.959 288.096 281.734 286.697 282.573 286.613C300.004 284.868 318.213 285.872 335.702 286.369C350.006 286.776 364.233 287.028 378.519 287.765C382.275 287.959 386.026 288.173 389.779 288.4C391.002 288.473 394.08 289.284 394.338 287.331C394.577 285.523 390.737 285.931 389.778 285.88C382.15 285.479 374.527 285.058 366.901 284.629C348.545 283.594 329.942 283.59 311.557 283.593Z" fill="#89C5CC"/>
<path fill-rule="evenodd" clip-rule="evenodd" d="M277.064 286.726C275.426 288.354 276.194 294.569 276.148 296.624C276.068 300.217 275.899 303.807 275.822 307.399C275.743 311.153 275.853 314.925 276.075 318.674C276.168 320.248 277.46 327.855 279.494 323.502C280.403 321.556 279.472 316.138 279.486 313.933C279.511 309.921 279.727 305.926 279.927 301.92C280.099 298.476 280.105 295.029 280.256 291.584C280.303 290.486 280.433 283.346 277.064 286.726Z" fill="#89C5CC"/>
<path fill-rule="evenodd" clip-rule="evenodd" d="M395.812 318.82C387.281 319.694 378.612 319.281 370.048 319.927C362.668 320.483 355.294 320.711 347.894 320.868C331.138 321.221 314.353 321.566 297.645 322.963C293.838 323.281 290.035 323.618 286.217 323.789C284.307 323.874 276.295 323.005 275.699 325.018C274.682 328.446 283.251 327.089 285.099 327.036C289.163 326.918 293.208 326.624 297.26 326.316C314.296 325.018 331.397 324.63 348.469 324.09C357.754 323.797 366.974 323.118 376.239 322.5C380.856 322.192 385.487 322.182 390.104 321.883C391.312 321.805 395.588 321.959 396.457 320.987C397.054 320.32 397.205 318.69 395.812 318.82Z" fill="#89C5CC"/>
<path fill-rule="evenodd" clip-rule="evenodd" d="M392.92 287.31C393.213 295.491 393.675 303.666 393.951 311.848C394.035 314.308 393.291 318.717 394.661 320.887C396.864 324.376 398.584 320.684 398.987 318.51C400.26 311.648 398.891 304.069 398.536 297.165C398.4 294.531 399.218 288.669 397.945 286.312C396.733 284.067 392.812 284.292 392.92 287.31Z" fill="#89C5CC"/>
<path fill-rule="evenodd" clip-rule="evenodd" d="M378.597 298.961C381.865 299.847 382.342 306.953 378.654 307.479C373.165 308.261 375.566 300.426 378.597 298.961ZM377.68 296.136C376.683 296.105 374.382 295.83 373.767 296.642C373.253 297.321 373.773 298.754 373.713 299.4C373.497 301.713 371.617 303.048 372.457 305.777C373.028 307.63 374.555 309.371 376.417 310.014C386.24 313.41 386.121 294.428 377.68 296.136Z" fill="#89C5CC"/>
<path fill-rule="evenodd" clip-rule="evenodd" d="M288.99 297.411C288.966 297.442 288.941 297.473 288.917 297.504C288.941 297.473 288.966 297.442 288.99 297.411ZM296.707 293.306C296.669 292.977 296.63 292.648 296.592 292.319C301.918 294.834 306.156 299.511 304.388 305.788C303.038 310.577 298.163 312.276 293.62 311.094C288.592 309.784 286.189 305.64 287.545 300.551C288.171 298.203 290.091 295.047 292.574 294.293C293.73 293.941 296.286 294.837 296.707 293.306ZM293.593 291.317C292.245 291.408 290.934 291.969 289.835 292.737C290.864 291.866 292.236 291.348 293.593 291.317ZM293.63 288.224C290.302 288.326 288.121 290.34 286.147 292.76C285.527 293.52 283.433 295.533 283.692 296.557C283.897 297.366 284.434 298.549 285.564 297.647C279.645 309.442 294.935 319.503 304.268 311.3C312.979 303.646 304.337 287.865 293.63 288.224Z" fill="#89C5CC"/>
<path fill-rule="evenodd" clip-rule="evenodd" d="M290.605 299.181C290.605 300.752 293.044 300.752 293.044 299.181C293.044 297.61 290.605 297.61 290.605 299.181Z" fill="#89C5CC"/>
<path fill-rule="evenodd" clip-rule="evenodd" d="M294.768 299.449C294.768 301.046 297.245 301.046 297.245 299.449C297.245 297.853 294.768 297.853 294.768 299.449Z" fill="#89C5CC"/>
<path fill-rule="evenodd" clip-rule="evenodd" d="M296.654 305.055C295.495 305.149 291.252 304.755 290.507 305.771C289.263 307.467 291.249 307.526 292.224 307.709C293.103 307.875 296.923 307.781 297.462 307.001C297.937 306.312 297.826 304.955 296.654 305.055Z" fill="#89C5CC"/>
<path fill-rule="evenodd" clip-rule="evenodd" d="M347.774 300.656C347.575 300.738 347.575 300.738 347.774 300.656V300.656ZM331.743 299.483C329.131 299.675 326.919 301.177 324.422 301.777C321.756 302.417 320.603 301.239 318.179 300.469C315.658 299.668 313.864 299.984 311.838 301.706C310.69 302.682 308.171 304.928 308.888 306.661C310.532 310.628 314.251 304.173 316.001 303.873C318.73 303.405 321.158 305.791 324.306 305.109C327.158 304.491 329.688 302.532 332.667 302.511C335.158 302.493 337.505 303.856 339.964 304.186C343.718 304.69 346.183 303.357 349.654 302.367C352.663 301.509 354.773 302.641 357.604 303.592C358.897 304.027 363.214 305.609 362.419 302.741C362.195 301.931 356.506 300.483 355.625 300.205C352.515 299.222 350.545 299.605 347.583 300.735C345.112 301.677 343.034 302.136 340.385 301.617C337.467 301.046 334.813 299.25 331.743 299.483Z" fill="#89C5CC"/>
</g>
<g opacity="0.5">
<path fill-rule="evenodd" clip-rule="evenodd" d="M451.917 167.999C452.339 158.93 452.918 149.874 453.224 140.799C453.375 136.303 453.494 131.806 453.608 127.308C453.634 126.307 453.66 125.306 453.682 124.304C453.757 120.902 453.353 120.624 456.777 120.322C472.051 118.974 487.386 118.527 502.678 117.307C521.121 115.836 539.661 114.82 558.156 114.365C566.375 114.162 574.629 113.742 582.849 113.998C584.671 114.054 588.246 113.58 588.963 114.996C589.272 115.608 588.623 117.712 588.54 118.418C588.282 120.623 588.042 122.835 587.894 125.051C587.019 138.119 587.54 151.517 590.071 164.387C584.135 161.04 576.635 158.161 569.716 158.732C562.662 159.315 557.386 163.39 551.74 167.141C548.546 169.263 547.47 169.821 544.284 167.765C541.538 165.994 538.941 163.969 536.35 161.981C532.353 158.913 528.58 155.587 524.703 152.371C517.575 146.458 507.755 138.041 497.911 140.519C490.877 142.29 484.383 146.156 478.278 149.939C469.208 155.559 460.998 162.442 451.917 167.999ZM574.156 109.97C539.113 109.97 504.332 113.367 469.388 115.205C465.738 115.396 462.101 115.679 458.465 116.03C456.041 116.264 450.114 115.281 448.526 117.352C447.466 118.734 448.377 118.941 448.526 120.254C448.714 121.909 448.602 123.869 448.554 125.62C448.437 129.839 448.314 134.059 448.219 138.278C447.857 154.227 447.631 170.173 448.276 186.118C448.417 189.595 449.684 194.41 448.991 197.789C448.489 200.235 446.812 201.724 450.681 202.176C454.488 202.621 459.144 201.489 462.954 201.127C466.787 200.762 470.619 200.366 474.457 200.05C491.141 198.675 507.987 198.883 524.715 198.426C541.594 197.965 558.478 197.935 575.363 197.926C582.427 197.922 590.5 198.319 597.393 196.375C599.818 195.691 600.21 195.354 599.613 192.948C599.499 192.491 598.767 192.322 598.552 191.497C598.26 190.374 598.41 189.009 598.341 187.84C598.118 184.022 598.04 180.197 597.86 176.376C597.56 169.992 596.46 163.797 595.646 157.477C594.707 150.179 594.755 142.769 594.736 135.423C594.725 131.348 594.83 127.287 595.157 123.224C595.367 120.618 596.65 116.727 595.999 114.297C595.675 113.086 595.144 112.127 593.885 111.606C593.087 111.276 592.416 111.534 591.627 111.451C590.692 111.351 590.108 111.22 588.987 110.966C584.185 109.878 579.049 109.97 574.156 109.97Z" fill="#B36EA2"/>
<path fill-rule="evenodd" clip-rule="evenodd" d="M554.764 127.32C554.761 129.86 554.365 133.608 555.536 135.999C557.021 139.033 558.879 138.085 559.371 135.234C559.653 133.601 559.646 128.767 559.121 127.32C558.379 125.273 554.764 123.878 554.764 127.32Z" fill="#89C5CC"/>
<path fill-rule="evenodd" clip-rule="evenodd" d="M559.025 128.301C556.641 128.386 549.697 127.813 548.084 129.73C545.317 133.019 550.134 133.601 552.202 133.417C554.596 133.204 561.992 133.723 563.595 131.804C566.277 128.593 560.9 128.233 559.025 128.301Z" fill="#89C5CC"/>
<path fill-rule="evenodd" clip-rule="evenodd" d="M466.498 213.147C476.98 214.968 473.719 230.95 463.801 227.248C460.345 225.958 455.253 222.231 457.163 217.839C458.59 214.558 463.24 212.834 466.498 213.147ZM462.159 208.178C455.342 209.326 450.681 216.703 453.019 223.138C455.273 229.346 463.826 233.892 470.133 231.661C476.154 229.531 479.158 221.52 477.128 215.659C475.007 209.536 468.097 207.178 462.159 208.178Z" fill="#89C5CC"/>
<path fill-rule="evenodd" clip-rule="evenodd" d="M525.916 215.016C523.306 215.232 521.051 217.059 518.425 217.383C515.969 217.685 513.934 216.845 511.635 216.174C508.856 215.362 506.308 215.005 503.468 215.726C501.298 216.278 499.157 217.754 496.903 217.932C492.467 218.283 487.312 213.222 483.849 218.946C482.189 221.69 484.599 223.458 487.083 222.178C489.671 220.844 488.4 220.366 491.612 221.154C494.291 221.811 496.456 222.168 499.14 221.247C501.572 220.413 503.706 218.887 506.348 218.716C508.935 218.548 511.186 219.727 513.659 220.235C516.7 220.86 519.391 220.387 522.273 219.434C525.014 218.527 526.107 218.031 528.873 218.84C530.625 219.352 534.451 220.98 536.155 219.668C539.103 217.401 535.157 217.07 533.603 216.747C531.101 216.229 528.512 214.803 525.916 215.016Z" fill="#89C5CC"/>
<path fill-rule="evenodd" clip-rule="evenodd" d="M585.639 213.493C585.66 213.509 585.681 213.525 585.701 213.541C585.681 213.525 585.66 213.509 585.639 213.493ZM583.076 212.957C586.886 213.202 591.006 220.143 585.958 220.389C582.404 220.563 578.429 214.485 583.076 212.957ZM582.542 207.278C570.494 210.642 576.002 227.627 587.622 225.665C592.9 224.774 594.689 218.658 592.944 214.132C592.195 212.188 590.734 210.548 588.988 209.43C587.699 208.604 584.014 206.867 582.542 207.278Z" fill="#89C5CC"/>
<path fill-rule="evenodd" clip-rule="evenodd" d="M526.335 242.736C536.936 242.372 547.538 242.008 558.151 241.91C563.902 241.857 569.622 241.957 575.365 242.287C577.912 242.433 580.458 242.574 583.007 242.682C583.446 242.7 584.053 242.67 584.724 242.637C586.302 242.56 588.228 242.465 589.134 242.944C594.204 245.626 583.875 245.92 582.619 245.899C579.808 245.852 576.999 245.713 574.19 245.574C571.735 245.453 569.28 245.331 566.823 245.271C551.059 244.884 535.199 245.592 519.408 246.297C515.788 246.459 512.172 246.62 508.562 246.769C504.728 246.926 500.896 247.028 497.064 247.129L497.064 247.129L497.064 247.129C491.585 247.275 486.108 247.42 480.63 247.728C478.538 247.846 476.447 247.97 474.355 248.095C471.359 248.273 468.363 248.451 465.366 248.609C463.02 248.733 460.672 248.853 458.323 248.912C457.9 248.923 457.349 248.982 456.747 249.046C455.29 249.201 453.537 249.388 452.591 249.001C451.452 248.535 450.53 247.884 451.157 246.504C451.686 245.337 453.611 245.477 455.014 245.579C455.397 245.607 455.742 245.632 456.008 245.626C460.493 245.539 464.968 245.288 469.445 245.014C471.082 244.913 472.72 244.81 474.356 244.707L474.357 244.707L474.357 244.707C482.879 244.171 491.394 243.636 499.938 243.49C508.74 243.34 517.537 243.038 526.335 242.736ZM581.704 312.51L584.752 312.473C586.326 312.61 587.03 314.262 586.019 315.532C585.245 316.504 582.268 316.548 580.327 316.577C579.789 316.585 579.331 316.592 579.021 316.617C573.954 317.024 568.897 317.207 563.815 317.256C553.112 317.357 542.45 317.816 531.765 318.426C520.827 319.049 509.88 319.284 498.933 319.518H498.933L498.932 319.518C490.878 319.691 482.824 319.863 474.773 320.191C470.162 320.378 465.551 320.519 460.938 320.639C460.442 320.652 459.783 320.724 459.037 320.804L459.037 320.804C456.124 321.119 451.89 321.576 450.93 319.262C450.079 317.208 451.262 316.263 452.993 315.833C452.719 314.617 452.77 312.908 452.799 311.929C452.808 311.635 452.815 311.407 452.81 311.278C452.766 310.05 452.736 308.822 452.706 307.595C452.671 306.204 452.637 304.813 452.583 303.422C452.535 302.161 452.49 300.897 452.444 299.633C452.266 294.649 452.087 289.652 451.703 284.687C451.526 282.396 451.246 280.132 450.965 277.871C450.517 274.261 450.071 270.661 450.05 266.976C450.047 266.313 450.014 265.484 449.976 264.549C449.785 259.765 449.482 252.201 452.452 249.898C457.688 246.843 456.653 255.662 456.191 259.598C456.115 260.248 456.054 260.765 456.04 261.073C455.739 267.618 456.147 273.875 456.806 280.378C457.25 284.771 456.991 289.148 456.731 293.533C456.638 295.099 456.545 296.666 456.484 298.235C456.454 299.011 456.427 299.787 456.4 300.562C456.318 302.95 456.235 305.335 456.055 307.719C456.036 307.977 456.03 308.472 456.021 309.104C455.998 310.887 455.96 313.763 455.579 315.509C456.391 315.474 457.179 315.482 457.831 315.49H457.831C458.246 315.494 458.606 315.498 458.88 315.49C460.13 315.452 461.379 315.415 462.628 315.379C466.321 315.271 470.014 315.162 473.707 315.023C482.422 314.696 491.14 314.586 499.858 314.477C510.154 314.347 520.451 314.218 530.743 313.729C547.704 312.923 564.724 312.716 581.704 312.51ZM584.85 248.524C584.841 259.736 585.708 270.64 586.721 281.806C587.347 288.713 587.85 295.647 588.249 302.571C588.268 302.892 588.265 303.427 588.262 304.097V304.097C588.241 307.926 588.198 316.177 591.982 314.203C594.839 312.713 593.741 304.072 593.133 299.29C593 298.242 592.89 297.378 592.851 296.817C592.768 295.621 592.686 294.425 592.604 293.23L592.604 293.227C592.224 287.677 591.843 282.132 591.343 276.588L591.237 275.418C590.657 269.015 590.078 262.616 589.976 256.182C589.967 255.65 590.018 254.909 590.076 254.072V254.072C590.243 251.65 590.466 248.424 589.46 247.138C588.045 245.328 584.853 245.863 584.85 248.524Z" fill="#69A1AC"/>
<path fill-rule="evenodd" clip-rule="evenodd" d="M526.819 276.01C540.361 269.883 554.06 263.685 568.141 259.272C569.158 258.954 569.802 260.003 569.571 260.884C569.333 261.791 567.13 262.566 565.669 263.079C565.232 263.233 564.861 263.363 564.63 263.466C562.663 264.345 560.691 265.212 558.719 266.08C556.7 266.968 554.68 267.857 552.666 268.757C548.478 270.628 544.287 272.491 540.095 274.354C535.606 276.349 531.117 278.344 526.632 280.349C526.462 280.425 526.292 280.501 526.122 280.577C532.219 282.744 538.282 285.008 544.318 287.34C546.381 288.137 548.437 288.95 550.492 289.764C551.656 290.224 552.819 290.684 553.983 291.141C554.362 291.29 555.022 291.492 555.816 291.734C558.401 292.523 562.4 293.744 562.695 294.978C563.176 296.987 557.655 295.043 555.572 294.31C555.296 294.213 555.08 294.137 554.947 294.094C551.873 293.112 548.836 292.017 545.801 290.923L545.381 290.772C542.975 289.905 540.573 289.029 538.171 288.153C533.478 286.442 528.786 284.731 524.069 283.089C523.402 282.857 522.734 282.626 522.066 282.395C514.495 285.796 506.94 289.229 499.408 292.717C495.37 294.587 491.354 296.501 487.348 298.441C486.474 298.864 485.391 299.518 484.215 300.229C481.396 301.933 478.041 303.961 475.733 303.91C474.495 303.883 473.661 303.618 473.532 302.117C473.399 300.569 475.385 299.757 476.813 299.174C477.155 299.034 477.465 298.907 477.706 298.787C481.987 296.646 486.295 294.559 490.615 292.498C499.195 288.405 507.855 284.476 516.546 280.626C516.596 280.604 516.646 280.581 516.696 280.559C511.875 278.928 507.042 277.336 502.198 275.777C501.714 275.621 500.723 275.347 499.419 274.986C493.261 273.28 480.143 269.647 480.727 267.525C481.396 265.097 493.695 269.534 499.14 271.499C500.16 271.867 500.94 272.148 501.357 272.281C507.867 274.356 514.359 276.489 520.817 278.719C522.815 277.821 524.815 276.916 526.819 276.01Z" fill="#89C5CC"/>
<path fill-rule="evenodd" clip-rule="evenodd" d="M468.799 329.328C472.763 330.023 475.559 333.825 475.124 337.807C474.536 343.187 469.174 345.653 464.22 344.951C458.599 344.155 457.417 339.403 460.14 334.832C460.743 333.82 461.436 332.609 462.532 332.076C463.286 331.709 464.246 332.033 464.852 331.738C466.98 330.703 465.701 329.053 468.799 329.328ZM466.994 325.814C462.157 326.432 453.22 332.028 453.673 337.628C454.065 338.277 454.656 338.543 455.444 338.425C455.254 339.638 455.316 340.838 455.629 342.026C456.088 343.567 457.005 344.83 458.233 345.834C460.762 347.901 464.22 348.408 467.37 348.046C473.251 347.369 477.886 343.35 478.216 337.233C478.539 331.263 473.327 325.014 466.994 325.814Z" fill="#89C5CC"/>
<path fill-rule="evenodd" clip-rule="evenodd" d="M490.42 333.1C488.25 334.25 484.817 336.017 483.544 338.201C482.199 340.508 483.592 343.033 486.424 341.941C488.673 341.075 490.103 338.322 492.502 337.44C494.619 336.661 495.472 337.058 497.709 337.833C500.015 338.632 502.03 339.404 504.522 339.208C507.654 338.962 510.367 337.146 513.432 336.732C516.014 336.384 518.142 337.389 520.615 337.788C523.483 338.252 525.358 337.166 528.041 336.601C529.867 336.216 533.084 337.781 534.415 337.196C537.409 335.88 534.242 334.27 532.585 333.739C529.793 332.843 528.075 333.633 525.42 334.376C522.537 335.182 521.292 334.576 518.536 333.836C512.961 332.338 508.654 335.96 503.369 335.301C498.476 334.692 495.548 330.385 490.42 333.1Z" fill="#89C5CC"/>
<path fill-rule="evenodd" clip-rule="evenodd" d="M581.586 330.424C586.953 335.456 580.924 342.614 575.007 338.593C572.924 337.178 572.891 334.904 574.512 332.871C575.994 331.011 579.251 330.285 581.586 330.424ZM579.598 326.359C574.584 327.334 569.855 329.635 569.401 335.421C568.958 341.067 574.749 343.689 579.614 343.319C590.536 342.487 589.747 324.397 579.598 326.359Z" fill="#89C5CC"/>
</g>
<path opacity="0.5" fill-rule="evenodd" clip-rule="evenodd" d="M794.675 101.936C788.454 102.026 773.09 103.725 770.806 109.25C769.072 113.445 774.222 112.524 776.983 110.998C780.717 108.934 783.991 107.699 788.618 107.071C806.244 104.677 823.179 113.26 840.636 114.346C847.248 114.757 855.228 115.025 861.542 113.417C866.038 112.272 866.625 109.776 861.494 109.396C857.134 109.073 852.31 110.091 847.84 110.062C829.346 109.943 812.905 101.675 794.675 101.936Z" fill="#C1DEE2"/>
<g opacity="0.5">
<path fill-rule="evenodd" clip-rule="evenodd" d="M276.974 364.148C269.301 364.234 261.632 364.517 253.974 365.002C246.691 365.463 238.79 365.113 231.626 366.525C229.592 366.925 226.844 368.78 229.549 370.819C231.45 372.252 238.405 370.603 240.676 370.464C249.036 369.95 257.401 369.334 265.774 369.039C273.7 368.758 281.626 368.66 289.556 368.581C290.766 368.569 292.776 368.18 293.982 368.532C295.714 369.037 295.303 369.175 295.433 371.373C295.668 375.358 295.603 379.356 295.524 383.344C295.447 387.203 295.305 391.061 295.319 394.922C295.328 397.677 294.448 403.15 295.83 405.542C297.819 408.985 299.883 405.246 300.032 402.958C300.317 398.581 300.189 394.151 300.19 389.77C300.191 385.657 300.221 381.544 300.076 377.433C299.971 374.463 300.395 369.28 298.795 366.58C297.166 363.831 293.243 364.424 290.381 364.293C285.916 364.087 281.443 364.102 276.974 364.148Z" fill="#89C5CC"/>
<path fill-rule="evenodd" clip-rule="evenodd" d="M228.153 369.112C228.162 376.84 227.268 384.516 227.017 392.235C226.902 395.784 226.669 399.681 227.567 403.165C228.473 406.682 231.352 407.444 231.683 403.517C232.355 395.565 232.19 387.319 232.713 379.304C232.897 376.473 234.098 371.287 232.977 368.637C231.99 366.302 228.149 365.855 228.153 369.112Z" fill="#89C5CC"/>
<path fill-rule="evenodd" clip-rule="evenodd" d="M300.107 403.175C286.781 404.939 272.851 404.295 259.43 404.573C252.991 404.706 246.554 404.714 240.114 404.781C237.866 404.805 232.159 403.95 230.215 405.213C227.12 407.225 230.478 408.776 232.527 408.821C245.235 409.099 258.085 408.515 270.791 408.098C276.499 407.911 282.226 407.819 287.92 407.334C291.425 407.035 295.255 406.746 298.659 405.804C299.384 405.603 300.963 405.645 301.126 404.655C301.226 404.044 301.044 403.045 300.107 403.175Z" fill="#89C5CC"/>
<path fill-rule="evenodd" clip-rule="evenodd" d="M244.697 414.407C240.993 414.429 229.833 412.709 228.299 416.32C226.254 421.137 234.231 420.012 236.376 419.957C241.249 419.832 246.118 419.819 250.992 419.821C255.774 419.823 260.555 419.792 265.337 419.679C266.722 419.645 269.946 420.22 270.743 418.552C271.349 417.284 270.87 416.284 269.753 415.613C267.066 413.998 260.084 414.935 256.937 414.789C252.863 414.602 248.776 414.407 244.697 414.407Z" fill="#89C5CC"/>
<path fill-rule="evenodd" clip-rule="evenodd" d="M289.75 415.299C287.633 415.424 283.352 414.552 281.456 415.52C279.301 416.621 280.06 418.345 281.921 419.103C283.209 419.627 288.495 419.352 289.75 418.745C291.058 418.111 292.538 415.127 289.75 415.299Z" fill="#89C5CC"/>
<path fill-rule="evenodd" clip-rule="evenodd" d="M312.958 369.869C310.697 370.489 311.383 383.323 311.325 385.357C311.165 390.932 310.538 397.942 312.391 403.311C313.572 406.733 315.84 406.269 315.454 402.666C315.114 399.504 314.532 396.378 314.28 393.195C313.71 385.993 312.934 378.31 313.473 371.102C313.702 371.521 315.846 375.406 316.351 375.116C316.199 375.206 313.878 369.626 312.958 369.869Z" fill="#89C5CC"/>
<path fill-rule="evenodd" clip-rule="evenodd" d="M338.384 365.143C333.81 365.211 329.235 365.292 324.661 365.419C321.025 365.52 315.311 364.922 311.976 366.452C308.005 368.273 309.889 372.331 313.619 372.417C316.918 372.493 320.437 371.749 323.766 371.635C332.759 371.327 341.768 371.261 350.765 371.184C358.902 371.114 367.384 371.982 375.45 370.76C376.646 381.383 373.411 392.051 374.511 402.796C374.682 404.464 374.605 406.82 376.729 407.2C379.409 407.68 379.52 405.025 379.621 403.124C379.912 397.696 379.754 392.264 380.152 386.829C380.52 381.792 381.245 376.644 380.632 371.6C379.879 365.392 376.904 365.89 371.646 365.632C360.54 365.087 349.503 364.98 338.384 365.143Z" fill="#89C5CC"/>
<path fill-rule="evenodd" clip-rule="evenodd" d="M323.053 402.864C320.722 402.923 316.85 402.204 315.357 404.44C313.803 406.765 315.646 408.794 317.906 409.271C320.581 409.836 324.069 409.062 326.845 409.053C329.736 409.045 332.628 409.077 335.519 409.088C347.914 409.137 360.362 409.325 372.748 408.812C374.478 408.741 379.387 409.321 380.584 407.662C381.647 406.19 380.903 404.87 379.504 404.12C377.209 402.89 372.494 403.358 369.941 403.26C366.787 403.14 363.63 403.101 360.475 403.052C348.022 402.86 335.505 402.556 323.053 402.864Z" fill="#89C5CC"/>
<path fill-rule="evenodd" clip-rule="evenodd" d="M333.539 413.615C328.9 413.694 323.951 413.491 319.359 414.194C315.321 414.813 314.824 418.716 319.171 419.173C323.165 419.593 328.008 418.808 332.022 418.55C333.448 418.459 335.106 418.589 335.789 417.013C336.502 415.366 335.139 413.787 333.539 413.615Z" fill="#89C5CC"/>
<path fill-rule="evenodd" clip-rule="evenodd" d="M368.605 414.025C366.129 414.086 358.897 413.022 357.671 415.849C355.63 420.557 365.419 418.769 367.297 418.699C369.664 418.612 378.889 419.995 378.892 416.226C378.894 412.531 370.872 413.968 368.605 414.025Z" fill="#89C5CC"/>
<path fill-rule="evenodd" clip-rule="evenodd" d="M227.754 437.418C227.76 445.983 227.227 454.627 228.008 463.17C228.331 466.703 228.276 473.471 230.322 476.467C231.775 478.593 233.79 478.444 234.583 475.891C235.114 474.184 234.265 470.771 234.171 468.945C234.08 467.193 233.973 465.441 233.892 463.689C233.684 459.173 233.7 454.665 233.762 450.147C233.816 446.272 234.749 441.145 233.869 437.418C233.049 433.945 227.754 433.133 227.754 437.418Z" fill="#A45992"/>
<path fill-rule="evenodd" clip-rule="evenodd" d="M313.826 429.884C298.967 430.257 284.075 429.924 269.23 430.659C261.908 431.022 254.616 431.818 247.331 432.612C243.752 433.003 240.175 433.405 236.603 433.845C235.524 433.978 226.566 434.325 229.935 437.732C231.407 439.22 236.089 437.666 237.941 437.447C241.528 437.023 245.122 436.654 248.714 436.274C255.55 435.551 262.394 434.866 269.258 434.486C285.425 433.591 301.658 433.859 317.841 433.262C322.219 433.101 326.583 432.985 330.963 433.157C332.113 433.203 340.563 433.632 336.894 430.511C335.159 429.035 328.618 429.797 326.45 429.752C322.242 429.665 318.032 429.778 313.826 429.884Z" fill="#A45992"/>
<path fill-rule="evenodd" clip-rule="evenodd" d="M334.081 444.314C334.007 440.356 333.934 436.399 333.754 432.446C333.564 428.283 339.235 427.652 340.917 431.022C342.128 433.448 341.915 437.577 341.733 441.115C341.659 442.541 341.591 443.871 341.622 444.955C341.695 447.441 341.877 450.01 342.063 452.614C342.529 459.166 343.01 465.935 341.785 472.12C341.19 475.126 338.654 476.706 336.967 475.067C336.964 475.071 336.962 475.074 336.96 475.078C336.325 476.013 334.349 476.011 332.894 476.01C332.493 476.009 332.131 476.009 331.849 476.028C327.862 476.299 323.949 476.756 319.997 477.349C312.124 478.529 304.319 479.254 296.36 479.451C290.96 479.585 285.553 479.629 280.143 479.674C269.786 479.76 259.423 479.846 249.098 480.555C245.617 480.794 242.189 481.204 238.765 481.859C238.473 481.915 238.15 481.987 237.805 482.064C235.259 482.63 231.573 483.449 231.322 479.891C231.022 475.668 240.175 475.115 244.884 474.831C245.603 474.787 246.219 474.75 246.681 474.707C260.982 473.377 275.507 473.583 289.869 473.787C290.565 473.797 291.26 473.806 291.955 473.816C293.076 473.832 294.196 473.85 295.317 473.869C301.466 473.97 307.607 474.071 313.754 473.695C316.552 473.524 319.385 473.436 322.225 473.348C326.754 473.207 331.297 473.067 335.727 472.587C335.059 469.996 334.942 466.939 334.832 464.058C334.789 462.936 334.747 461.841 334.674 460.811C334.285 455.319 334.183 449.816 334.081 444.314Z" fill="#A45992"/>
<path fill-rule="evenodd" clip-rule="evenodd" d="M346.107 435.495C344.1 435.768 342.426 437.486 343.322 439.665C344.451 442.409 347.813 441.337 350.034 441.163C357.093 440.61 364.463 441.715 371.437 440.881C373.341 440.654 376.105 439.616 374.395 437.057C373.109 435.134 368.426 435.471 366.435 435.287C359.627 434.657 352.907 434.825 346.107 435.495Z" fill="#C1DEE2"/>
<path fill-rule="evenodd" clip-rule="evenodd" d="M358.021 447.466C355.283 447.65 348.91 447.505 347.756 450.62C345.687 456.208 353.793 454.239 356.261 453.921C359.128 453.552 365.886 454.541 367.413 451.76C370.143 446.789 360.422 447.3 358.021 447.466Z" fill="#C1DEE2"/>
<path fill-rule="evenodd" clip-rule="evenodd" d="M350.983 459.729C349.684 461.029 349.682 463.349 350.983 464.648C352.575 466.239 356.045 465.909 358.137 466.025C361.056 466.188 369.438 467.731 370.887 464.295C372.842 459.658 365.252 459.755 362.755 459.492C359.87 459.188 353.374 457.337 350.983 459.729Z" fill="#C1DEE2"/>
<path fill-rule="evenodd" clip-rule="evenodd" d="M248.674 380.359C248.674 385.344 256.46 385.344 256.46 380.359C256.46 375.401 248.674 375.326 248.674 380.359Z" fill="#89C5CC"/>
<path fill-rule="evenodd" clip-rule="evenodd" d="M263.441 380.416C263.441 386.115 272.31 386.104 272.31 380.416C272.31 374.737 263.441 374.679 263.441 380.416Z" fill="#89C5CC"/>
<path fill-rule="evenodd" clip-rule="evenodd" d="M254.507 387.993C250.196 389.183 254.167 392.836 256.169 393.671C259.35 394.997 263.692 395.975 266.874 393.986C268.14 393.195 269.168 392.143 268.24 390.607C267.251 388.972 265.898 389.699 264.393 389.85C262.486 390.042 260.945 390.012 259.104 389.401C257.73 388.945 256.006 387.58 254.507 387.993Z" fill="#89C5CC"/>
<path fill-rule="evenodd" clip-rule="evenodd" d="M332.701 380.674C332.701 384.046 337.937 384.046 337.937 380.674C337.937 377.303 332.701 377.303 332.701 380.674Z" fill="#89C5CC"/>
<path fill-rule="evenodd" clip-rule="evenodd" d="M344.281 381.182C344.281 384.928 350.098 384.928 350.098 381.182C350.098 377.435 344.281 377.436 344.281 381.182Z" fill="#89C5CC"/>
<path fill-rule="evenodd" clip-rule="evenodd" d="M343.849 389.312C340.794 389.706 331.957 390.601 331.463 394.367C330.7 400.178 340.382 395.475 342.592 395.019C345.407 394.438 347.92 394.59 350.73 394.703C352.273 394.764 354.325 395.014 354.163 392.664C353.898 388.805 346.52 388.97 343.849 389.312Z" fill="#89C5CC"/>
<path fill-rule="evenodd" clip-rule="evenodd" d="M267.03 442.893C264.816 443.484 261.919 447.313 263.442 449.655C265.941 453.498 267.043 447.598 268.088 447.03C269.991 445.997 271.535 449.773 273.523 447.792C276.66 444.667 269.005 442.364 267.03 442.893Z" fill="#69A1AC"/>
<path fill-rule="evenodd" clip-rule="evenodd" d="M292.405 440.052C289.779 440.076 284.235 443.795 283.842 446.54C283.609 448.171 284.69 449.739 286.449 449.761C288.843 449.79 289.604 446.676 291.68 446.025C293.919 445.323 293.587 446.94 295.52 447.778C296.935 448.392 298.705 448.135 299.197 446.395C300.124 443.114 295.104 440.001 292.405 440.052Z" fill="#69A1AC"/>
<path fill-rule="evenodd" clip-rule="evenodd" d="M272.302 455.773C268.102 458.234 275.013 463.51 277.41 464.17C281.027 465.166 288.307 463.308 289.165 458.889C289.506 457.13 288.406 455.537 286.465 455.852C284.867 456.111 283.842 458.116 282.362 458.834C280.364 459.803 278.588 459.737 276.89 458.278C275.507 457.09 274.766 454.335 272.302 455.773Z" fill="#69A1AC"/>
<path fill-rule="evenodd" clip-rule="evenodd" d="M275.347 492.144C271.594 492.944 267.779 492.407 264.008 493.159C260.163 493.927 257.865 495.38 254.292 493.916C254.124 493.845 253.956 493.774 253.788 493.703C251.023 492.512 248.125 492.16 245.231 494.058C243.518 495.181 238.318 499.066 238.945 501.437C240.303 506.577 246.154 498.517 247.646 497.732C250.491 496.234 252.441 498.148 255.37 498.688C258.879 499.335 261.702 497.481 265.007 496.742C268.872 495.879 273.221 495.578 277.153 495.116C278.707 494.933 284.591 496.162 285.123 494.228C286.035 490.907 276.822 491.83 275.347 492.144Z" fill="#C1DEE2"/>
<path fill-rule="evenodd" clip-rule="evenodd" d="M302.424 502.494C302.669 502.68 302.473 502.531 302.424 502.494V502.494ZM312.935 491.942C316.148 491.616 326.428 489.321 328.538 492.641C329.913 494.804 327.731 502.785 325.65 503.817C323.987 504.642 320.112 503.73 318.287 503.666C314.891 503.546 311.488 503.493 308.095 503.281C306.958 503.21 303.297 503.419 302.405 502.412C301.352 501.223 301.399 494.885 301.151 493.313C304.105 494.269 309.847 492.256 312.935 491.942ZM319.796 488.688C315.681 488.866 311.567 489.175 307.483 489.727C305.206 490.035 302.9 490.853 300.797 491.24C300.119 491.365 299.019 491.019 298.188 491.42C295.76 492.593 297.886 500.526 298.472 502.646C299.371 505.901 301.635 506.429 304.807 506.735C308.986 507.14 313.249 507.013 317.441 506.962C321.481 506.912 326.929 507.807 329.195 503.754C330.661 501.133 332.233 495.029 330.98 492.108C329.332 488.264 323.18 488.546 319.796 488.688Z" fill="#C1DEE2"/>
<path fill-rule="evenodd" clip-rule="evenodd" d="M365.876 504.675C365.656 504.957 365.656 504.957 365.876 504.675V504.675ZM366.778 503.588C366.71 503.691 366.394 504.024 366.778 503.588V503.588ZM356.964 503.289C358.778 502.948 360.592 502.61 362.408 502.279C360.688 504.686 358.878 503.691 355.94 503.481C356.281 503.417 356.623 503.353 356.964 503.289ZM348.31 502.437C348.77 502.283 349.229 502.129 349.689 501.976C349.675 502.325 349.75 502.653 349.915 502.958C349.128 502.873 348.341 502.782 347.556 502.685C347.807 502.603 348.059 502.52 348.31 502.437ZM344.302 499.477C344.276 498.845 345.226 499.278 345.77 499.236C344.72 500.16 344.231 500.24 344.302 499.477ZM358.643 492.313C358.781 492.137 358.964 492.145 359.191 492.339C358.943 492.423 357.986 492.828 358.643 492.313ZM367.942 491.219C367.967 491.219 368.483 491.916 367.942 491.219V491.219ZM367.682 490.991C367.817 491.094 367.817 491.094 367.682 490.991V490.991ZM366.522 490.855C368.423 491.176 368.279 493.408 366.522 490.855V490.855ZM344.179 490.703C343.793 491.024 343.925 490.713 344.179 490.703V490.703ZM351.451 485.952C348.223 486.14 342.296 485.951 339.6 487.671C336.081 489.916 337.933 497.645 338.248 501.033C338.713 506.042 341.07 507.468 345.786 507.993C351.415 508.621 357.199 508.738 362.856 508.589C367.952 508.455 370.854 506.703 371.787 501.338C372.073 499.696 372.799 497.157 372.776 495.584C372.76 494.494 372.217 493.997 372.011 493.069C370.841 487.789 368.884 487.163 363.472 486.933C359.489 486.763 355.359 485.747 351.451 485.952Z" fill="#89C5CC"/>
</g>
<g opacity="0.5">
<path fill-rule="evenodd" clip-rule="evenodd" d="M522.468 364.65C530.676 364.825 539.989 369.368 538.691 378.992C537.74 386.042 531.636 391.765 524.567 392.259C516.968 392.789 508.935 386.958 507.903 379.221C506.741 370.519 514.441 364.476 522.468 364.65ZM518.442 360.733C515.114 361.229 511.935 362.977 509.004 364.542C507.886 365.14 502.215 368.784 506.663 369.69C495.947 386.972 521.166 403.024 535.345 391.792C541.712 386.748 545.064 377.186 540.949 369.7C536.692 361.958 526.597 359.508 518.442 360.733Z" fill="#89C5CC"/>
<path fill-rule="evenodd" clip-rule="evenodd" d="M516.482 375.443C516.482 378.671 521.492 378.671 521.492 375.443C521.492 372.216 516.482 372.216 516.482 375.443Z" fill="#89C5CC"/>
<path fill-rule="evenodd" clip-rule="evenodd" d="M525.77 375.96C525.77 379.46 531.201 379.46 531.201 375.96C531.201 372.461 525.77 372.461 525.77 375.96Z" fill="#89C5CC"/>
<path fill-rule="evenodd" clip-rule="evenodd" d="M519.5 382.881C518.769 385.536 527.104 386.898 527.382 383.825C527.514 382.357 520.009 381.029 519.5 382.881Z" fill="#89C5CC"/>
<path fill-rule="evenodd" clip-rule="evenodd" d="M543.934 381.24C553.524 380.09 563.413 380.621 573.05 380.897C575.461 380.967 577.873 381.035 580.285 381.075C581.818 381.101 585.13 381.837 586.469 381.119C591.949 378.18 581.198 376.758 579.676 376.623C570.09 375.834 555.297 375.553 545.683 375.925C542.839 376.035 542.225 381.445 543.934 381.24Z" fill="#89C5CC"/>
<path fill-rule="evenodd" clip-rule="evenodd" d="M587.09 428.916C587.172 418.867 587.532 408.75 588.305 398.732C588.619 394.648 588.996 390.57 589.309 386.486C589.457 384.563 590.14 381.869 589.01 380.181C587.844 378.442 585.289 378.08 583.748 379.621C581.905 382.008 582.441 386.014 582.211 388.9C581.859 393.339 581.433 397.775 581.221 402.223C580.812 410.833 580.716 419.593 581.408 428.191C581.735 432.248 582.444 436.206 583.386 440.163C583.815 441.964 587.228 449.988 586.511 451.094C585.399 452.81 577.178 452.161 575.395 452.209C570.82 452.332 566.242 452.412 561.665 452.499C557.747 452.574 553.828 452.628 549.909 452.662C548.353 452.676 539.21 452.399 541.238 454.706C518.559 456.287 495.446 453.648 472.905 452.743C471.766 452.697 469.903 452.374 468.183 452.281C467.977 451.451 467.808 450.708 467.766 450.192C467.47 446.57 467.393 442.935 467.071 439.313C466.484 432.686 465.344 426.126 464.666 419.511C463.99 412.903 464.058 406.275 463.664 399.65C463.597 398.515 463.437 389.217 461.091 386.958C462.203 387.38 463.997 387.435 465.03 387.352C473.392 386.677 481.692 385.224 489.983 383.977C492.354 383.62 497.737 383.873 499.704 382.687C501.406 381.661 502.08 378.063 499.118 378.354C490.852 379.239 482.63 380.613 474.429 381.967C472.235 382.328 470.047 382.715 467.859 383.111C466.398 383.375 462.542 383.354 461.408 384.235C460.032 385.305 459.886 386.032 460.353 386.516C459.704 386.338 458.927 386.618 457.994 387.552C456.229 389.849 457.888 395.506 458.098 398.199C458.351 401.43 458.475 404.666 458.623 407.902C458.907 414.166 459.562 420.342 460.57 426.53C461.699 433.462 462.66 440.422 463.792 447.352C464.087 449.157 464.471 450.916 464.961 452.659C461.911 454.219 463.985 456.7 466.404 457.14C466.421 457.143 466.439 457.146 466.457 457.149C467.211 458.988 468.265 460.692 469.089 458.228C469.152 458.039 469.181 457.806 469.189 457.544C475.437 458.252 482.304 457.812 488.455 458.064C501.779 458.608 515.185 459.425 528.522 459.011C533.802 458.847 539.098 458.378 544.334 457.674C547.401 457.261 550.481 456.769 553.499 456.084C553.715 456.036 554.044 455.984 554.424 455.922C554.486 455.92 554.549 455.918 554.607 455.917C559.229 455.848 563.847 455.724 568.466 455.532C572.342 455.371 576.236 455.288 580.1 454.922C582.5 454.695 587.572 454.737 589.045 452.324C590.385 450.129 588.145 444.476 587.827 442.011C587.268 437.67 587.054 433.289 587.09 428.916Z" fill="#C1DEE2"/>
<path fill-rule="evenodd" clip-rule="evenodd" d="M540.251 399.901C536.558 400.217 533.143 401.952 529.416 401.973C526.287 401.991 523.207 401.056 520.062 401.194C516.372 401.355 514.342 403.741 511.11 404.54C508.536 405.175 506.915 403.205 504.652 402.334C501.794 401.233 499.684 401.802 497.234 403.466C495.434 404.689 491.237 407.433 491.27 409.907C491.366 417.399 500.107 407.049 501.87 406.924C504.211 406.757 506.827 409.426 509.318 409.578C512.612 409.78 514.723 407.656 517.756 406.883C520.823 406.1 524.139 407.059 527.213 407.356C530.721 407.695 533.791 406.913 537.185 406.076C540.474 405.265 543.277 405.308 546.619 405.989C548.875 406.449 554.494 409.123 555.48 405.685C556.824 401.002 542.833 399.681 540.251 399.901Z" fill="#89C5CC"/>
<path fill-rule="evenodd" clip-rule="evenodd" d="M541.374 414.192C533.806 414.926 526.193 415.57 518.591 415.776C515.299 415.866 502.641 414.455 503.764 418.639C504.726 422.226 521.95 419.967 525.458 419.694C529.331 419.393 533.199 418.972 537.052 418.485C538.418 418.312 541.717 418.491 542.68 417.345C543.599 416.252 543.146 414.014 541.374 414.192Z" fill="#89C5CC"/>
<path fill-rule="evenodd" clip-rule="evenodd" d="M489.169 433.245C488.996 433.318 488.996 433.318 489.169 433.245V433.245ZM490.765 433.223C492.651 433.164 492.247 432.169 494.129 432.687C494.997 432.926 495.086 432.571 495.759 433.401C497.072 435.02 495.835 438.544 494.541 439.848C489.749 444.678 483.998 433.438 490.765 433.223ZM490.765 428.485C477.646 428.926 483.135 449.191 494.553 445.054C499.269 443.346 502.233 435.649 499.459 431.324C498.11 429.22 496.389 428.845 494.129 428.7C493.604 428.666 492.944 429.428 492.616 429.394C491.838 429.311 491.911 428.442 490.765 428.485Z" fill="#89C5CC"/>
<path fill-rule="evenodd" clip-rule="evenodd" d="M522.139 433.939C521.905 433.867 526.281 435.139 525.802 434.641C526.824 435.704 525.45 438.217 524.294 438.655C521.495 439.718 519.924 435.366 522.139 433.939ZM524.081 428.444C519.974 429.026 516.804 430.737 516.242 435.304C515.724 439.521 518.573 443.79 523.067 443.873C532.861 444.052 533.159 427.177 524.081 428.444Z" fill="#89C5CC"/>
<path fill-rule="evenodd" clip-rule="evenodd" d="M568.791 434.123C569.364 441.61 561.601 434.757 568.791 434.123V434.123ZM565.46 426.113C564.782 427.274 565.36 428.505 566.385 429.18C557.227 431.115 559.301 444.896 568.62 442.86C573.359 441.825 574.231 436.841 573.524 432.727C573.188 430.77 568.313 421.236 565.46 426.113Z" fill="#89C5CC"/>
</g>
<path opacity="0.5" fill-rule="evenodd" clip-rule="evenodd" d="M622.117 444.893C617.882 445.459 607.87 448.97 607.958 452.742C608.093 458.629 616.602 452.198 618.495 451.334C628.662 446.688 641.832 452.708 652.419 453.989C657.273 454.576 666.769 455.661 671.057 453.219C678.681 448.876 661.048 449.963 658.802 449.788C646.595 448.842 634.451 443.239 622.117 444.893Z" fill="#C1DEE2"/>
<g opacity="0.5">
<path fill-rule="evenodd" clip-rule="evenodd" d="M716.07 397.765C716.067 402.937 715.806 408.216 716.759 413.326C717.048 414.873 717.275 417.836 718.907 418.639C720.547 419.446 722.136 418.54 722.543 416.859C723.018 414.904 721.976 411.978 721.871 409.926C721.726 407.122 721.716 404.314 721.715 401.507C721.714 399.479 722.381 396.218 719.988 395.175C718.208 394.399 716.07 395.841 716.07 397.765Z" fill="#C1DEE2"/>
<path fill-rule="evenodd" clip-rule="evenodd" d="M797.835 389.584C780.7 391.304 763.318 391.662 746.12 392.559C738.171 392.973 728.563 392.444 721.074 395.521C719.684 396.093 714.703 399.273 718.746 400.568C720.007 400.972 721.287 399.614 722.322 399.159C724.046 398.403 726.041 398.168 727.879 397.873C743.506 395.363 759.851 395.8 775.638 394.628C779.684 394.327 783.731 394.018 787.768 393.621C790.652 393.337 796.714 391.258 799.375 392.321C803.923 394.138 803.817 405.942 803.907 410.002C803.954 412.102 801.916 419.638 805.967 418.874C809.209 418.263 808.035 410.433 807.782 408.291C807.12 402.678 805.988 388.758 797.835 389.584Z" fill="#C1DEE2"/>
<path fill-rule="evenodd" clip-rule="evenodd" d="M804.154 418.603C789.27 419.947 774.043 418.628 759.098 419.157C751.264 419.435 743.438 419.876 735.603 420.135C732.215 420.247 728.823 420.251 725.433 420.276C723.811 420.286 716.432 421.27 720.997 424.484C723.018 425.908 729.459 424.761 731.779 424.733C735.262 424.692 738.744 424.548 742.225 424.411C750.288 424.096 758.346 423.659 766.413 423.441C774.13 423.232 781.851 423.187 789.568 422.978C793.407 422.874 797.299 422.756 801.105 422.196C801.963 422.069 804.753 421.969 805.349 421.011C805.913 420.105 805.517 418.472 804.154 418.603Z" fill="#89C5CC"/>
<path fill-rule="evenodd" clip-rule="evenodd" d="M731.002 407.428C730.921 407.617 730.921 407.617 731.002 407.428V407.428ZM737.446 405.469C737.681 405.569 737.681 405.569 737.446 405.469V405.469ZM737.145 405.415C740.619 408.955 735.277 413.181 732.023 409.726C728.569 406.059 734.909 405.426 737.145 405.415ZM733.462 400.058C721.497 402.187 725.733 418.133 736.908 415.828C741.813 414.817 744.619 409.874 742.931 405.127C742.271 403.272 740.833 401.236 738.831 400.652C737.832 400.361 736.949 400.819 735.998 400.712C735.091 400.61 734.587 399.855 733.462 400.058Z" fill="#C1DEE2"/>
<path fill-rule="evenodd" clip-rule="evenodd" d="M779.25 404.546C772.036 404.569 764.819 404.876 757.606 405.012C755.393 405.054 749.706 404.064 749.697 407.552C749.688 411.279 756.022 409.903 758.13 409.853C765.286 409.682 772.459 409.368 779.586 408.687C781.386 408.515 787.619 408.812 787.612 406.364C787.606 403.77 780.704 404.546 779.25 404.546Z" fill="#C1DEE2"/>
<path fill-rule="evenodd" clip-rule="evenodd" d="M796.484 428.873C778.64 429.352 760.824 429.519 742.994 430.432C736.325 430.773 729.665 431.028 722.987 431.028C721.701 431.028 719.111 430.529 717.9 431.339C714.615 433.536 718.356 435.422 720.497 435.541C735.144 436.354 750.003 434.331 764.641 433.874C773.211 433.607 781.782 433.528 790.347 433.092C792.683 432.973 795.02 432.835 797.353 432.654C798.695 432.55 802.242 432.835 803.326 432.05C808.061 428.624 798.08 428.83 796.484 428.873Z" fill="#89C5CC"/>
<path fill-rule="evenodd" clip-rule="evenodd" d="M714.612 437.598C714.445 442.224 714.427 446.769 715.032 451.37C715.271 453.181 715.38 455.235 717.502 455.695C719.429 456.113 720.407 454.655 720.806 453.039C721.78 449.092 720.923 443.412 720.911 439.312C720.906 437.285 720.904 435.017 718.399 434.558C716.488 434.208 714.685 435.589 714.612 437.598Z" fill="#89C5CC"/>
<path fill-rule="evenodd" clip-rule="evenodd" d="M815.395 448.751C786.511 450.273 757.665 451.602 728.76 452.824C726.505 452.919 708.993 452.728 715.115 458.835C717.007 460.721 721.878 459.444 724.324 459.324C727.999 459.143 731.675 459.005 735.35 458.818C749.921 458.077 764.529 457.877 779.089 457.044C787.101 456.586 795.095 455.87 803.066 454.936C806.857 454.493 811.563 454.539 815.114 453.053C816.94 452.289 818.912 448.564 815.395 448.751Z" fill="#89C5CC"/>
<path fill-rule="evenodd" clip-rule="evenodd" d="M798.788 425.283C796.591 427.47 797.721 431.786 797.886 434.49C798.114 438.211 798.391 441.935 798.855 445.635C799.157 448.039 798.998 451.781 800.28 453.857C801.782 456.289 805.088 456.02 806.446 453.67C807.647 451.593 807.04 447.221 807.008 444.919C806.965 441.735 806.767 438.546 806.578 435.368C806.42 432.712 807.022 428.456 805.561 426.183C804.077 423.874 800.846 423.235 798.788 425.283Z" fill="#89C5CC"/>
<path fill-rule="evenodd" clip-rule="evenodd" d="M732.769 442.26C732.511 442.458 732.511 442.458 732.769 442.26V442.26ZM737.9 441.618C742.687 442.58 734.946 448.169 732.5 444.333C732.118 443.734 731.919 442.997 732.532 442.477C733.092 442.001 733.444 442.843 733.973 442.617C734.884 442.227 736.928 441.581 737.9 441.618ZM737.238 437.029C733.97 437.288 729.476 437.489 727.859 440.766C725.685 445.166 729.402 449.476 733.702 450.145C737.84 450.79 744.018 448.498 744.349 443.672C744.616 439.781 740.915 436.731 737.238 437.029Z" fill="#89C5CC"/>
<path fill-rule="evenodd" clip-rule="evenodd" d="M764.523 439.356C761.139 439.41 754.489 438.41 751.541 440.059C748.625 441.691 749.925 444.597 752.586 445.292C754.345 445.751 757.219 445.01 759.051 444.935C761.459 444.837 763.87 444.816 766.28 444.783C770.334 444.728 774.385 444.774 778.439 444.774C782.58 444.774 786.791 444.887 790.924 444.583C796.153 444.198 796.013 440.282 790.898 439.793C782.21 438.961 773.239 439.219 764.523 439.356Z" fill="#89C5CC"/>
<path fill-rule="evenodd" clip-rule="evenodd" d="M755.881 483.213C755.881 485.073 757.532 483.213 757.52 483.213C757.532 483.213 755.881 481.352 755.881 483.213Z" fill="#89C5CC"/>
<path fill-rule="evenodd" clip-rule="evenodd" d="M718.541 468.236C718.648 473.644 718.718 479.057 718.949 484.46C719.022 486.169 718.533 489.506 720.604 490.377C722.909 491.347 723.626 488.93 723.891 487.292C724.732 482.103 723.908 476.179 723.827 470.929C723.8 469.166 724.181 466.712 722.179 465.834C720.546 465.116 718.508 466.448 718.541 468.236Z" fill="#89C5CC"/>
<path fill-rule="evenodd" clip-rule="evenodd" d="M807.476 468.32C807.612 468.642 807.612 468.642 807.476 468.32V468.32ZM807.669 468.265C807.78 468.311 808.228 468.499 807.669 468.265V468.265ZM763.98 463.894C755.678 464.024 747.371 464.123 739.074 464.478C735.533 464.63 731.951 464.753 728.423 465.087C725.923 465.323 719.714 465.421 718.093 467.464C714.748 471.68 721.842 470.53 723.37 470.188C726.15 469.564 728.989 469.365 731.83 469.215C737.994 468.89 744.16 468.716 750.332 468.592C767.068 468.255 783.817 468.306 800.557 468.23C802.177 468.223 805.106 467.572 806.603 468.227C808.103 468.884 808.018 470.5 808.174 472.375C808.381 474.871 806.735 479.627 807.989 481.726C809.935 484.982 812.764 482.217 813.197 479.843C813.794 476.563 812.847 472.625 811.92 469.489C810.612 465.066 808.796 464.89 804.517 464.544C799.518 464.14 794.537 463.895 789.521 463.849C781.01 463.771 772.492 463.762 763.98 463.894Z" fill="#89C5CC"/>
<path fill-rule="evenodd" clip-rule="evenodd" d="M796.815 486.25C778.808 488.341 760.289 487.109 742.186 487.183C737.784 487.201 733.378 487.236 728.98 487.449C726.657 487.562 721.151 486.921 719.559 488.713C716.205 492.491 722.247 493.04 724.453 492.884C728.914 492.567 733.385 492.422 737.856 492.387C753.607 492.266 769.447 493.001 785.185 492.224C791.779 491.898 798.225 490.77 804.696 489.51C806.13 489.231 815.945 487.365 810.348 485.129C807.041 483.807 800.29 485.844 796.815 486.25Z" fill="#89C5CC"/>
<path fill-rule="evenodd" clip-rule="evenodd" d="M744.24 479.334C744.115 479.495 744.115 479.495 744.24 479.334V479.334ZM744.12 479.306C744.077 479.422 743.945 479.707 744.12 479.306V479.306ZM742.983 477.841C743.009 477.875 743.116 478.012 742.983 477.841V477.841ZM742.94 477.83C743.373 478.348 743.665 478.925 743.816 479.562C740.085 480.573 738.647 477.555 742.94 477.83ZM742.703 477.689C742.704 477.689 743.229 477.91 742.703 477.689V477.689ZM736.575 473.192C734.161 476.199 732.167 479.703 735.178 483.138C737.87 486.209 743.285 486.605 746.701 484.555C750.22 482.442 749.916 477.995 747.461 475.092C745.881 473.223 744.6 473.275 742.306 472.97C740.745 472.762 737.9 471.548 736.575 473.192Z" fill="#89C5CC"/>
<path fill-rule="evenodd" clip-rule="evenodd" d="M761.535 478.758C761.535 482.762 778.824 481.039 781.9 481.034C784.476 481.031 800.055 482.452 798.937 478.331C798.018 474.946 782.673 476.628 779.405 476.623C776.58 476.62 761.535 474.68 761.535 478.758Z" fill="#89C5CC"/>
</g>
<g opacity="0.5">
<path fill-rule="evenodd" clip-rule="evenodd" d="M535.828 516.273C544.486 517.53 553.493 521.602 553.417 531.681C553.354 540.155 546.247 549.173 537.121 548.667C528.908 548.212 521.175 539.231 520.146 531.534C519.613 527.546 520.61 523.253 522.956 519.973C526.029 515.675 530.906 515.681 535.828 516.273ZM531.737 510.795C525.475 510.829 520.893 513.094 517.018 517.876C515.627 519.59 514.011 521.436 512.953 523.378C511.964 525.192 512.138 529.806 515.529 527.643C514.694 536.574 519.914 545.243 527.418 549.82C535.574 554.795 544.794 553.825 551.582 546.852C557.797 540.469 559.983 529.687 555.437 521.793C550.894 513.903 540.366 510.71 531.737 510.795Z" fill="#89C5CC"/>
<path fill-rule="evenodd" clip-rule="evenodd" d="M550.517 508.4C546.507 511.339 542.847 515.208 539.806 519.133C536.834 522.969 534.869 527.759 531.299 531.104C529.496 529.14 527.384 523.836 523.787 525.941C520.802 527.687 522.724 530.689 524.178 532.661C527.931 537.752 532.099 539.801 536.913 534.771C541.285 530.203 543.768 524.109 547.856 519.278C549.649 517.159 552.419 515.055 553.847 512.715C555.141 510.593 553.541 506.178 550.517 508.4Z" fill="#89C5CC"/>
</g>
<g opacity="0.5">
<path fill-rule="evenodd" clip-rule="evenodd" d="M702.034 189.736C702.04 190.137 702.046 190.514 702.054 190.86C702.241 198.424 702.133 206.376 701.518 213.922C701.306 216.528 699.411 219.83 697.249 216.239C696.298 214.659 696.431 211.416 696.529 209.03C696.555 208.391 696.579 207.813 696.579 207.345C696.577 204.683 696.717 201.994 696.857 199.298C697.131 194.027 697.407 188.728 696.626 183.55C696.611 183.446 696.596 183.345 696.581 183.248C696.242 180.971 696.219 180.814 693.715 180.866C692.672 180.887 691.628 180.915 690.584 180.944C689.558 180.971 688.531 180.999 687.505 181.021C686.485 181.042 685.466 181.062 684.446 181.081C681.249 181.143 678.052 181.204 674.857 181.321C674.323 181.341 673.328 181.466 672.072 181.623C669.562 181.938 666.009 182.384 663.02 182.381C663.02 182.394 663.021 182.407 663.022 182.42C663.024 182.443 663.026 182.466 663.026 182.49C663.06 184.14 662.635 185.982 662.208 187.833C661.85 189.383 661.491 190.939 661.399 192.393C661.18 195.854 661.177 199.351 661.175 202.848C661.172 207.106 661.169 211.364 660.775 215.556C660.755 215.761 660.744 215.977 660.732 216.195C660.731 216.224 660.729 216.253 660.727 216.283C660.862 216.262 660.994 216.248 661.12 216.24C663.275 216.103 665.447 216.091 667.617 216.079C668.813 216.072 670.009 216.065 671.2 216.038C673.338 215.988 675.503 215.99 677.676 215.993C682.474 215.998 687.314 216.003 692.007 215.45C693.393 215.271 693.877 217.049 693.255 217.97C692.699 218.795 691.166 218.929 690.044 219.027C689.759 219.052 689.5 219.074 689.291 219.105C686.264 219.553 683.197 219.71 680.143 219.845C676.935 219.987 673.725 220.093 670.516 220.183C669.752 220.204 668.733 220.307 667.602 220.421C664.618 220.723 660.861 221.103 658.995 220.259C656.991 219.352 657.038 218.345 657.857 217.565C657.498 216.776 657.442 215.623 657.397 214.722C657.381 214.378 657.366 214.07 657.336 213.833C656.891 210.243 656.623 206.699 656.617 203.079C656.604 195.986 656.619 188.621 658.58 181.756C657.795 181.412 657.321 180.904 657.323 180.173C657.332 176.49 668.795 176.678 674.244 176.767C675.218 176.783 676 176.795 676.49 176.782C680.46 176.679 684.43 176.665 688.4 176.687C689.239 176.691 690.173 176.636 691.14 176.579C693.198 176.458 695.408 176.328 697.185 176.741C701.854 177.825 701.967 185.261 702.034 189.736Z" fill="#89C5CC"/>
<path fill-rule="evenodd" clip-rule="evenodd" d="M731.235 177.549C735.57 177.32 739.907 177.267 744.247 177.251C748.843 177.228 753.445 177.31 758.038 177.452L758.144 177.455C760.18 177.516 771.492 177.856 766.295 180.675C765.992 180.839 765.651 180.977 765.279 181.091C765.499 182.396 765.526 183.744 765.49 184.393C765.356 186.855 765.268 189.32 765.179 191.785L765.179 191.785C765.119 193.456 765.059 195.126 764.985 196.796C764.781 201.409 764.586 206.022 764.427 210.637C764.407 211.203 764.437 211.944 764.471 212.77C764.581 215.5 764.729 219.159 763.247 220.511C761.945 221.699 761.056 221.461 760.457 220.654C756.733 221.735 749.086 221.383 745.241 221.207C744.315 221.164 743.609 221.132 743.232 221.132C742.558 221.132 741.305 221.216 739.723 221.322C733.139 221.765 720.848 222.59 720.822 219.344C720.82 219.032 720.921 218.752 721.112 218.501C720.59 217.969 720.121 217.188 719.819 216.212C718.737 212.711 718.635 208.933 718.555 205.303C718.442 200.177 718.441 195.044 718.439 189.913V189.913C718.439 187.278 718.438 184.643 718.422 182.01C717.717 181.064 718.135 179.983 719.014 179.228C720.884 177.623 725.525 177.604 728.882 177.59C729.786 177.586 730.597 177.583 731.235 177.549ZM724.182 217.077C728.36 216.185 735.4 216.472 739.172 216.626C740.16 216.666 740.924 216.698 741.353 216.696C745.205 216.681 749.058 216.734 752.907 216.888C753.306 216.904 753.897 216.889 754.593 216.872C755.99 216.837 757.812 216.791 759.359 216.962C759.338 216.753 759.324 216.561 759.316 216.396C759.143 212.969 759.268 209.514 759.392 206.077L759.392 206.076C759.419 205.346 759.445 204.617 759.469 203.889C759.551 201.319 759.661 198.751 759.771 196.183V196.183L759.771 196.181C759.84 194.564 759.909 192.948 759.971 191.331C759.999 190.621 759.958 189.657 759.912 188.573V188.573C759.819 186.366 759.704 183.661 760.1 181.583C758.674 181.556 757.214 181.455 755.874 181.363C754.583 181.273 753.405 181.192 752.479 181.192C751.304 181.192 750.129 181.188 748.955 181.184L748.955 181.184C745.7 181.174 742.446 181.164 739.191 181.229C738.883 181.235 738.574 181.241 738.265 181.247L738.264 181.247C733.783 181.333 729.264 181.42 724.819 182.011C724.559 182.045 724.246 182.112 723.901 182.193C724.387 184.229 724.149 187.099 723.94 189.613C723.838 190.834 723.744 191.97 723.743 192.887C723.736 198.585 723.887 204.261 724.037 209.931C724.094 212.076 724.151 214.22 724.199 216.364C724.205 216.62 724.199 216.857 724.182 217.077Z" fill="#89C5CC"/>
<path fill-rule="evenodd" clip-rule="evenodd" d="M676.629 220.018C673.78 221.682 675.316 228.339 676.303 230.641C677.926 234.427 681.218 237.389 684.77 239.354C691.949 243.325 702.298 242.271 707.728 249.156C707.784 249.228 709.661 251.086 710.088 248.679C710.439 246.705 706.935 243.689 705.577 242.699C701.716 239.884 696.765 238.977 692.299 237.571C687.536 236.071 682.309 233.306 680.313 228.396C679.606 226.657 680.953 217.479 676.629 220.018Z" fill="#C1DEE2"/>
<path fill-rule="evenodd" clip-rule="evenodd" d="M741.752 223.218C739.142 223.938 740.868 227.53 740.864 229.329C740.859 231.573 740.142 233.921 738.759 235.711C735.252 240.253 728.385 240.933 723.237 242.235C719.499 243.181 710.555 245.209 710.205 250.265C709.815 255.91 717.71 249.04 718.377 248.758C725.757 246.051 735.305 245.529 741.001 239.57C743.353 237.11 744.742 233.827 744.963 230.438C745.088 228.531 745.109 222.302 741.752 223.218Z" fill="#C1DEE2"/>
<path fill-rule="evenodd" clip-rule="evenodd" d="M687.813 273.295C687.752 262.85 697.748 256.531 706.788 254.154C717.653 251.292 727.774 258.905 729.055 269.856C730.406 281.414 721.696 290.718 710.208 291.228C700.103 291.677 687.877 284.442 687.813 273.295ZM712.084 259.177C712.672 259.976 713.202 261.251 712.018 261.945C710.88 262.609 710.311 261.811 709.738 261.008C709.376 260.5 709.013 259.991 708.504 259.847C707.183 259.475 705.06 260.865 703.96 261.674C703.514 262.003 702.878 262.711 702.135 263.539C699.77 266.172 696.318 270.018 694.409 266.709C686.799 279.851 705.773 289.687 716.563 284.713C728.413 279.251 726.107 259.281 712.084 259.177Z" fill="#89C5CC"/>
<path fill-rule="evenodd" clip-rule="evenodd" d="M702.137 269.799C702.137 272.197 705.923 272.197 705.923 269.799C705.923 267.429 702.137 267.328 702.137 269.799Z" fill="#89C5CC"/>
<path fill-rule="evenodd" clip-rule="evenodd" d="M708.799 269.349C708.799 272.286 713.439 272.286 713.439 269.349C713.439 266.446 708.799 266.322 708.799 269.349Z" fill="#89C5CC"/>
<path fill-rule="evenodd" clip-rule="evenodd" d="M704.032 276.193C700.237 278.425 711.089 282.859 711.518 278.328C711.703 276.372 709.809 276.9 708.547 276.756C707.339 276.618 705.178 275.526 704.032 276.193Z" fill="#89C5CC"/>
<path fill-rule="evenodd" clip-rule="evenodd" d="M702.386 292.028C702.551 297.729 702.472 303.427 703.553 309.048C703.759 310.116 703.901 313.989 704.745 314.782C706.821 316.733 706.855 312.993 706.936 311.56C707.224 306.427 706.685 301.134 706.566 295.991C706.54 294.884 706.834 292.591 706.311 291.519C705.482 289.818 702.306 289.313 702.386 292.028Z" fill="#C1DEE2"/>
<path fill-rule="evenodd" clip-rule="evenodd" d="M698.328 287.405C690.009 296.742 678.553 296.054 667.013 296.871C660.915 297.304 654.75 298.191 649.843 302.135C647.561 303.97 645.593 306.268 644.271 308.887C643.693 310.032 640.952 316.638 645.069 315.071C646.529 314.515 647.967 310.146 648.911 308.854C650.71 306.393 653.011 304.361 655.772 303.04C661.098 300.492 667.457 300.536 673.232 300.212C679.268 299.875 685.747 299.559 691.296 296.934C693.906 295.699 696.355 294.159 698.456 292.174C699.206 291.465 700.816 290.26 700.936 289.175C701.073 287.935 699.881 285.665 698.328 287.405Z" fill="#C1DEE2"/>
<path fill-rule="evenodd" clip-rule="evenodd" d="M656.333 316.063C648.519 316.324 640.715 316.64 632.911 317.134C631.312 317.236 625.98 316.913 627.338 320.189C628.427 322.816 634.929 321.079 637.08 320.951C645.211 320.468 653.376 320.301 661.49 319.569C663.313 319.405 671.552 319.471 668.15 316.24C666.532 314.703 658.569 315.987 656.333 316.063Z" fill="#89C5CC"/>
<path fill-rule="evenodd" clip-rule="evenodd" d="M622.375 319.832C619.912 323.067 621.043 330.93 621.229 334.819C621.41 338.587 620.678 345.478 625.597 346.062C624.035 345.857 626.783 346.157 627.23 346.181C628.229 346.235 629.232 346.252 630.232 346.263C632.543 346.288 634.854 346.257 637.164 346.211C642.397 346.107 647.644 345.954 652.87 345.665C655.067 345.543 666.985 345.645 667.457 343.363C668.059 340.447 656.633 342.096 654.587 342.189C649.606 342.418 644.616 342.466 639.63 342.531C637.159 342.564 634.685 342.588 632.214 342.54C631.193 342.52 627.152 342.939 626.532 342.258C626.003 341.678 626.416 336.35 626.405 335.535C626.368 332.878 626.371 330.215 626.466 327.559C626.53 325.771 627.496 322.369 626.709 320.69C625.942 319.057 623.709 318.5 622.375 319.832Z" fill="#89C5CC"/>
<path fill-rule="evenodd" clip-rule="evenodd" d="M662.612 319.984C662.755 325.902 662.799 331.94 664.197 337.727C664.662 339.654 665.314 343.626 667.249 344.623C669.28 345.669 671.034 344.175 671.166 342.163C671.334 339.633 669.979 336.312 669.701 333.716C669.376 330.687 669.188 327.655 669.077 324.612C668.993 322.323 669.688 318.891 667.506 317.415C665.546 316.089 662.549 317.424 662.612 319.984Z" fill="#89C5CC"/>
<path fill-rule="evenodd" clip-rule="evenodd" d="M678.163 318.538C675.732 320.959 676.819 328.624 677.123 331.735C677.345 334.013 679.839 345.221 683.575 339.376C685.228 336.791 683.128 329.955 683.143 326.941C683.153 325.021 683.832 322.593 683.504 320.749C683.071 318.311 680.367 316.337 678.163 318.538Z" fill="#89C5CC"/>
<path fill-rule="evenodd" clip-rule="evenodd" d="M694.992 316.539C702.292 315.786 709.601 315.221 716.941 315.151C717.293 315.149 717.663 315.144 718.048 315.139C723.079 315.075 730.639 314.979 734.024 318.757C735.869 320.815 736.705 323.996 737.433 326.77C737.569 327.287 737.701 327.79 737.835 328.269C737.95 328.678 738.099 329.145 738.26 329.649C739.021 332.03 740.05 335.252 739.006 337.246C738.434 338.34 737.513 339.272 736.115 338.885C735.789 338.794 735.534 338.679 735.333 338.543C735.869 339.122 736.105 339.947 735.758 340.755C735.085 342.316 732.962 342.349 731.288 342.375C730.883 342.381 730.503 342.387 730.178 342.414C724.605 342.879 719.006 343.189 713.413 343.238C710.75 343.261 708.086 343.24 705.423 343.218C702.682 343.195 699.94 343.173 697.199 343.2C695.21 343.219 693.184 343.409 691.157 343.598C688.597 343.837 686.037 344.076 683.548 343.974C681.686 343.897 679.698 343.287 680.17 340.881C680.555 338.917 682.404 338.745 684.061 338.591C684.205 338.578 684.348 338.565 684.488 338.55C689.764 338.013 695.043 337.823 700.346 337.842C711.487 337.881 722.618 337.823 733.758 337.765C734.216 337.803 734.647 337.977 735.002 338.244C734.601 337.757 734.609 337.109 734.617 336.419C734.621 336.107 734.625 335.786 734.591 335.467C734.523 334.827 734.461 334.189 734.398 333.553C734.192 331.45 733.988 329.362 733.587 327.247C733.526 326.928 733.468 326.576 733.406 326.204C733.041 324.008 732.558 321.098 730.812 319.912C729.056 318.72 725.613 318.777 722.929 318.822C722.205 318.834 721.536 318.845 720.971 318.83C713.81 318.646 706.609 319.154 699.481 319.802C698.934 319.852 698.385 319.9 697.836 319.947C695.124 320.184 692.399 320.421 689.726 320.906C689.237 320.995 688.49 321.256 687.633 321.555C685.353 322.35 682.295 323.417 681.256 322.242C677.814 318.35 692.939 316.751 694.992 316.539Z" fill="#89C5CC"/>
<path fill-rule="evenodd" clip-rule="evenodd" d="M772.655 307.677C772.972 308.086 772.972 308.086 772.655 307.677V307.677ZM723.256 283.562C718.822 286.168 727.028 293.815 729.118 294.997C733.822 297.658 740.286 298.06 745.538 298.808C752.185 299.756 759.42 300.105 765.808 302.283C768.53 303.211 770.26 304.66 772.042 306.886C772.945 308.013 775.119 312.875 777.1 311.724C781.087 309.406 770.343 299.68 767.976 298.635C762.594 296.257 756.233 295.592 750.479 294.669C745.129 293.81 739.663 293.172 734.445 291.658C731.575 290.826 729.536 289.483 727.882 286.914C726.851 285.313 726.006 281.953 723.256 283.562Z" fill="#C1DEE2"/>
<path fill-rule="evenodd" clip-rule="evenodd" d="M791.22 313.433C786.108 313.547 781.006 313.94 775.905 314.333C773.044 314.554 770.183 314.774 767.32 314.945C766.425 314.999 765.529 315.047 764.632 315.095C762.111 315.231 759.586 315.367 757.077 315.621C756.695 315.659 756.254 315.695 755.772 315.735C753.641 315.91 750.735 316.148 748.878 316.926C747.175 315.639 744.548 316.733 744.507 319.028C744.437 323.209 744.476 327.316 744.985 331.471C745.104 332.436 745.713 337.32 747.04 339.862C746.569 342.262 748.615 342.934 750.519 343.118C757.896 343.83 765.633 343.278 773.264 342.732C777.146 342.455 781.001 342.18 784.767 342.074C786.019 342.038 787.288 342.024 788.564 342.01C792.728 341.963 796.973 341.915 801.005 341.128C801.167 341.096 801.341 341.065 801.522 341.032C803.116 340.747 805.315 340.352 805.482 338.598C805.583 337.545 804.988 336.581 803.994 336.446C804.062 335.569 803.952 334.612 803.871 333.909C803.852 333.745 803.835 333.595 803.822 333.463C803.58 331.023 802.972 328.599 802.372 326.207L802.372 326.206C802.237 325.669 802.103 325.132 801.973 324.598C801.829 324.006 801.696 323.302 801.552 322.542C801.045 319.862 800.408 316.494 798.714 314.93C796.938 313.291 794.046 313.363 791.729 313.421C791.556 313.426 791.386 313.43 791.22 313.433ZM800.214 336.708C799.608 335.122 799.431 332.977 799.262 330.938V330.938V330.938C799.156 329.657 799.054 328.419 798.851 327.388C798.699 326.613 798.574 325.797 798.447 324.967L798.447 324.967C798.139 322.952 797.819 320.857 797.063 319.091C796.05 316.726 795.148 316.816 793.015 317.03C792.618 317.07 792.179 317.114 791.688 317.147C789.514 317.295 787.342 317.483 785.17 317.671L785.17 317.671C784.128 317.761 783.086 317.851 782.044 317.937C777.585 318.304 773.123 318.585 768.661 318.867L768.66 318.867C766.053 319.032 763.446 319.196 760.839 319.378C758.793 319.52 756.796 319.909 754.808 320.297L754.808 320.297C753.233 320.603 751.663 320.909 750.078 321.091C750.055 321.633 750.009 322.177 749.966 322.695C749.907 323.4 749.852 324.058 749.863 324.597C749.915 326.984 750.126 329.358 750.337 331.734C750.37 332.1 750.402 332.466 750.434 332.831C750.472 333.27 750.567 333.833 750.671 334.457C750.833 335.423 751.019 336.536 751.061 337.561C751.254 337.56 751.446 337.56 751.635 337.561C751.879 337.562 752.119 337.563 752.348 337.559C757.967 337.461 763.582 337.29 769.197 337.075C769.914 337.047 770.63 337.019 771.347 336.991C776.357 336.796 781.367 336.601 786.38 336.544C788.373 336.521 790.391 336.584 792.415 336.646C795.019 336.727 797.633 336.808 800.214 336.708Z" fill="#89C5CC"/>
</g>
<path fill-rule="evenodd" clip-rule="evenodd" d="M667.838 234.765C661.202 238.764 654.683 240.697 651.622 239.908C643.948 237.93 643.242 209.855 649.18 198.787C655.118 187.719 685.644 182.895 687.183 204.824C687.717 212.435 684.521 219.227 679.799 224.77L688.266 264.231H663.673L667.838 234.765Z" fill="#B28B67"/>
<path fill-rule="evenodd" clip-rule="evenodd" d="M650.787 194.495C651.003 193.158 650.576 192.501 655.953 188.734C661.33 184.966 670.012 180.523 678.756 182.456C690.104 184.966 694.611 192.451 698.987 196.09C702.931 199.371 706.889 199.754 709.235 203.824C711.581 207.895 712.829 219.606 710.789 224.262C707.976 230.685 702.427 232.414 698.377 234.265C691.43 237.438 681.612 234.087 681.374 233.531C679.534 229.237 669.631 217.122 663.674 212.032C659.294 208.289 649.776 200.772 650.787 194.495Z" fill="#5C63AB"/>
<mask id="mask0" style="mask-type:alpha" maskUnits="userSpaceOnUse" x="650" y="181" width="62" height="55">
<path fill-rule="evenodd" clip-rule="evenodd" d="M650.787 194.495C651.003 193.158 650.576 192.501 655.953 188.734C661.33 184.966 670.012 180.523 678.756 182.456C690.104 184.966 694.611 192.451 698.987 196.09C702.931 199.371 706.889 199.754 709.235 203.824C711.581 207.895 712.829 219.606 710.789 224.262C707.976 230.685 702.427 232.414 698.377 234.265C691.43 237.438 681.612 234.087 681.374 233.531C679.534 229.237 669.631 217.122 663.674 212.032C659.294 208.289 649.776 200.772 650.787 194.495Z" fill="white"/>
</mask>
<g mask="url(#mask0)">
<path fill-rule="evenodd" clip-rule="evenodd" d="M684.544 225.521C696.304 211.018 699.07 193.526 699.07 193.526L702.613 195.767C702.613 195.767 698.256 214.881 684.544 225.521ZM680.069 233.49C699.101 216.768 703.639 197.976 703.639 197.976L707.736 199.184C707.736 199.184 702.09 220.197 680.069 233.49Z" fill="black" fill-opacity="0.2"/>
</g>
<path fill-rule="evenodd" clip-rule="evenodd" d="M704.629 350.761L666.126 476.882L647.474 584.14H632.849L652.558 350.761H704.629Z" fill="#997659"/>
<path fill-rule="evenodd" clip-rule="evenodd" d="M718.403 350.761C715.788 420.008 718.865 455.727 719.451 462.019C720.036 468.31 728.051 509.104 747.025 586.253L731.442 580.89C701.455 510.134 691.236 473.36 687.797 464.069C684.358 454.778 675.223 417.009 660.393 350.761H718.403Z" fill="#B28B67"/>
<path fill-rule="evenodd" clip-rule="evenodd" d="M744.295 579.568C745.27 579.132 746.431 579.567 746.798 580.57C747.55 582.621 748.627 585.879 748.627 587.685C748.627 590.458 747.705 595.778 747.705 595.778C744.494 595.778 689.995 595.778 689.995 595.778C689.995 595.778 687.746 588.327 692.593 587.732C697.439 587.138 700.645 586.659 700.645 586.659L727.572 574.632C728.041 574.422 728.591 574.642 728.786 575.117L730.554 579.415C730.554 579.415 735.041 581.512 737.846 581.512C739.624 581.512 742.458 580.39 744.295 579.568Z" fill="#E4E4E4"/>
<path fill-rule="evenodd" clip-rule="evenodd" d="M648.116 579.568C649.09 579.132 650.251 579.567 650.618 580.57C651.37 582.621 652.447 585.879 652.447 587.685C652.447 590.458 651.525 595.778 651.525 595.778C648.314 595.778 593.816 595.778 593.816 595.778C593.816 595.778 591.566 588.327 596.413 587.732C601.259 587.138 604.465 586.659 604.465 586.659L631.392 574.632C631.861 574.422 632.411 574.642 632.606 575.117L634.375 579.415C634.375 579.415 638.861 581.512 641.666 581.512C643.444 581.512 646.278 580.39 648.116 579.568Z" fill="#E4E4E4"/>
<path fill-rule="evenodd" clip-rule="evenodd" d="M709.744 350.761L693.373 415.018H643.37L650.826 350.761H709.744Z" fill="#69A1AC"/>
<path fill-rule="evenodd" clip-rule="evenodd" d="M718.954 350.761C727.034 375.028 722.024 415.018 722.024 415.018H670.997L656.966 350.761H718.954Z" fill="#89C5CC"/>
<path fill-rule="evenodd" clip-rule="evenodd" d="M563.302 248.602L603.384 254.722L595.859 272.432L563.485 259.067C549.408 260.199 542.619 259.751 543.118 257.725C543.538 256.016 545.041 255.523 546.425 255.07C547.504 254.717 548.51 254.387 548.877 253.524C549.714 251.553 545.219 247.362 540.783 243.566C536.347 239.77 539.381 239.138 541.28 239.226C548.002 240.909 555.343 244.035 563.302 248.602ZM587.263 350.21L616.297 321.935L625.933 338.585L595.745 356.358C588.174 368.261 583.728 373.405 582.406 371.788C581.292 370.425 581.803 368.931 582.274 367.555C582.641 366.483 582.983 365.482 582.514 364.671C581.441 362.818 575.381 363.881 569.673 365.135C563.965 366.389 565.287 363.589 566.5 362.128C571.895 357.781 578.816 353.808 587.263 350.21Z" fill="#B28B67"/>
<path fill-rule="evenodd" clip-rule="evenodd" d="M657.59 250.972C644.575 286.258 622.621 314.989 589.343 346.327L605.548 360.108C644.655 339.004 665.132 326.71 671.469 294.21C673.06 286.053 671.45 260.99 671.225 247.715L657.59 250.972Z" fill="#5120A2"/>
<path fill-rule="evenodd" clip-rule="evenodd" d="M722.231 353.355L644.097 364.336C644.097 364.336 659.286 279.782 655.628 249.58C655.504 248.554 657.144 246.484 658.015 246.602C667.571 247.902 677.415 241.899 677.415 241.899C700.118 269.034 711.669 304.747 722.231 353.355Z" fill="#F2F2F2"/>
<path fill-rule="evenodd" clip-rule="evenodd" d="M664.191 290.023C659.331 343.991 665.905 386.687 692.847 382.9L734.508 377.045C734.886 331.727 708.847 272.626 688.362 243.849C687.58 242.75 685.955 240.699 682.867 241.133L670.762 242.834C670.759 242.851 670.756 242.868 670.753 242.884C667.114 243.426 663.121 244.123 658.796 244.877C636.535 248.762 605.495 254.178 568.823 247.864L567.586 269.082C602.117 284.965 636.403 296.21 664.191 290.023Z" fill="#621FCF"/>
</svg>
