<svg width="853" height="722" viewBox="0 0 853 722" fill="none" xmlns="http://www.w3.org/2000/svg">
<path fill-rule="evenodd" clip-rule="evenodd" d="M717.676 229.232C717.19 228.878 716.037 228.753 715.501 228.647C713.272 228.208 710.976 228.017 708.703 228.017C701.696 228.027 694.575 228.715 687.684 229.905C683.309 230.661 678.02 233.205 673.667 231.823C666.085 229.417 658.422 229.535 651.228 232.971C644.651 236.112 639.659 242.079 636.745 248.526C636.305 249.5 634.522 253.082 634.017 255.496C633.801 255.99 633.594 256.487 633.407 256.992C632.876 258.424 632.401 259.882 631.958 261.343C631.77 261.966 631.295 263.341 631.859 263.607C630.957 265.271 630.158 266.985 629.493 268.755C627.557 273.903 625.441 279.55 624.761 285.006C624.509 287.026 624.499 289.058 624.733 291.083C624.849 292.083 624.801 294.095 625.479 294.856C626.919 296.47 627.658 294.21 627.496 293.134C626.256 284.93 628.649 277.227 631.485 269.516C633.319 264.529 636.332 259.967 639.708 255.836C642.44 252.492 645.37 249.859 649.115 247.641C653.694 244.93 658.59 242.738 663.441 240.54C666.631 239.093 669.825 237.685 673.104 236.439C673.834 236.161 674.981 235.45 675.79 235.448C677.499 235.441 679.923 236.703 681.574 237.173C687.007 238.717 692.508 240.695 698.123 241.483C701.724 241.99 705.098 241.42 708.466 240.22C708.81 240.098 709.387 239.783 710.093 239.333C712.594 238.371 714.959 237.16 717.019 235.414C718.205 234.408 719.282 233.107 720.264 231.917C720.558 231.561 720.688 231.153 720.692 230.766C720.914 230.649 721.062 230.514 721.095 230.355C721.34 229.184 719.106 229.162 717.676 229.232Z" fill="#89C5CC"/>
<path fill-rule="evenodd" clip-rule="evenodd" d="M148.441 326.881C147.066 327.994 145.718 329.131 144.402 330.314C143.4 331.216 141.626 332.295 141.266 333.662C140.892 335.081 142.073 336.41 143.006 337.269C147.94 341.808 153.496 344.877 160.333 345.387C170.86 346.173 180.022 343.485 189.156 338.195C195.572 334.48 199.822 328.983 200.75 321.561C208.391 324.737 215.781 329.114 222.061 334.486C225.16 337.137 227.829 340.074 230.297 343.329C231.878 345.415 233.408 347.534 234.827 349.734C235.444 350.69 236.071 352.385 237.089 352.936C238.285 353.583 239.73 352.569 239.671 351.24C239.622 350.133 238.427 348.85 237.868 347.945C236.94 346.443 235.999 344.951 235.007 343.49C233.402 341.125 231.743 338.794 229.934 336.58C225.869 331.608 220.696 327.5 215.334 323.997C205.047 317.277 193.757 313.044 181.24 312.685C173.543 312.464 167.069 315.094 160.487 319.021C156.389 321.466 152.159 323.87 148.441 326.881Z" fill="#DDE3E9"/>
<path fill-rule="evenodd" clip-rule="evenodd" d="M248.279 294.376C240.258 286.116 232.21 277.959 223.249 270.686C217.968 266.4 212.402 262.503 206.952 258.439C207.581 258.99 208.197 259.557 208.799 260.137C207.098 258.982 204.871 258.33 203.067 257.261C201.055 256.068 199.132 254.704 197.245 253.329C193.563 250.646 189.935 247.912 186.15 245.368C181.933 242.535 177.562 239.917 173.273 237.19C169.633 234.876 165.948 232.344 162.054 230.452C159.932 229.421 157.804 228.199 155.673 227.123C154.96 226.763 147.723 222.194 147.741 222.18C148.141 221.878 151.783 223.59 152.346 223.82C153.991 224.492 155.565 225.296 157.146 226.097C156.278 224.384 155.591 222.585 155.217 220.691C155.101 220.107 154.175 215.851 154.649 215.494C154.886 215.316 157.195 222.93 157.313 223.662C157.409 224.256 157.395 225.113 157.59 225.676C157.904 226.585 157.888 226.31 158.58 226.823C159.849 227.762 161.533 228.348 162.907 229.133C163.647 229.547 165.94 231.186 167.321 231.653C171.499 233.683 175.735 236.805 179.705 239.397C178.663 237.439 177.87 235.391 177.292 233.245C177.154 232.736 175.67 228.166 176.03 227.895C176.436 227.589 179.263 234.569 179.43 235.23C179.742 236.457 179.806 237.823 180.196 239.018C180.623 240.328 181.957 240.793 183.16 241.557C187.584 244.368 191.857 247.355 196.058 250.479C200.642 242.326 195.356 232.482 190.902 225.641C187.691 220.711 183.368 216.485 178.804 212.795C172.713 207.87 165.744 203.936 158.783 200.337C150.672 196.144 141.906 193.546 132.793 192.346C128.027 191.718 123.15 191.736 118.336 191.937C115.984 192.035 113.726 192.347 111.472 193.114C110.457 193.46 109.475 193.896 108.518 194.385C107.791 194.756 106.033 195.148 105.615 195.7C102.174 200.179 100.414 204.641 100.683 210.268C100.937 215.595 102.619 220.924 104.902 225.676C107.445 230.967 110.715 235.769 114.992 239.799C118.255 242.874 121.903 245.55 125.527 248.191C138.416 257.585 154.758 265.755 171.452 263.656C176.856 262.977 181.996 261.087 186.799 258.519C187.931 257.914 189.056 257.302 190.124 256.587C190.844 256.105 192.77 253.935 193.494 253.856C194.488 253.748 196.627 255.768 197.559 256.383C204.639 261.057 211.534 265.984 218.285 271.111C225.467 276.565 232.297 282.391 238.926 288.49C241.745 291.084 244.547 293.684 247.285 296.366C247.922 296.99 249.48 299.287 250.636 299.391C251.367 299.457 251.859 298.833 251.755 298.157C251.574 296.981 249.1 295.222 248.279 294.376Z" fill="#D4B2C7"/>
<path fill-rule="evenodd" clip-rule="evenodd" d="M709.254 262.32C706.147 261.641 702.717 261.693 699.552 261.749C682.58 261.98 665.914 270.015 655.067 282.855C645.833 293.785 643.293 307.375 641.469 321.112C641.288 322.476 641.211 323.831 641.109 325.198C641.087 325.491 641.054 325.753 641.019 325.999C640.302 326.641 639.925 327.389 640.35 328.21C638.77 331.669 637.433 335.215 636.285 338.873C632.909 349.639 629.474 360.61 631.59 371.931C632.084 365.701 633.124 359.33 634.368 353.202C634.439 352.851 634.516 352.502 634.597 352.154C634.605 352.117 634.613 352.08 634.621 352.044C635.061 350.167 635.633 348.347 636.329 346.555C636.337 346.536 636.344 346.517 636.351 346.497C636.443 346.261 636.541 346.027 636.637 345.792C636.836 345.307 637.041 344.822 637.258 344.34C637.332 344.176 637.402 344.01 637.47 343.843C638.483 341.36 638.911 338.563 639.818 335.994C640.035 335.409 640.262 334.827 640.5 334.249C640.514 334.215 640.528 334.181 640.543 334.147C641.185 332.589 641.895 331.05 642.646 329.528C643.054 329.221 643.272 328.46 643.624 327.769C643.697 327.632 644.266 326.724 644.436 326.2C644.878 325.345 645.318 324.489 645.764 323.635C645.75 323.64 645.737 323.645 645.724 323.65C646.169 322.83 646.616 322.014 647.06 321.201C647.157 321.022 647.256 320.843 647.354 320.664C647.513 320.379 647.672 320.094 647.831 319.81C649.318 317.149 650.894 314.542 652.531 311.967C653.116 311.048 654.511 309.731 654.779 308.699C654.789 308.66 654.791 308.625 654.797 308.588C658.349 303.599 662.439 298.997 667.343 295.351C666.75 295.992 665.49 298.166 665.157 298.597C664.137 299.915 663.031 301.142 661.92 302.384C659.93 304.609 657.988 306.905 656.262 309.332C653.105 313.772 650.382 318.444 647.808 323.21C647.783 323.238 647.757 323.264 647.733 323.293C646.44 324.887 645.625 327.298 644.694 329.122C648.38 327.415 652.455 326.303 656.238 324.787C660.01 323.276 663.679 321.593 667.222 319.617C671.931 316.991 676.815 314.026 681.264 310.67C686.362 307.508 690.646 303.155 694.428 298.587C698.902 293.182 703.003 287.73 705.539 281.168C706.784 277.943 707.764 274.581 708.346 271.179C708.371 271.031 708.403 270.87 708.439 270.703C709.033 269.528 709.565 268.327 710.011 267.098C710.719 265.149 712.391 263.005 709.254 262.32Z" fill="#AC699D"/>
<path fill-rule="evenodd" clip-rule="evenodd" d="M118.676 272.356C117.445 271.129 116.062 270.022 114.439 269.232C114.028 269.032 110.971 267.695 110.772 267.988C110.308 268.672 118.306 271.965 118.676 272.356ZM133.17 264.157C133.16 264.209 134.22 265.865 134.509 266.375C135.123 267.457 135.69 268.561 136.224 269.667C135.434 267.714 134.622 265.902 133.17 264.157ZM59.04 277.639C58.0191 277.942 56.7915 276.749 58.1158 276.455C59.1874 276.219 59.1348 276.163 59.6159 275.369C60.0066 274.723 60.2473 273.936 60.5902 273.259C61.3174 271.822 62.1423 270.452 63.1548 269.169C65.3249 266.417 67.9689 264.046 70.9343 262.047C76.1096 258.56 81.9124 255.373 88.0678 253.772C97.8551 251.226 108.994 251.069 118.797 252.834C124.868 253.927 130.416 255.828 134.447 260.329C136.462 262.578 138.044 265.213 138.735 268.115C138.915 268.874 138.882 269.717 139.108 270.46C139.455 271.602 139.302 271.298 140.752 271.52C142.335 271.762 143.918 272.01 145.499 272.262C149.641 272.921 153.807 273.622 157.842 274.692C159.17 275.044 160.469 275.475 161.738 275.975C162.698 276.353 166.52 277.54 166.984 278.688C167.757 280.598 165.167 279.732 164.362 279.316C163.657 278.952 162.934 278.612 162.199 278.299C160.35 277.511 158.424 276.901 156.454 276.416C154.325 275.892 152.153 275.5 149.989 275.108C147.971 274.743 145.945 274.411 143.917 274.093C142.791 273.917 141.663 273.745 140.535 273.574C140.15 273.515 139.471 273.208 139.522 273.669C137.151 273.249 134.587 273.309 132.173 273.193C129.215 273.051 126.246 272.935 123.278 273.02C121.138 273.081 118.996 273.211 116.866 273.475C115.622 273.63 114.397 273.857 113.176 274.143C112.506 274.301 109.861 274.635 109.496 275.173C109.653 274.942 112.571 275.166 112.943 275.153C114.429 275.102 115.903 274.966 117.383 274.814C120.131 274.531 122.879 274.384 125.635 274.405C125.624 274.851 123.742 275.644 123.282 275.939C122.252 276.601 121.265 277.324 120.345 278.116C118.723 279.511 116.781 281.239 115.659 282.892C115.99 282.405 117.621 281.771 118.199 281.399C119.127 280.803 120.035 280.166 120.894 279.486C121.688 278.858 122.428 278.18 123.156 277.487C123.884 276.793 124.872 275.352 125.829 274.89C125.887 274.862 126.304 275.166 126.54 275.063C126.779 274.959 127.077 274.439 127.137 274.418C128.028 274.102 129.719 274.495 130.655 274.535C133.083 274.638 135.509 274.773 137.935 274.896C138.686 274.934 139.325 274.776 139.609 275.287C139.911 275.831 139.357 277.262 139.199 277.856C138.614 280.058 137.575 282.033 135.94 283.739C132.877 286.935 129.101 289.066 124.834 290.491C108.492 295.951 91.1065 298.137 74.7696 292.458C68.0062 290.107 57.8204 285.906 59.04 277.639Z" fill="#C789CC"/>
<g opacity="0.6" clip-path="url(#clip0)">
<path fill-rule="evenodd" clip-rule="evenodd" d="M806.976 534.838C818.089 604.138 548.581 649.34 316.609 617.795C84.6377 586.249 -21.78 463.061 88.9131 397.422C199.606 331.782 795.863 465.538 806.976 534.838Z" fill="#DDE3E9"/>
</g>
<g clip-path="url(#clip1)">
<rect x="214.684" y="120.536" width="144.824" height="275.075" rx="7.28676" fill="#F2F2F2"/>
<path fill-rule="evenodd" clip-rule="evenodd" d="M286.641 378.306C294.187 378.306 300.304 372.189 300.304 364.643C300.304 357.097 294.187 350.98 286.641 350.98C279.096 350.98 272.979 357.097 272.979 364.643C272.979 372.189 279.096 378.306 286.641 378.306Z" fill="white"/>
<path fill-rule="evenodd" clip-rule="evenodd" d="M274.8 138.753C275.806 138.753 276.622 137.937 276.622 136.931C276.622 135.925 275.806 135.109 274.8 135.109C273.794 135.109 272.979 135.925 272.979 136.931C272.979 137.937 273.794 138.753 274.8 138.753Z" fill="white"/>
<rect x="281.176" y="135.109" width="19.1277" height="3.64338" rx="1.82169" fill="white"/>
<g clip-path="url(#clip2)">
<g clip-path="url(#clip3)">
<rect x="227.436" y="146.04" width="119.321" height="49.1856" rx="3.64338" fill="white"/>
<g clip-path="url(#clip4)">
<rect x="262.959" y="160.796" width="66.4917" height="7.37784" rx="2.73253" fill="#DDE3E9"/>
<rect x="262.959" y="173.093" width="44.6314" height="7.37784" rx="2.73253" fill="#DDE3E9"/>
</g>
<path fill-rule="evenodd" clip-rule="evenodd" d="M246.563 181.563C252.599 181.563 257.493 176.67 257.493 170.633C257.493 164.597 252.599 159.703 246.563 159.703C240.526 159.703 235.633 164.597 235.633 170.633C235.633 176.67 240.526 181.563 246.563 181.563Z" fill="#C5CFD6"/>
</g>
<g clip-path="url(#clip5)">
<rect x="227.436" y="202.513" width="119.321" height="38.2555" rx="3.64338" fill="white"/>
<g clip-path="url(#clip6)">
<rect x="262.959" y="213.989" width="66.4917" height="5.73832" rx="2.73253" fill="#DDE3E9"/>
<rect x="262.959" y="223.553" width="44.6314" height="5.73832" rx="2.73253" fill="#DDE3E9"/>
</g>
<path fill-rule="evenodd" clip-rule="evenodd" d="M246.563 232.57C252.599 232.57 257.493 227.677 257.493 221.64C257.493 215.604 252.599 210.71 246.563 210.71C240.526 210.71 235.633 215.604 235.633 221.64C235.633 227.677 240.526 232.57 246.563 232.57Z" fill="#C5CFD6"/>
</g>
<g clip-path="url(#clip7)">
<rect x="227.436" y="248.055" width="119.321" height="38.2555" rx="3.64338" fill="white"/>
<g clip-path="url(#clip8)">
<rect x="262.959" y="259.531" width="66.4917" height="5.73832" rx="2.73253" fill="#DDE3E9"/>
<rect x="262.959" y="269.095" width="44.6314" height="5.73832" rx="2.73253" fill="#DDE3E9"/>
</g>
<path fill-rule="evenodd" clip-rule="evenodd" d="M246.563 278.112C252.599 278.112 257.493 273.219 257.493 267.182C257.493 261.146 252.599 256.252 246.563 256.252C240.526 256.252 235.633 261.146 235.633 267.182C235.633 273.219 240.526 278.112 246.563 278.112Z" fill="#AFB9C5"/>
</g>
<g clip-path="url(#clip9)">
<rect x="227.436" y="293.597" width="119.321" height="38.2555" rx="3.64338" fill="white"/>
<g clip-path="url(#clip10)">
<rect x="262.959" y="305.073" width="66.4917" height="5.73832" rx="2.73253" fill="#DDE3E9"/>
<rect x="262.959" y="314.638" width="44.6314" height="5.73832" rx="2.73253" fill="#DDE3E9"/>
</g>
<path fill-rule="evenodd" clip-rule="evenodd" d="M246.563 323.655C252.599 323.655 257.493 318.762 257.493 312.725C257.493 306.689 252.599 301.795 246.563 301.795C240.526 301.795 235.633 306.689 235.633 312.725C235.633 318.762 240.526 323.655 246.563 323.655Z" fill="#C5CFD6"/>
</g>
</g>
</g>
<g clip-path="url(#clip11)">
<path fill-rule="evenodd" clip-rule="evenodd" d="M242.137 342.783C240.93 342.783 239.727 342.807 238.522 342.87C237.603 342.918 236.199 342.728 235.422 343.3C234.614 343.895 234.67 345.113 234.796 345.972C235.463 350.519 237.091 354.551 240.496 357.772C245.74 362.732 251.751 365.252 258.864 366.374C263.86 367.163 268.473 366.068 272.151 362.515C274.839 367.503 276.877 373.022 277.9 378.593C278.405 381.342 278.559 384.058 278.47 386.857C278.413 388.65 278.314 390.438 278.122 392.223C278.039 392.998 277.643 394.172 277.947 394.904C278.303 395.765 279.505 395.848 280.044 395.114C280.493 394.504 280.41 393.304 280.502 392.582C280.655 391.381 280.797 390.18 280.898 388.974C281.063 387.022 281.184 385.064 281.175 383.105C281.155 378.702 280.176 374.283 278.837 370.104C276.268 362.086 272.101 354.961 265.619 349.37C261.634 345.932 257.072 344.54 251.897 343.793C248.675 343.327 245.401 342.783 242.137 342.783Z" fill="#89C5CC"/>
<path fill-rule="evenodd" clip-rule="evenodd" d="M260.747 374.663C247.723 374.663 238.952 385.16 234.804 396.069C233.241 400.182 232.874 404.697 232.272 409.015C232.078 410.401 232.15 412.512 231.588 413.747C231.384 414.194 230.916 414.355 231.139 414.965C231.275 415.335 231.54 415.561 231.94 415.634C232.759 415.785 233.917 414.893 234.62 414.541C240.445 411.619 244.273 407.101 247.396 401.574C249.331 398.148 251.295 394.592 252.445 390.83C253.147 388.533 253.556 386.113 253.796 383.73C253.891 382.791 253.982 381.83 253.977 380.886C253.971 379.949 253.535 379.453 253.222 378.638C257.568 376.993 262.473 376.544 266.875 378.249C270.946 379.826 274.329 382.873 276.222 386.7C276.714 387.695 277.094 388.745 277.37 389.816C277.551 390.517 277.56 391.427 277.895 392.061C278.708 393.597 280.419 392.57 280.255 391.139C279.797 387.148 277.514 383.142 274.596 380.367C270.915 376.868 265.927 374.663 260.747 374.663Z" fill="#89C5CC"/>
<rect x="274.799" y="144.219" width="144.824" height="275.075" rx="7.28676" fill="#DDE3E9"/>
<path fill-rule="evenodd" clip-rule="evenodd" d="M346.756 401.987C354.302 401.987 360.419 395.87 360.419 388.325C360.419 380.779 354.302 374.662 346.756 374.662C339.211 374.662 333.094 380.779 333.094 388.325C333.094 395.87 339.211 401.987 346.756 401.987Z" fill="white"/>
<path fill-rule="evenodd" clip-rule="evenodd" d="M334.915 162.435C335.922 162.435 336.737 161.62 336.737 160.614C336.737 159.608 335.922 158.792 334.915 158.792C333.909 158.792 333.094 159.608 333.094 160.614C333.094 161.62 333.909 162.435 334.915 162.435Z" fill="white"/>
<rect x="341.291" y="158.792" width="19.1277" height="3.64338" rx="1.82169" fill="white"/>
<g clip-path="url(#clip12)">
<g clip-path="url(#clip13)">
<rect x="287.551" y="169.723" width="119.321" height="49.1856" rx="3.64338" fill="white"/>
<g clip-path="url(#clip14)">
<rect x="295.748" y="184.479" width="66.4917" height="7.37784" rx="2.73253" fill="#DDE3E9"/>
<rect x="295.748" y="196.774" width="44.6314" height="7.37784" rx="2.73253" fill="#DDE3E9"/>
</g>
<path fill-rule="evenodd" clip-rule="evenodd" d="M394.12 200.691C397.641 200.691 400.496 197.837 400.496 194.315C400.496 190.794 397.641 187.939 394.12 187.939C390.599 187.939 387.744 190.794 387.744 194.315C387.744 197.837 390.599 200.691 394.12 200.691Z" fill="#DDE3E9"/>
<path fill-rule="evenodd" clip-rule="evenodd" d="M394.119 197.047C395.628 197.047 396.852 195.824 396.852 194.315C396.852 192.805 395.628 191.582 394.119 191.582C392.61 191.582 391.387 192.805 391.387 194.315C391.387 195.824 392.61 197.047 394.119 197.047Z" fill="#F2F2F2"/>
</g>
<g clip-path="url(#clip15)">
<rect x="287.551" y="226.194" width="119.321" height="38.2555" rx="3.64338" fill="white"/>
<g clip-path="url(#clip16)">
<rect x="323.074" y="237.671" width="66.4917" height="5.73832" rx="2.73253" fill="#DDE3E9"/>
<rect x="323.074" y="247.234" width="44.6314" height="5.73832" rx="2.73253" fill="#DDE3E9"/>
</g>
<path fill-rule="evenodd" clip-rule="evenodd" d="M306.678 256.253C312.715 256.253 317.608 251.359 317.608 245.323C317.608 239.286 312.715 234.393 306.678 234.393C300.642 234.393 295.748 239.286 295.748 245.323C295.748 251.359 300.642 256.253 306.678 256.253Z" fill="#C5CFD6"/>
</g>
<g clip-path="url(#clip17)">
<rect x="287.551" y="271.736" width="119.321" height="38.2555" rx="3.64338" fill="white"/>
<g clip-path="url(#clip18)">
<rect x="295.748" y="283.213" width="66.4917" height="5.73832" rx="2.73253" fill="#DDE3E9"/>
<rect x="295.748" y="292.777" width="44.6314" height="5.73832" rx="2.73253" fill="#AFB9C5"/>
</g>
<path fill-rule="evenodd" clip-rule="evenodd" d="M394.12 297.24C397.641 297.24 400.496 294.386 400.496 290.864C400.496 287.343 397.641 284.488 394.12 284.488C390.599 284.488 387.744 287.343 387.744 290.864C387.744 294.386 390.599 297.24 394.12 297.24Z" fill="#DDE3E9"/>
<path fill-rule="evenodd" clip-rule="evenodd" d="M394.119 293.597C395.628 293.597 396.852 292.374 396.852 290.864C396.852 289.355 395.628 288.132 394.119 288.132C392.61 288.132 391.387 289.355 391.387 290.864C391.387 292.374 392.61 293.597 394.119 293.597Z" fill="#F2F2F2"/>
</g>
<g clip-path="url(#clip19)">
<rect x="287.551" y="317.279" width="119.321" height="38.2555" rx="3.64338" fill="white"/>
<g clip-path="url(#clip20)">
<rect x="323.074" y="328.755" width="66.4917" height="5.73832" rx="2.73253" fill="#DDE3E9"/>
<rect x="323.074" y="338.319" width="44.6314" height="5.73832" rx="2.73253" fill="#DDE3E9"/>
</g>
<path fill-rule="evenodd" clip-rule="evenodd" d="M306.678 347.337C312.715 347.337 317.608 342.443 317.608 336.407C317.608 330.37 312.715 325.477 306.678 325.477C300.642 325.477 295.748 330.37 295.748 336.407C295.748 342.443 300.642 347.337 306.678 347.337Z" fill="#C5CFD6"/>
</g>
</g>
</g>
<g clip-path="url(#clip21)">
<rect x="334.916" y="166.989" width="305.133" height="315.152" rx="7.28676" fill="#F2F2F2"/>
<rect x="561.715" y="206.156" width="63.7591" height="73.7784" rx="7.28676" fill="white"/>
<path fill-rule="evenodd" clip-rule="evenodd" d="M593.595 248.966C601.644 248.966 608.169 242.442 608.169 234.393C608.169 226.344 601.644 219.819 593.595 219.819C585.546 219.819 579.021 226.344 579.021 234.393C579.021 242.442 585.546 248.966 593.595 248.966Z" fill="#DDE3E9"/>
<rect x="570.824" y="252.609" width="45.5422" height="5.46507" rx="2.73253" fill="#DDE3E9"/>
<rect x="578.111" y="261.718" width="30.9687" height="5.46507" rx="2.73253" fill="#DDE3E9"/>
<path d="M334.916 174.276C334.916 170.252 338.178 166.989 342.203 166.989H632.762C636.787 166.989 640.049 170.252 640.049 174.276V191.582H334.916V174.276Z" fill="#C5CFD6"/>
<path fill-rule="evenodd" clip-rule="evenodd" d="M346.757 183.384C348.769 183.384 350.4 181.753 350.4 179.741C350.4 177.729 348.769 176.098 346.757 176.098C344.744 176.098 343.113 177.729 343.113 179.741C343.113 181.753 344.744 183.384 346.757 183.384Z" fill="#F2F2F2"/>
<path fill-rule="evenodd" clip-rule="evenodd" d="M357.686 183.384C359.699 183.384 361.33 181.753 361.33 179.741C361.33 177.729 359.699 176.098 357.686 176.098C355.674 176.098 354.043 177.729 354.043 179.741C354.043 181.753 355.674 183.384 357.686 183.384Z" fill="#F2F2F2"/>
<path fill-rule="evenodd" clip-rule="evenodd" d="M368.616 183.384C370.628 183.384 372.259 181.753 372.259 179.741C372.259 177.729 370.628 176.098 368.616 176.098C366.604 176.098 364.973 177.729 364.973 179.741C364.973 181.753 366.604 183.384 368.616 183.384Z" fill="#F2F2F2"/>
<g clip-path="url(#clip22)">
<rect x="561.715" y="287.221" width="63.7591" height="176.704" rx="7.28676" fill="white"/>
<g clip-path="url(#clip23)">
<rect x="578.111" y="303.616" width="30.9687" height="23.682" rx="3.64338" fill="#DDE3E9"/>
<rect x="578.111" y="334.585" width="30.9687" height="22.7711" rx="3.64338" fill="#AFB9C5"/>
<rect x="578.111" y="364.643" width="30.9687" height="22.7711" rx="3.64338" fill="#DDE3E9"/>
<rect x="578.111" y="424.759" width="30.9687" height="22.7711" rx="3.64338" fill="#DDE3E9"/>
<rect x="578.111" y="394.701" width="30.9687" height="22.7711" rx="3.64338" fill="#C5CFD6"/>
</g>
</g>
<g clip-path="url(#clip24)">
<g clip-path="url(#clip25)">
<rect x="349.488" y="207.066" width="204.94" height="42.8097" rx="3.64338" fill="white"/>
<g clip-path="url(#clip26)">
<rect x="357.686" y="219.909" width="152.111" height="6.42145" rx="2.73253" fill="#DDE3E9"/>
<rect x="357.686" y="230.611" width="102.102" height="6.42145" rx="2.73253" fill="#DDE3E9"/>
</g>
<path fill-rule="evenodd" clip-rule="evenodd" d="M532.528 234.848C536.05 234.848 538.904 231.993 538.904 228.472C538.904 224.95 536.05 222.096 532.528 222.096C529.007 222.096 526.152 224.95 526.152 228.472C526.152 231.993 529.007 234.848 532.528 234.848Z" fill="#DDE3E9"/>
<path fill-rule="evenodd" clip-rule="evenodd" d="M532.527 231.204C534.037 231.204 535.26 229.981 535.26 228.472C535.26 226.963 534.037 225.739 532.527 225.739C531.018 225.739 529.795 226.963 529.795 228.472C529.795 229.981 531.018 231.204 532.527 231.204Z" fill="#F2F2F2"/>
</g>
<g clip-path="url(#clip27)">
<rect x="349.488" y="257.163" width="204.94" height="35.5229" rx="3.64338" fill="white"/>
<g clip-path="url(#clip28)">
<rect x="357.686" y="267.82" width="152.111" height="5.32844" rx="2.66422" fill="#DDE3E9"/>
<rect x="357.686" y="276.701" width="102.102" height="5.32844" rx="2.66422" fill="#DDE3E9"/>
</g>
<path fill-rule="evenodd" clip-rule="evenodd" d="M532.528 281.301C536.05 281.301 538.904 278.446 538.904 274.925C538.904 271.403 536.05 268.549 532.528 268.549C529.007 268.549 526.152 271.403 526.152 274.925C526.152 278.446 529.007 281.301 532.528 281.301Z" fill="#DDE3E9"/>
<path fill-rule="evenodd" clip-rule="evenodd" d="M532.527 277.657C534.037 277.657 535.26 276.434 535.26 274.925C535.26 273.416 534.037 272.192 532.527 272.192C531.018 272.192 529.795 273.416 529.795 274.925C529.795 276.434 531.018 277.657 532.527 277.657Z" fill="#F2F2F2"/>
</g>
<g clip-path="url(#clip29)">
<rect x="349.488" y="299.973" width="204.94" height="35.5229" rx="3.64338" fill="white"/>
<g clip-path="url(#clip30)">
<rect x="357.686" y="310.63" width="152.111" height="5.32844" rx="2.66422" fill="#DDE3E9"/>
<rect x="357.686" y="319.511" width="102.102" height="5.32844" rx="2.66422" fill="#DDE3E9"/>
</g>
<path fill-rule="evenodd" clip-rule="evenodd" d="M532.528 324.11C536.05 324.11 538.904 321.256 538.904 317.734C538.904 314.213 536.05 311.358 532.528 311.358C529.007 311.358 526.152 314.213 526.152 317.734C526.152 321.256 529.007 324.11 532.528 324.11Z" fill="#DDE3E9"/>
<path fill-rule="evenodd" clip-rule="evenodd" d="M532.527 320.467C534.037 320.467 535.26 319.244 535.26 317.734C535.26 316.225 534.037 315.002 532.527 315.002C531.018 315.002 529.795 316.225 529.795 317.734C529.795 319.244 531.018 320.467 532.527 320.467Z" fill="#AFB9C5"/>
</g>
<g clip-path="url(#clip31)">
<rect x="349.488" y="428.402" width="204.94" height="35.5229" rx="3.64338" fill="white"/>
<g clip-path="url(#clip32)">
<rect x="357.686" y="439.06" width="152.111" height="5.32844" rx="2.66422" fill="#DDE3E9"/>
<rect x="357.686" y="447.939" width="102.102" height="5.32844" rx="2.66422" fill="#DDE3E9"/>
</g>
<path fill-rule="evenodd" clip-rule="evenodd" d="M532.528 452.54C536.05 452.54 538.904 449.685 538.904 446.164C538.904 442.643 536.05 439.788 532.528 439.788C529.007 439.788 526.152 442.643 526.152 446.164C526.152 449.685 529.007 452.54 532.528 452.54Z" fill="#DDE3E9"/>
<path fill-rule="evenodd" clip-rule="evenodd" d="M532.527 448.896C534.037 448.896 535.26 447.672 535.26 446.163C535.26 444.654 534.037 443.431 532.527 443.431C531.018 443.431 529.795 444.654 529.795 446.163C529.795 447.672 531.018 448.896 532.527 448.896Z" fill="#F2F2F2"/>
</g>
<g clip-path="url(#clip33)">
<rect x="349.488" y="385.593" width="204.94" height="35.5229" rx="3.64338" fill="white"/>
<g clip-path="url(#clip34)">
<rect x="357.686" y="396.249" width="152.111" height="5.32844" rx="2.66422" fill="#DDE3E9"/>
<rect x="357.686" y="405.13" width="102.102" height="5.32844" rx="2.66422" fill="#DDE3E9"/>
</g>
<path fill-rule="evenodd" clip-rule="evenodd" d="M532.528 409.729C536.05 409.729 538.904 406.875 538.904 403.353C538.904 399.832 536.05 396.978 532.528 396.978C529.007 396.978 526.152 399.832 526.152 403.353C526.152 406.875 529.007 409.729 532.528 409.729Z" fill="#DDE3E9"/>
<path fill-rule="evenodd" clip-rule="evenodd" d="M532.527 406.086C534.037 406.086 535.26 404.863 535.26 403.354C535.26 401.844 534.037 400.621 532.527 400.621C531.018 400.621 529.795 401.844 529.795 403.354C529.795 404.863 531.018 406.086 532.527 406.086Z" fill="#F2F2F2"/>
</g>
<g clip-path="url(#clip35)">
<rect x="349.488" y="342.782" width="204.94" height="35.5229" rx="3.64338" fill="white"/>
<g clip-path="url(#clip36)">
<rect x="357.686" y="353.439" width="152.111" height="5.32844" rx="2.66422" fill="#DDE3E9"/>
<rect x="357.686" y="362.32" width="102.102" height="5.32844" rx="2.66422" fill="#DDE3E9"/>
</g>
<path fill-rule="evenodd" clip-rule="evenodd" d="M532.528 366.92C536.05 366.92 538.904 364.065 538.904 360.544C538.904 357.023 536.05 354.168 532.528 354.168C529.007 354.168 526.152 357.023 526.152 360.544C526.152 364.065 529.007 366.92 532.528 366.92Z" fill="#DDE3E9"/>
<path fill-rule="evenodd" clip-rule="evenodd" d="M532.527 363.277C534.037 363.277 535.26 362.053 535.26 360.544C535.26 359.035 534.037 357.812 532.527 357.812C531.018 357.812 529.795 359.035 529.795 360.544C529.795 362.053 531.018 363.277 532.527 363.277Z" fill="#F2F2F2"/>
</g>
</g>
</g>
<path fill-rule="evenodd" clip-rule="evenodd" d="M715.635 322.176C712.043 319.74 707.265 319.102 702.966 319.102C686.174 319.102 670.39 325.332 656.754 334.615C649.283 339.702 642.599 346.179 636.698 352.923C633.292 356.817 630.255 361.028 628.105 365.712C626.654 368.874 625.658 372.168 624.983 375.566C624.161 379.706 623.507 383.931 623.211 388.141C623.095 389.799 622.132 398.595 624.888 398.744C624.872 398.961 624.869 399.167 624.885 399.353C618.901 408.71 615.203 419.677 611.774 430.075C608.791 439.123 606.133 448.247 604.407 457.607C602.135 469.931 600.643 482.439 599.933 494.94C599.781 497.626 599.676 500.314 599.586 503.004C599.51 505.299 599.432 507.593 599.357 509.888C599.273 512.459 598.82 515.419 599.229 517.976C599.585 520.202 601.512 519.865 601.597 517.649C601.7 514.974 601.683 512.294 601.8 509.616C601.956 506.063 602.116 502.51 602.29 498.958C603.501 474.281 608.042 449.967 616.422 426.658C619.814 417.225 623.7 408.296 628.695 399.57C633.086 391.898 638.369 384.47 643.768 377.553C649.016 370.831 654.472 364.264 660.903 358.568C666.121 353.947 671.861 349.92 677.761 346.174C685.255 341.416 692.735 336.773 700.852 333.12C705.072 331.222 709.371 329.522 713.624 327.7C714.389 327.373 715.209 327.055 715.945 326.675C718.4 325.409 717.592 323.503 715.635 322.176Z" fill="#D4B2C7"/>
<path fill-rule="evenodd" clip-rule="evenodd" d="M648.079 408.364C654.89 408.364 660.95 409.249 667.226 411.956C672.642 414.292 677.579 417.384 682.372 420.751C689.113 425.486 694.424 430.997 698.141 438.299C700.361 442.661 701.99 448.834 700.499 453.592C698.742 459.196 693.919 463.87 687.566 462.882C683.637 462.272 680.036 459.672 677.05 457.225C673.479 454.297 670.62 450.776 668.259 446.866C664.408 440.487 662.145 433.277 658.873 426.612C657.321 423.448 655.821 420.262 653.961 417.256C653.041 415.767 652.061 414.293 650.664 413.186C649.917 412.595 646.767 411.57 647.972 410.241C630.31 410.473 614.664 424.038 611.273 440.827C610.958 442.392 610.711 443.97 610.45 445.545C610.286 446.539 610.352 450.205 609.463 450.84C607.503 452.242 608.327 447.985 608.411 447.372C608.629 445.789 608.86 444.206 609.104 442.626C610.428 434.033 614.253 426.045 620.633 419.917C627.928 412.909 637.772 408.364 648.079 408.364Z" fill="#89C5CC"/>
<path fill-rule="evenodd" clip-rule="evenodd" d="M68.2569 437.487C85.2592 466.01 105.061 493.629 116.953 524.815C116.474 521.139 115.966 517.467 115.397 513.8C112.38 494.362 108.63 475.066 104.689 455.793C102.682 445.981 100.56 436.204 98.3826 426.427C97.2118 421.176 96.0553 415.922 94.8603 410.676C94.5709 409.405 94.3222 407.186 93.9598 404.937C105.517 442.861 116.662 480.814 124.814 519.65C125.883 524.747 126.794 529.835 127.54 534.914C127.795 533.755 128.046 532.597 128.321 531.441C131.62 517.59 136.567 503.848 142.459 490.897C145.275 484.703 148.51 478.645 152.319 473C154.694 469.482 160.296 465.299 162.462 461.695C150.613 483.429 146.334 510.623 139.492 534.252C137.822 540.018 136.141 545.775 134.495 551.542C144.813 530.849 160.822 513.848 183.08 506.48C156.137 524.282 139.977 555.457 129.087 587.342C129.051 587.72 129.008 588.098 128.972 588.477C132.176 582.395 136.213 576.894 141.683 573.042C153.392 564.794 166.382 567.197 177.74 574.272C168.825 568.605 152.715 573.765 145.214 579.524C139.845 583.647 135.256 589.178 131.271 594.574C130.316 595.867 129.013 597.377 127.637 598.987C125.708 611.512 122.563 623.951 118.112 636.291C118.846 632.749 118.315 627.084 118.519 624.444C118.541 624.158 118.559 623.872 118.581 623.587C117.904 626.289 117.251 628.96 116.621 631.588C117.872 626.573 118.552 621.338 119.083 616.049C119.22 613.775 119.353 611.502 119.494 609.229C119.45 604.916 119.272 600.585 118.971 596.247C117.906 592.031 116.713 588.054 115.729 584.747C112.178 572.815 106.974 561.383 100.567 550.718C94.7223 540.986 87.7258 532.17 79.6488 524.198C75.2946 519.901 70.7376 515.809 66.2449 511.66C64.6203 510.16 61.7165 506.472 59.2051 504.549C77.4953 514.633 96.321 525.542 109.664 541.789C108.099 535.782 106.4 529.86 104.603 524.056C95.4851 494.613 83.9722 464.098 68.2569 437.487Z" fill="#DDE3E9"/>
<path fill-rule="evenodd" clip-rule="evenodd" d="M86.5312 598.946C86.5312 631.644 89.1206 658.151 123.876 658.151C158.631 658.151 161.221 631.644 161.221 598.946" fill="#BF88B2"/>
<rect x="562.627" y="127.823" width="5.46507" height="22.7711" rx="2.73253" fill="#DDE3E9"/>
<rect x="575.379" y="113.249" width="5.46507" height="37.3446" rx="2.73253" fill="#DDE3E9"/>
<rect x="588.131" y="105.963" width="5.46507" height="44.6314" rx="2.73253" fill="#DDE3E9"/>
<rect x="600.883" y="113.249" width="5.46507" height="37.3446" rx="2.73253" fill="#DDE3E9"/>
<rect x="613.635" y="98.6758" width="5.46507" height="51.9181" rx="2.73253" fill="#C5CFD6"/>
<path fill-rule="evenodd" clip-rule="evenodd" d="M114.49 377.629C114.49 367.483 122.69 359.179 132.707 359.179V377.629L120.258 391.058C116.716 387.775 114.49 382.959 114.49 377.629Z" fill="#F2F2F2"/>
<path fill-rule="evenodd" clip-rule="evenodd" d="M132.225 377.396H150.621C150.621 382.151 148.681 386.607 145.614 389.845C142.241 393.386 137.438 395.612 132.225 395.612C127.422 395.612 123.026 393.691 119.652 390.655L132.225 377.396Z" fill="#AFB9C5"/>
<path fill-rule="evenodd" clip-rule="evenodd" d="M150.924 377.396C150.924 367.378 142.724 359.179 132.707 359.179V377.396H150.924ZM123.599 359.179L130.886 375.574L114.491 368.287C116.112 364.037 119.753 360.8 123.599 359.179Z" fill="#C5CFD6"/>
<path fill-rule="evenodd" clip-rule="evenodd" d="M707.237 385.756C705.487 387.614 703.008 388.781 700.25 388.781C694.951 388.781 690.656 384.499 690.656 379.217C690.656 373.935 694.951 369.653 700.25 369.653V351.892C685.176 351.892 672.838 364.191 672.838 379.217C672.838 394.243 685.176 406.542 700.25 406.542C708.168 406.542 715.324 403.203 720.202 397.891L707.237 385.756Z" fill="#F2F2F2"/>
<path fill-rule="evenodd" clip-rule="evenodd" d="M700.164 351.892V369.653C705.446 369.653 709.728 373.935 709.728 379.217H727.489C727.489 364.191 715.19 351.892 700.164 351.892Z" fill="#AFB9C5"/>
<path fill-rule="evenodd" clip-rule="evenodd" d="M709.361 379.217C709.361 382.32 707.899 385.078 705.629 386.859L716.798 401.077C723.299 395.987 727.489 388.097 727.489 379.217H709.361Z" fill="#C5CFD6"/>
<path fill-rule="evenodd" clip-rule="evenodd" d="M533.526 134.659C532.179 136.083 530.272 136.978 528.151 136.978C524.075 136.978 520.77 133.695 520.77 129.646C520.77 125.596 524.075 122.313 528.151 122.313V108.696C516.555 108.696 507.064 118.126 507.064 129.646C507.064 141.166 516.555 150.595 528.151 150.595C534.241 150.595 539.746 148.035 543.498 143.963L533.526 134.659Z" fill="#F2F2F2"/>
<path fill-rule="evenodd" clip-rule="evenodd" d="M528.014 108.696V122.313C532.063 122.313 535.346 125.596 535.346 129.646H548.963C548.963 118.126 539.534 108.696 528.014 108.696Z" fill="#C4AFC5"/>
<path fill-rule="evenodd" clip-rule="evenodd" d="M535.367 129.646C535.367 131.973 534.271 134.042 532.568 135.378L540.945 146.041C545.821 142.223 548.964 136.306 548.964 129.646H535.367Z" fill="#D6C5D6"/>
<path fill-rule="evenodd" clip-rule="evenodd" d="M201.939 150.582C201.935 150.591 201.931 150.6 201.926 150.611C201.931 150.602 201.939 150.566 201.939 150.582Z" fill="#C5CFD6"/>
<path fill-rule="evenodd" clip-rule="evenodd" d="M201.93 150.596C201.93 150.598 201.928 150.601 201.928 150.605C201.928 150.596 201.945 150.568 201.93 150.596Z" fill="#C5CFD6"/>
<path fill-rule="evenodd" clip-rule="evenodd" d="M201.993 150.442C201.981 150.478 201.964 150.513 201.95 150.549C201.957 150.531 201.964 150.516 201.972 150.498C201.782 150.972 201.902 150.664 201.993 150.442Z" fill="#C5CFD6"/>
<path fill-rule="evenodd" clip-rule="evenodd" d="M201.953 150.551C201.945 150.568 201.938 150.586 201.931 150.602C201.878 150.704 201.953 150.551 201.953 150.551Z" fill="#C5CFD6"/>
<path fill-rule="evenodd" clip-rule="evenodd" d="M201.931 150.596C201.931 150.594 201.931 150.594 201.933 150.593C201.931 150.594 201.931 150.594 201.931 150.596Z" fill="#C5CFD6"/>
<path fill-rule="evenodd" clip-rule="evenodd" d="M201.923 150.609C201.912 150.631 201.974 150.526 201.923 150.609V150.609Z" fill="#C5CFD6"/>
<path fill-rule="evenodd" clip-rule="evenodd" d="M201.931 150.596L201.934 150.593C201.932 150.594 201.932 150.596 201.931 150.596Z" fill="#C5CFD6"/>
<rect x="158.211" y="103.23" width="86.5302" height="57.3832" rx="3.64338" fill="#E9DDE3"/>
<path fill-rule="evenodd" clip-rule="evenodd" d="M191 119.626L165.496 160.614H216.503L191 119.626Z" fill="#AFB9C5"/>
<path fill-rule="evenodd" clip-rule="evenodd" d="M216.048 130.556L193.732 160.614H238.364L216.048 130.556Z" fill="#C5CFD6"/>
<path fill-rule="evenodd" clip-rule="evenodd" d="M225.614 130.555C230.141 130.555 233.811 126.885 233.811 122.358C233.811 117.83 230.141 114.16 225.614 114.16C221.086 114.16 217.416 117.83 217.416 122.358C217.416 126.885 221.086 130.555 225.614 130.555Z" fill="white"/>
<path fill-rule="evenodd" clip-rule="evenodd" d="M636.397 539.514C636.401 539.523 636.405 539.532 636.41 539.543C636.405 539.534 636.397 539.497 636.397 539.514Z" fill="#C5CFD6"/>
<path fill-rule="evenodd" clip-rule="evenodd" d="M636.406 539.527C636.406 539.529 636.408 539.533 636.408 539.537C636.408 539.527 636.391 539.5 636.406 539.527Z" fill="#C5CFD6"/>
<path fill-rule="evenodd" clip-rule="evenodd" d="M636.342 539.373C636.355 539.41 636.372 539.444 636.386 539.481C636.379 539.463 636.372 539.448 636.364 539.43C636.554 539.903 636.434 539.596 636.342 539.373Z" fill="#C5CFD6"/>
<path fill-rule="evenodd" clip-rule="evenodd" d="M636.383 539.483C636.391 539.499 636.398 539.518 636.405 539.534C636.458 539.636 636.383 539.483 636.383 539.483Z" fill="#C5CFD6"/>
<path fill-rule="evenodd" clip-rule="evenodd" d="M636.405 539.528C636.405 539.526 636.405 539.526 636.403 539.524C636.405 539.526 636.405 539.526 636.405 539.528Z" fill="#C5CFD6"/>
<path fill-rule="evenodd" clip-rule="evenodd" d="M636.413 539.541C636.424 539.563 636.362 539.457 636.413 539.541V539.541Z" fill="#C5CFD6"/>
<path fill-rule="evenodd" clip-rule="evenodd" d="M636.405 539.528L636.402 539.524C636.404 539.526 636.404 539.528 636.405 539.528Z" fill="#C5CFD6"/>
<rect width="129.34" height="85.6194" rx="3.64338" transform="matrix(-1 0 0 1 701.074 469.391)" fill="#DDE3E9"/>
<path fill-rule="evenodd" clip-rule="evenodd" d="M653.049 493.983L690.443 555.01H615.654L653.049 493.983Z" fill="#AFB9C5"/>
<path fill-rule="evenodd" clip-rule="evenodd" d="M614.494 510.33L647.553 555.01H581.435L614.494 510.33Z" fill="#C5CFD6"/>
<path fill-rule="evenodd" clip-rule="evenodd" d="M600.426 510.379C593.635 510.379 588.13 504.874 588.13 498.083C588.13 491.291 593.635 485.786 600.426 485.786C607.217 485.786 612.723 491.291 612.723 498.083C612.723 504.874 607.217 510.379 600.426 510.379Z" fill="white"/>
<path fill-rule="evenodd" clip-rule="evenodd" d="M326.935 324.483C332.834 328.038 338.629 329.756 341.349 329.055C348.171 327.297 348.798 302.341 343.52 292.503C338.242 282.665 311.108 278.377 309.74 297.869C309.265 304.635 312.106 310.672 316.303 315.599L308.777 350.675H330.638L326.935 324.483Z" fill="#915B3C"/>
<path fill-rule="evenodd" clip-rule="evenodd" d="M314.624 319.987C311.88 307.78 304.064 299.46 305.258 294.004C306.452 288.548 311.621 287.219 311.621 287.219C311.621 287.219 314.295 276.402 328.867 278.017C343.44 279.633 352.334 285.684 348.493 299.001C344.962 299.001 340.7 297.724 334.806 299.912C332.001 300.953 330.793 306.37 330.793 306.37H328.13C328.13 306.37 324.252 299.942 320.483 301.646C316.714 303.349 318.77 309.923 318.77 309.923L317.458 319.987H314.624Z" fill="#191847"/>
<path fill-rule="evenodd" clip-rule="evenodd" d="M247.751 464.53C239.703 464.53 233.178 471.055 233.178 479.104V562.901C233.178 570.95 239.703 577.475 247.751 577.475H352.498C360.547 577.475 367.072 570.95 367.072 562.901V479.104C367.072 471.055 360.547 464.53 352.498 464.53H247.751ZM262.324 490.034C260.312 490.034 258.681 491.666 258.681 493.678V548.328C258.681 550.341 260.312 551.972 262.324 551.972H337.924C339.936 551.972 341.568 550.341 341.568 548.328V493.678C341.568 491.666 339.936 490.034 337.924 490.034H262.324Z" fill="#C5CFD6"/>
<path fill-rule="evenodd" clip-rule="evenodd" d="M457.389 572.921C439.431 550.992 427.28 534.735 420.937 524.149C410.075 506.024 401.185 489.896 398.38 483.735C391.69 469.044 413.781 462.165 418.781 469.017C426.348 479.389 442.509 512.025 467.264 566.926L457.389 572.921Z" fill="#B28B67"/>
<path fill-rule="evenodd" clip-rule="evenodd" d="M420.59 566.545L387.169 482.416C380.021 467.08 414.541 457 419.794 464.137C431.721 480.34 460.068 544.26 463.621 549.088L420.59 566.545Z" fill="#2F3676"/>
<path fill-rule="evenodd" clip-rule="evenodd" d="M331.578 549.674C338.088 540.177 361.768 508.228 374.666 495.008C378.372 491.21 381.989 487.564 385.409 484.166C395.576 474.067 415.822 491.041 405.674 500.24C380.401 523.148 343.526 554.073 340.445 556.83C336.127 560.695 327.486 555.642 331.578 549.674Z" fill="#915B3C"/>
<path fill-rule="evenodd" clip-rule="evenodd" d="M335.795 545.764C335.164 544.904 333.942 544.7 333.126 545.387C331.637 546.639 329.496 548.569 328.723 549.907C327.491 552.041 325.838 556.545 325.838 556.545C328.314 557.974 370.329 582.232 370.329 582.232C370.329 582.232 375.373 577.499 371.901 574.885C368.428 572.271 366.17 570.476 366.17 570.476L350.813 549.318C350.512 548.903 349.927 548.818 349.52 549.131L346.33 551.588C346.33 551.588 341.939 551.205 339.776 549.956C338.46 549.196 336.852 547.205 335.795 545.764Z" fill="#E4E4E4"/>
<path fill-rule="evenodd" clip-rule="evenodd" d="M452.19 568.626C451.213 568.196 450.053 568.631 449.69 569.633C449.027 571.462 448.137 574.204 448.137 575.75C448.137 578.214 448.958 582.94 448.958 582.94C451.816 582.94 500.331 582.94 500.331 582.94C500.331 582.94 502.333 576.32 498.019 575.792C493.705 575.264 490.851 574.839 490.851 574.839L466.973 564.194C466.504 563.985 465.956 564.204 465.76 564.679L464.225 568.402C464.225 568.402 460.231 570.265 457.734 570.265C456.214 570.265 453.826 569.345 452.19 568.626Z" fill="#E4E4E4"/>
<path fill-rule="evenodd" clip-rule="evenodd" d="M375.143 486.618C375.143 486.618 333.477 479.83 319.325 477.335C292.435 472.593 284.593 458.123 289.229 426.55L338.775 426.55C348.61 429.39 420.964 461.681 420.964 461.681C429.642 465.989 428.026 478.691 426.44 482.876C426.343 483.132 382.549 558.085 382.549 558.085L342.018 532.265L375.22 489.661C375.22 489.661 376.535 487.011 375.143 486.618Z" fill="#5C63AB"/>
<path fill-rule="evenodd" clip-rule="evenodd" d="M407.769 435.962L378.714 414.627L372.292 430.504L401.063 442.435C409.2 451.993 413.75 455.978 414.713 454.389C415.525 453.049 414.891 451.794 414.306 450.639C413.85 449.739 413.425 448.899 413.738 448.126C414.453 446.359 419.919 446.545 425.098 446.943C430.278 447.341 428.768 445.037 427.519 443.899C422.232 440.734 415.649 438.089 407.769 435.962ZM255.401 473.556C258.07 468.141 267.16 415.364 267.16 415.364L286.194 415.439C286.194 415.439 268.565 472.349 267.16 475.831C265.334 480.354 268.435 486.927 270.537 491.383C270.862 492.073 271.164 492.711 271.419 493.284C268.502 494.589 267.101 493.012 265.623 491.348C263.955 489.47 262.189 487.482 258.033 489.415C256.427 490.162 254.908 491.046 253.423 491.909C248.295 494.889 243.584 497.628 237.176 493.673C236.16 493.046 235.046 490.686 237.736 488.842C244.438 484.246 254.096 476.204 255.401 473.556Z" fill="#915B3C"/>
<path fill-rule="evenodd" clip-rule="evenodd" d="M321.251 335.493L329.127 334.142C358.35 359.387 370.353 407.884 406.173 433.576L397.551 444.262C335.41 436.568 320.008 377.413 321.251 335.493Z" fill="#E83913"/>
<path fill-rule="evenodd" clip-rule="evenodd" d="M286.916 434.473C286.916 434.473 334.287 434.473 356.606 434.473C359.791 434.473 359.19 429.875 358.73 427.554C353.417 400.775 332.678 371.908 332.678 333.789L312.576 330.637C295.949 357.378 290.199 390.301 286.916 434.473Z" fill="#DDE3E9"/>
<path fill-rule="evenodd" clip-rule="evenodd" d="M289.588 356.606C285.93 356.345 282.628 354.815 280.541 351.049C273.194 337.791 275.847 330.492 283.699 328.093C288.017 326.773 292.078 327.674 296.939 328.752C300.918 329.634 305.433 330.636 311.064 330.636C311.611 330.636 312.108 330.672 312.56 330.743L319.226 331.123C319.226 331.123 346.309 422.909 334.164 453.6H279.081C275.949 461.122 272.878 467.686 269.984 472.728H255.038C253.43 420.735 273.114 380.729 289.588 356.606Z" fill="#FF2121"/>
<path fill-rule="evenodd" clip-rule="evenodd" d="M279.082 453.601C283.191 443.731 287.405 432.211 291.46 420.314C292.97 433.416 295.484 446.575 299.67 453.601H279.082Z" fill="black" fill-opacity="0.1"/>
<defs>
<clipPath id="clip0">
<rect width="762.687" height="248.243" fill="white" transform="translate(44.9316 379.79)"/>
</clipPath>
<clipPath id="clip1">
<rect width="144.824" height="275.075" fill="white" transform="translate(214.684 120.536)"/>
</clipPath>
<clipPath id="clip2">
<rect width="119.321" height="185.812" fill="white" transform="translate(227.436 146.04)"/>
</clipPath>
<clipPath id="clip3">
<rect width="119.321" height="49.1856" fill="white" transform="translate(227.436 146.04)"/>
</clipPath>
<clipPath id="clip4">
<rect width="66.4917" height="19.6742" fill="white" transform="translate(262.959 160.796)"/>
</clipPath>
<clipPath id="clip5">
<rect width="119.321" height="38.2555" fill="white" transform="translate(227.436 202.513)"/>
</clipPath>
<clipPath id="clip6">
<rect width="66.4917" height="15.3022" fill="white" transform="translate(262.959 213.989)"/>
</clipPath>
<clipPath id="clip7">
<rect width="119.321" height="38.2555" fill="white" transform="translate(227.436 248.055)"/>
</clipPath>
<clipPath id="clip8">
<rect width="66.4917" height="15.3022" fill="white" transform="translate(262.959 259.531)"/>
</clipPath>
<clipPath id="clip9">
<rect width="119.321" height="38.2555" fill="white" transform="translate(227.436 293.597)"/>
</clipPath>
<clipPath id="clip10">
<rect width="66.4917" height="15.3022" fill="white" transform="translate(262.959 305.073)"/>
</clipPath>
<clipPath id="clip11">
<rect width="188.545" height="275.075" fill="white" transform="translate(231.078 144.219)"/>
</clipPath>
<clipPath id="clip12">
<rect width="119.321" height="185.812" fill="white" transform="translate(287.551 169.723)"/>
</clipPath>
<clipPath id="clip13">
<rect width="119.321" height="49.1856" fill="white" transform="translate(287.551 169.723)"/>
</clipPath>
<clipPath id="clip14">
<rect width="66.4917" height="19.6742" fill="white" transform="translate(295.748 184.479)"/>
</clipPath>
<clipPath id="clip15">
<rect width="119.321" height="38.2555" fill="white" transform="translate(287.551 226.194)"/>
</clipPath>
<clipPath id="clip16">
<rect width="66.4917" height="15.3022" fill="white" transform="translate(323.074 237.671)"/>
</clipPath>
<clipPath id="clip17">
<rect width="119.321" height="38.2555" fill="white" transform="translate(287.551 271.736)"/>
</clipPath>
<clipPath id="clip18">
<rect width="66.4917" height="15.3022" fill="white" transform="translate(295.748 283.213)"/>
</clipPath>
<clipPath id="clip19">
<rect width="119.321" height="38.2555" fill="white" transform="translate(287.551 317.279)"/>
</clipPath>
<clipPath id="clip20">
<rect width="66.4917" height="15.3022" fill="white" transform="translate(323.074 328.755)"/>
</clipPath>
<clipPath id="clip21">
<rect width="305.133" height="315.152" fill="white" transform="translate(334.916 166.989)"/>
</clipPath>
<clipPath id="clip22">
<rect width="63.7591" height="176.704" fill="white" transform="translate(561.715 287.221)"/>
</clipPath>
<clipPath id="clip23">
<rect width="30.9687" height="143.913" fill="white" transform="translate(578.111 303.616)"/>
</clipPath>
<clipPath id="clip24">
<rect width="204.94" height="256.858" fill="white" transform="translate(349.488 207.066)"/>
</clipPath>
<clipPath id="clip25">
<rect width="204.94" height="42.8097" fill="white" transform="translate(349.488 207.066)"/>
</clipPath>
<clipPath id="clip26">
<rect width="152.111" height="17.1239" fill="white" transform="translate(357.686 219.909)"/>
</clipPath>
<clipPath id="clip27">
<rect width="204.94" height="35.5229" fill="white" transform="translate(349.488 257.163)"/>
</clipPath>
<clipPath id="clip28">
<rect width="152.111" height="14.2092" fill="white" transform="translate(357.686 267.82)"/>
</clipPath>
<clipPath id="clip29">
<rect width="204.94" height="35.5229" fill="white" transform="translate(349.488 299.973)"/>
</clipPath>
<clipPath id="clip30">
<rect width="152.111" height="14.2092" fill="white" transform="translate(357.686 310.63)"/>
</clipPath>
<clipPath id="clip31">
<rect width="204.94" height="35.5229" fill="white" transform="translate(349.488 428.402)"/>
</clipPath>
<clipPath id="clip32">
<rect width="152.111" height="14.2092" fill="white" transform="translate(357.686 439.06)"/>
</clipPath>
<clipPath id="clip33">
<rect width="204.94" height="35.5229" fill="white" transform="translate(349.488 385.593)"/>
</clipPath>
<clipPath id="clip34">
<rect width="152.111" height="14.2092" fill="white" transform="translate(357.686 396.249)"/>
</clipPath>
<clipPath id="clip35">
<rect width="204.94" height="35.5229" fill="white" transform="translate(349.488 342.782)"/>
</clipPath>
<clipPath id="clip36">
<rect width="152.111" height="14.2092" fill="white" transform="translate(357.686 353.439)"/>
</clipPath>
</defs>
</svg>
