<svg width="836" height="686" viewBox="0 0 836 686" fill="none" xmlns="http://www.w3.org/2000/svg">
<path fill-rule="evenodd" clip-rule="evenodd" d="M606 194C635.271 194 659 170.271 659 141C659 111.729 635.271 88 606 88C576.729 88 553 111.729 553 141C553 170.271 576.729 194 606 194Z" fill="#F2F2F2"/>
<path fill-rule="evenodd" clip-rule="evenodd" d="M606 102C607.657 102 609 100.657 609 99C609 97.3431 607.657 96 606 96C604.343 96 603 97.3431 603 99C603 100.657 604.343 102 606 102Z" fill="black" fill-opacity="0.1"/>
<path fill-rule="evenodd" clip-rule="evenodd" d="M564 144C565.657 144 567 142.657 567 141C567 139.343 565.657 138 564 138C562.343 138 561 139.343 561 141C561 142.657 562.343 144 564 144Z" fill="black" fill-opacity="0.1"/>
<path fill-rule="evenodd" clip-rule="evenodd" d="M648 144C649.657 144 651 142.657 651 141C651 139.343 649.657 138 648 138C646.343 138 645 139.343 645 141C645 142.657 646.343 144 648 144Z" fill="black" fill-opacity="0.1"/>
<path fill-rule="evenodd" clip-rule="evenodd" d="M606 186C607.657 186 609 184.657 609 183C609 181.343 607.657 180 606 180C604.343 180 603 181.343 603 183C603 184.657 604.343 186 606 186Z" fill="black" fill-opacity="0.1"/>
<path fill-rule="evenodd" clip-rule="evenodd" d="M606 105L608 140H604L606 105Z" fill="#AFB9C5"/>
<path fill-rule="evenodd" clip-rule="evenodd" d="M623.699 158.698L605.314 143.142L608.143 140.314L623.699 158.698Z" fill="#AFB9C5"/>
<path fill-rule="evenodd" clip-rule="evenodd" d="M606 145C608.209 145 610 143.209 610 141C610 138.791 608.209 137 606 137C603.791 137 602 138.791 602 141C602 143.209 603.791 145 606 145Z" fill="#C5CFD6"/>
<g opacity="0.345889" clip-path="url(#clip0_1106:8007)">
<path fill-rule="evenodd" clip-rule="evenodd" d="M276.935 470.563C284.364 404.53 682.926 277.078 756.918 339.624C830.909 402.169 812.181 533.727 657.121 563.785C502.062 593.844 269.507 536.597 276.935 470.563Z" fill="#DDE3E9"/>
</g>
<path d="M651.977 240.236L677.577 219.94C680.488 217.632 684.606 217.632 687.517 219.94L751.916 270.995C755.745 274.03 757.977 278.647 757.977 283.533V610" stroke="#CBCBCB" stroke-width="8"/>
<rect x="727.977" y="609" width="59" height="7" rx="3" fill="#AFB9C5"/>
<path d="M616.474 229.335C629.361 216.447 650.256 216.447 663.143 229.335V229.335C676.03 242.222 676.03 263.116 663.143 276.004L643.344 295.803L596.675 249.134L616.474 229.335Z" fill="#C5CFD6"/>
<path fill-rule="evenodd" clip-rule="evenodd" d="M616.205 276.527C629.092 289.414 641.597 297.804 644.135 295.265C646.674 292.727 638.284 280.222 625.397 267.335C612.51 254.447 600.005 246.058 597.466 248.596C594.928 251.135 603.317 263.64 616.205 276.527Z" fill="#F2F2F2"/>
<path fill-rule="evenodd" clip-rule="evenodd" d="M601.381 334.208C610.214 355.197 625.229 369.781 633.182 391.605C637.898 404.547 639.864 418.62 639.983 433.032C640.048 440.86 639.911 448.694 639.875 456.522C639.839 464.156 639.632 471.741 638.984 479.327C638.332 486.952 637.603 494.487 637.282 502.159C637.031 508.137 636.917 515.091 634.891 520.544C633.279 524.881 629.183 525.516 628.097 520.256C627.493 517.333 627.569 514.068 627.636 511.063C627.721 507.208 627.945 503.359 628.06 499.504C628.519 484.036 627.923 468.566 628.235 453.092C628.539 437.973 630.482 422.871 628.332 407.853C626.556 395.452 622.046 384.802 616.862 374.593C611.874 364.771 606.445 355.187 603.075 344.014C602.107 340.806 601.359 337.481 601 334.03C601.157 333.957 601.284 334.016 601.381 334.208Z" fill="#C1DEE2"/>
<path fill-rule="evenodd" clip-rule="evenodd" d="M598.974 375.617C600.723 376.88 601.7 378.728 602.882 380.551C604.352 382.817 606.081 384.863 607.551 387.131C610.615 391.86 613.308 396.879 616.102 401.799C621.406 411.137 625.433 421.091 627.427 431.895C629.495 443.092 630.052 454.648 630.919 466.012C631.839 478.056 632.765 490.188 632.887 502.279C632.942 507.696 633.235 513.446 632.584 518.825C632.179 522.173 630.668 525.027 627.261 525C620.025 524.942 616.627 516.927 615.208 510.354C613.119 500.674 612.702 490.393 613.033 480.494C613.432 468.558 615.504 456.802 616.4 444.912C617.35 432.325 616.814 419.96 612.486 408.109C610.3 402.12 607.763 396.274 605.484 390.325C604.514 387.792 603.719 385.19 602.409 382.831C600.951 380.208 599.142 377.826 598 375C598.324 375.206 598.649 375.411 598.974 375.617Z" fill="#89C5CC"/>
<path fill-rule="evenodd" clip-rule="evenodd" d="M682.334 350.518C682.556 350.345 682.778 350.173 683 350C682.361 352.693 681.207 354.88 680.324 357.341C679.531 359.554 679.129 362.058 678.595 364.477C677.34 370.158 675.89 375.711 674.706 381.44C672.36 392.777 672.804 404.99 674.342 417.568C675.795 429.45 678.092 441.313 679.187 453.192C680.095 463.043 680.485 473.202 679.619 482.601C679.031 488.984 677.103 496.606 671.848 495.962C669.374 495.659 668.084 492.681 667.564 489.32C666.729 483.922 666.554 478.246 666.229 472.878C665.502 460.896 665.358 448.951 665.214 437.092C665.078 425.904 664.705 414.494 665.452 403.587C666.173 393.063 668.428 383.58 671.653 374.83C673.351 370.22 674.97 365.502 676.878 361.108C677.793 359.001 678.911 357.139 679.827 355.033C680.563 353.339 681.148 351.601 682.334 350.518Z" fill="#C1DEE2"/>
<path fill-rule="evenodd" clip-rule="evenodd" d="M601.209 410.302C602.166 408.695 604.272 413.993 604.593 414.66C604.457 414.328 604.321 413.997 604.184 413.667C606.083 416.825 607.821 420.113 608.901 423.734C609.97 427.319 610.888 430.977 611.891 434.587C613.774 441.361 616.202 447.943 617.907 454.778C619.569 461.438 619.988 467.986 619.585 474.875C619.167 482.035 618.911 489.306 619.399 496.462C619.632 499.88 620.743 503.064 621.504 506.354C622.266 509.648 622.866 512.986 623.767 516.239C623.974 515.815 624 517.232 624 517.339C623.994 518.152 623.881 518.833 623.619 519.604C622.948 521.586 621.691 523.269 619.778 523.816C616.322 524.803 613.112 521.659 611.998 518.339C610.399 513.575 609.517 508.311 608.755 503.304C608.057 498.713 607.891 494.094 608.099 489.44C608.508 480.261 610.169 471.202 610.618 462.026C611.107 452.036 609.128 442.649 607.471 432.925C606.673 428.239 605.91 423.598 604.356 419.134C603.727 417.326 602.907 415.731 602.048 414.061C601.558 413.112 600.569 411.418 601.209 410.302Z" fill="#C1DEE2"/>
<path fill-rule="evenodd" clip-rule="evenodd" d="M629.252 394.697C628.856 406.142 628.172 417.5 626.646 428.824C625.089 440.38 623.3 451.897 621.802 463.463C620.343 474.722 618.815 486.168 619.018 497.585C619.168 505.993 617.774 520.219 627.113 524.369C636.572 528.572 638.601 510.623 639.222 504.699C640.412 493.333 640.027 481.847 639.449 470.419C638.856 458.689 637.866 447.02 636.64 435.334C635.277 422.353 634.208 409.314 633.349 396.296C632.925 389.857 632.82 383.429 632.937 376.988C633.048 370.911 632.817 364.77 630.656 359C630.543 359.082 630.431 359.164 630.318 359.246" fill="#69A1AC"/>
<path fill-rule="evenodd" clip-rule="evenodd" d="M678.083 430.955C676.382 433.433 674.667 435.887 673.061 438.512C670.186 443.209 667.587 448.432 666.805 455.147C665.169 469.2 666.481 484.379 666.798 498.863C666.863 501.822 666.489 504.693 667.655 507.51C668.713 510.064 670.691 512.01 672.576 512C676.611 511.977 675.995 502.095 676.002 497.746C676.014 490.123 675.159 482.422 675.233 474.806C675.306 467.26 675.765 459.694 676.859 452.528C677.967 445.275 679.589 438.309 681.729 431.81C682.026 430.908 684.158 423.937 682.144 425.139" fill="#89C5CC"/>
<path fill-rule="evenodd" clip-rule="evenodd" d="M660.262 356C657.609 356 657.625 369.226 657.546 370.925C657.257 377.055 657.325 383.188 657.143 389.319C656.744 402.701 656.254 416.2 654.243 429.426C653.161 436.547 651.907 443.636 650.557 450.702C649.204 457.789 647.387 464.867 646.497 472.044C645.642 478.943 646.125 485.977 646.242 492.91C646.359 499.885 646.57 506.874 647.484 513.788C647.709 515.494 647.974 517.195 648.257 518.891C648.492 520.305 648.355 522.058 648.754 523.401C649.393 525.552 652.133 526.256 653.978 525.92C658.97 525.009 662.159 518.74 663.865 514.16C666.043 508.311 667.199 501.967 668.339 495.804C669.631 488.821 670.388 481.732 670.743 474.623C671.466 460.175 670.539 445.712 669.504 431.31C668.928 423.301 668.263 415.327 667.246 407.367C666.232 399.441 664.932 391.55 664.086 383.601C663.471 377.825 662.865 372.04 662.467 366.241C662.371 364.859 662.291 356 660.262 356" fill="#69A1AC"/>
<path fill-rule="evenodd" clip-rule="evenodd" d="M656.941 452.139C656.508 438.253 650.927 377.259 649.657 360.467C649.339 356.264 646.282 338.765 645.885 334C644.81 335.347 644.901 356.309 644.913 361.126C644.926 365.891 644.335 370.576 644.031 375.315C643.721 380.151 636.572 442.601 635.645 447.247C633.799 456.491 632.564 465.976 631.611 475.428C630.683 484.639 629.24 494.358 630.482 503.618C630.767 505.75 631.219 507.848 631.955 509.806C632.749 511.922 633.294 513.879 633.932 516.093C634.958 519.659 636.815 522.789 639.668 524.262C645.517 527.281 648.658 520.447 650.251 514.497C652.793 504.995 654.426 495.338 655.191 485.359C656.037 474.318 657.287 463.255 656.941 452.139" fill="#89C5CC"/>
<rect x="595" y="493" width="91" height="91" rx="2" fill="white"/>
<rect x="585" y="503" width="10" height="113" rx="2" fill="#C5CFD6"/>
<rect x="635" y="503" width="10" height="113" rx="2" fill="#C5CFD6"/>
<rect x="686" y="503" width="10" height="113" rx="2" fill="#C5CFD6"/>
<path fill-rule="evenodd" clip-rule="evenodd" d="M455.282 319.84C461.206 323.411 467.027 325.136 469.76 324.432C476.612 322.666 477.242 297.6 471.94 287.718C466.638 277.836 439.384 273.529 438.01 293.108C437.533 299.903 440.386 305.968 444.602 310.916L437.043 346.149H459L455.282 319.84Z" fill="#B28B67"/>
<path fill-rule="evenodd" clip-rule="evenodd" d="M463.265 276.956C460.265 276.041 455.91 275.73 454.077 275.94C455.12 273.443 455.533 270.661 455.196 267.952C454.868 265.32 453.692 263.079 452.604 260.73C452.103 259.648 451.535 258.571 450.688 257.743C449.825 256.9 448.732 256.343 447.587 256.077C446.414 255.805 445.188 255.828 444.014 256.075C443.495 256.184 443.029 256.421 442.519 256.553C441.998 256.689 441.745 256.362 441.366 256.034C440.454 255.243 439.116 254.853 437.962 254.713C436.666 254.557 435.323 254.752 434.087 255.178C432.885 255.592 431.73 256.265 430.861 257.246C430.474 257.682 430.123 258.179 429.894 258.728C429.801 258.953 429.785 259.086 429.56 259.169C429.353 259.245 429.11 259.247 428.895 259.32C426.822 260.022 425.05 261.624 424.085 263.68C423.522 264.88 423.255 266.992 423.328 269.36C423.401 271.728 425.539 277.905 427.539 280.159C429.323 282.17 431.947 283.497 434.479 284.078C432.798 285.999 431.68 288.4 430.852 290.841C429.954 293.492 429.398 296.248 429.192 299.055C428.997 301.722 428.979 304.543 429.605 307.153C430.189 309.594 431.44 311.597 433.529 312.867C434.485 313.449 435.515 313.886 436.55 314.286C437.57 314.68 438.593 315.063 439.662 315.284C441.684 315.702 444.015 315.63 445.573 314.02C446.134 313.44 446.752 312.71 447.161 312.001C447.309 311.747 447.397 311.58 447.218 311.331C447.004 311.032 446.657 310.803 446.382 310.57C444.811 309.239 443.839 307.461 443.594 305.349C443.346 303.206 443.921 300.44 446.005 299.505C448.577 298.351 451.409 299.676 453.695 300.911C454.666 297.482 456.661 294.395 459.789 292.822C463.249 291.082 467.219 290.878 470.774 289.385C471.701 288.996 472.645 288.555 473.327 287.762C473.612 287.431 473.946 287.001 474.06 286.563C474.21 285.987 473.839 285.505 473.552 285.056C472.031 282.677 466.266 277.87 463.265 276.956Z" fill="#191847"/>
<path fill-rule="evenodd" clip-rule="evenodd" d="M430.637 419.34L464.15 534.825L479.913 621.532H495.734L479.941 419.34H430.637Z" fill="#997659"/>
<path fill-rule="evenodd" clip-rule="evenodd" d="M415.575 419.34C417.914 479.334 416.991 512.056 416.468 517.506C415.945 522.957 412.973 559.462 392.727 623.362H409.182C435.996 562.061 445.356 525.556 448.431 517.506C451.507 509.457 460.589 476.735 473.85 419.34H415.575Z" fill="#B28B67"/>
<path fill-rule="evenodd" clip-rule="evenodd" d="M429.918 419.34C438.635 459.079 453.713 522.511 475.15 609.638H498.29C499.999 520.211 492.729 461.353 480.137 419.34H429.918Z" fill="#69A1AC"/>
<path fill-rule="evenodd" clip-rule="evenodd" d="M415.46 419.34C417.75 479.334 411.815 538.439 393.43 610.572H418.119C444.982 550.186 464.236 491.373 477.394 419.34H415.46Z" fill="#89C5CC"/>
<path fill-rule="evenodd" clip-rule="evenodd" d="M390.383 635.255L391.22 621.76C391.256 621.174 391.826 620.773 392.4 620.895C400.329 622.58 411.266 618.787 411.266 618.787C422.273 626.584 438.141 630.162 443.729 631.233C444.81 631.441 445.503 632.531 445.203 633.59L443.953 638H411.266H392.199L390.383 635.255Z" fill="#191847"/>
<path fill-rule="evenodd" clip-rule="evenodd" d="M476.383 635.255L477.22 621.76C477.256 621.174 477.826 620.773 478.4 620.895C486.329 622.58 497.266 618.787 497.266 618.787C508.273 626.584 524.141 630.162 529.729 631.233C530.81 631.441 531.503 632.531 531.203 633.59L529.953 638H497.266H478.199L476.383 635.255Z" fill="#191847"/>
<path fill-rule="evenodd" clip-rule="evenodd" d="M508.721 347.695L476.965 365.088L488.692 377.674L511.766 356.547C523.922 353.197 529.48 350.747 528.443 349.195C527.568 347.887 526.156 347.933 524.856 347.974C523.844 348.007 522.899 348.037 522.327 347.424C521.022 346.024 523.512 341.127 526.073 336.581C528.635 332.035 525.896 332.431 524.33 333.084C519.204 336.554 514.001 341.424 508.721 347.695ZM540.649 372.099L526.7 379.762L527.494 393.76C527.494 393.76 536.529 387.24 544.301 385.073C554.211 382.31 558.221 380.199 563.064 374.029C565.655 370.727 567.854 364.09 565.388 361.929C564.441 361.1 560.916 363.059 557.32 365.057C554.579 366.58 551.796 368.127 550.081 368.48C547.773 368.955 548.044 365.963 548.26 363.573C548.414 361.858 548.541 360.452 547.668 360.858C543.585 360.928 540.649 372.099 540.649 372.099Z" fill="#997659"/>
<path fill-rule="evenodd" clip-rule="evenodd" d="M461.498 361.213C472.621 361.095 487.454 358.746 503.28 348.7L509.495 362.561C498.579 373.395 483.229 382.296 469.808 381.919C459.231 381.622 453.825 368.828 461.498 361.213Z" fill="#5D1049"/>
<path fill-rule="evenodd" clip-rule="evenodd" d="M431.498 456.173C420.923 454.794 411.207 453.527 405.449 454.661C398.989 433.68 404.353 420.47 409.305 408.275C412.29 400.925 415.125 393.944 415.131 385.852C415.149 362.29 434.068 326.021 436.852 326.021H437.652H459.713H462.237C463.372 340.602 468.216 356.39 473.091 372.278C474.23 375.989 475.37 379.704 476.465 383.412C494.913 387.601 535.881 373.023 535.881 373.023C535.881 373.023 546.222 394.418 545.442 403.529C521.597 415.984 501.16 421.537 484.322 421.904C484.857 431.894 483.641 441.4 479.556 450.087C474.083 461.725 451.288 458.753 431.498 456.173Z" fill="#720D5D"/>
<defs>
<clipPath id="clip0_1106:8007">
<rect width="765.957" height="325.85" fill="white" transform="translate(32.7617 246.153)"/>
</clipPath>
</defs>
</svg>
