<svg width="556" height="516" viewBox="0 0 556 516" fill="none" xmlns="http://www.w3.org/2000/svg">
<path fill-rule="evenodd" clip-rule="evenodd" d="M156.693 99.5524C144.918 101.085 136.615 111.873 138.148 123.647L140.858 144.472C142.286 155.445 151.752 163.403 162.565 163.195C162.574 163.246 162.583 163.296 162.593 163.347L191.35 159.604C195.318 154.571 187.179 126.839 182.121 114.687C179.249 104.622 169.37 97.9026 158.677 99.2943L156.693 99.5524Z" fill="#191847"/>
<path fill-rule="evenodd" clip-rule="evenodd" d="M164.342 147.208C171.267 150.243 177.82 151.291 180.682 150.143C187.86 147.262 185.007 120.004 177.866 110.041C170.726 100.078 140.577 99.2544 141.85 120.67C142.292 128.102 146.24 134.273 151.508 139.042L148.284 178.296L172.084 175.198L164.342 147.208Z" fill="#B28B67"/>
<path fill-rule="evenodd" clip-rule="evenodd" d="M138.718 121.204C139.32 120.43 139.903 119.682 140.489 119.004L140.357 118.238C140.357 118.238 145.836 101.974 157.319 100.479C168.792 98.9861 173.115 103.848 176.789 107.98L176.799 107.991C175.906 113.737 171.336 116.609 166.167 119.857C163.941 121.256 161.605 122.724 159.404 124.521C158.367 123.881 157.111 123.58 155.809 123.749C152.796 124.141 150.672 126.901 151.064 129.913C151.456 132.925 154.216 135.049 157.228 134.657C157.311 134.646 157.394 134.634 157.475 134.619C160.105 146.255 161.416 159.764 158.564 163.382L129.806 167.124C127.114 152.889 130.292 148.314 133.539 143.64C136.595 139.242 139.712 134.755 138.058 122.048C138.281 121.765 138.501 121.483 138.718 121.204L138.718 121.204Z" fill="#191847"/>
<path fill-rule="evenodd" clip-rule="evenodd" d="M133.384 362.85C133.384 362.85 170.366 368.186 196.256 364.817C222.145 361.448 242.35 343.188 242.35 343.188C242.35 343.188 206.098 337.488 183.502 340.429C160.906 343.37 133.384 362.85 133.384 362.85Z" fill="#621FCF"/>
<path fill-rule="evenodd" clip-rule="evenodd" d="M218.098 371.728C217.824 371.413 217.581 371.063 217.375 370.676C213.1 362.681 150.362 278.592 143.129 262.667L200.471 255.204C205.97 267.312 233.634 344.188 238.132 359.658C249.084 383.56 275.456 462.152 278.21 467.476C281.107 473.077 269.908 480.762 265.771 473.951C259.188 463.114 242.929 432.875 235.005 414.15C227.575 396.596 221.324 380.747 218.098 371.728Z" fill="#997659"/>
<path fill-rule="evenodd" clip-rule="evenodd" d="M172.625 388.909C150.106 397.825 66.3174 419.549 60.6896 421.979C54.9004 424.478 48.0156 412.771 55.0981 409.119C66.3676 403.308 97.6675 389.198 116.899 382.599C132.368 377.291 146.525 372.76 156.058 369.945C151.675 342.707 139.364 277.571 139.99 263.075L190.727 256.472C190.127 270.372 183.003 372.154 180.571 382.566C179.851 386.263 176.53 388.288 172.625 388.909V388.909Z" fill="#B28B67"/>
<path fill-rule="evenodd" clip-rule="evenodd" d="M57.1043 408.059C57.2335 406.895 56.3968 405.823 55.2271 405.771C53.0934 405.677 49.9287 405.646 48.3095 406.154C45.7286 406.963 41.0468 409.377 41.0468 409.377C41.986 412.371 57.9275 463.193 57.9275 463.193C57.9275 463.193 65.5205 463.115 64.6558 458.422C63.7911 453.729 63.299 450.6 63.299 450.6L66.6041 422.089C66.669 421.529 66.259 421.026 65.6978 420.977L61.2932 420.593C61.2932 420.593 58.0286 417.021 57.2081 414.406C56.7086 412.813 56.8877 410.009 57.1043 408.059Z" fill="#E4E4E4"/>
<path fill-rule="evenodd" clip-rule="evenodd" d="M264.614 472.023C263.49 471.693 262.289 472.331 262.035 473.474C261.572 475.559 260.992 478.67 261.211 480.353C261.56 483.035 263.123 488.065 263.123 488.065C266.235 487.66 319.054 480.786 319.054 480.786C319.054 480.786 320.296 473.295 315.524 473.331C310.752 473.368 307.585 473.309 307.585 473.309L280.081 465.103C279.541 464.942 278.974 465.259 278.829 465.803L277.685 470.074C277.685 470.074 273.601 472.669 270.882 473.022C269.227 473.238 266.497 472.575 264.614 472.023Z" fill="#E4E4E4"/>
<path fill-rule="evenodd" clip-rule="evenodd" d="M140.154 263.053C140.154 263.053 172.442 249.093 203.619 254.794C214.682 285.561 233.184 295.936 242.47 344.105C210.934 365.246 165.55 341.966 132.969 362.82C120.079 341.259 126.8 284.42 140.154 263.053Z" fill="#4F3846"/>
<path fill-rule="evenodd" clip-rule="evenodd" d="M269.68 200.742L231.223 211.178L240.53 227.805L270.66 211.075C284.529 210.644 291.108 209.457 290.397 207.514C289.798 205.876 288.276 205.556 286.874 205.262C285.782 205.032 284.763 204.818 284.31 204.007C283.274 202.157 287.199 197.532 291.11 193.304C295.021 189.076 291.988 188.786 290.144 189.081C283.767 191.479 276.945 195.366 269.68 200.742ZM91.718 321.704C93.8567 315.43 109.409 236.247 109.409 236.247L131.134 233.503C131.134 233.503 105.879 318.524 104.842 322.514C103.496 327.698 107.803 334.413 110.723 338.967C111.175 339.672 111.593 340.325 111.953 340.912C108.962 342.746 107.213 341.227 105.369 339.626C103.286 337.817 101.082 335.902 96.8309 338.597C95.1885 339.637 93.6594 340.814 92.1654 341.964C87.0048 345.936 82.2641 349.585 74.7268 346.188C73.5319 345.649 71.9854 343.237 74.6526 340.848C81.2977 334.895 90.6725 324.771 91.718 321.704Z" fill="#997659"/>
<path fill-rule="evenodd" clip-rule="evenodd" d="M159.923 159.638L177.072 158.558C186.189 195.895 212.111 216.854 262.121 202.108L275.254 250.008C228.329 262.388 183.986 248.727 168.674 198.109C164.711 185.005 161.143 171.296 159.923 159.638Z" fill="#AFB9C5"/>
<path fill-rule="evenodd" clip-rule="evenodd" d="M93.4168 311.491C97.047 247.148 115.638 195.315 149.189 155.993L150.821 155.78L150.876 155.773L150.892 155.787L177.419 158.334C181.446 189.277 191.339 211.502 200.851 232.868C204.958 242.096 208.994 251.163 212.456 260.703L142.886 269.757C143.371 281.141 144.275 292.788 145.508 304.711L93.4168 311.491Z" fill="#C5CFD6"/>
<path fill-rule="evenodd" clip-rule="evenodd" d="M142.886 269.757C141.899 246.581 142.648 224.499 145.893 203.412C147.43 225.311 150.581 252.316 157.025 267.917L142.886 269.757Z" fill="black" fill-opacity="0.1"/>
<path fill-rule="evenodd" clip-rule="evenodd" d="M411.935 82.2443C418.411 86.1475 424.774 88.0333 427.76 87.2635C435.25 85.333 435.938 57.9351 430.143 47.1339C424.349 36.3328 394.558 31.625 393.057 53.0255C392.536 60.4529 395.654 67.0814 400.262 72.4901L392 111H416L411.935 82.2443Z" fill="#B28B67"/>
<path fill-rule="evenodd" clip-rule="evenodd" d="M416.464 34.6853C413.301 34.1665 404.784 33.8099 403.213 33.8101C402.21 33.8101 401.122 34.0394 400.527 33.1178C400.041 32.3631 400.219 31.0867 400.074 30.2109C399.905 29.1935 399.665 28.1892 399.423 27.1874C398.733 24.3369 397.69 21.625 396.231 19.0788C393.493 14.3019 389.481 10.5601 384.417 8.38278C378.824 5.97866 372.496 5.42817 366.48 5.91581C360.043 6.43752 354.216 8.56259 348.138 10.5624C342.346 12.4681 336.28 13.2182 330.222 12.2876C324.119 11.35 319.507 8.04203 314.359 4.90232C309.089 1.68801 303.066 -0.414264 296.835 0.0689985C291.02 0.520259 285.659 2.92161 280.85 6.12947C276.351 9.13081 272.638 12.7418 270.542 17.824C268.287 23.2909 268.289 29.2918 271.997 34.1233C277.372 41.1265 287.35 42.9376 295.651 42.7575C300.453 42.6537 305.168 41.7772 309.701 40.1828C315.747 38.0564 320.971 34.4523 326.627 31.528C329.281 30.1558 332.025 29.0288 334.901 28.217C337.691 27.4289 340.44 27.0675 342.966 28.7533C345.639 30.5367 348.034 32.2885 351.092 33.4049C354.026 34.476 357.133 35.075 360.258 35.0509C366.339 35.0039 372.333 33.1093 378.239 31.8402C383.054 30.8056 388.207 29.7743 393.117 30.769C395.166 31.1841 398.159 32.041 398.899 34.1702C386.444 36.4274 381.553 51.8302 385.064 63.1372C386.959 69.24 398.35 76.3742 402.779 73.1658C405.585 71.1333 403.881 68.4648 402.779 66.7033C400.668 63.3299 399.945 58.9967 403.852 56.648C407.222 54.6224 410.765 59.4327 410.832 59.4274C411.758 59.3544 419.76 54.8285 425.274 48.2241C430.713 48.5466 431.539 44.96 430.24 42.0269C428.941 39.0938 420.834 35.4024 416.464 34.6853Z" fill="#191847"/>
<path fill-rule="evenodd" clip-rule="evenodd" d="M372.644 194C374.447 218.609 490.606 291.063 491.284 293.096C491.736 294.452 455.128 378.778 455.128 378.778L465.282 382.724C465.282 382.724 521.432 293.416 518.548 283.9C514.419 270.276 428.422 194.262 428.422 194.262L372.644 194Z" fill="#B28B67"/>
<path fill-rule="evenodd" clip-rule="evenodd" d="M457.801 366.082L474.38 372.117C509.337 332.674 523.039 300.13 520.541 283.549C518.043 266.968 430.725 194.06 430.725 194.06L371.456 194.06C373.478 251.052 481.144 293.313 482.584 295.742C484.024 298.17 469.852 321.957 457.801 366.082Z" fill="#2F3676"/>
<path fill-rule="evenodd" clip-rule="evenodd" d="M454.38 376.737C453.534 375.928 452.174 375.941 451.422 376.838C450.051 378.476 448.104 380.971 447.523 382.565C446.598 385.107 445.67 390.292 445.67 390.292C448.619 391.365 498.671 409.582 498.671 409.582C498.671 409.582 503.223 403.504 498.97 401.34C494.717 399.175 491.932 397.665 491.932 397.665L471.295 377.717C470.89 377.325 470.242 377.345 469.862 377.761L466.881 381.026C466.881 381.026 462.06 381.449 459.484 380.511C457.916 379.94 455.797 378.094 454.38 376.737Z" fill="#E4E4E4"/>
<path fill-rule="evenodd" clip-rule="evenodd" d="M386.001 194L334.255 318.227L283.396 423.25H295.396L426.674 194H386.001Z" fill="#997659"/>
<path fill-rule="evenodd" clip-rule="evenodd" d="M285.45 417.284C284.378 416.813 283.104 417.29 282.705 418.391C281.977 420.398 281 423.409 281 425.106C281 427.811 281.901 433 281.901 433C285.039 433 338.303 433 338.303 433C338.303 433 340.502 425.732 335.765 425.152C331.028 424.573 327.895 424.106 327.895 424.106L301.68 412.419C301.165 412.189 300.563 412.43 300.348 412.951L298.663 417.039C298.663 417.039 294.278 419.085 291.537 419.085C289.868 419.085 287.246 418.074 285.45 417.284Z" fill="#E4E4E4"/>
<path fill-rule="evenodd" clip-rule="evenodd" d="M287.988 401.433L314.65 406.433C335.266 376.125 421.54 251.852 431 194H371.644C340.055 235.821 307.639 370.624 287.988 401.433Z" fill="#5C63AB"/>
<path fill-rule="evenodd" clip-rule="evenodd" d="M512.235 150.704L476 166.617L487.57 181.439L514.707 160.633C528.262 158.143 534.549 156.004 533.566 154.216C532.738 152.709 531.197 152.624 529.778 152.545C528.672 152.484 527.64 152.427 527.076 151.705C525.789 150.056 528.966 144.961 532.188 140.255C535.41 135.549 532.39 135.719 530.623 136.282C524.711 139.572 518.582 144.379 512.235 150.704ZM350 175.066L329.508 171C315.611 207.63 307.326 227.702 304.652 231.218C302.692 233.796 290.603 240.437 282.42 243.984C279.135 245.407 279.841 248.183 280.804 249.071C286.88 254.672 292.529 252.709 298.678 250.572C300.459 249.953 302.281 249.32 304.167 248.851C309.05 247.639 310.536 250.15 311.94 252.523C313.184 254.624 314.363 256.616 317.779 255.821C317.624 255.151 317.433 254.4 317.227 253.589C315.895 248.349 313.931 240.62 316.845 236.13C318.34 233.826 329.392 213.471 350 175.066Z" fill="#B28B67"/>
<path fill-rule="evenodd" clip-rule="evenodd" d="M405.694 94.3321L414.341 92.8489C433.176 111.119 440.862 155.012 453.413 160.823C465.28 166.316 482.103 161 502.099 153.823L508.223 167.505C490.054 187.161 451.348 203.767 435.659 194.287C410.576 179.13 404.785 124.994 405.694 94.3321Z" fill="#DB2721"/>
<path fill-rule="evenodd" clip-rule="evenodd" d="M368 203C368 203 420.008 203 444.511 203C448.008 203 447.349 197.952 446.843 195.404C441.011 166.004 418.241 134.312 418.241 92.4607L396.172 89C377.917 118.358 371.605 154.505 368 203Z" fill="#DDE3E9"/>
<path fill-rule="evenodd" clip-rule="evenodd" d="M395 89H394.748C345.247 119.504 315.331 166.791 305 230.859L321.037 234C331.661 221.623 344.771 201.368 360.369 173.233C355.583 190.181 352.09 207.563 351 224H419.872C433.205 190.305 403.486 89 403.486 89H398.731H395Z" fill="#FF4133"/>
</svg>
