<svg width="1148" height="792" viewBox="0 0 1148 792" fill="none" xmlns="http://www.w3.org/2000/svg">
<path fill-rule="evenodd" clip-rule="evenodd" d="M83.4793 605.501C108.776 507.697 364.749 563.414 532.563 533.178C700.376 502.941 898.913 362.125 1030.31 431.104C1161.7 500.083 1021.9 666.826 720.536 704.454C419.171 742.082 58.1825 703.305 83.4793 605.501Z" fill="#F2F2F2"/>
<g opacity="0.5">
<path fill-rule="evenodd" clip-rule="evenodd" d="M300.907 183.673C299.334 185.243 299.945 190.825 299.912 192.89C299.862 196.106 300.062 199.293 300.33 202.497C300.511 204.642 301.526 225.114 304.352 223.542C305.945 222.656 304.946 216.734 304.943 214.861C304.937 210.696 304.763 206.542 304.486 202.387C304.228 198.529 304.066 194.717 304.214 190.852C304.25 189.908 305.133 179.439 300.907 183.673" fill="#89C5CC"/>
<path fill-rule="evenodd" clip-rule="evenodd" d="M369.409 181.149C355.896 181.256 342.388 181.923 328.881 182.331C322.381 182.528 315.886 182.778 309.394 183.138C307.181 183.261 302.436 182.553 300.593 183.731C296.501 186.349 303.1 186.96 304.859 186.896C331.59 185.927 358.329 184.651 385.082 184.59C398.206 184.561 411.323 184.935 424.448 184.851C429.465 184.819 435.02 182.657 436.287 188.497C437.717 195.087 436.074 202.424 435.627 209.045C435.329 213.466 435.435 217.794 435.634 222.211C435.762 225.04 435.429 228.229 435.93 231.005C436.411 233.679 438.333 235.282 440.095 232.287C441.148 230.498 440.624 226.079 440.694 224.005C440.788 221.213 440.7 218.421 440.7 215.629C440.699 208.812 441.661 202.022 441.534 195.206C441.452 190.811 441.219 182.844 435.676 181.788C429.572 180.625 422.069 181.795 415.822 181.723C400.344 181.547 384.892 181.028 369.409 181.149" fill="#89C5CC"/>
<path fill-rule="evenodd" clip-rule="evenodd" d="M332.173 223.786C327.077 223.786 321.981 223.817 316.886 223.901C312.516 223.973 305.646 223.062 301.579 224.626C298.794 225.696 298.055 228.805 301.579 229.633C305.422 230.536 311.215 229.059 315.236 228.988C335.4 228.632 355.758 228.168 375.893 229.444C394.761 230.638 413.992 231.796 432.888 230.536C434.477 230.429 442.586 230.107 438.886 227.067C436.727 225.293 427.979 226.46 425.173 226.375C415.279 226.077 405.375 226.011 395.484 225.636C385.722 225.265 376.003 224.167 366.237 223.896C354.892 223.58 343.522 223.786 332.173 223.786" fill="#89C5CC"/>
<path fill-rule="evenodd" clip-rule="evenodd" d="M327.075 194.804C335.017 195.151 342.875 206.669 334.839 212.236C327.3 217.459 313.172 211.735 317.364 201.606C316.761 203.071 318.126 200.015 318.143 199.995C318.94 199.056 320.371 198.016 321.354 197.276C322.478 196.428 323.649 195.496 325.005 195.071C325.895 194.793 325.755 195.841 327.075 194.804M323.207 190.65C319.49 192.101 317.794 193.738 315.239 196.701C313.472 198.751 311.218 199.83 311.238 202.6C311.243 203.214 312.03 203.888 312.167 204.478C312.355 205.295 312.137 206.34 312.286 207.208C313.824 216.157 324.501 219.174 332.317 217.484C339.125 216.013 344.217 209.477 342.64 202.371C341.052 195.217 330.444 187.82 323.207 190.65" fill="#89C5CC"/>
<path fill-rule="evenodd" clip-rule="evenodd" d="M319.896 203.143C319.896 206.362 324.982 206.362 324.982 203.143C324.982 199.96 319.896 199.823 319.896 203.143" fill="#89C5CC"/>
<path fill-rule="evenodd" clip-rule="evenodd" d="M326.258 202.491C326.258 205.05 330.298 205.05 330.298 202.491C330.298 199.962 326.258 199.854 326.258 202.491" fill="#89C5CC"/>
<path fill-rule="evenodd" clip-rule="evenodd" d="M327.508 207.767C326.214 208.265 324.573 207.233 323.511 207.913C321.63 209.117 323.516 210.207 324.524 210.691C329.064 212.87 329.872 206.862 327.508 207.767" fill="#89C5CC"/>
<path fill-rule="evenodd" clip-rule="evenodd" d="M396.849 200.632C396.714 200.69 396.232 200.894 396.849 200.632ZM377.077 197.743C373.679 198.51 370.81 201.683 367.118 201.259C364.288 200.933 362.373 198.203 359.579 197.806C356.006 197.298 346.282 205.449 351.395 206.848C354.378 207.664 356.032 202.213 358.668 201.923C360.752 201.694 363.587 204.25 365.747 204.614C369.777 205.293 372.545 203.074 376.083 201.642C379.927 200.086 382.114 201.487 385.458 203.216C388.097 204.581 390.582 205.47 393.602 204.906C396.436 204.378 399.996 201.464 402.849 201.763C405.643 202.056 407.637 204.972 410.511 205.242C411.696 205.354 413.459 205.757 413.26 203.929C413.101 202.465 411.468 202.713 410.446 202.181C407.818 200.813 405.36 198.389 402.188 198.596C399.803 198.751 397.631 200.428 395.433 201.23C388.232 203.855 384.185 196.149 377.077 197.743" fill="#89C5CC"/>
<path fill-rule="evenodd" clip-rule="evenodd" d="M383.093 244.111C369.204 244.239 355.268 244.445 341.419 245.558C338.135 245.822 304.608 248.988 304.672 249.216C304.789 249.637 309.102 250.282 309.075 250.381C308.784 249.661 308.12 249.362 307.082 249.487C338.88 249.487 370.576 246.64 402.416 247.152C410.416 247.28 418.446 247.227 426.441 247.479C428.437 247.542 433.382 248.972 434.949 248.071C439.063 245.706 431.59 245.433 430.352 245.334C414.683 244.08 398.805 243.954 383.093 244.111" fill="#69A1AC"/>
<path fill-rule="evenodd" clip-rule="evenodd" d="M300.556 250.86C298.479 252.941 300.391 260.43 300.473 263.245C300.591 267.314 300.494 271.413 300.851 275.471C301.259 280.108 301.891 285.047 303.107 289.545C303.777 292.023 306.129 295.962 307.061 291.459C307.726 288.243 306.716 283.976 306.364 280.7C305.894 276.317 305.78 271.992 305.763 267.588C305.747 263.75 305.673 259.897 305.358 256.071C305.195 254.085 304.196 247.239 300.556 250.86" fill="#69A1AC"/>
<path fill-rule="evenodd" clip-rule="evenodd" d="M352.792 288.998C342.936 289.168 333.059 289.4 323.22 290.015C319.187 290.268 315.158 290.644 311.14 291.07C310.32 291.157 301.245 291.526 305.3 294.875C307.13 296.387 314.659 294.296 317.146 294.078C321.328 293.712 325.509 293.473 329.704 293.296C339.422 292.883 349.17 292.519 358.899 292.688C376.665 292.996 394.317 293.134 412.088 292.737C414.613 292.681 434.394 293.21 435.066 290.583C435.607 288.466 428.533 289.437 427.244 289.475C422.512 289.617 417.78 289.584 413.047 289.56C392.996 289.457 372.828 288.66 352.792 288.998" fill="#69A1AC"/>
<path fill-rule="evenodd" clip-rule="evenodd" d="M431.718 247.347C432.031 256.122 433.526 264.887 434.004 273.689C434.222 277.712 434.479 281.732 434.676 285.757C434.739 287.056 434.216 290.184 435.752 290.931C437.858 291.955 438.141 289.891 438.535 288.495C439.674 284.462 438.904 279.224 438.801 275.081C438.701 271.07 438.694 267.051 438.398 263.047C438.095 258.957 437.271 254.943 436.889 250.867C436.728 249.143 437.293 246.274 435.462 245.204C433.881 244.279 431.65 245.445 431.718 247.347" fill="#69A1AC"/>
<path fill-rule="evenodd" clip-rule="evenodd" d="M334.843 261.945C334.881 261.973 334.918 262.003 334.955 262.032C334.918 262.003 334.88 261.974 334.843 261.945M326.467 259.345C329.591 260.237 332.156 259.904 335.139 262.178C337.613 264.063 340.149 266.821 340.97 269.869C342.865 276.912 336.44 280.771 330.416 280.847C324.246 280.925 315.114 279.494 315.43 271.585C315.672 265.509 320.109 259.581 326.467 259.345M326.687 255.365C318.588 255.768 312.055 264.863 312.126 272.519C312.21 281.798 322.724 284.188 330.192 284.253C338.621 284.325 347.027 278.505 344.768 269.026C342.958 261.431 334.476 254.96 326.687 255.365" fill="#69A1AC"/>
<path fill-rule="evenodd" clip-rule="evenodd" d="M318.541 267.823C318.541 270.411 322.629 270.411 322.629 267.823C322.629 265.265 318.541 265.155 318.541 267.823" fill="#69A1AC"/>
<path fill-rule="evenodd" clip-rule="evenodd" d="M327.117 266.687C327.117 269.295 331.238 269.295 331.238 266.687C331.238 264.109 327.117 263.998 327.117 266.687" fill="#69A1AC"/>
<path fill-rule="evenodd" clip-rule="evenodd" d="M322.388 272.589C319.728 275.245 329.075 279.903 331.28 276.207C333.09 273.172 329.148 274.178 327.751 274.014C326.232 273.835 323.628 271.353 322.388 272.589" fill="#69A1AC"/>
<path fill-rule="evenodd" clip-rule="evenodd" d="M397.123 266.741C396.867 266.849 396.867 266.849 397.123 266.741ZM362.021 262.416C359.327 262.921 350.485 265.904 350.365 269.101C350.147 274.911 358.807 268.96 360.687 268.196C365.795 266.12 368.479 270.354 373.61 270.578C378.067 270.772 382.165 266.958 386.363 267.409C390.761 267.881 392.877 272.561 397.955 270.076C400.641 268.762 400.574 266.736 397.558 266.545C395.735 266.429 394.483 267.183 392.583 266.398C389.611 265.173 388.414 263.177 384.858 263.494C382.174 263.733 379.749 265.246 377.129 265.831C371.131 267.171 367.804 261.333 362.021 262.416" fill="#69A1AC"/>
<path fill-rule="evenodd" clip-rule="evenodd" d="M417.817 269.263C417.632 269.341 417.632 269.341 417.817 269.263ZM418.497 266.844C418.527 266.857 418.73 267.139 418.497 266.844ZM415.408 264.997C415.292 265.087 415.292 265.087 415.408 264.997ZM415.476 264.974C416.075 265.333 420.89 268.625 417.392 269.401C415.617 269.794 414.148 266.222 415.476 264.974M413.881 261.327C406.168 264.844 414.468 277.429 420.522 272.316C423.069 270.164 423.404 265.815 420.926 263.573C419.441 262.23 415.897 260.406 413.881 261.327" fill="#69A1AC"/>
<path fill-rule="evenodd" clip-rule="evenodd" d="M341.476 310.921C331.851 310.924 322.142 310.722 312.53 311.292C310.913 311.388 304.751 311.081 303.917 312.772C302.392 315.864 308.733 314.329 309.654 314.236C328.792 312.321 348.783 313.423 367.984 313.969C383.688 314.415 399.307 314.693 414.992 315.502C419.115 315.715 423.234 315.95 427.354 316.198C428.697 316.279 432.076 317.169 432.36 315.024C432.621 313.04 428.406 313.488 427.353 313.432C418.978 312.991 410.609 312.53 402.236 312.058C382.084 310.922 361.66 310.917 341.476 310.921" fill="#89C5CC"/>
<path fill-rule="evenodd" clip-rule="evenodd" d="M303.609 314.36C301.812 316.147 302.654 322.971 302.604 325.227C302.517 329.171 302.33 333.113 302.247 337.057C302.16 341.178 302.281 345.319 302.524 349.435C302.627 351.163 304.045 359.515 306.278 354.736C307.276 352.6 306.254 346.651 306.269 344.23C306.297 339.826 306.534 335.44 306.753 331.041C306.942 327.26 306.949 323.475 307.114 319.693C307.166 318.488 307.309 310.65 303.609 314.36" fill="#89C5CC"/>
<path fill-rule="evenodd" clip-rule="evenodd" d="M433.98 349.596C424.613 350.556 415.096 350.102 405.694 350.811C397.591 351.422 389.495 351.672 381.371 351.844C362.975 352.233 344.547 352.611 326.204 354.144C322.024 354.493 317.848 354.864 313.657 355.051C311.561 355.145 302.764 354.191 302.109 356.401C300.993 360.164 310.4 358.675 312.429 358.616C316.891 358.487 321.332 358.165 325.781 357.826C344.485 356.401 363.259 355.975 382.003 355.382C392.196 355.061 402.319 354.315 412.49 353.636C417.56 353.298 422.643 353.287 427.712 352.959C429.039 352.874 433.734 353.043 434.688 351.975C435.343 351.242 435.509 349.453 433.98 349.596" fill="#89C5CC"/>
<path fill-rule="evenodd" clip-rule="evenodd" d="M430.803 315.001C431.124 323.983 431.632 332.958 431.935 341.94C432.027 344.641 431.21 349.483 432.715 351.865C435.133 355.695 437.021 351.641 437.464 349.254C438.862 341.721 437.359 333.4 436.968 325.821C436.82 322.929 437.718 316.493 436.32 313.905C434.989 311.44 430.684 311.688 430.803 315.001" fill="#89C5CC"/>
<path fill-rule="evenodd" clip-rule="evenodd" d="M415.079 327.793C418.668 328.765 419.192 336.567 415.143 337.144C409.116 338.003 411.752 329.402 415.079 327.793M414.074 324.691C412.979 324.657 410.452 324.355 409.778 325.246C409.213 325.992 409.784 327.564 409.718 328.275C409.481 330.813 407.417 332.279 408.339 335.275C408.966 337.309 410.643 339.221 412.687 339.927C423.472 343.655 423.341 322.816 414.074 324.691" fill="#89C5CC"/>
<path fill-rule="evenodd" clip-rule="evenodd" d="M316.701 326.091C316.674 326.126 316.647 326.16 316.62 326.194C316.647 326.16 316.674 326.126 316.701 326.091M325.172 321.584C325.129 321.224 325.087 320.863 325.045 320.502C330.892 323.262 335.546 328.397 333.604 335.289C332.122 340.546 326.77 342.411 321.783 341.113C316.262 339.676 313.624 335.126 315.113 329.538C315.799 326.961 317.908 323.496 320.634 322.668C321.903 322.282 324.709 323.265 325.172 321.584M321.752 319.402C320.273 319.501 318.833 320.118 317.626 320.96C318.756 320.005 320.262 319.435 321.752 319.402M321.794 316.006C318.14 316.117 315.746 318.329 313.579 320.986C312.899 321.82 310.599 324.03 310.884 325.154C311.109 326.042 311.698 327.341 312.939 326.351C306.441 339.301 323.227 350.346 333.474 341.341C343.037 332.937 333.549 315.612 321.794 316.006" fill="#89C5CC"/>
<path fill-rule="evenodd" clip-rule="evenodd" d="M318.475 328.034C318.475 329.759 321.152 329.759 321.152 328.034C321.152 326.31 318.475 326.31 318.475 328.034" fill="#89C5CC"/>
<path fill-rule="evenodd" clip-rule="evenodd" d="M323.043 328.329C323.043 330.082 325.763 330.082 325.763 328.329C325.763 326.576 323.043 326.576 323.043 328.329" fill="#89C5CC"/>
<path fill-rule="evenodd" clip-rule="evenodd" d="M325.117 334.484C323.844 334.588 319.186 334.155 318.368 335.27C317.002 337.132 319.183 337.197 320.254 337.399C321.219 337.58 325.412 337.477 326.003 336.621C326.526 335.864 326.404 334.375 325.117 334.484" fill="#89C5CC"/>
<path fill-rule="evenodd" clip-rule="evenodd" d="M381.24 329.654C381.021 329.744 381.021 329.744 381.24 329.654ZM363.639 328.367C360.772 328.577 358.343 330.227 355.601 330.885C352.675 331.588 351.408 330.295 348.747 329.449C345.979 328.57 344.01 328.917 341.785 330.808C340.525 331.879 337.759 334.344 338.547 336.247C340.351 340.603 344.435 333.516 346.356 333.187C349.352 332.673 352.018 335.293 355.474 334.543C358.605 333.865 361.383 331.715 364.653 331.691C367.388 331.672 369.965 333.168 372.665 333.53C376.787 334.083 379.493 332.62 383.303 331.533C386.607 330.592 388.923 331.834 392.031 332.879C393.451 333.356 398.19 335.092 397.318 331.944C397.071 331.055 390.826 329.465 389.858 329.159C386.444 328.081 384.282 328.501 381.029 329.741C378.317 330.776 376.035 331.279 373.127 330.71C369.923 330.083 367.009 328.111 363.639 328.367" fill="#89C5CC"/>
</g>
<g opacity="0.5">
<path fill-rule="evenodd" clip-rule="evenodd" d="M495.575 184.012C496.038 174.056 496.674 164.113 497.009 154.151C497.176 149.214 497.306 144.277 497.432 139.339C497.459 138.24 497.488 137.141 497.513 136.041C497.594 132.306 497.151 132 500.91 131.669C517.679 130.188 534.515 129.698 551.304 128.359C571.553 126.744 591.907 125.628 612.213 125.128C621.236 124.906 630.298 124.445 639.323 124.725C641.322 124.788 645.247 124.267 646.035 125.822C646.375 126.493 645.661 128.804 645.571 129.579C645.288 131.999 645.024 134.428 644.861 136.861C643.901 151.208 644.473 165.917 647.251 180.047C640.734 176.372 632.5 173.211 624.904 173.839C617.16 174.478 611.367 178.952 605.168 183.071C601.662 185.4 600.481 186.013 596.983 183.756C593.968 181.811 591.116 179.588 588.272 177.405C583.883 174.038 579.741 170.386 575.485 166.855C567.66 160.363 556.878 151.122 546.07 153.843C538.348 155.787 531.218 160.031 524.516 164.184C514.558 170.355 505.545 177.912 495.575 184.012M629.779 120.304C591.306 120.304 553.121 124.034 514.756 126.051C510.749 126.262 506.756 126.572 502.764 126.957C500.103 127.214 493.596 126.136 491.852 128.409C490.688 129.926 491.688 130.154 491.852 131.595C492.058 133.411 491.936 135.563 491.883 137.486C491.755 142.119 491.62 146.751 491.515 151.384C491.118 168.894 490.869 186.4 491.578 203.906C491.733 207.723 493.124 213.009 492.363 216.719C491.812 219.405 489.97 221.039 494.218 221.536C498.398 222.024 503.509 220.782 507.693 220.384C511.901 219.983 516.108 219.549 520.321 219.201C538.638 217.692 557.133 217.92 575.499 217.418C594.029 216.912 612.567 216.88 631.104 216.87C638.86 216.865 647.723 217.301 655.291 215.167C657.953 214.416 658.384 214.046 657.727 211.404C657.603 210.903 656.799 210.718 656.563 209.811C656.242 208.578 656.407 207.08 656.332 205.796C656.087 201.604 656.001 197.405 655.804 193.21C655.474 186.201 654.266 179.399 653.372 172.461C652.341 164.449 652.394 156.313 652.373 148.248C652.361 143.775 652.476 139.316 652.835 134.855C653.066 131.994 654.475 127.722 653.76 125.054C653.404 123.726 652.822 122.672 651.439 122.1C650.563 121.738 649.826 122.021 648.96 121.93C647.933 121.821 647.292 121.676 646.062 121.398C640.789 120.203 635.151 120.304 629.779 120.304" fill="#69A1AC"/>
<path fill-rule="evenodd" clip-rule="evenodd" d="M608.487 139.352C608.484 142.141 608.049 146.255 609.335 148.881C610.965 152.211 613.005 151.17 613.545 148.04C613.855 146.247 613.847 140.941 613.271 139.352C612.456 137.104 608.487 135.573 608.487 139.352" fill="#89C5CC"/>
<path fill-rule="evenodd" clip-rule="evenodd" d="M613.166 140.429C610.549 140.522 602.925 139.893 601.154 141.998C598.116 145.608 603.405 146.247 605.675 146.045C608.303 145.812 616.424 146.382 618.184 144.275C621.128 140.75 615.225 140.354 613.166 140.429" fill="#89C5CC"/>
<path fill-rule="evenodd" clip-rule="evenodd" d="M511.583 233.579C523.091 235.578 519.511 253.124 508.621 249.06C504.827 247.644 499.236 243.552 501.334 238.731C502.9 235.129 508.006 233.236 511.583 233.579M506.818 228.124C499.334 229.383 494.217 237.483 496.783 244.547C499.259 251.363 508.648 256.354 515.573 253.905C522.183 251.566 525.481 242.771 523.252 236.337C520.924 229.614 513.338 227.026 506.818 228.124" fill="#89C5CC"/>
<path fill-rule="evenodd" clip-rule="evenodd" d="M576.817 235.632C573.952 235.87 571.476 237.876 568.593 238.231C565.897 238.563 563.663 237.641 561.139 236.903C558.088 236.013 555.29 235.621 552.172 236.412C549.79 237.017 547.44 238.639 544.965 238.834C540.095 239.219 534.435 233.663 530.633 239.947C528.81 242.96 531.457 244.9 534.183 243.495C537.025 242.031 535.63 241.506 539.156 242.372C542.097 243.093 544.475 243.484 547.421 242.474C550.09 241.558 552.433 239.883 555.334 239.695C558.175 239.51 560.646 240.804 563.361 241.363C566.7 242.049 569.654 241.529 572.818 240.483C575.827 239.487 577.028 238.943 580.065 239.831C581.987 240.393 586.188 242.18 588.059 240.74C591.295 238.251 586.963 237.887 585.257 237.533C582.51 236.964 579.668 235.399 576.817 235.632" fill="#89C5CC"/>
<path fill-rule="evenodd" clip-rule="evenodd" d="M642.385 233.96C642.408 233.977 642.431 233.995 642.453 234.013C642.431 233.995 642.407 233.977 642.385 233.96M639.572 233.371C643.755 233.641 648.278 241.26 642.736 241.531C638.835 241.721 634.47 235.049 639.572 233.371M638.985 227.136C625.758 230.83 631.805 249.477 644.563 247.323C650.358 246.345 652.322 239.631 650.406 234.661C649.583 232.527 647.979 230.727 646.062 229.499C644.648 228.593 640.602 226.686 638.985 227.136" fill="#89C5CC"/>
<path fill-rule="evenodd" clip-rule="evenodd" d="M577.277 266.065C588.916 265.666 600.556 265.266 612.207 265.158C618.521 265.1 624.801 265.21 631.106 265.572C633.902 265.732 636.697 265.887 639.495 266.006C639.978 266.026 640.645 265.993 641.381 265.957C643.113 265.872 645.228 265.768 646.223 266.294C651.789 269.239 640.449 269.561 639.071 269.538C635.984 269.486 632.9 269.334 629.816 269.181C627.121 269.048 624.426 268.915 621.728 268.849C604.421 268.423 587.008 269.201 569.672 269.975C565.698 270.153 561.728 270.33 557.764 270.492C553.555 270.665 549.348 270.777 545.14 270.889C539.126 271.048 533.112 271.208 527.098 271.546C524.801 271.675 522.505 271.812 520.209 271.948C516.92 272.144 513.631 272.34 510.34 272.513C507.764 272.649 505.187 272.781 502.607 272.846C502.143 272.858 501.538 272.922 500.877 272.993L500.877 272.993H500.877C499.278 273.163 497.354 273.369 496.314 272.944C495.064 272.432 494.052 271.717 494.74 270.202C495.321 268.921 497.434 269.074 498.975 269.186C499.396 269.217 499.774 269.244 500.066 269.239C504.99 269.143 509.903 268.867 514.818 268.566C516.616 268.456 518.413 268.343 520.21 268.23L520.211 268.23L520.211 268.23L520.211 268.23L520.211 268.23C529.568 267.641 538.916 267.053 548.296 266.893C557.96 266.728 567.618 266.397 577.277 266.065ZM638.066 342.669L641.412 342.628C643.14 342.779 643.913 344.592 642.803 345.986C641.954 347.054 638.685 347.102 636.554 347.134C635.963 347.142 635.46 347.15 635.12 347.177C629.557 347.624 624.005 347.826 618.425 347.879C606.675 347.991 594.969 348.494 583.238 349.163C571.23 349.848 559.212 350.105 547.193 350.363H547.192C538.35 350.552 529.507 350.742 520.668 351.101C515.606 351.307 510.543 351.461 505.479 351.594C504.935 351.608 504.211 351.686 503.392 351.775C500.193 352.12 495.545 352.622 494.492 350.082C493.557 347.827 494.856 346.789 496.756 346.317C496.456 344.982 496.512 343.106 496.543 342.031C496.553 341.708 496.56 341.457 496.555 341.316C496.508 339.968 496.474 338.62 496.441 337.272C496.403 335.745 496.366 334.218 496.307 332.692C496.253 331.306 496.204 329.919 496.154 328.532C495.958 323.059 495.762 317.574 495.34 312.123C495.146 309.607 494.838 307.121 494.53 304.639C494.039 300.676 493.548 296.724 493.526 292.678C493.522 291.95 493.485 291.04 493.444 290.014C493.234 284.761 492.902 276.457 496.162 273.928C501.911 270.574 500.774 280.257 500.267 284.578C500.184 285.291 500.117 285.859 500.101 286.197C499.771 293.383 500.219 300.252 500.942 307.392C501.43 312.214 501.145 317.02 500.86 321.834C500.758 323.553 500.656 325.274 500.589 326.996C500.556 327.848 500.526 328.7 500.497 329.552C500.406 332.173 500.316 334.791 500.119 337.409C500.097 337.692 500.09 338.235 500.081 338.929C500.055 340.887 500.014 344.044 499.595 345.961C500.487 345.923 501.352 345.932 502.068 345.94C502.523 345.945 502.918 345.949 503.22 345.94C504.592 345.899 505.965 345.858 507.337 345.818C511.391 345.699 515.445 345.581 519.498 345.428C529.066 345.068 538.637 344.948 548.208 344.828C559.512 344.686 570.817 344.544 582.116 344.007C600.738 343.122 619.424 342.895 638.066 342.669ZM641.52 272.42C641.51 284.729 642.462 296.701 643.574 308.96C644.262 316.543 644.813 324.155 645.252 331.758C645.272 332.11 645.269 332.697 645.265 333.432V333.433C645.243 337.637 645.195 346.695 649.35 344.528C652.487 342.892 651.281 333.405 650.614 328.156L650.614 328.155C650.468 327.004 650.347 326.056 650.304 325.44C650.213 324.127 650.123 322.815 650.033 321.502C649.615 315.408 649.198 309.318 648.648 303.231L648.532 301.948C647.896 294.917 647.26 287.891 647.147 280.828C647.138 280.244 647.194 279.43 647.257 278.511C647.441 275.852 647.686 272.311 646.581 270.898C645.027 268.911 641.523 269.499 641.52 272.42Z" fill="#69A1AC"/>
<path fill-rule="evenodd" clip-rule="evenodd" d="M577.807 302.596C592.674 295.87 607.714 289.065 623.173 284.22C624.291 283.871 624.997 285.023 624.743 285.99C624.482 286.986 622.064 287.836 620.46 288.4C619.98 288.568 619.573 288.711 619.319 288.825C617.159 289.789 614.994 290.742 612.829 291.694C610.612 292.67 608.395 293.645 606.184 294.633C601.586 296.688 596.984 298.733 592.382 300.778C587.454 302.968 582.525 305.159 577.602 307.36C577.416 307.444 577.229 307.527 577.043 307.611C583.736 309.99 590.393 312.475 597.019 315.035C599.284 315.91 601.541 316.803 603.798 317.696C605.075 318.201 606.352 318.707 607.63 319.209C608.047 319.372 608.771 319.593 609.642 319.859C612.48 320.726 616.871 322.066 617.195 323.42C617.723 325.626 611.662 323.493 609.375 322.687C609.072 322.581 608.835 322.497 608.689 322.45C605.314 321.372 601.98 320.17 598.647 318.969L598.186 318.803C595.545 317.851 592.908 316.89 590.27 315.928C585.119 314.049 579.967 312.171 574.788 310.369C574.056 310.114 573.323 309.86 572.59 309.607C564.277 313.34 555.982 317.11 547.713 320.939C543.28 322.992 538.87 325.093 534.473 327.223C533.513 327.687 532.324 328.406 531.033 329.186C527.938 331.057 524.254 333.283 521.72 333.228C520.362 333.198 519.446 332.906 519.304 331.259C519.158 329.56 521.338 328.668 522.906 328.027C523.282 327.874 523.622 327.735 523.887 327.602C528.587 325.252 533.316 322.961 538.059 320.698C547.479 316.205 556.986 311.892 566.528 307.664C566.583 307.64 566.638 307.615 566.693 307.591C561.401 305.8 556.094 304.052 550.776 302.34C550.245 302.17 549.156 301.868 547.725 301.472C540.965 299.599 526.562 295.61 527.204 293.28C527.939 290.615 541.441 295.487 547.419 297.643C548.539 298.047 549.395 298.356 549.854 298.502C557.001 300.78 564.128 303.122 571.218 305.57C573.411 304.585 575.607 303.591 577.807 302.596Z" fill="#89C5CC"/>
<path fill-rule="evenodd" clip-rule="evenodd" d="M514.107 361.133C518.459 361.896 521.528 366.07 521.051 370.442C520.406 376.349 514.518 379.056 509.08 378.286C502.909 377.411 501.611 372.194 504.6 367.175C505.262 366.064 506.024 364.735 507.227 364.15C508.054 363.748 509.108 364.103 509.774 363.779C512.11 362.643 510.706 360.831 514.107 361.133M512.126 357.275C506.815 357.953 497.004 364.098 497.501 370.246C497.932 370.958 498.58 371.25 499.445 371.121C499.236 372.452 499.304 373.77 499.648 375.073C500.153 376.765 501.159 378.152 502.507 379.254C505.284 381.524 509.08 382.081 512.538 381.683C518.995 380.94 524.084 376.528 524.447 369.812C524.8 363.257 519.078 356.396 512.126 357.275" fill="#89C5CC"/>
<path fill-rule="evenodd" clip-rule="evenodd" d="M537.846 365.275C535.464 366.538 531.695 368.477 530.298 370.876C528.821 373.409 530.35 376.18 533.46 374.982C535.929 374.03 537.499 371.008 540.132 370.039C542.457 369.185 543.393 369.62 545.849 370.471C548.38 371.348 550.593 372.196 553.329 371.981C556.767 371.711 559.746 369.717 563.112 369.263C565.946 368.881 568.283 369.984 570.997 370.422C574.146 370.931 576.204 369.739 579.151 369.119C581.155 368.696 584.687 370.414 586.148 369.772C589.435 368.327 585.958 366.56 584.139 365.976C581.074 364.993 579.188 365.861 576.273 366.676C573.108 367.561 571.74 366.896 568.715 366.083C562.594 364.438 557.865 368.415 552.063 367.692C546.691 367.022 543.477 362.294 537.846 365.275" fill="#89C5CC"/>
<path fill-rule="evenodd" clip-rule="evenodd" d="M637.935 362.336C643.826 367.86 637.208 375.719 630.711 371.304C628.425 369.75 628.388 367.255 630.168 365.022C631.795 362.98 635.371 362.183 637.935 362.336V362.336ZM635.751 357.872C630.246 358.943 625.054 361.469 624.556 367.822C624.069 374.02 630.427 376.899 635.768 376.492C647.76 375.579 646.893 355.718 635.751 357.872V357.872Z" fill="#89C5CC"/>
</g>
<path opacity="0.5" fill-rule="evenodd" clip-rule="evenodd" d="M872.077 111.818C865.246 111.917 848.379 113.783 845.871 119.849C843.968 124.454 849.622 123.443 852.653 121.767C856.752 119.501 860.347 118.145 865.427 117.456C884.778 114.828 903.371 124.251 922.536 125.443C929.796 125.895 938.557 126.189 945.488 124.424C950.425 123.167 951.069 120.426 945.436 120.008C940.649 119.654 935.353 120.771 930.446 120.74C910.141 120.609 892.091 111.531 872.077 111.818" fill="#C1DEE2"/>
<g opacity="0.5">
<path fill-rule="evenodd" clip-rule="evenodd" d="M303.51 399.362C295.086 399.457 286.666 399.767 278.258 400.299C270.263 400.806 261.588 400.421 253.723 401.971C251.49 402.411 248.473 404.447 251.442 406.685C253.53 408.259 261.166 406.449 263.659 406.296C272.838 405.732 282.021 405.056 291.213 404.731C299.915 404.423 308.617 404.315 317.323 404.228C318.652 404.215 320.858 403.789 322.182 404.175C324.084 404.73 323.633 404.88 323.775 407.294C324.033 411.669 323.962 416.058 323.875 420.437C323.791 424.673 323.635 428.91 323.65 433.148C323.661 436.172 322.694 442.182 324.211 444.808C326.396 448.588 328.661 444.482 328.825 441.97C329.137 437.166 328.997 432.302 328.999 427.491C328.999 422.976 329.032 418.46 328.873 413.947C328.757 410.687 329.223 404.996 327.467 402.032C325.678 399.013 321.372 399.664 318.229 399.521C313.327 399.295 308.416 399.311 303.51 399.362" fill="#89C5CC"/>
<path fill-rule="evenodd" clip-rule="evenodd" d="M249.91 404.81C249.92 413.294 248.938 421.722 248.663 430.196C248.537 434.093 248.281 438.371 249.267 442.196C250.262 446.058 253.422 446.895 253.786 442.583C254.523 433.853 254.342 424.8 254.916 415.999C255.119 412.892 256.437 407.198 255.206 404.288C254.122 401.725 249.906 401.234 249.91 404.81" fill="#89C5CC"/>
<path fill-rule="evenodd" clip-rule="evenodd" d="M328.907 442.208C314.277 444.145 298.982 443.439 284.248 443.743C277.179 443.889 270.111 443.898 263.042 443.972C260.574 443.998 254.308 443.059 252.173 444.446C248.775 446.654 252.462 448.358 254.712 448.407C268.664 448.713 282.771 448.071 296.721 447.613C302.988 447.408 309.276 447.307 315.527 446.774C319.375 446.446 323.58 446.129 327.317 445.095C328.113 444.874 329.847 444.92 330.025 443.834C330.135 443.162 329.936 442.066 328.907 442.208" fill="#89C5CC"/>
<path fill-rule="evenodd" clip-rule="evenodd" d="M268.071 454.54C264.005 454.564 251.752 452.676 250.068 456.64C247.823 461.928 256.58 460.694 258.936 460.634C264.285 460.496 269.631 460.481 274.982 460.484C280.232 460.486 285.482 460.452 290.731 460.327C292.252 460.291 295.791 460.922 296.666 459.091C297.331 457.699 296.806 456.601 295.58 455.864C292.629 454.091 284.964 455.119 281.509 454.96C277.037 454.754 272.549 454.54 268.071 454.54" fill="#89C5CC"/>
<path fill-rule="evenodd" clip-rule="evenodd" d="M317.537 455.519C315.214 455.658 310.513 454.7 308.432 455.763C306.066 456.972 306.899 458.865 308.942 459.696C310.357 460.272 316.16 459.97 317.537 459.303C318.974 458.607 320.598 455.331 317.537 455.519" fill="#89C5CC"/>
<path fill-rule="evenodd" clip-rule="evenodd" d="M343.013 405.643C340.531 406.324 341.284 420.414 341.22 422.648C341.045 428.767 340.357 436.464 342.391 442.358C343.687 446.115 346.178 445.606 345.754 441.65C345.381 438.178 344.742 434.747 344.465 431.252C343.839 423.345 342.987 414.911 343.578 406.997C343.83 407.457 346.185 411.722 346.739 411.404C346.571 411.503 344.023 405.377 343.013 405.643" fill="#89C5CC"/>
<path fill-rule="evenodd" clip-rule="evenodd" d="M370.93 400.454C365.907 400.528 360.885 400.617 355.864 400.756C351.871 400.867 345.598 400.211 341.937 401.891C337.577 403.89 339.645 408.345 343.74 408.44C347.363 408.523 351.226 407.706 354.881 407.581C364.754 407.243 374.645 407.171 384.522 407.086C393.456 407.009 402.769 407.962 411.624 406.621C412.937 418.283 409.385 429.995 410.593 441.792C410.78 443.623 410.696 446.21 413.028 446.627C415.971 447.154 416.092 444.239 416.203 442.152C416.522 436.193 416.349 430.229 416.786 424.262C417.19 418.732 417.986 413.081 417.313 407.542C416.486 400.727 413.22 401.273 407.447 400.99C395.254 400.392 383.137 400.275 370.93 400.454" fill="#89C5CC"/>
<path fill-rule="evenodd" clip-rule="evenodd" d="M354.099 441.866C351.54 441.931 347.289 441.142 345.649 443.596C343.943 446.149 345.968 448.376 348.448 448.901C351.385 449.521 355.214 448.671 358.262 448.661C361.436 448.652 364.611 448.687 367.785 448.7C381.393 448.753 395.06 448.959 408.658 448.396C410.557 448.318 415.947 448.955 417.261 447.133C418.428 445.518 417.612 444.068 416.076 443.245C413.556 441.895 408.379 442.408 405.576 442.301C402.114 442.17 398.648 442.126 395.184 442.073C381.512 441.862 367.769 441.528 354.099 441.866" fill="#89C5CC"/>
<path fill-rule="evenodd" clip-rule="evenodd" d="M365.61 453.671C360.517 453.758 355.084 453.534 350.042 454.306C345.608 454.986 345.063 459.271 349.835 459.772C354.22 460.234 359.537 459.372 363.944 459.089C365.509 458.989 367.33 459.131 368.08 457.401C368.863 455.593 367.366 453.86 365.61 453.671" fill="#89C5CC"/>
<path fill-rule="evenodd" clip-rule="evenodd" d="M404.108 454.12C401.39 454.188 393.451 453.02 392.105 456.124C389.863 461.293 400.611 459.329 402.673 459.253C405.272 459.157 415.4 460.675 415.402 456.538C415.404 452.481 406.597 454.059 404.108 454.12" fill="#89C5CC"/>
<path fill-rule="evenodd" clip-rule="evenodd" d="M249.47 479.805C249.477 489.207 248.891 498.698 249.749 508.077C250.104 511.956 250.043 519.386 252.29 522.675C253.885 525.009 256.097 524.845 256.968 522.043C257.55 520.169 256.619 516.422 256.515 514.417C256.415 512.493 256.298 510.57 256.209 508.646C255.98 503.689 255.999 498.739 256.067 493.779C256.125 489.525 257.149 483.896 256.184 479.805C255.283 475.991 249.47 475.1 249.47 479.805" fill="#69A1AC"/>
<path fill-rule="evenodd" clip-rule="evenodd" d="M343.968 471.533C327.655 471.942 311.306 471.576 295.007 472.384C286.969 472.782 278.963 473.656 270.965 474.528C267.036 474.957 263.109 475.398 259.186 475.882C258.003 476.027 248.167 476.409 251.866 480.149C253.482 481.782 258.622 480.076 260.656 479.835C264.594 479.371 268.54 478.965 272.484 478.548C279.988 477.754 287.502 477.002 295.038 476.585C312.788 475.602 330.61 475.897 348.377 475.241C353.183 475.064 357.975 474.937 362.783 475.126C364.045 475.176 373.322 475.647 369.294 472.221C367.39 470.6 360.209 471.437 357.828 471.388C353.209 471.292 348.586 471.417 343.968 471.533" fill="#69A1AC"/>
<path fill-rule="evenodd" clip-rule="evenodd" d="M366.206 487.373C366.125 483.029 366.045 478.685 365.847 474.344C365.639 469.773 371.865 469.081 373.712 472.781C375.041 475.445 374.808 479.977 374.607 483.862C374.526 485.427 374.451 486.888 374.486 488.078C374.565 490.806 374.766 493.628 374.969 496.486C375.481 503.68 376.009 511.111 374.665 517.902C374.011 521.202 371.227 522.936 369.374 521.138C369.372 521.141 369.369 521.145 369.367 521.149C368.67 522.176 366.5 522.174 364.903 522.172C364.463 522.172 364.066 522.171 363.755 522.192C359.378 522.49 355.082 522.992 350.744 523.642C342.1 524.938 333.531 525.734 324.794 525.95C318.865 526.097 312.928 526.146 306.989 526.196C295.618 526.29 284.24 526.384 272.905 527.162C269.083 527.425 265.319 527.875 261.56 528.594C261.24 528.655 260.885 528.734 260.507 528.819C257.712 529.44 253.665 530.34 253.389 526.434C253.06 521.798 263.108 521.19 268.279 520.878C269.068 520.83 269.744 520.789 270.252 520.742C285.953 519.282 301.899 519.508 317.667 519.732C318.431 519.742 319.194 519.753 319.957 519.764C321.188 519.781 322.418 519.801 323.648 519.821C330.399 519.933 337.141 520.044 343.89 519.631C346.961 519.443 350.072 519.346 353.189 519.25C358.162 519.096 363.15 518.941 368.013 518.414C367.28 515.57 367.152 512.214 367.031 509.051C366.984 507.819 366.938 506.617 366.858 505.485C366.43 499.456 366.318 493.415 366.206 487.373Z" fill="#69A1AC"/>
<path fill-rule="evenodd" clip-rule="evenodd" d="M379.408 477.693C377.205 477.993 375.366 479.879 376.35 482.271C377.589 485.283 381.28 484.106 383.719 483.916C391.469 483.308 399.561 484.521 407.217 483.606C409.308 483.356 412.342 482.217 410.464 479.408C409.053 477.296 403.911 477.667 401.726 477.464C394.251 476.773 386.874 476.957 379.408 477.693" fill="#C1DEE2"/>
<path fill-rule="evenodd" clip-rule="evenodd" d="M392.49 490.835C389.484 491.037 382.488 490.878 381.221 494.298C378.949 500.433 387.848 498.271 390.558 497.922C393.705 497.517 401.125 498.602 402.801 495.55C405.798 490.091 395.126 490.653 392.49 490.835" fill="#C1DEE2"/>
<path fill-rule="evenodd" clip-rule="evenodd" d="M384.76 504.298C383.334 505.724 383.332 508.271 384.76 509.698C386.508 511.445 390.317 511.082 392.614 511.209C395.819 511.388 405.021 513.083 406.613 509.31C408.759 504.219 400.426 504.326 397.685 504.037C394.517 503.704 387.385 501.671 384.76 504.298" fill="#C1DEE2"/>
<path fill-rule="evenodd" clip-rule="evenodd" d="M272.438 417.159C272.438 422.632 280.986 422.632 280.986 417.159C280.986 411.715 272.438 411.632 272.438 417.159" fill="#89C5CC"/>
<path fill-rule="evenodd" clip-rule="evenodd" d="M288.652 417.221C288.652 423.478 298.389 423.465 298.389 417.221C298.389 410.986 288.652 410.922 288.652 417.221" fill="#89C5CC"/>
<path fill-rule="evenodd" clip-rule="evenodd" d="M278.842 425.54C274.109 426.847 278.469 430.858 280.667 431.774C284.16 433.231 288.926 434.304 292.42 432.121C293.81 431.252 294.938 430.097 293.92 428.411C292.834 426.616 291.348 427.414 289.696 427.579C287.603 427.79 285.911 427.758 283.889 427.086C282.381 426.585 280.488 425.087 278.842 425.54" fill="#89C5CC"/>
<path fill-rule="evenodd" clip-rule="evenodd" d="M364.691 417.505C364.691 421.207 370.44 421.207 370.44 417.505C370.44 413.803 364.691 413.803 364.691 417.505" fill="#89C5CC"/>
<path fill-rule="evenodd" clip-rule="evenodd" d="M377.402 418.062C377.402 422.175 383.788 422.176 383.788 418.062C383.788 413.949 377.402 413.949 377.402 418.062" fill="#89C5CC"/>
<path fill-rule="evenodd" clip-rule="evenodd" d="M376.929 426.989C373.575 427.421 363.873 428.405 363.33 432.539C362.493 438.918 373.123 433.756 375.549 433.255C378.639 432.617 381.399 432.783 384.484 432.907C386.177 432.975 388.43 433.25 388.253 430.669C387.962 426.433 379.861 426.613 376.929 426.989" fill="#89C5CC"/>
<path fill-rule="evenodd" clip-rule="evenodd" d="M292.593 485.815C290.162 486.463 286.981 490.667 288.654 493.239C291.397 497.458 292.606 490.98 293.754 490.357C295.843 489.222 297.539 493.368 299.721 491.193C303.166 487.762 294.761 485.234 292.593 485.815" fill="#69A1AC"/>
<path fill-rule="evenodd" clip-rule="evenodd" d="M320.452 482.696C317.568 482.722 311.481 486.805 311.05 489.819C310.794 491.61 311.982 493.33 313.912 493.354C316.541 493.386 317.376 489.968 319.655 489.254C322.113 488.483 321.749 490.258 323.872 491.178C325.425 491.852 327.368 491.57 327.908 489.66C328.926 486.057 323.414 482.639 320.452 482.696" fill="#69A1AC"/>
<path fill-rule="evenodd" clip-rule="evenodd" d="M298.381 499.954C293.77 502.656 301.358 508.449 303.988 509.174C307.96 510.267 315.953 508.226 316.894 503.375C317.269 501.444 316.061 499.695 313.93 500.041C312.176 500.326 311.051 502.527 309.426 503.315C307.232 504.378 305.282 504.306 303.418 502.705C301.9 501.4 301.087 498.376 298.381 499.954" fill="#69A1AC"/>
<path fill-rule="evenodd" clip-rule="evenodd" d="M301.722 539.886C297.602 540.764 293.413 540.175 289.273 541.001C285.051 541.844 282.528 543.439 278.606 541.832C278.421 541.754 278.237 541.676 278.053 541.598C275.017 540.291 271.835 539.903 268.658 541.988C266.777 543.221 261.068 547.486 261.756 550.089C263.247 555.732 269.671 546.883 271.309 546.021C274.433 544.377 276.574 546.478 279.79 547.07C283.642 547.781 286.741 545.745 290.37 544.935C294.613 543.986 299.387 543.656 303.705 543.149C305.41 542.948 311.871 544.297 312.454 542.174C313.456 538.528 303.342 539.542 301.722 539.886" fill="#C1DEE2"/>
<path fill-rule="evenodd" clip-rule="evenodd" d="M331.45 551.25C331.72 551.454 331.504 551.29 331.45 551.25ZM342.99 539.664C346.517 539.307 357.803 536.787 360.12 540.432C361.63 542.806 359.234 551.568 356.95 552.702C355.123 553.607 350.87 552.606 348.866 552.535C345.137 552.404 341.401 552.345 337.676 552.113C336.427 552.035 332.408 552.265 331.429 551.159C330.273 549.854 330.324 542.895 330.052 541.169C333.295 542.219 339.599 540.009 342.99 539.664M350.522 536.091C346.005 536.287 341.488 536.626 337.004 537.232C334.505 537.57 331.972 538.468 329.664 538.893C328.92 539.031 327.712 538.65 326.8 539.091C324.133 540.379 326.468 549.088 327.111 551.415C328.099 554.989 330.584 555.568 334.067 555.905C338.654 556.35 343.335 556.21 347.937 556.153C352.372 556.099 358.353 557.082 360.842 552.631C362.451 549.754 364.176 543.053 362.801 539.846C360.992 535.626 354.237 535.935 350.522 536.091" fill="#C1DEE2"/>
<path fill-rule="evenodd" clip-rule="evenodd" d="M401.111 553.644C400.87 553.954 400.87 553.954 401.111 553.644ZM402.101 552.451C402.027 552.564 401.68 552.93 402.101 552.451ZM391.328 552.123C393.319 551.748 395.311 551.377 397.305 551.014C395.417 553.656 393.429 552.564 390.204 552.334C390.579 552.263 390.953 552.193 391.328 552.123M381.827 551.188C382.332 551.019 382.836 550.85 383.341 550.681C383.326 551.065 383.408 551.425 383.589 551.76C382.725 551.667 381.861 551.567 380.999 551.46C381.275 551.369 381.551 551.279 381.827 551.188M377.424 547.937C377.396 547.243 378.439 547.719 379.036 547.673C377.884 548.687 377.347 548.775 377.424 547.937M393.17 540.072C393.321 539.879 393.522 539.889 393.772 540.101C393.499 540.193 392.449 540.638 393.17 540.072M403.381 538.871C403.408 538.871 403.974 539.636 403.381 538.871ZM403.094 538.621C403.243 538.734 403.243 538.734 403.094 538.621ZM401.82 538.472C403.908 538.824 403.749 541.274 401.82 538.472ZM377.291 538.305C376.867 538.657 377.012 538.315 377.291 538.305ZM385.276 533.088C381.731 533.295 375.225 533.087 372.265 534.975C368.402 537.441 370.434 545.926 370.78 549.646C371.291 555.145 373.878 556.71 379.056 557.287C385.236 557.976 391.586 558.105 397.797 557.941C403.392 557.794 406.578 555.87 407.602 549.98C407.916 548.178 408.713 545.39 408.688 543.664C408.671 542.466 408.074 541.92 407.848 540.902C406.563 535.105 404.415 534.418 398.473 534.165C394.1 533.979 389.566 532.864 385.276 533.088" fill="#89C5CC"/>
</g>
<g opacity="0.5">
<path fill-rule="evenodd" clip-rule="evenodd" d="M573.032 399.913C582.044 400.105 592.269 405.092 590.844 415.658C589.8 423.399 583.098 429.682 575.336 430.224C566.995 430.806 558.175 424.404 557.042 415.91C555.766 406.357 564.22 399.722 573.032 399.913M568.613 395.611C564.96 396.157 561.469 398.075 558.252 399.794C557.024 400.45 550.798 404.451 555.681 405.445C543.916 424.419 571.604 442.043 587.171 429.711C594.161 424.174 597.841 413.675 593.323 405.457C588.649 396.957 577.566 394.267 568.613 395.611" fill="#89C5CC"/>
<path fill-rule="evenodd" clip-rule="evenodd" d="M566.459 411.761C566.459 415.305 571.959 415.305 571.959 411.761C571.959 408.218 566.459 408.218 566.459 411.761" fill="#89C5CC"/>
<path fill-rule="evenodd" clip-rule="evenodd" d="M576.658 412.329C576.658 416.171 582.621 416.171 582.621 412.329C582.621 408.487 576.658 408.487 576.658 412.329" fill="#89C5CC"/>
<path fill-rule="evenodd" clip-rule="evenodd" d="M569.776 419.927C568.974 422.842 578.124 424.336 578.429 420.963C578.574 419.351 570.334 417.893 569.776 419.927" fill="#89C5CC"/>
<path fill-rule="evenodd" clip-rule="evenodd" d="M596.599 418.125C607.128 416.862 617.984 417.446 628.564 417.749C631.212 417.825 633.86 417.899 636.508 417.943C638.192 417.972 641.828 418.78 643.297 417.992C649.314 414.765 637.511 413.204 635.839 413.056C625.315 412.19 609.074 411.881 598.519 412.29C595.397 412.411 594.723 418.35 596.599 418.125" fill="#89C5CC"/>
<path fill-rule="evenodd" clip-rule="evenodd" d="M643.98 470.469C644.071 459.437 644.466 448.33 645.314 437.331C645.659 432.847 646.074 428.37 646.417 423.887C646.579 421.775 647.329 418.817 646.088 416.964C644.809 415.055 642.003 414.658 640.312 416.35C638.288 418.97 638.876 423.367 638.625 426.537C638.238 431.41 637.77 436.28 637.538 441.164C637.089 450.617 636.983 460.234 637.743 469.673C638.102 474.127 638.879 478.473 639.914 482.817C640.385 484.795 644.133 493.603 643.345 494.818C642.124 496.702 633.099 495.99 631.141 496.042C626.118 496.177 621.092 496.265 616.067 496.361C611.765 496.443 607.463 496.502 603.16 496.54C601.452 496.555 591.414 496.251 593.641 498.784C568.742 500.519 543.366 497.622 518.619 496.629C517.369 496.578 515.323 496.224 513.435 496.121C513.209 495.21 513.023 494.395 512.977 493.828C512.652 489.851 512.567 485.86 512.215 481.884C511.569 474.609 510.318 467.407 509.574 460.144C508.831 452.889 508.906 445.612 508.474 438.339C508.4 437.093 508.224 426.885 505.648 424.405C506.87 424.868 508.839 424.928 509.973 424.836C519.153 424.096 528.267 422.501 537.368 421.131C539.972 420.74 545.881 421.017 548.041 419.716C549.91 418.589 550.65 414.638 547.398 414.958C538.323 415.93 529.296 417.439 520.292 418.924C517.883 419.321 515.481 419.746 513.079 420.181C511.475 420.47 507.241 420.448 505.997 421.415C504.486 422.589 504.326 423.388 504.838 423.919C504.126 423.723 503.273 424.031 502.248 425.056C500.311 427.578 502.132 433.789 502.363 436.746C502.641 440.293 502.777 443.846 502.939 447.399C503.251 454.275 503.97 461.056 505.077 467.85C506.317 475.46 507.371 483.102 508.614 490.71C508.938 492.691 509.359 494.623 509.898 496.537C506.549 498.25 508.826 500.973 511.482 501.456C511.501 501.46 511.521 501.463 511.54 501.466C512.367 503.485 513.525 505.355 514.43 502.65C514.499 502.443 514.531 502.187 514.539 501.9C521.399 502.676 528.938 502.194 535.691 502.47C550.319 503.068 565.037 503.965 579.68 503.51C585.477 503.33 591.291 502.815 597.04 502.042C600.407 501.589 603.788 501.048 607.102 500.297C607.339 500.244 607.7 500.187 608.117 500.118C608.185 500.116 608.254 500.115 608.319 500.114C613.393 500.037 618.463 499.901 623.533 499.69C627.789 499.513 632.064 499.423 636.306 499.021C638.941 498.772 644.51 498.818 646.128 496.168C647.599 493.759 645.139 487.552 644.79 484.846C644.176 480.08 643.941 475.27 643.98 470.469" fill="#C1DEE2"/>
<path fill-rule="evenodd" clip-rule="evenodd" d="M592.555 438.613C588.501 438.96 584.751 440.864 580.659 440.888C577.225 440.908 573.843 439.881 570.39 440.033C566.339 440.21 564.11 442.829 560.561 443.706C557.736 444.403 555.957 442.241 553.472 441.284C550.334 440.076 548.017 440.7 545.328 442.527C543.352 443.87 538.744 446.883 538.78 449.598C538.885 457.824 548.482 446.461 550.417 446.323C552.987 446.14 555.859 449.071 558.594 449.237C562.21 449.459 564.529 447.128 567.859 446.278C571.226 445.419 574.866 446.472 578.241 446.798C582.093 447.171 585.463 446.312 589.189 445.393C592.8 444.502 595.878 444.549 599.547 445.297C602.023 445.802 608.192 448.738 609.275 444.963C610.751 439.822 595.39 438.372 592.555 438.613" fill="#89C5CC"/>
<path fill-rule="evenodd" clip-rule="evenodd" d="M593.791 454.302C585.482 455.108 577.124 455.815 568.778 456.042C565.163 456.14 551.267 454.591 552.499 459.184C553.555 463.123 572.466 460.643 576.317 460.343C580.569 460.013 584.815 459.551 589.046 459.015C590.546 458.826 594.167 459.022 595.225 457.764C596.234 456.565 595.736 454.107 593.791 454.302" fill="#89C5CC"/>
<path fill-rule="evenodd" clip-rule="evenodd" d="M536.476 475.22C536.286 475.3 536.286 475.3 536.476 475.22ZM538.228 475.197C540.299 475.131 539.855 474.039 541.922 474.608C542.875 474.871 542.972 474.481 543.711 475.392C545.153 477.169 543.795 481.039 542.374 482.47C537.113 487.773 530.799 475.432 538.228 475.197M538.228 469.995C523.825 470.479 529.851 492.728 542.387 488.186C547.564 486.31 550.818 477.86 547.773 473.111C546.292 470.801 544.403 470.391 541.922 470.23C541.345 470.193 540.621 471.031 540.261 470.993C539.406 470.902 539.486 469.948 538.228 469.995" fill="#89C5CC"/>
<path fill-rule="evenodd" clip-rule="evenodd" d="M572.672 475.983C572.415 475.903 577.22 477.3 576.694 476.753C577.816 477.92 576.308 480.679 575.038 481.16C571.966 482.327 570.241 477.548 572.672 475.983M574.804 469.95C570.294 470.589 566.814 472.467 566.197 477.482C565.629 482.111 568.756 486.798 573.69 486.889C584.443 487.085 584.77 468.559 574.804 469.95" fill="#89C5CC"/>
<path fill-rule="evenodd" clip-rule="evenodd" d="M623.893 476.186C624.523 484.406 615.999 476.882 623.893 476.186ZM620.235 467.392C619.49 468.666 620.125 470.018 621.25 470.759C611.196 472.884 613.473 488.013 623.704 485.778C628.907 484.641 629.864 479.17 629.088 474.653C628.719 472.505 623.366 462.038 620.235 467.392" fill="#89C5CC"/>
</g>
<path opacity="0.5" fill-rule="evenodd" clip-rule="evenodd" d="M682.628 488.345C677.978 488.966 666.987 492.821 667.083 496.962C667.231 503.425 676.573 496.365 678.651 495.416C689.814 490.315 704.273 496.925 715.896 498.331C721.226 498.975 731.651 500.167 736.358 497.485C744.729 492.717 725.369 493.911 722.903 493.719C709.502 492.68 696.169 486.529 682.628 488.345" fill="#C1DEE2"/>
<g opacity="0.5">
<path fill-rule="evenodd" clip-rule="evenodd" d="M785.585 436.267C785.582 441.946 785.295 447.741 786.342 453.352C786.658 455.05 786.908 458.303 788.7 459.185C790.5 460.07 792.245 459.075 792.692 457.23C793.214 455.084 792.069 451.871 791.954 449.618C791.794 446.539 791.784 443.457 791.782 440.375C791.781 438.149 792.514 434.568 789.886 433.423C787.932 432.572 785.585 434.155 785.585 436.267" fill="#C1DEE2"/>
<path fill-rule="evenodd" clip-rule="evenodd" d="M875.353 427.287C856.541 429.175 837.457 429.568 818.576 430.552C809.849 431.007 799.301 430.427 791.079 433.805C789.552 434.433 784.084 437.924 788.523 439.346C789.907 439.79 791.313 438.299 792.449 437.799C794.341 436.968 796.532 436.711 798.55 436.387C815.706 433.632 833.651 434.111 850.984 432.824C855.425 432.494 859.869 432.154 864.301 431.718C867.467 431.407 874.122 429.125 877.044 430.292C882.038 432.287 881.921 445.246 882.019 449.703C882.071 452.009 879.833 460.283 884.281 459.444C887.84 458.773 886.552 450.177 886.274 447.825C885.546 441.662 884.305 426.38 875.353 427.287" fill="#C1DEE2"/>
<path fill-rule="evenodd" clip-rule="evenodd" d="M882.293 459.145C865.952 460.62 849.235 459.173 832.826 459.753C824.226 460.058 815.634 460.542 807.032 460.826C803.312 460.949 799.588 460.955 795.866 460.981C794.086 460.993 785.985 462.072 790.996 465.602C793.215 467.164 800.287 465.906 802.833 465.875C806.658 465.83 810.48 465.671 814.302 465.521C823.154 465.175 832.001 464.696 840.858 464.456C849.33 464.227 857.807 464.178 866.279 463.948C870.494 463.834 874.767 463.704 878.945 463.089C879.888 462.95 882.95 462.84 883.605 461.788C884.224 460.794 883.789 459.001 882.293 459.145" fill="#89C5CC"/>
<path fill-rule="evenodd" clip-rule="evenodd" d="M801.98 446.876C801.892 447.084 801.892 447.084 801.98 446.876ZM809.057 444.725C809.315 444.835 809.315 444.835 809.057 444.725ZM808.725 444.666C812.539 448.553 806.674 453.193 803.102 449.399C799.31 445.373 806.27 444.679 808.725 444.666M804.681 438.785C791.545 441.122 796.196 458.629 808.464 456.099C813.85 454.988 816.93 449.562 815.077 444.35C814.352 442.314 812.774 440.079 810.575 439.437C809.479 439.117 808.509 439.62 807.465 439.503C806.469 439.391 805.917 438.562 804.681 438.785" fill="#C1DEE2"/>
<path fill-rule="evenodd" clip-rule="evenodd" d="M854.95 443.712C847.029 443.737 839.106 444.074 831.187 444.224C828.757 444.27 822.514 443.183 822.504 447.012C822.493 451.104 829.448 449.593 831.763 449.538C839.618 449.35 847.494 449.006 855.319 448.258C857.295 448.069 864.137 448.395 864.13 445.707C864.123 442.86 856.546 443.712 854.95 443.712" fill="#C1DEE2"/>
<path fill-rule="evenodd" clip-rule="evenodd" d="M873.871 470.421C854.281 470.946 834.72 471.129 815.146 472.132C807.824 472.507 800.512 472.786 793.18 472.786C791.768 472.786 788.924 472.239 787.595 473.128C783.988 475.541 788.096 477.611 790.446 477.741C806.527 478.634 822.84 476.413 838.911 475.911C848.32 475.618 857.731 475.531 867.133 475.053C869.699 474.922 872.264 474.77 874.825 474.572C876.298 474.458 880.193 474.77 881.383 473.909C886.581 470.147 875.623 470.373 873.871 470.421" fill="#89C5CC"/>
<path fill-rule="evenodd" clip-rule="evenodd" d="M783.986 480C783.801 485.079 783.782 490.07 784.447 495.121C784.708 497.108 784.828 499.364 787.158 499.869C789.274 500.327 790.347 498.727 790.785 496.953C791.855 492.62 790.914 486.384 790.901 481.883C790.895 479.657 790.893 477.166 788.143 476.663C786.045 476.279 784.066 477.795 783.986 480" fill="#89C5CC"/>
<path fill-rule="evenodd" clip-rule="evenodd" d="M894.634 492.245C862.923 493.916 831.253 495.375 799.518 496.716C797.043 496.821 777.817 496.611 784.539 503.316C786.615 505.387 791.964 503.984 794.648 503.853C798.683 503.654 802.72 503.503 806.754 503.298C822.751 502.483 838.789 502.264 854.774 501.35C863.571 500.847 872.347 500.06 881.098 499.036C885.26 498.549 890.427 498.599 894.325 496.968C896.33 496.129 898.495 492.04 894.634 492.245" fill="#89C5CC"/>
<path fill-rule="evenodd" clip-rule="evenodd" d="M876.399 466.48C873.988 468.881 875.228 473.62 875.41 476.588C875.66 480.674 875.963 484.762 876.473 488.824C876.805 491.464 876.63 495.571 878.038 497.851C879.686 500.521 883.317 500.225 884.807 497.646C886.126 495.365 885.459 490.565 885.424 488.038C885.377 484.542 885.16 481.041 884.952 477.552C884.779 474.637 885.439 469.964 883.835 467.468C882.206 464.933 878.659 464.232 876.399 466.48" fill="#89C5CC"/>
<path fill-rule="evenodd" clip-rule="evenodd" d="M803.917 485.118C803.634 485.336 803.634 485.336 803.917 485.118ZM809.549 484.412C814.805 485.47 806.307 491.606 803.621 487.394C803.202 486.736 802.983 485.927 803.657 485.356C804.271 484.833 804.657 485.758 805.238 485.509C806.238 485.081 808.482 484.373 809.549 484.412M808.824 479.375C805.236 479.659 800.303 479.88 798.527 483.477C796.141 488.308 800.221 493.04 804.942 493.775C809.485 494.482 816.267 491.966 816.631 486.668C816.924 482.396 812.861 479.047 808.824 479.375" fill="#89C5CC"/>
<path fill-rule="evenodd" clip-rule="evenodd" d="M838.78 481.93C835.065 481.99 827.764 480.892 824.528 482.702C821.326 484.494 822.754 487.684 825.675 488.447C827.606 488.951 830.762 488.138 832.772 488.056C835.417 487.948 838.063 487.925 840.709 487.888C845.16 487.828 849.608 487.879 854.059 487.879C858.604 487.879 863.227 488.003 867.765 487.669C873.507 487.246 873.352 482.947 867.737 482.41C858.198 481.497 848.349 481.78 838.78 481.93" fill="#89C5CC"/>
<path fill-rule="evenodd" clip-rule="evenodd" d="M829.293 530.08C829.293 532.122 831.105 530.08 831.092 530.08C831.105 530.08 829.293 528.037 829.293 530.08" fill="#89C5CC"/>
<path fill-rule="evenodd" clip-rule="evenodd" d="M788.297 513.637C788.414 519.574 788.491 525.517 788.744 531.449C788.825 533.325 788.288 536.989 790.561 537.945C793.092 539.01 793.879 536.356 794.171 534.558C795.094 528.862 794.189 522.358 794.1 516.594C794.07 514.659 794.489 511.964 792.291 510.999C790.498 510.212 788.261 511.674 788.297 513.637" fill="#89C5CC"/>
<path fill-rule="evenodd" clip-rule="evenodd" d="M885.936 513.729C886.086 514.083 886.086 514.083 885.936 513.729ZM886.147 513.669C886.269 513.72 886.761 513.926 886.147 513.669ZM838.184 508.87C829.069 509.013 819.948 509.121 810.839 509.511C806.952 509.678 803.02 509.813 799.145 510.179C796.401 510.439 789.585 510.547 787.805 512.789C784.132 517.418 791.921 516.155 793.598 515.78C796.651 515.095 799.767 514.876 802.886 514.711C809.653 514.355 816.424 514.164 823.199 514.027C841.574 513.658 859.962 513.714 878.34 513.631C880.119 513.623 883.335 512.907 884.979 513.627C886.625 514.349 886.532 516.122 886.703 518.181C886.931 520.921 885.123 526.142 886.5 528.447C888.636 532.022 891.742 528.986 892.217 526.38C892.873 522.779 891.833 518.455 890.815 515.013C889.379 510.156 887.386 509.963 882.688 509.583C877.2 509.14 871.731 508.871 866.224 508.82C856.88 508.734 847.528 508.725 838.184 508.87" fill="#89C5CC"/>
<path fill-rule="evenodd" clip-rule="evenodd" d="M874.236 533.413C854.467 535.709 834.135 534.356 814.26 534.437C809.427 534.457 804.589 534.496 799.761 534.73C797.21 534.854 791.165 534.151 789.418 536.118C785.735 540.265 792.369 540.869 794.791 540.697C799.688 540.349 804.597 540.19 809.506 540.152C826.799 540.018 844.189 540.825 861.468 539.972C868.707 539.615 875.784 538.376 882.889 536.993C884.463 536.686 895.238 534.638 889.093 532.182C885.462 530.732 878.051 532.968 874.236 533.413" fill="#89C5CC"/>
<path fill-rule="evenodd" clip-rule="evenodd" d="M816.513 525.822C816.375 525.999 816.375 525.999 816.513 525.822ZM816.38 525.791C816.333 525.918 816.188 526.232 816.38 525.791ZM815.133 524.183C815.162 524.22 815.279 524.371 815.133 524.183ZM815.085 524.171C815.561 524.739 815.882 525.373 816.046 526.072C811.95 527.182 810.372 523.868 815.085 524.171M814.826 524.016C814.827 524.017 815.403 524.259 814.826 524.016ZM808.097 519.079C805.446 522.38 803.258 526.227 806.563 529.998C809.518 533.37 815.464 533.805 819.214 531.554C823.078 529.235 822.744 524.352 820.049 521.165C818.314 519.113 816.907 519.17 814.389 518.835C812.675 518.607 809.552 517.274 808.097 519.079" fill="#89C5CC"/>
<path fill-rule="evenodd" clip-rule="evenodd" d="M835.5 525.188C835.5 529.584 854.481 527.692 857.858 527.687C860.687 527.683 877.79 529.243 876.563 524.72C875.554 521.003 858.707 522.85 855.119 522.845C852.017 522.84 835.5 520.711 835.5 525.188" fill="#89C5CC"/>
</g>
<g opacity="0.5">
<path fill-rule="evenodd" clip-rule="evenodd" d="M587.7 566.375C597.206 567.756 607.094 572.226 607.011 583.291C606.941 592.594 599.139 602.496 589.119 601.94C580.103 601.44 571.612 591.58 570.483 583.13C569.898 578.752 570.993 574.038 573.568 570.437C576.942 565.718 582.296 565.726 587.7 566.375M583.21 560.361C576.334 560.399 571.304 562.886 567.049 568.135C565.523 570.018 563.748 572.044 562.586 574.177C561.501 576.168 561.691 581.233 565.415 578.859C564.498 588.664 570.229 598.182 578.467 603.206C587.422 608.668 597.544 607.603 604.997 599.948C611.819 592.94 614.22 581.103 609.229 572.436C604.241 563.773 592.683 560.268 583.21 560.361" fill="#89C5CC"/>
<path fill-rule="evenodd" clip-rule="evenodd" d="M603.826 557.733C599.424 560.959 595.405 565.208 592.067 569.516C588.804 573.728 586.647 578.987 582.727 582.659C580.748 580.503 578.429 574.68 574.48 576.991C571.203 578.908 573.313 582.204 574.909 584.369C579.03 589.958 583.606 592.208 588.891 586.685C593.691 581.67 596.417 574.98 600.905 569.676C602.873 567.349 605.915 565.039 607.482 562.47C608.903 560.141 607.146 555.293 603.826 557.733" fill="#89C5CC"/>
</g>
<g opacity="0.5">
<path fill-rule="evenodd" clip-rule="evenodd" d="M770.177 207.877C770.184 208.317 770.19 208.731 770.199 209.111C770.405 217.416 770.286 226.146 769.611 234.431C769.378 237.291 767.297 240.917 764.923 236.974C763.879 235.24 764.026 231.68 764.133 229.06C764.162 228.358 764.188 227.724 764.188 227.21C764.186 224.288 764.339 221.335 764.493 218.375C764.794 212.588 765.097 206.77 764.24 201.086C764.223 200.971 764.206 200.86 764.19 200.754C763.818 198.254 763.793 198.082 761.044 198.139C759.898 198.162 758.752 198.193 757.607 198.224C756.48 198.255 755.353 198.285 754.225 198.309C753.106 198.332 751.987 198.354 750.868 198.375C747.358 198.443 743.848 198.51 740.339 198.639C739.754 198.661 738.661 198.798 737.282 198.97C734.526 199.316 730.626 199.805 727.344 199.803C727.345 199.817 727.346 199.831 727.347 199.845C727.349 199.87 727.351 199.896 727.351 199.922C727.388 201.734 726.921 203.756 726.452 205.788C726.06 207.49 725.666 209.198 725.564 210.795C725.324 214.594 725.321 218.433 725.318 222.273C725.315 226.947 725.312 231.622 724.879 236.225C724.858 236.449 724.845 236.687 724.832 236.927C724.831 236.958 724.829 236.99 724.827 237.022C724.976 237 725.12 236.984 725.259 236.975C727.625 236.825 730.01 236.812 732.392 236.798C733.705 236.791 735.018 236.784 736.325 236.753C738.673 236.699 741.049 236.701 743.435 236.704C748.703 236.71 754.016 236.715 759.169 236.108C760.69 235.911 761.223 237.863 760.54 238.875C759.929 239.781 758.246 239.927 757.014 240.035C756.701 240.062 756.417 240.087 756.187 240.121C752.864 240.613 749.497 240.785 746.144 240.933C742.623 241.089 739.098 241.206 735.575 241.304C734.736 241.327 733.617 241.44 732.376 241.566C729.099 241.897 724.974 242.314 722.926 241.387C720.726 240.392 720.778 239.287 721.676 238.43C721.282 237.564 721.22 236.299 721.171 235.309C721.153 234.931 721.136 234.593 721.104 234.333C720.616 230.392 720.321 226.501 720.314 222.526C720.3 214.739 720.316 206.653 722.47 199.116C721.607 198.738 721.087 198.181 721.089 197.379C721.099 193.335 733.684 193.541 739.667 193.638C740.737 193.656 741.595 193.67 742.133 193.656C746.491 193.542 750.85 193.527 755.209 193.551C756.13 193.555 757.155 193.495 758.217 193.433C760.476 193.3 762.903 193.157 764.854 193.611C769.98 194.801 770.103 202.964 770.177 207.877Z" fill="#89C5CC"/>
<path fill-rule="evenodd" clip-rule="evenodd" d="M802.235 194.498C806.994 194.246 811.756 194.188 816.521 194.17C821.566 194.145 826.619 194.236 831.662 194.391L831.778 194.394C834.013 194.461 846.433 194.834 840.727 197.929C840.394 198.11 840.019 198.261 839.61 198.386C839.852 199.819 839.881 201.299 839.842 202.011C839.695 204.715 839.598 207.421 839.501 210.127C839.435 211.961 839.369 213.795 839.288 215.628C839.063 220.693 838.849 225.757 838.675 230.824C838.653 231.446 838.686 232.259 838.723 233.166C838.844 236.163 839.007 240.18 837.379 241.665C835.951 242.968 834.974 242.707 834.317 241.822C830.228 243.009 821.833 242.623 817.611 242.429C816.594 242.382 815.819 242.346 815.405 242.347C814.665 242.347 813.29 242.439 811.553 242.556C804.324 243.041 790.83 243.948 790.802 240.384C790.799 240.041 790.911 239.734 791.12 239.459C790.548 238.874 790.032 238.016 789.701 236.945C788.513 233.102 788.401 228.954 788.313 224.968C788.189 219.34 788.187 213.705 788.186 208.072C788.185 205.179 788.185 202.286 788.167 199.394C787.395 198.356 787.853 197.169 788.818 196.341C790.87 194.579 795.966 194.558 799.652 194.542C800.644 194.538 801.534 194.535 802.235 194.498ZM794.491 237.895C799.078 236.916 806.807 237.231 810.948 237.4C812.032 237.444 812.871 237.478 813.342 237.477C817.571 237.46 821.802 237.519 826.028 237.688C826.465 237.705 827.114 237.689 827.878 237.67C829.412 237.631 831.412 237.581 833.111 237.769C833.088 237.539 833.073 237.328 833.064 237.146C832.873 233.385 833.011 229.591 833.148 225.818V225.818C833.177 225.016 833.206 224.215 833.232 223.415C833.322 220.594 833.443 217.775 833.563 214.955L833.563 214.955L833.563 214.954C833.639 213.179 833.715 211.403 833.783 209.628C833.813 208.849 833.768 207.791 833.718 206.6V206.6C833.616 204.178 833.49 201.208 833.924 198.927C832.359 198.897 830.756 198.786 829.286 198.684C827.869 198.586 826.575 198.497 825.558 198.497C824.268 198.497 822.979 198.493 821.689 198.489H821.689H821.689H821.689C818.116 198.478 814.543 198.467 810.97 198.537C810.631 198.544 810.292 198.551 809.953 198.557L809.952 198.557L809.952 198.557C805.032 198.652 800.071 198.748 795.191 199.396C794.905 199.434 794.562 199.507 794.182 199.596C794.716 201.832 794.454 204.983 794.225 207.742C794.113 209.083 794.01 210.331 794.009 211.337C794.002 217.592 794.167 223.824 794.332 230.049L794.332 230.049L794.332 230.049C794.394 232.404 794.457 234.758 794.51 237.112C794.516 237.393 794.509 237.654 794.491 237.895Z" fill="#89C5CC"/>
<path fill-rule="evenodd" clip-rule="evenodd" d="M742.283 241.124C739.156 242.951 740.842 250.259 741.926 252.787C743.707 256.943 747.321 260.195 751.221 262.352C759.103 266.713 770.465 265.554 776.426 273.114C776.488 273.192 778.548 275.232 779.017 272.591C779.402 270.422 775.556 267.112 774.065 266.025C769.826 262.935 764.39 261.938 759.487 260.394C754.258 258.748 748.52 255.713 746.327 250.322C745.551 248.413 747.031 238.337 742.283 241.124" fill="#C1DEE2"/>
<path fill-rule="evenodd" clip-rule="evenodd" d="M813.779 244.637C810.913 245.427 812.808 249.37 812.804 251.345C812.798 253.808 812.011 256.387 810.493 258.352C806.642 263.338 799.104 264.085 793.452 265.514C789.348 266.553 779.529 268.78 779.144 274.33C778.715 280.529 787.384 272.986 788.116 272.676C796.219 269.704 806.701 269.13 812.954 262.588C815.536 259.888 817.062 256.283 817.304 252.563C817.441 250.469 817.464 243.63 813.779 244.637" fill="#C1DEE2"/>
<path fill-rule="evenodd" clip-rule="evenodd" d="M754.563 299.616C754.496 288.148 765.471 281.211 775.395 278.601C787.324 275.459 798.435 283.817 799.842 295.84C801.326 308.529 791.762 318.744 779.15 319.304C768.056 319.797 754.634 311.853 754.563 299.616ZM781.209 284.115C781.854 284.992 782.436 286.392 781.136 287.154C779.886 287.883 779.262 287.007 778.633 286.126C778.236 285.568 777.837 285.009 777.278 284.851C775.828 284.443 773.497 285.968 772.29 286.857C771.799 287.218 771.102 287.995 770.286 288.904C767.69 291.795 763.899 296.017 761.804 292.384C753.448 306.814 774.28 317.612 786.126 312.151C799.136 306.154 796.604 284.23 781.209 284.115Z" fill="#89C5CC"/>
<path fill-rule="evenodd" clip-rule="evenodd" d="M770.289 295.776C770.289 298.408 774.446 298.408 774.446 295.776C774.446 293.174 770.289 293.062 770.289 295.776" fill="#89C5CC"/>
<path fill-rule="evenodd" clip-rule="evenodd" d="M777.602 295.282C777.602 298.506 782.696 298.506 782.696 295.282C782.696 292.094 777.602 291.958 777.602 295.282" fill="#89C5CC"/>
<path fill-rule="evenodd" clip-rule="evenodd" d="M772.371 302.796C768.204 305.246 780.118 310.115 780.589 305.14C780.792 302.993 778.713 303.572 777.327 303.414C776.001 303.263 773.628 302.063 772.371 302.796" fill="#89C5CC"/>
<path fill-rule="evenodd" clip-rule="evenodd" d="M770.56 320.181C770.741 326.44 770.654 332.695 771.841 338.867C772.067 340.039 772.224 344.291 773.15 345.162C775.429 347.304 775.467 343.198 775.555 341.625C775.871 335.989 775.28 330.179 775.149 324.531C775.121 323.316 775.443 320.798 774.869 319.622C773.959 317.754 770.472 317.2 770.56 320.181" fill="#C1DEE2"/>
<path fill-rule="evenodd" clip-rule="evenodd" d="M766.107 315.106C756.973 325.357 744.397 324.602 731.726 325.5C725.032 325.974 718.263 326.948 712.876 331.278C710.371 333.293 708.21 335.816 706.759 338.691C706.124 339.948 703.114 347.201 707.635 345.48C709.238 344.87 710.816 340.074 711.853 338.655C713.828 335.953 716.354 333.722 719.385 332.272C725.233 329.475 732.214 329.522 738.554 329.167C745.181 328.797 752.295 328.45 758.387 325.568C761.252 324.212 763.941 322.522 766.247 320.343C767.071 319.564 768.838 318.241 768.97 317.05C769.12 315.689 767.812 313.196 766.107 315.106" fill="#C1DEE2"/>
<path fill-rule="evenodd" clip-rule="evenodd" d="M719.999 346.57C711.42 346.856 702.852 347.203 694.285 347.746C692.529 347.857 686.675 347.502 688.166 351.1C689.361 353.983 696.5 352.076 698.861 351.936C707.789 351.406 716.753 351.222 725.661 350.419C727.662 350.239 736.708 350.311 732.973 346.764C731.196 345.076 722.454 346.486 719.999 346.57" fill="#89C5CC"/>
<path fill-rule="evenodd" clip-rule="evenodd" d="M682.719 350.707C680.015 354.259 681.258 362.891 681.462 367.16C681.66 371.298 680.856 378.863 686.257 379.504C684.542 379.279 687.559 379.609 688.05 379.635C689.146 379.694 690.248 379.713 691.346 379.725C693.883 379.753 696.421 379.719 698.957 379.668C704.702 379.553 710.462 379.386 716.2 379.068C718.612 378.935 731.696 379.046 732.214 376.541C732.876 373.339 720.331 375.15 718.085 375.253C712.616 375.503 707.138 375.556 701.664 375.628C698.951 375.664 696.235 375.69 693.522 375.637C692.401 375.615 687.965 376.075 687.284 375.328C686.703 374.692 687.156 368.842 687.144 367.947C687.104 365.03 687.107 362.106 687.211 359.19C687.281 357.227 688.342 353.492 687.477 351.648C686.636 349.856 684.185 349.244 682.719 350.707" fill="#89C5CC"/>
<path fill-rule="evenodd" clip-rule="evenodd" d="M726.896 350.873C727.052 357.37 727.101 363.999 728.635 370.353C729.146 372.468 729.862 376.829 731.986 377.924C734.216 379.073 736.141 377.433 736.287 375.223C736.47 372.446 734.983 368.799 734.678 365.949C734.322 362.624 734.115 359.295 733.993 355.954C733.901 353.441 734.664 349.673 732.269 348.053C730.117 346.597 726.826 348.063 726.896 350.873" fill="#89C5CC"/>
<path fill-rule="evenodd" clip-rule="evenodd" d="M743.966 349.286C741.298 351.944 742.491 360.359 742.824 363.774C743.069 366.275 745.806 378.58 749.908 372.164C751.723 369.325 749.418 361.82 749.434 358.511C749.445 356.403 750.191 353.738 749.831 351.713C749.355 349.036 746.387 346.869 743.966 349.286" fill="#89C5CC"/>
<path fill-rule="evenodd" clip-rule="evenodd" d="M762.445 347.093C770.459 346.267 778.483 345.646 786.541 345.569C786.928 345.566 787.335 345.561 787.758 345.556C793.281 345.486 801.581 345.381 805.298 349.528C807.323 351.787 808.24 355.28 809.04 358.325C809.189 358.893 809.334 359.445 809.481 359.971C809.607 360.42 809.771 360.932 809.948 361.486C810.783 364.1 811.912 367.637 810.767 369.827C810.139 371.027 809.128 372.051 807.593 371.626C807.235 371.527 806.953 371.399 806.733 371.249C807.321 371.886 807.582 372.792 807.2 373.679C806.462 375.393 804.13 375.429 802.293 375.458C801.847 375.465 801.431 375.471 801.074 375.501C794.955 376.011 788.808 376.351 782.667 376.405C779.744 376.431 776.82 376.407 773.896 376.383C770.886 376.358 767.877 376.334 764.867 376.363C762.683 376.385 760.458 376.592 758.233 376.8C755.423 377.062 752.613 377.325 749.88 377.213C747.836 377.128 745.653 376.459 746.171 373.817C746.594 371.661 748.623 371.472 750.443 371.304C750.601 371.289 750.758 371.274 750.912 371.259C756.704 370.669 762.5 370.46 768.322 370.481C780.553 370.524 792.774 370.46 805.005 370.396C805.508 370.438 805.981 370.63 806.371 370.923C805.931 370.388 805.939 369.677 805.948 368.919C805.952 368.576 805.957 368.223 805.919 367.874C805.845 367.171 805.776 366.471 805.708 365.772C805.482 363.464 805.257 361.171 804.817 358.849C804.75 358.498 804.686 358.113 804.619 357.704C804.218 355.293 803.688 352.098 801.77 350.796C799.843 349.487 796.063 349.55 793.117 349.599C792.321 349.612 791.587 349.624 790.966 349.608C783.105 349.406 775.198 349.964 767.373 350.675C766.772 350.73 766.17 350.782 765.567 350.835C762.59 351.094 759.597 351.355 756.663 351.888C756.126 351.985 755.306 352.271 754.365 352.6C751.861 353.473 748.505 354.644 747.364 353.354C743.586 349.081 760.19 347.326 762.445 347.093Z" fill="#89C5CC"/>
<path fill-rule="evenodd" clip-rule="evenodd" d="M847.707 337.363C848.055 337.811 848.055 337.811 847.707 337.363ZM793.472 310.887C788.605 313.748 797.614 322.143 799.909 323.441C805.073 326.363 812.169 326.804 817.936 327.625C825.233 328.666 833.176 329.049 840.189 331.44C843.178 332.459 845.077 334.049 847.034 336.493C848.025 337.732 850.412 343.069 852.587 341.805C856.964 339.261 845.169 328.583 842.57 327.435C836.661 324.825 829.677 324.094 823.36 323.081C817.486 322.138 811.486 321.437 805.757 319.775C802.606 318.862 800.367 317.388 798.551 314.567C797.42 312.809 796.491 309.121 793.472 310.887" fill="#C1DEE2"/>
<path fill-rule="evenodd" clip-rule="evenodd" d="M868.092 343.681C862.48 343.805 856.879 344.237 851.279 344.669C848.137 344.911 844.996 345.153 841.853 345.341C840.871 345.4 839.887 345.453 838.902 345.506L838.902 345.506L838.902 345.506C836.134 345.655 833.362 345.804 830.607 346.082C830.188 346.125 829.703 346.164 829.175 346.208C826.835 346.4 823.644 346.662 821.605 347.516C819.736 346.102 816.852 347.304 816.807 349.824C816.73 354.414 816.772 358.922 817.332 363.484C817.462 364.543 818.131 369.905 819.587 372.695C819.069 375.331 821.316 376.07 823.407 376.272C831.506 377.054 840 376.447 848.378 375.848C852.64 375.544 856.872 375.241 861.007 375.125C862.382 375.086 863.774 375.07 865.175 375.055C869.747 375.003 874.407 374.951 878.834 374.087C879.012 374.052 879.203 374.018 879.402 373.982C881.152 373.668 883.566 373.235 883.749 371.309C883.86 370.154 883.208 369.096 882.116 368.947C882.191 367.984 882.07 366.933 881.981 366.16L881.981 366.16C881.96 365.98 881.941 365.816 881.927 365.671C881.662 362.992 880.995 360.331 880.336 357.704L880.336 357.704L880.336 357.704C880.188 357.114 880.04 356.525 879.898 355.938C879.74 355.288 879.593 354.515 879.436 353.681C878.879 350.739 878.18 347.041 876.32 345.325C874.37 343.524 871.194 343.604 868.651 343.668C868.46 343.672 868.274 343.677 868.092 343.681ZM877.966 369.234C877.301 367.493 877.107 365.137 876.921 362.899V362.899C876.805 361.493 876.693 360.133 876.47 359.001C876.303 358.151 876.166 357.254 876.027 356.343L876.027 356.343C875.689 354.131 875.337 351.831 874.507 349.892C873.395 347.296 872.405 347.395 870.063 347.63C869.627 347.673 869.145 347.722 868.606 347.758C866.219 347.92 863.834 348.127 861.45 348.333L861.45 348.333C860.306 348.432 859.162 348.531 858.018 348.625C853.122 349.028 848.224 349.337 843.324 349.647L843.324 349.647C840.462 349.827 837.6 350.008 834.737 350.207C832.491 350.364 830.299 350.791 828.116 351.216C826.386 351.553 824.663 351.888 822.922 352.088C822.897 352.683 822.847 353.28 822.8 353.849C822.735 354.623 822.674 355.345 822.687 355.937C822.744 358.558 822.976 361.164 823.207 363.773C823.243 364.175 823.279 364.576 823.314 364.978C823.356 365.459 823.459 366.077 823.574 366.763C823.752 367.823 823.956 369.045 824.002 370.171C824.214 370.169 824.424 370.17 824.632 370.171C824.9 370.172 825.163 370.173 825.415 370.168C831.584 370.061 837.748 369.874 843.913 369.637C844.699 369.606 845.486 369.576 846.273 369.545C851.773 369.331 857.274 369.117 862.778 369.054C864.965 369.029 867.181 369.097 869.403 369.166C872.262 369.255 875.132 369.343 877.966 369.234Z" fill="#89C5CC"/>
</g>
<path fill-rule="evenodd" clip-rule="evenodd" d="M539.716 298.991C543.139 305.732 547.536 310.703 550.477 311.633C557.851 313.965 572.954 291.095 573.763 278.864C574.572 266.634 551.804 246.855 539.19 264.208C534.812 270.23 533.944 277.504 534.986 284.533L507.572 312.813L527.925 325.531L539.716 298.991Z" fill="#B28B67"/>
<path fill-rule="evenodd" clip-rule="evenodd" d="M581.556 271.783C578.725 276.313 572.862 277.794 568.243 275.239C565.193 274.431 561.546 272.957 557.749 270.925C557.272 272.476 556.52 274.107 555.453 275.815C554.51 277.323 553.345 278.818 552.024 280.251C551.82 278.818 551.147 277.544 550.074 276.874C547.074 275 543.444 276.163 541.806 278.783C539.728 282.109 540.145 285.714 542.827 287.658C537.276 290.925 531.506 292.393 528.018 290.213C521.395 286.074 522.219 274.275 528.168 264.754C528.377 264.419 528.592 264.091 528.811 263.769C525.607 263.907 522.269 264.626 518.907 265.349L518.907 265.349C511.763 266.887 504.51 268.449 498.206 264.509C485.592 256.628 496.481 228.056 514.103 239.068C526.088 246.557 530.892 251.988 534.358 257.747C537.125 255.548 540.137 254.128 543.042 253.636C543.807 253.411 544.799 253.358 545.968 253.465C546.698 253.507 547.412 253.616 548.103 253.795C551.871 254.584 556.805 256.563 561.871 259.487C562.817 260.033 563.732 260.592 564.611 261.158C567.545 256.496 573.7 255.083 578.374 258.004C583.058 260.93 584.482 267.1 581.556 271.783Z" fill="#191847"/>
<path fill-rule="evenodd" clip-rule="evenodd" d="M424.408 489.22C424.408 489.22 460.392 499.285 486.5 499.285C512.608 499.285 535 483.786 535 483.786C535 483.786 499.787 473.455 477 473.455C454.214 473.455 424.408 489.22 424.408 489.22Z" fill="#1F28CF"/>
<path fill-rule="evenodd" clip-rule="evenodd" d="M507.267 508.957C507.036 508.609 506.84 508.231 506.685 507.821C503.479 499.341 452.117 407.858 447 391.133H504.826C508.717 403.849 526.227 483.653 528.691 499.574C536.467 524.69 552.475 606.028 554.519 611.663C556.669 617.591 544.572 623.766 541.349 616.478C536.22 604.883 523.999 572.798 518.557 553.207C513.456 534.841 509.302 518.317 507.267 508.957Z" fill="#C8A27F"/>
<path fill-rule="evenodd" clip-rule="evenodd" d="M459.958 520.126C436.476 526.061 350.585 536.79 344.691 538.473C338.627 540.204 333.311 527.707 340.805 524.999C352.731 520.692 385.59 510.739 405.513 506.677C421.537 503.41 436.16 500.744 445.977 499.183C445.145 471.606 441.344 405.426 443.836 391.133H495.001C492.611 404.839 472.411 504.851 468.656 514.861C467.465 518.435 463.91 520.015 459.958 520.126V520.126Z" fill="#C8A27F"/>
<path fill-rule="evenodd" clip-rule="evenodd" d="M342.932 524.207C343.21 523.07 342.519 521.898 341.366 521.696C339.262 521.328 336.128 520.888 334.457 521.183C331.793 521.653 326.839 523.441 326.839 523.441C327.384 526.532 336.633 578.986 336.633 578.986C336.633 578.986 344.172 579.889 343.921 575.124C343.669 570.358 343.585 567.192 343.585 567.192L350.542 539.346C350.678 538.799 350.337 538.248 349.786 538.127L345.468 537.177C345.468 537.177 342.692 533.214 342.216 530.514C341.926 528.87 342.466 526.113 342.932 524.207Z" fill="#E4E4E4"/>
<path fill-rule="evenodd" clip-rule="evenodd" d="M540.45 614.417C539.378 613.945 538.104 614.423 537.705 615.523C536.977 617.531 536 620.542 536 622.238C536 624.943 536.901 630.133 536.901 630.133C540.039 630.133 593.303 630.133 593.303 630.133C593.303 630.133 595.502 622.865 590.765 622.285C586.028 621.705 582.895 621.238 582.895 621.238L556.68 609.552C556.165 609.322 555.563 609.563 555.348 610.084L553.663 614.172C553.663 614.172 549.278 616.217 546.537 616.217C544.868 616.217 542.246 615.207 540.45 614.417Z" fill="#E4E4E4"/>
<path fill-rule="evenodd" clip-rule="evenodd" d="M444 391.133C444 391.133 477.82 381.457 508 391.133C515 423.07 532.009 435.746 535 484.712C501 501.606 459 472.663 424 489.138C414 466.094 428 410.597 444 391.133Z" fill="#4100CC"/>
<path fill-rule="evenodd" clip-rule="evenodd" d="M573.77 448.166L557.227 412.214L542.609 424.041L563.886 450.812C566.612 464.321 568.86 470.569 570.631 469.556C572.124 468.701 572.182 467.159 572.235 465.738C572.277 464.632 572.316 463.599 573.028 463.023C574.655 461.707 579.804 464.795 584.566 467.934C589.327 471.073 589.105 468.057 588.511 466.299C585.119 460.446 580.205 454.402 573.77 448.166ZM403.497 425.811C408.364 421.311 438.445 370.793 438.445 370.793L457.925 378.359C457.925 378.359 417.465 429.753 414.655 432.769C411.004 436.688 411.596 444.644 411.998 450.039C412.06 450.873 412.117 451.647 412.154 452.334C408.651 452.524 407.835 450.356 406.975 448.07C406.004 445.488 404.977 442.755 399.956 443.102C398.016 443.236 396.111 443.543 394.25 443.844C387.821 444.881 381.915 445.834 376.902 439.26C376.108 438.218 375.895 435.36 379.378 434.528C388.055 432.455 401.118 428.011 403.497 425.811Z" fill="#B28B67"/>
<path fill-rule="evenodd" clip-rule="evenodd" d="M525.313 310.211L533.917 311.926C534.488 351.981 546.644 392.843 570.384 434.513L532.009 456.261C512.89 402.566 507.546 352.688 525.313 310.211Z" fill="#191847"/>
<path fill-rule="evenodd" clip-rule="evenodd" d="M451.177 398.153L523.063 425.747C523.063 425.747 521.398 355.417 537.695 312.96L517.251 301.406C489.688 322.272 471.922 354.17 451.177 398.153Z" fill="#DDE3E9"/>
<path fill-rule="evenodd" clip-rule="evenodd" d="M406.677 416.418C448.585 330.742 516.776 301.223 516.776 301.223L516.788 301.245C516.792 301.241 516.797 301.237 516.802 301.233L518.218 301.776C520.725 302.839 525.836 305.062 525.836 305.062L525.328 322.047C515.647 349.751 492.668 436.151 492.668 436.151L445.615 418.089C444.234 421.925 442.93 425.852 441.715 429.868L406.677 416.418Z" fill="#2F3676"/>
<path fill-rule="evenodd" clip-rule="evenodd" d="M445.48 418.46C451.465 401.745 458.908 386.75 466.765 373.611C461.634 390.812 456.598 411.945 458.589 423.492L445.48 418.46Z" fill="black" fill-opacity="0.1"/>
<path fill-rule="evenodd" clip-rule="evenodd" d="M467.002 393.516L494.384 391.633L490.238 402.436L467.002 393.516Z" fill="white" fill-opacity="0.2"/>
<path fill-rule="evenodd" clip-rule="evenodd" d="M737.352 358.972C731.829 364.136 725.997 367.304 722.916 367.172C715.189 366.841 708.819 340.184 712.242 328.415C715.664 316.645 743.824 305.846 749.743 326.467C751.797 333.623 750.124 340.755 746.742 347.004L762.83 382.955L739.354 387.944L737.352 358.972Z" fill="#B28B67"/>
<path fill-rule="evenodd" clip-rule="evenodd" d="M749.547 351.333C749.707 337.598 756.202 326.879 753.674 321.292C751.147 315.706 745.292 315.458 745.292 315.458C745.292 315.458 739.952 304.453 724.671 309.514C709.39 314.575 701.22 323.104 708.385 336.528C712.176 335.722 716.462 333.377 723.291 334.381C726.541 334.859 729.075 340.401 729.075 340.401L731.935 339.793C731.935 339.793 734.632 332.004 739.068 332.974C743.505 333.943 742.798 341.472 742.798 341.472L746.504 351.98L749.547 351.333Z" fill="#191847"/>
<path fill-rule="evenodd" clip-rule="evenodd" d="M815 449L740.694 573.227L684.985 678.25H672.986L766.326 449L815 449Z" fill="#997659"/>
<path fill-rule="evenodd" clip-rule="evenodd" d="M689.55 672.284C690.622 671.813 691.896 672.29 692.295 673.391C693.023 675.398 694 678.409 694 680.106C694 682.811 693.099 688 693.099 688C689.961 688 636.697 688 636.697 688C636.697 688 634.498 680.732 639.235 680.152C643.972 679.573 647.105 679.106 647.105 679.106L673.32 667.419C673.835 667.189 674.437 667.43 674.652 667.951L676.337 672.039C676.337 672.039 680.722 674.085 683.463 674.085C685.132 674.085 687.754 673.074 689.55 672.284Z" fill="#E4E4E4"/>
<path fill-rule="evenodd" clip-rule="evenodd" d="M700.456 661.433L677.316 654.433C677.316 654.433 692.524 608.971 714.594 554.374C736.664 499.778 762 449 762 449H827.355C827.355 449 799.188 513.232 767.634 565.725C736.079 618.219 700.456 661.433 700.456 661.433Z" fill="#DB2721"/>
<path fill-rule="evenodd" clip-rule="evenodd" d="M819.883 449C826.896 492.654 840.422 548.427 841.699 550.149C842.55 551.296 873.187 561.562 933.609 580.947L931.017 591.528C858.963 581.132 820.997 573.066 817.118 567.331C811.301 558.728 782.251 490.763 770.999 449H819.883Z" fill="#B28B67"/>
<path fill-rule="evenodd" clip-rule="evenodd" d="M912.371 571.8L907.806 588.842C853.913 593.569 820.893 590.153 808.743 578.596C796.593 567.039 782.746 523.84 767.202 449H829.522C839.371 510.284 844.877 542.212 846.04 544.785C847.204 547.357 869.314 556.363 912.371 571.8Z" fill="#FF4133"/>
<path fill-rule="evenodd" clip-rule="evenodd" d="M929.072 579.074C928.793 577.937 929.485 576.765 930.638 576.563C932.742 576.195 935.876 575.756 937.547 576.05C940.211 576.52 945.165 578.309 945.165 578.309C944.62 581.399 935.371 633.854 935.371 633.854C935.371 633.854 927.831 634.757 928.083 629.991C928.335 625.226 928.419 622.059 928.419 622.059L921.462 594.213C921.326 593.666 921.667 593.115 922.217 592.994L926.536 592.044C926.536 592.044 929.312 588.081 929.788 585.381C930.078 583.738 929.538 580.98 929.072 579.074Z" fill="#E4E4E4"/>
<path fill-rule="evenodd" clip-rule="evenodd" d="M667.363 455.901L706.154 446.779L705.88 465.832L671.419 465.455C659.015 471.676 652.664 473.763 652.365 471.716C652.113 469.99 653.299 468.984 654.392 468.058C655.243 467.336 656.037 466.663 656.05 465.734C656.081 463.614 650.428 461.414 644.976 459.556C639.524 457.698 642.054 456.001 643.816 455.383C650.566 454.457 658.415 454.63 667.363 455.901ZM881.446 477.605C876.579 473.105 825.221 410.863 825.221 410.863L804.808 418.787C804.808 418.787 867.478 481.547 870.288 484.563C873.939 488.481 873.347 496.437 872.945 501.832C872.883 502.667 872.826 503.44 872.789 504.128C876.293 504.318 877.108 502.149 877.968 499.863C878.939 497.281 879.966 494.549 884.987 494.895C886.927 495.029 888.832 495.337 890.693 495.637C897.122 496.675 903.028 497.628 908.041 491.054C908.835 490.011 909.048 487.154 905.565 486.322C896.888 484.249 883.825 479.805 881.446 477.605Z" fill="#997659"/>
<path fill-rule="evenodd" clip-rule="evenodd" d="M744.336 367.521L728.739 374.731C738.487 411.908 725.662 442.677 674.661 453.505L685.903 501.884C733.065 490.443 765.566 457.327 754.946 405.521C752.196 392.11 748.81 378.355 744.336 367.521Z" fill="#AFB9C5"/>
<path fill-rule="evenodd" clip-rule="evenodd" d="M875.09 469.432C841.28 414.568 800.264 377.827 752.042 359.207L750.506 359.797L750.454 359.817L750.447 359.836L728.328 374.7C739.51 403.831 741.385 428.086 743.187 451.404C743.965 461.475 744.73 471.37 746.225 481.408L811.721 456.267C816.712 466.509 821.459 477.184 826.049 488.257L875.09 469.432Z" fill="#C5CFD6"/>
<path fill-rule="evenodd" clip-rule="evenodd" d="M811.723 456.267C801.563 435.413 790.396 416.348 777.508 399.346C786.576 419.338 796.656 444.589 798.411 461.377L811.723 456.267Z" fill="black" fill-opacity="0.1"/>
</svg>
