<svg width="936" height="792" viewBox="0 0 936 792" fill="none" xmlns="http://www.w3.org/2000/svg">
<path fill-rule="evenodd" clip-rule="evenodd" d="M788.225 251.334C787.692 250.946 786.426 250.809 785.838 250.692C783.39 250.21 780.869 250 778.374 250C770.681 250.012 762.863 250.767 755.298 252.074C750.494 252.903 744.687 255.696 739.909 254.179C731.585 251.537 723.172 251.667 715.274 255.439C708.053 258.888 702.572 265.439 699.373 272.517C698.89 273.586 696.932 277.519 696.378 280.17C696.141 280.712 695.913 281.257 695.708 281.811C695.126 283.384 694.603 284.984 694.118 286.588C693.91 287.272 693.389 288.782 694.008 289.074C693.019 290.901 692.141 292.783 691.411 294.726C689.286 300.378 686.962 306.578 686.215 312.568C685.939 314.786 685.928 317.017 686.185 319.239C686.312 320.338 686.26 322.546 687.004 323.382C688.585 325.154 689.396 322.673 689.218 321.491C687.858 312.485 690.485 304.027 693.598 295.561C695.612 290.087 698.92 285.078 702.626 280.543C705.625 276.871 708.842 273.98 712.953 271.546C717.981 268.569 723.356 266.163 728.681 263.749C732.184 262.161 735.691 260.615 739.291 259.247C740.092 258.942 741.351 258.161 742.239 258.158C744.116 258.152 746.777 259.537 748.59 260.052C754.554 261.748 760.594 263.919 766.758 264.785C770.712 265.341 774.416 264.715 778.113 263.398C778.491 263.264 779.125 262.918 779.901 262.424C782.646 261.368 785.243 260.039 787.504 258.121C788.806 257.017 789.989 255.589 791.067 254.282C791.389 253.892 791.532 253.444 791.537 253.018C791.781 252.891 791.943 252.741 791.98 252.567C792.249 251.281 789.796 251.258 788.225 251.334Z" fill="#89C5CC"/>
<path fill-rule="evenodd" clip-rule="evenodd" d="M163.273 358.54C161.764 359.763 160.284 361.011 158.84 362.31C157.739 363.3 155.791 364.485 155.396 365.985C154.985 367.543 156.282 369.003 157.306 369.945C162.723 374.929 168.823 378.298 176.329 378.858C187.887 379.721 197.946 376.77 207.974 370.962C215.018 366.883 219.684 360.849 220.703 352.7C229.092 356.187 237.205 360.992 244.1 366.89C247.502 369.801 250.432 373.025 253.142 376.599C254.878 378.888 256.557 381.215 258.115 383.631C258.792 384.68 259.481 386.541 260.599 387.146C261.912 387.856 263.499 386.743 263.434 385.284C263.379 384.069 262.068 382.66 261.454 381.667C260.436 380.018 259.402 378.379 258.313 376.775C256.551 374.179 254.73 371.619 252.744 369.189C248.28 363.73 242.601 359.22 236.714 355.375C225.42 347.997 213.025 343.349 199.283 342.955C190.833 342.713 183.725 345.6 176.499 349.911C172 352.595 167.356 355.235 163.273 358.54Z" fill="#DDE3E9"/>
<path fill-rule="evenodd" clip-rule="evenodd" d="M272.883 322.856C264.077 313.787 255.241 304.832 245.403 296.847C239.605 292.141 233.495 287.863 227.511 283.401C228.201 284.006 228.878 284.628 229.539 285.266C227.671 283.998 225.226 283.281 223.246 282.107C221.037 280.798 218.925 279.301 216.854 277.791C212.811 274.845 208.829 271.843 204.673 269.051C200.043 265.94 195.245 263.066 190.536 260.073C186.539 257.532 182.494 254.751 178.218 252.675C175.888 251.543 173.553 250.201 171.213 249.02C170.43 248.625 162.484 243.608 162.504 243.593C162.943 243.262 166.942 245.141 167.56 245.393C169.366 246.131 171.094 247.014 172.83 247.893C171.877 246.013 171.123 244.038 170.712 241.958C170.585 241.317 169.569 236.644 170.089 236.252C170.348 236.057 172.883 244.416 173.013 245.22C173.119 245.872 173.103 246.813 173.317 247.431C173.662 248.429 173.645 248.128 174.405 248.69C175.798 249.721 177.647 250.365 179.154 251.227C179.968 251.681 182.485 253.48 184.001 253.993C188.588 256.222 193.238 259.649 197.597 262.495C196.453 260.345 195.582 258.097 194.948 255.742C194.797 255.182 193.167 250.165 193.563 249.867C194.008 249.532 197.112 257.195 197.296 257.92C197.637 259.268 197.708 260.768 198.136 262.079C198.605 263.518 200.07 264.028 201.39 264.867C206.247 267.953 210.938 271.232 215.55 274.662C220.583 265.711 214.78 254.903 209.89 247.393C206.364 241.981 201.619 237.34 196.608 233.289C189.92 227.883 182.269 223.563 174.627 219.612C165.723 215.009 156.099 212.157 146.093 210.839C140.86 210.15 135.507 210.169 130.221 210.39C127.639 210.498 125.16 210.84 122.686 211.682C121.57 212.062 120.492 212.541 119.442 213.077C118.644 213.484 116.713 213.915 116.255 214.522C112.477 219.438 110.545 224.337 110.84 230.515C111.119 236.363 112.966 242.214 115.472 247.431C118.264 253.24 121.854 258.512 126.55 262.936C130.132 266.312 134.137 269.251 138.116 272.15C152.267 282.463 170.208 291.433 188.536 289.129C194.469 288.383 200.112 286.308 205.385 283.489C206.628 282.824 207.863 282.152 209.036 281.368C209.827 280.839 211.941 278.456 212.736 278.37C213.827 278.251 216.175 280.469 217.198 281.144C224.972 286.275 232.542 291.685 239.953 297.313C247.839 303.302 255.337 309.697 262.615 316.393C265.71 319.242 268.786 322.096 271.791 325.04C272.491 325.725 274.202 328.247 275.471 328.362C276.273 328.434 276.814 327.749 276.7 327.006C276.501 325.716 273.785 323.784 272.883 322.856Z" fill="#D4B2C7"/>
<path fill-rule="evenodd" clip-rule="evenodd" d="M778.98 287.66C775.57 286.915 771.803 286.972 768.329 287.033C749.695 287.287 731.397 296.109 719.489 310.205C709.351 322.205 706.563 337.125 704.56 352.207C704.362 353.704 704.277 355.192 704.165 356.693C704.141 357.015 704.105 357.302 704.066 357.573C703.279 358.277 702.865 359.098 703.332 360C701.597 363.797 700.129 367.69 698.869 371.706C695.162 383.526 691.392 395.571 693.714 408C694.257 401.16 695.399 394.166 696.764 387.438C696.842 387.052 696.927 386.669 697.015 386.287C697.025 386.247 697.033 386.206 697.042 386.166C697.525 384.106 698.153 382.108 698.917 380.141C698.925 380.119 698.933 380.098 698.941 380.077C699.042 379.818 699.149 379.56 699.255 379.303C699.474 378.77 699.699 378.238 699.937 377.709C700.018 377.528 700.095 377.346 700.17 377.163C701.282 374.437 701.751 371.365 702.748 368.545C702.986 367.904 703.235 367.265 703.496 366.629C703.512 366.592 703.527 366.555 703.543 366.518C704.249 364.807 705.028 363.118 705.853 361.446C706.301 361.109 706.54 360.274 706.927 359.515C707.006 359.365 707.631 358.368 707.817 357.793C708.303 356.854 708.786 355.915 709.275 354.977C709.261 354.983 709.246 354.988 709.231 354.994C709.72 354.093 710.211 353.197 710.698 352.304C710.805 352.108 710.913 351.912 711.021 351.715C711.196 351.402 711.371 351.089 711.545 350.777C713.177 347.856 714.908 344.994 716.705 342.167C717.347 341.158 718.879 339.711 719.173 338.579C719.184 338.536 719.186 338.497 719.193 338.457C723.093 332.979 727.582 327.927 732.967 323.924C732.316 324.628 730.932 327.015 730.567 327.488C729.447 328.935 728.232 330.282 727.013 331.646C724.828 334.089 722.696 336.609 720.801 339.274C717.335 344.148 714.346 349.277 711.519 354.51C711.493 354.54 711.463 354.569 711.438 354.601C710.017 356.352 709.123 358.998 708.101 361.001C712.147 359.127 716.622 357.906 720.774 356.242C724.916 354.583 728.944 352.735 732.834 350.566C738.003 347.682 743.366 344.427 748.25 340.743C753.847 337.271 758.551 332.492 762.703 327.477C767.615 321.543 772.117 315.558 774.901 308.353C776.269 304.813 777.345 301.121 777.983 297.386C778.011 297.224 778.046 297.047 778.085 296.864C778.738 295.574 779.321 294.255 779.811 292.906C780.588 290.766 782.425 288.412 778.98 287.66Z" fill="#AC699D"/>
<path fill-rule="evenodd" clip-rule="evenodd" d="M130.291 299.014C128.94 297.666 127.422 296.451 125.639 295.583C125.189 295.364 121.832 293.896 121.614 294.218C121.104 294.969 129.885 298.584 130.291 299.014M146.205 290.012C146.194 290.069 147.358 291.888 147.674 292.447C148.349 293.635 148.972 294.847 149.557 296.061C148.69 293.917 147.799 291.928 146.205 290.012M64.8175 304.814C63.6966 305.147 62.349 303.837 63.8029 303.514C64.9793 303.255 64.9216 303.194 65.4498 302.321C65.8788 301.613 66.143 300.749 66.5194 300.005C67.3178 298.428 68.2234 296.924 69.3351 295.515C71.7176 292.493 74.6204 289.89 77.8761 287.696C83.5579 283.868 89.9287 280.369 96.6866 278.611C107.432 275.816 119.661 275.643 130.423 277.581C137.089 278.781 143.18 280.868 147.606 285.809C149.818 288.279 151.554 291.172 152.313 294.358C152.511 295.191 152.474 296.117 152.722 296.932C153.103 298.186 152.935 297.852 154.527 298.096C156.266 298.362 158.003 298.634 159.74 298.91C164.287 299.634 168.86 300.403 173.291 301.579C174.749 301.965 176.175 302.438 177.568 302.987C178.622 303.402 182.818 304.705 183.327 305.965C184.176 308.063 181.333 307.112 180.449 306.655C179.675 306.255 178.88 305.882 178.074 305.538C176.044 304.673 173.929 304.004 171.767 303.471C169.43 302.896 167.045 302.466 164.669 302.036C162.453 301.635 160.229 301.27 158.003 300.921C156.766 300.727 155.528 300.539 154.29 300.351C153.867 300.287 153.121 299.949 153.177 300.456C150.575 299.994 147.76 300.06 145.108 299.933C141.861 299.777 138.602 299.649 135.344 299.743C132.994 299.81 130.642 299.952 128.304 300.243C126.937 300.413 125.593 300.661 124.253 300.976C123.516 301.149 120.613 301.516 120.212 302.107C120.384 301.853 123.589 302.099 123.996 302.085C125.628 302.028 127.246 301.88 128.872 301.712C131.888 301.402 134.905 301.24 137.93 301.264C137.919 301.753 135.852 302.624 135.348 302.948C134.217 303.675 133.133 304.468 132.123 305.337C130.342 306.869 128.21 308.767 126.979 310.582C127.342 310.047 129.132 309.351 129.768 308.942C130.785 308.287 131.783 307.589 132.726 306.842C133.597 306.152 134.41 305.408 135.209 304.647C136.009 303.886 137.093 302.303 138.144 301.796C138.207 301.766 138.665 302.099 138.925 301.985C139.187 301.871 139.514 301.301 139.58 301.278C140.558 300.93 142.415 301.362 143.443 301.406C146.108 301.519 148.771 301.667 151.435 301.802C152.26 301.844 152.961 301.671 153.273 302.232C153.605 302.829 152.996 304.401 152.823 305.052C152.181 307.47 151.04 309.638 149.245 311.511C145.882 315.02 141.736 317.36 137.052 318.924C119.11 324.918 100.023 327.318 82.0868 321.084C74.6613 318.502 63.4785 313.89 64.8175 304.814" fill="#C789CC"/>
<g opacity="0.6" clip-path="url(#clip0)">
<path fill-rule="evenodd" clip-rule="evenodd" d="M885.965 587.189C898.166 663.272 602.278 712.899 347.6 678.266C92.9226 643.633 -23.9114 508.387 97.6165 436.322C219.144 364.258 873.764 511.106 885.965 587.189Z" fill="#DDE3E9"/>
</g>
<rect x="236" y="132" width="159" height="302" rx="8" fill="#F2F2F2"/>
<path fill-rule="evenodd" clip-rule="evenodd" d="M315 415C323.284 415 330 408.284 330 400C330 391.716 323.284 385 315 385C306.716 385 300 391.716 300 400C300 408.284 306.716 415 315 415Z" fill="white"/>
<path fill-rule="evenodd" clip-rule="evenodd" d="M302 152C303.105 152 304 151.105 304 150C304 148.895 303.105 148 302 148C300.895 148 300 148.895 300 150C300 151.105 300.895 152 302 152Z" fill="white"/>
<rect x="309" y="148" width="21" height="4" rx="2" fill="white"/>
<rect x="250" y="160" width="131" height="54" rx="4" fill="white"/>
<g clip-path="url(#clip1)">
<rect x="289" y="176.2" width="73" height="8.1" rx="3" fill="#DDE3E9"/>
<rect x="289" y="189.7" width="49" height="8.1" rx="3" fill="#DDE3E9"/>
</g>
<path fill-rule="evenodd" clip-rule="evenodd" d="M271 199C277.627 199 283 193.627 283 187C283 180.373 277.627 175 271 175C264.373 175 259 180.373 259 187C259 193.627 264.373 199 271 199Z" fill="#C5CFD6"/>
<rect x="250" y="222" width="131" height="42" rx="4" fill="white"/>
<g clip-path="url(#clip2)">
<rect x="289" y="234.6" width="73" height="6.3" rx="3" fill="#DDE3E9"/>
<rect x="289" y="245.1" width="49" height="6.3" rx="3" fill="#DDE3E9"/>
</g>
<path fill-rule="evenodd" clip-rule="evenodd" d="M271 255C277.627 255 283 249.627 283 243C283 236.373 277.627 231 271 231C264.373 231 259 236.373 259 243C259 249.627 264.373 255 271 255Z" fill="#C5CFD6"/>
<rect x="250" y="272" width="131" height="42" rx="4" fill="white"/>
<g clip-path="url(#clip3)">
<rect x="289" y="284.6" width="73" height="6.3" rx="3" fill="#DDE3E9"/>
<rect x="289" y="295.1" width="49" height="6.3" rx="3" fill="#DDE3E9"/>
</g>
<path fill-rule="evenodd" clip-rule="evenodd" d="M271 305C277.627 305 283 299.627 283 293C283 286.373 277.627 281 271 281C264.373 281 259 286.373 259 293C259 299.627 264.373 305 271 305Z" fill="#AFB9C5"/>
<rect x="250" y="322" width="131" height="42" rx="4" fill="white"/>
<g clip-path="url(#clip4)">
<rect x="289" y="334.6" width="73" height="6.3" rx="3" fill="#DDE3E9"/>
<rect x="289" y="345.1" width="49" height="6.3" rx="3" fill="#DDE3E9"/>
</g>
<path fill-rule="evenodd" clip-rule="evenodd" d="M271 355C277.627 355 283 349.627 283 343C283 336.373 277.627 331 271 331C264.373 331 259 336.373 259 343C259 349.627 264.373 355 271 355Z" fill="#C5CFD6"/>
<path fill-rule="evenodd" clip-rule="evenodd" d="M266.14 376C264.815 376 263.494 376.027 262.171 376.095C261.162 376.148 259.621 375.939 258.768 376.568C257.881 377.221 257.942 378.557 258.081 379.501C258.813 384.493 260.6 388.919 264.339 392.456C270.096 397.901 276.695 400.668 284.504 401.9C289.99 402.766 295.054 401.564 299.092 397.663C302.043 403.139 304.281 409.199 305.404 415.315C305.958 418.333 306.127 421.315 306.03 424.388C305.967 426.356 305.859 428.32 305.648 430.279C305.556 431.13 305.122 432.418 305.455 433.223C305.846 434.167 307.165 434.259 307.757 433.453C308.25 432.783 308.16 431.466 308.261 430.673C308.429 429.355 308.584 428.036 308.695 426.712C308.876 424.569 309.009 422.42 309 420.268C308.977 415.435 307.902 410.583 306.432 405.995C303.612 397.192 299.037 389.369 291.921 383.231C287.545 379.457 282.537 377.929 276.856 377.108C273.318 376.597 269.723 376 266.14 376Z" fill="#89C5CC"/>
<path fill-rule="evenodd" clip-rule="evenodd" d="M286.571 411C272.272 411 262.642 422.524 258.089 434.502C256.372 439.016 255.97 443.974 255.308 448.714C255.096 450.236 255.175 452.554 254.557 453.909C254.333 454.401 253.819 454.577 254.065 455.247C254.214 455.652 254.505 455.901 254.944 455.981C255.843 456.147 257.115 455.167 257.886 454.781C264.282 451.573 268.484 446.613 271.912 440.545C274.038 436.784 276.194 432.879 277.456 428.75C278.227 426.227 278.676 423.571 278.94 420.954C279.044 419.923 279.144 418.868 279.138 417.832C279.132 416.803 278.653 416.259 278.309 415.364C283.08 413.558 288.466 413.066 293.299 414.937C297.769 416.668 301.482 420.013 303.561 424.216C304.101 425.308 304.518 426.46 304.821 427.636C305.02 428.406 305.029 429.404 305.398 430.1C306.29 431.788 308.168 430.66 307.988 429.089C307.485 424.708 304.979 420.309 301.775 417.263C297.734 413.421 292.258 411 286.571 411Z" fill="#89C5CC"/>
<rect x="302" y="158" width="159" height="302" rx="8" fill="#DDE3E9"/>
<path fill-rule="evenodd" clip-rule="evenodd" d="M381 441C389.284 441 396 434.284 396 426C396 417.716 389.284 411 381 411C372.716 411 366 417.716 366 426C366 434.284 372.716 441 381 441Z" fill="white"/>
<path fill-rule="evenodd" clip-rule="evenodd" d="M368 178C369.105 178 370 177.105 370 176C370 174.895 369.105 174 368 174C366.895 174 366 174.895 366 176C366 177.105 366.895 178 368 178Z" fill="white"/>
<rect x="375" y="174" width="21" height="4" rx="2" fill="white"/>
<rect x="316" y="186" width="131" height="54" rx="4" fill="white"/>
<g clip-path="url(#clip5)">
<rect x="325" y="202.2" width="73" height="8.1" rx="3" fill="#DDE3E9"/>
<rect x="325" y="215.7" width="49" height="8.1" rx="3" fill="#DDE3E9"/>
</g>
<path fill-rule="evenodd" clip-rule="evenodd" d="M433 220C436.866 220 440 216.866 440 213C440 209.134 436.866 206 433 206C429.134 206 426 209.134 426 213C426 216.866 429.134 220 433 220Z" fill="#DDE3E9"/>
<path fill-rule="evenodd" clip-rule="evenodd" d="M433 216C434.657 216 436 214.657 436 213C436 211.343 434.657 210 433 210C431.343 210 430 211.343 430 213C430 214.657 431.343 216 433 216Z" fill="#F2F2F2"/>
<rect x="316" y="248" width="131" height="42" rx="4" fill="white"/>
<g clip-path="url(#clip6)">
<rect x="355" y="260.6" width="73" height="6.3" rx="3" fill="#DDE3E9"/>
<rect x="355" y="271.1" width="49" height="6.3" rx="3" fill="#DDE3E9"/>
</g>
<path fill-rule="evenodd" clip-rule="evenodd" d="M337 281C343.627 281 349 275.627 349 269C349 262.373 343.627 257 337 257C330.373 257 325 262.373 325 269C325 275.627 330.373 281 337 281Z" fill="#C5CFD6"/>
<rect x="316" y="298" width="131" height="42" rx="4" fill="white"/>
<g clip-path="url(#clip7)">
<rect x="325" y="310.6" width="73" height="6.3" rx="3" fill="#DDE3E9"/>
<rect x="325" y="321.1" width="49" height="6.3" rx="3" fill="#AFB9C5"/>
</g>
<path fill-rule="evenodd" clip-rule="evenodd" d="M433 326C436.866 326 440 322.866 440 319C440 315.134 436.866 312 433 312C429.134 312 426 315.134 426 319C426 322.866 429.134 326 433 326Z" fill="#DDE3E9"/>
<path fill-rule="evenodd" clip-rule="evenodd" d="M433 322C434.657 322 436 320.657 436 319C436 317.343 434.657 316 433 316C431.343 316 430 317.343 430 319C430 320.657 431.343 322 433 322Z" fill="#F2F2F2"/>
<rect x="316" y="348" width="131" height="42" rx="4" fill="white"/>
<g clip-path="url(#clip8)">
<rect x="355" y="360.6" width="73" height="6.3" rx="3" fill="#DDE3E9"/>
<rect x="355" y="371.1" width="49" height="6.3" rx="3" fill="#DDE3E9"/>
</g>
<path fill-rule="evenodd" clip-rule="evenodd" d="M337 381C343.627 381 349 375.627 349 369C349 362.373 343.627 357 337 357C330.373 357 325 362.373 325 369C325 375.627 330.373 381 337 381Z" fill="#C5CFD6"/>
<rect x="368" y="183" width="335" height="346" rx="8" fill="#F2F2F2"/>
<rect x="617" y="226" width="70" height="81" rx="8" fill="white"/>
<path fill-rule="evenodd" clip-rule="evenodd" d="M652 273C660.837 273 668 265.837 668 257C668 248.163 660.837 241 652 241C643.163 241 636 248.163 636 257C636 265.837 643.163 273 652 273Z" fill="#DDE3E9"/>
<rect x="627" y="277" width="50" height="6" rx="3" fill="#DDE3E9"/>
<rect x="635" y="287" width="34" height="6" rx="3" fill="#DDE3E9"/>
<path d="M368 191C368 186.582 371.582 183 376 183H695C699.418 183 703 186.582 703 191V210H368V191Z" fill="#C5CFD6"/>
<path fill-rule="evenodd" clip-rule="evenodd" d="M381 201C383.209 201 385 199.209 385 197C385 194.791 383.209 193 381 193C378.791 193 377 194.791 377 197C377 199.209 378.791 201 381 201Z" fill="#F2F2F2"/>
<path fill-rule="evenodd" clip-rule="evenodd" d="M393 201C395.209 201 397 199.209 397 197C397 194.791 395.209 193 393 193C390.791 193 389 194.791 389 197C389 199.209 390.791 201 393 201Z" fill="#F2F2F2"/>
<path fill-rule="evenodd" clip-rule="evenodd" d="M405 201C407.209 201 409 199.209 409 197C409 194.791 407.209 193 405 193C402.791 193 401 194.791 401 197C401 199.209 402.791 201 405 201Z" fill="#F2F2F2"/>
<rect x="617" y="315" width="70" height="194" rx="8" fill="white"/>
<rect x="635" y="333" width="34" height="26" rx="4" fill="#DDE3E9"/>
<rect x="635" y="367" width="34" height="25" rx="4" fill="#AFB9C5"/>
<rect x="635" y="400" width="34" height="25" rx="4" fill="#DDE3E9"/>
<rect x="635" y="466" width="34" height="25" rx="4" fill="#DDE3E9"/>
<rect x="635" y="433" width="34" height="25" rx="4" fill="#C5CFD6"/>
<rect x="384" y="227" width="225" height="47" rx="4" fill="white"/>
<g clip-path="url(#clip9)">
<rect x="393" y="241.1" width="167" height="7.05" rx="3" fill="#DDE3E9"/>
<rect x="393" y="252.85" width="112.096" height="7.05" rx="3" fill="#DDE3E9"/>
</g>
<path fill-rule="evenodd" clip-rule="evenodd" d="M584.955 257.5C588.821 257.5 591.955 254.366 591.955 250.5C591.955 246.634 588.821 243.5 584.955 243.5C581.089 243.5 577.955 246.634 577.955 250.5C577.955 254.366 581.089 257.5 584.955 257.5Z" fill="#DDE3E9"/>
<path fill-rule="evenodd" clip-rule="evenodd" d="M584.955 253.5C586.612 253.5 587.955 252.157 587.955 250.5C587.955 248.843 586.612 247.5 584.955 247.5C583.298 247.5 581.955 248.843 581.955 250.5C581.955 252.157 583.298 253.5 584.955 253.5Z" fill="#F2F2F2"/>
<rect x="384" y="282" width="225" height="39" rx="4" fill="white"/>
<g clip-path="url(#clip10)">
<rect x="393" y="293.7" width="167" height="5.85" rx="2.925" fill="#DDE3E9"/>
<rect x="393" y="303.45" width="112.096" height="5.85" rx="2.925" fill="#DDE3E9"/>
</g>
<path fill-rule="evenodd" clip-rule="evenodd" d="M584.955 308.5C588.821 308.5 591.955 305.366 591.955 301.5C591.955 297.634 588.821 294.5 584.955 294.5C581.089 294.5 577.955 297.634 577.955 301.5C577.955 305.366 581.089 308.5 584.955 308.5Z" fill="#DDE3E9"/>
<path fill-rule="evenodd" clip-rule="evenodd" d="M584.955 304.5C586.612 304.5 587.955 303.157 587.955 301.5C587.955 299.843 586.612 298.5 584.955 298.5C583.298 298.5 581.955 299.843 581.955 301.5C581.955 303.157 583.298 304.5 584.955 304.5Z" fill="#F2F2F2"/>
<rect x="384" y="329" width="225" height="39" rx="4" fill="white"/>
<g clip-path="url(#clip11)">
<rect x="393" y="340.7" width="167" height="5.85" rx="2.925" fill="#DDE3E9"/>
<rect x="393" y="350.45" width="112.096" height="5.85" rx="2.925" fill="#DDE3E9"/>
</g>
<path fill-rule="evenodd" clip-rule="evenodd" d="M584.955 355.5C588.821 355.5 591.955 352.366 591.955 348.5C591.955 344.634 588.821 341.5 584.955 341.5C581.089 341.5 577.955 344.634 577.955 348.5C577.955 352.366 581.089 355.5 584.955 355.5Z" fill="#DDE3E9"/>
<path fill-rule="evenodd" clip-rule="evenodd" d="M584.955 351.5C586.612 351.5 587.955 350.157 587.955 348.5C587.955 346.843 586.612 345.5 584.955 345.5C583.298 345.5 581.955 346.843 581.955 348.5C581.955 350.157 583.298 351.5 584.955 351.5Z" fill="#AFB9C5"/>
<rect x="384" y="470" width="225" height="39" rx="4" fill="white"/>
<g clip-path="url(#clip12)">
<rect x="393" y="481.7" width="167" height="5.85" rx="2.925" fill="#DDE3E9"/>
<rect x="393" y="491.45" width="112.096" height="5.85" rx="2.925" fill="#DDE3E9"/>
</g>
<path fill-rule="evenodd" clip-rule="evenodd" d="M584.955 496.5C588.821 496.5 591.955 493.366 591.955 489.5C591.955 485.634 588.821 482.5 584.955 482.5C581.089 482.5 577.955 485.634 577.955 489.5C577.955 493.366 581.089 496.5 584.955 496.5Z" fill="#DDE3E9"/>
<path fill-rule="evenodd" clip-rule="evenodd" d="M584.955 492.5C586.612 492.5 587.955 491.157 587.955 489.5C587.955 487.843 586.612 486.5 584.955 486.5C583.298 486.5 581.955 487.843 581.955 489.5C581.955 491.157 583.298 492.5 584.955 492.5Z" fill="#F2F2F2"/>
<rect x="384" y="423" width="225" height="39" rx="4" fill="white"/>
<g clip-path="url(#clip13)">
<rect x="393" y="434.7" width="167" height="5.85" rx="2.925" fill="#DDE3E9"/>
<rect x="393" y="444.45" width="112.096" height="5.85" rx="2.925" fill="#DDE3E9"/>
</g>
<path fill-rule="evenodd" clip-rule="evenodd" d="M584.955 449.5C588.821 449.5 591.955 446.366 591.955 442.5C591.955 438.634 588.821 435.5 584.955 435.5C581.089 435.5 577.955 438.634 577.955 442.5C577.955 446.366 581.089 449.5 584.955 449.5Z" fill="#DDE3E9"/>
<path fill-rule="evenodd" clip-rule="evenodd" d="M584.955 445.5C586.612 445.5 587.955 444.157 587.955 442.5C587.955 440.843 586.612 439.5 584.955 439.5C583.298 439.5 581.955 440.843 581.955 442.5C581.955 444.157 583.298 445.5 584.955 445.5Z" fill="#F2F2F2"/>
<rect x="384" y="376" width="225" height="39" rx="4" fill="white"/>
<g clip-path="url(#clip14)">
<rect x="393" y="387.7" width="167" height="5.85" rx="2.925" fill="#DDE3E9"/>
<rect x="393" y="397.45" width="112.096" height="5.85" rx="2.925" fill="#DDE3E9"/>
</g>
<path fill-rule="evenodd" clip-rule="evenodd" d="M584.955 402.5C588.821 402.5 591.955 399.366 591.955 395.5C591.955 391.634 588.821 388.5 584.955 388.5C581.089 388.5 577.955 391.634 577.955 395.5C577.955 399.366 581.089 402.5 584.955 402.5Z" fill="#DDE3E9"/>
<path fill-rule="evenodd" clip-rule="evenodd" d="M584.955 398.5C586.612 398.5 587.955 397.157 587.955 395.5C587.955 393.843 586.612 392.5 584.955 392.5C583.298 392.5 581.955 393.843 581.955 395.5C581.955 397.157 583.298 398.5 584.955 398.5Z" fill="#F2F2F2"/>
<path fill-rule="evenodd" clip-rule="evenodd" d="M785.986 353.376C782.041 350.701 776.796 350 772.076 350C753.64 350 736.311 356.84 721.341 367.032C713.138 372.616 705.8 379.728 699.322 387.132C695.582 391.407 692.248 396.03 689.887 401.173C688.294 404.644 687.201 408.261 686.46 411.991C685.557 416.537 684.839 421.175 684.515 425.797C684.387 427.617 683.33 437.274 686.356 437.438C686.338 437.676 686.334 437.903 686.353 438.106C679.782 448.38 675.723 460.42 671.958 471.835C668.683 481.769 665.764 491.786 663.87 502.063C661.375 515.592 659.737 529.326 658.958 543.05C658.791 545.999 658.676 548.95 658.577 551.903C658.493 554.422 658.408 556.941 658.325 559.461C658.233 562.284 657.736 565.534 658.185 568.34C658.576 570.784 660.691 570.414 660.785 567.982C660.898 565.045 660.879 562.102 661.008 559.163C661.179 555.262 661.355 551.361 661.546 547.461C662.875 520.369 667.86 493.675 677.061 468.084C680.785 457.728 685.051 447.925 690.535 438.345C695.356 429.922 701.156 421.767 707.084 414.173C712.845 406.792 718.836 399.583 725.895 393.33C731.624 388.256 737.926 383.835 744.404 379.722C752.631 374.498 760.843 369.401 769.755 365.391C774.388 363.307 779.108 361.441 783.777 359.44C784.617 359.081 785.517 358.732 786.325 358.315C789.02 356.925 788.133 354.832 785.986 353.376Z" fill="#D4B2C7"/>
<path fill-rule="evenodd" clip-rule="evenodd" d="M711.818 448C719.295 448 725.949 448.972 732.838 451.943C738.785 454.508 744.205 457.903 749.467 461.599C756.868 466.798 762.698 472.848 766.779 480.865C769.217 485.654 771.006 492.431 769.368 497.655C767.44 503.807 762.144 508.939 755.169 507.855C750.856 507.185 746.903 504.33 743.625 501.643C739.703 498.428 736.564 494.563 733.972 490.27C729.744 483.267 727.26 475.351 723.668 468.033C721.964 464.56 720.317 461.063 718.275 457.762C717.265 456.128 716.189 454.509 714.656 453.294C713.836 452.644 710.378 451.52 711.7 450.061C692.31 450.315 675.132 465.207 671.409 483.641C671.063 485.359 670.792 487.091 670.505 488.82C670.325 489.911 670.398 493.937 669.422 494.634C667.27 496.172 668.174 491.499 668.267 490.826C668.506 489.087 668.76 487.35 669.027 485.615C670.481 476.181 674.681 467.411 681.685 460.683C689.694 452.99 700.501 448 711.818 448Z" fill="#89C5CC"/>
<path fill-rule="evenodd" clip-rule="evenodd" d="M74.9379 480.736C93.6043 512.052 115.345 542.374 128.401 576.613C127.875 572.577 127.317 568.545 126.692 564.52C123.38 543.179 119.262 521.994 114.936 500.835C112.733 490.062 110.402 479.327 108.012 468.594C106.727 462.829 105.457 457.061 104.145 451.302C103.827 449.906 103.554 447.469 103.157 445C115.845 486.637 128.081 528.305 137.031 570.942C138.205 576.538 139.205 582.124 140.024 587.7C140.304 586.428 140.58 585.156 140.881 583.887C144.503 568.68 149.935 553.594 156.403 539.374C159.495 532.575 163.046 525.924 167.228 519.726C169.836 515.863 175.986 511.271 178.364 507.314C165.355 531.176 160.657 561.032 153.145 586.973C151.312 593.304 149.467 599.624 147.659 605.955C158.987 583.237 176.563 564.571 201 556.483C171.42 576.027 153.678 610.254 141.722 645.26C141.683 645.675 141.636 646.09 141.595 646.506C145.114 639.829 149.545 633.789 155.551 629.56C168.407 620.504 182.667 623.142 195.137 630.91C185.35 624.689 167.663 630.354 159.428 636.677C153.533 641.203 148.495 647.275 144.12 653.2C143.072 654.62 141.641 656.277 140.13 658.044C138.012 671.795 134.56 685.452 129.672 699C130.479 695.111 129.896 688.892 130.12 685.993C130.144 685.68 130.164 685.365 130.188 685.053C129.445 688.019 128.727 690.951 128.036 693.837C129.41 688.331 130.156 682.583 130.739 676.776C130.889 674.281 131.036 671.785 131.19 669.29C131.141 664.553 130.946 659.799 130.616 655.036C129.447 650.408 128.137 646.042 127.056 642.411C123.159 629.31 117.444 616.76 110.411 605.051C103.994 594.366 96.3124 584.688 87.4448 575.935C82.6643 571.217 77.6614 566.725 72.7289 562.17C70.9453 560.523 67.7572 556.474 65 554.363C85.0805 565.434 105.749 577.41 120.398 595.248C118.68 588.653 116.815 582.151 114.842 575.78C104.831 543.454 92.1913 509.953 74.9379 480.736Z" fill="#DDE3E9"/>
<path fill-rule="evenodd" clip-rule="evenodd" d="M95 658C95 693.899 97.8428 723 136 723C174.157 723 177 693.899 177 658" fill="#BF88B2"/>
<rect x="618" y="140" width="6" height="25" rx="3" fill="#DDE3E9"/>
<rect x="632" y="124" width="6" height="41" rx="3" fill="#DDE3E9"/>
<rect x="646" y="116" width="6" height="49" rx="3" fill="#DDE3E9"/>
<rect x="660" y="124" width="6" height="41" rx="3" fill="#DDE3E9"/>
<rect x="674" y="108" width="6" height="57" rx="3" fill="#C5CFD6"/>
<path fill-rule="evenodd" clip-rule="evenodd" d="M126 414.256C126 403.117 135.002 394 146 394V414.256L132.332 429C128.444 425.395 126 420.107 126 414.256Z" fill="#F2F2F2"/>
<path fill-rule="evenodd" clip-rule="evenodd" d="M145.471 414H165.668C165.668 419.221 163.538 424.113 160.171 427.668C156.468 431.556 151.195 434 145.471 434C140.198 434 135.372 431.891 131.668 428.557L145.471 414Z" fill="#AFB9C5"/>
<path fill-rule="evenodd" clip-rule="evenodd" d="M166 414C166 403.002 156.998 394 146 394V414H166ZM136 394L144 412L126 404C127.78 399.334 131.777 395.78 136 394Z" fill="#C5CFD6"/>
<path fill-rule="evenodd" clip-rule="evenodd" d="M776.766 423.179C774.845 425.219 772.123 426.5 769.095 426.5C763.278 426.5 758.562 421.799 758.562 416C758.562 410.201 763.278 405.5 769.095 405.5V386C752.546 386 739 399.503 739 416C739 432.497 752.546 446 769.095 446C777.788 446 785.645 442.334 791 436.502L776.766 423.179Z" fill="#F2F2F2"/>
<path fill-rule="evenodd" clip-rule="evenodd" d="M769 386V405.5C774.799 405.5 779.5 410.201 779.5 416H799C799 399.503 785.497 386 769 386Z" fill="#AFB9C5"/>
<path fill-rule="evenodd" clip-rule="evenodd" d="M779.097 416C779.097 419.407 777.492 422.435 775 424.391L787.262 440C794.399 434.412 799 425.749 799 416H779.097Z" fill="#C5CFD6"/>
<path fill-rule="evenodd" clip-rule="evenodd" d="M586.051 147.504C584.573 149.068 582.479 150.05 580.15 150.05C575.675 150.05 572.048 146.446 572.048 142C572.048 137.554 575.675 133.95 580.15 133.95V119C567.42 119 557 129.352 557 142C557 154.648 567.42 165 580.15 165C586.837 165 592.88 162.189 597 157.718L586.051 147.504Z" fill="#F2F2F2"/>
<path fill-rule="evenodd" clip-rule="evenodd" d="M580 119V133.95C584.446 133.95 588.05 137.554 588.05 142H603C603 129.352 592.648 119 580 119Z" fill="#C4AFC5"/>
<path fill-rule="evenodd" clip-rule="evenodd" d="M588.073 142C588.073 144.555 586.869 146.827 585 148.293L594.196 160C599.55 155.809 603 149.312 603 142H588.073Z" fill="#D6C5D6"/>
<path fill-rule="evenodd" clip-rule="evenodd" d="M222.007 164.986C222.003 164.996 221.999 165.006 221.993 165.018C221.999 165.008 222.007 164.968 222.007 164.986Z" fill="#C5CFD6"/>
<path fill-rule="evenodd" clip-rule="evenodd" d="M221.998 165.001C221.998 165.003 221.996 165.007 221.996 165.011C221.996 165.001 222.014 164.971 221.998 165.001Z" fill="#C5CFD6"/>
<path fill-rule="evenodd" clip-rule="evenodd" d="M222.067 164.832C222.053 164.872 222.035 164.91 222.019 164.95C222.027 164.93 222.035 164.914 222.043 164.894C221.835 165.414 221.967 165.076 222.067 164.832Z" fill="#C5CFD6"/>
<path fill-rule="evenodd" clip-rule="evenodd" d="M222.022 164.953C222.014 164.971 222.006 164.991 221.998 165.009C221.94 165.121 222.022 164.953 222.022 164.953Z" fill="#C5CFD6"/>
<path fill-rule="evenodd" clip-rule="evenodd" d="M221.999 165.002C221.999 165 221.999 165 222.001 164.998C221.999 165 221.999 165 221.999 165.002Z" fill="#C5CFD6"/>
<path fill-rule="evenodd" clip-rule="evenodd" d="M221.99 165.016C221.978 165.04 222.046 164.924 221.99 165.016V165.016Z" fill="#C5CFD6"/>
<path fill-rule="evenodd" clip-rule="evenodd" d="M221.998 165.002L222.002 164.998C222 165 222 165.002 221.998 165.002Z" fill="#C5CFD6"/>
<rect x="174" y="113" width="95" height="63" rx="4" fill="#E9DDE3"/>
<path fill-rule="evenodd" clip-rule="evenodd" d="M210 131L182 176H238L210 131Z" fill="#AFB9C5"/>
<path fill-rule="evenodd" clip-rule="evenodd" d="M237.5 143L213 176H262L237.5 143Z" fill="#C5CFD6"/>
<path fill-rule="evenodd" clip-rule="evenodd" d="M248 143C252.971 143 257 138.971 257 134C257 129.029 252.971 125 248 125C243.029 125 239 129.029 239 134C239 138.971 243.029 143 248 143Z" fill="white"/>
<path fill-rule="evenodd" clip-rule="evenodd" d="M698.993 591.986C698.997 591.996 699.001 592.006 699.007 592.018C699.001 592.008 698.993 591.968 698.993 591.986Z" fill="#C5CFD6"/>
<path fill-rule="evenodd" clip-rule="evenodd" d="M699.002 592.001C699.002 592.003 699.004 592.007 699.004 592.011C699.004 592.001 698.986 591.971 699.002 592.001Z" fill="#C5CFD6"/>
<path fill-rule="evenodd" clip-rule="evenodd" d="M698.933 591.832C698.947 591.872 698.965 591.91 698.981 591.95C698.973 591.93 698.965 591.914 698.957 591.894C699.165 592.414 699.033 592.076 698.933 591.832Z" fill="#C5CFD6"/>
<path fill-rule="evenodd" clip-rule="evenodd" d="M698.978 591.953C698.986 591.971 698.994 591.991 699.002 592.009C699.06 592.121 698.978 591.953 698.978 591.953Z" fill="#C5CFD6"/>
<path fill-rule="evenodd" clip-rule="evenodd" d="M699.001 592.002C699.001 592 699.001 592 698.999 591.998C699.001 592 699.001 592 699.001 592.002Z" fill="#C5CFD6"/>
<path fill-rule="evenodd" clip-rule="evenodd" d="M699.01 592.016C699.022 592.04 698.954 591.924 699.01 592.016V592.016Z" fill="#C5CFD6"/>
<path fill-rule="evenodd" clip-rule="evenodd" d="M699.002 592.002L698.998 591.998C699 592 699 592.002 699.002 592.002Z" fill="#C5CFD6"/>
<rect width="142" height="94" rx="4" transform="matrix(-1 0 0 1 770 515)" fill="#DDE3E9"/>
<path fill-rule="evenodd" clip-rule="evenodd" d="M717.273 542L758.328 609H676.218L717.273 542Z" fill="#AFB9C5"/>
<path fill-rule="evenodd" clip-rule="evenodd" d="M674.943 559.946L711.238 609H638.648L674.943 559.946Z" fill="#C5CFD6"/>
<path fill-rule="evenodd" clip-rule="evenodd" d="M659.5 560C652.044 560 646 553.956 646 546.5C646 539.044 652.044 533 659.5 533C666.956 533 673 539.044 673 546.5C673 553.956 666.956 560 659.5 560Z" fill="white"/>
<path fill-rule="evenodd" clip-rule="evenodd" d="M316.795 359.715C323.221 363.59 329.534 365.463 332.498 364.699C339.929 362.782 340.612 335.576 334.862 324.851C329.112 314.126 299.552 309.451 298.062 330.701C297.545 338.077 300.64 344.659 305.212 350.029L297.014 388.269H320.828L316.795 359.715Z" fill="#B28B67"/>
<path fill-rule="evenodd" clip-rule="evenodd" d="M325.455 313.17C322.201 312.177 317.477 311.841 315.49 312.069C316.62 309.358 317.069 306.339 316.703 303.399C316.348 300.542 315.072 298.109 313.892 295.56C313.348 294.386 312.732 293.217 311.813 292.318C310.877 291.403 309.692 290.798 308.45 290.51C307.178 290.215 305.849 290.24 304.576 290.507C304.012 290.626 303.507 290.884 302.954 291.027C302.388 291.174 302.114 290.819 301.703 290.463C300.714 289.605 299.263 289.182 298.011 289.03C296.606 288.86 295.149 289.072 293.809 289.534C292.505 289.984 291.252 290.714 290.31 291.779C289.89 292.252 289.509 292.792 289.261 293.387C289.16 293.631 289.143 293.776 288.899 293.865C288.674 293.948 288.41 293.951 288.178 294.029C285.929 294.791 284.007 296.53 282.96 298.762C282.35 300.064 282.061 302.357 282.14 304.926C282.219 307.496 284.538 314.201 286.706 316.647C288.642 318.83 291.487 320.27 294.233 320.901C292.411 322.986 291.197 325.591 290.3 328.24C289.326 331.119 288.723 334.109 288.5 337.156C288.288 340.051 288.269 343.112 288.947 345.945C289.581 348.595 290.938 350.768 293.203 352.147C294.241 352.779 295.357 353.253 296.48 353.687C297.586 354.114 298.696 354.53 299.855 354.769C302.048 355.223 304.576 355.145 306.266 353.398C306.875 352.768 307.544 351.977 307.989 351.207C308.148 350.931 308.245 350.75 308.051 350.479C307.818 350.155 307.442 349.907 307.143 349.653C305.44 348.209 304.386 346.28 304.12 343.987C303.85 341.661 304.475 338.659 306.734 337.644C309.524 336.391 312.596 337.83 315.075 339.17C316.129 335.449 318.292 332.098 321.684 330.391C325.437 328.502 329.743 328.281 333.599 326.661C334.604 326.239 335.628 325.76 336.367 324.899C336.677 324.54 337.039 324.073 337.163 323.598C337.325 322.973 336.922 322.449 336.611 321.962C334.962 319.38 328.709 314.163 325.455 313.17Z" fill="#191847"/>
<path fill-rule="evenodd" clip-rule="evenodd" d="M295.026 644.456C337.224 644.456 371.432 611.781 371.432 571.473C371.432 531.165 337.224 498.489 295.026 498.489C252.829 498.489 218.621 531.165 218.621 571.473C218.621 611.781 252.829 644.456 295.026 644.456Z" fill="#C5CFD6"/>
<path fill-rule="evenodd" clip-rule="evenodd" d="M413.813 567.582C417.504 580.519 426.698 605.039 439.412 633.198L451.493 629.67C440.924 564.874 432.127 521.976 427.089 508.919C423.76 500.293 398.574 501.303 401.471 518.661C402.686 525.94 407.494 545.431 413.813 567.582ZM364.157 521.688C344.455 525.773 303.605 540.213 291.94 544.827C284.609 547.726 289.335 557.561 295.589 556.701C296.648 556.555 300.395 556.135 305.986 555.51C323.944 553.499 360.926 549.359 388.975 545.319C403.744 543.192 395.799 515.509 380.465 518.438C375.306 519.424 369.818 520.514 364.157 521.688Z" fill="#B28B67"/>
<path fill-rule="evenodd" clip-rule="evenodd" d="M427.861 501.606C425.847 495.028 334.283 471.68 334.283 471.68H326.779V478.677L389.876 510.819C389.792 511.856 389.843 512.953 390.047 514.109C389.591 537.937 399.782 555.738 409.872 573.362C416.47 584.887 423.025 596.337 426.531 609.347L449.712 605.887C449.037 604.158 447.969 596.366 446.509 585.712C442.828 558.848 436.654 513.791 427.992 501.87C427.962 501.828 427.931 501.786 427.899 501.745C427.888 501.698 427.875 501.652 427.861 501.606Z" fill="#1F28CF"/>
<path fill-rule="evenodd" clip-rule="evenodd" d="M332.023 529.908C326.25 528.752 320.934 527.72 316.385 526.921C287 521.763 278.431 506.023 283.498 471.68H337.639C346.483 474.222 392.444 493.51 416.291 503.769C432.076 510.559 427.099 535.039 418.16 541.407C418.111 541.797 417.95 542.062 417.664 542.181C383.777 556.236 354.879 555.187 336.323 554.514C328.551 554.232 322.593 554.016 318.842 555.002L312.965 536.45L332.023 529.908Z" fill="#386AEC"/>
<path fill-rule="evenodd" clip-rule="evenodd" d="M298.122 543.626C298.087 542.592 297.216 541.766 296.188 541.872C294.083 542.087 290.791 542.531 289.22 543.298C286.807 544.475 282.571 547.538 282.571 547.538C283.936 550.339 307.105 597.876 307.105 597.876C307.105 597.876 314.544 596.674 313 592.194C311.457 587.715 310.51 584.715 310.51 584.715L309.526 556.119C309.509 555.621 309.085 555.236 308.589 555.268L304.098 555.55C304.098 555.55 300.366 552.527 299.173 550.08C298.417 548.529 298.188 545.578 298.122 543.626Z" fill="#E4E4E4"/>
<path fill-rule="evenodd" clip-rule="evenodd" d="M436.16 626.769C435.216 626.347 434.091 626.769 433.734 627.74C433.006 629.728 431.961 632.883 431.961 634.632C431.961 637.318 432.855 642.471 432.855 642.471C435.969 642.471 488.821 642.471 488.821 642.471C488.821 642.471 491.003 635.253 486.303 634.678C481.603 634.103 478.494 633.639 478.494 633.639L452.379 621.989C451.925 621.786 451.392 621.999 451.203 622.459L449.488 626.621C449.488 626.621 445.137 628.653 442.416 628.653C440.692 628.653 437.943 627.566 436.16 626.769Z" fill="#E4E4E4"/>
<path fill-rule="evenodd" clip-rule="evenodd" d="M410.805 481.247L379.153 457.988L372.156 475.297L403.499 488.303C412.364 498.724 417.321 503.067 418.37 501.335C419.255 499.874 418.563 498.507 417.926 497.248C417.43 496.266 416.967 495.351 417.308 494.507C418.086 492.581 424.041 492.784 429.684 493.218C435.326 493.653 433.682 491.14 432.321 489.9C426.561 486.449 419.389 483.565 410.805 481.247ZM244.815 522.231C247.723 516.327 257.626 458.791 257.626 458.791L278.362 458.873C278.362 458.873 259.156 520.914 257.626 524.711C255.637 529.642 259.015 536.807 261.305 541.665C261.659 542.417 261.988 543.113 262.266 543.737C259.088 545.16 257.562 543.44 255.952 541.627C254.134 539.579 252.211 537.412 247.683 539.52C245.934 540.334 244.278 541.297 242.661 542.238C237.074 545.487 231.942 548.472 224.961 544.162C223.854 543.478 222.641 540.905 225.572 538.894C232.873 533.885 243.394 525.117 244.815 522.231Z" fill="#B28B67"/>
<path fill-rule="evenodd" clip-rule="evenodd" d="M316.555 371.718L325.135 370.245C356.971 397.766 370.047 450.636 409.07 478.644L399.677 490.294C331.98 481.907 315.201 417.417 316.555 371.718Z" fill="#B31068"/>
<path fill-rule="evenodd" clip-rule="evenodd" d="M279.15 479.623C279.15 479.623 330.756 479.623 355.071 479.623C358.54 479.623 357.886 474.61 357.385 472.08C351.597 442.887 329.004 411.417 329.004 369.86L307.105 366.424C288.991 395.576 282.727 431.468 279.15 479.623Z" fill="#DDE3E9"/>
<path fill-rule="evenodd" clip-rule="evenodd" d="M270.616 500.476C267.204 508.676 263.858 515.832 260.705 521.328H244.423C242.671 464.648 264.115 421.034 282.062 394.737C278.077 394.452 274.481 392.783 272.207 388.678C264.203 374.225 267.094 366.268 275.647 363.652C280.351 362.214 284.775 363.195 290.07 364.371C294.404 365.332 299.32 366.423 305.452 366.424C305.452 366.424 305.452 366.424 305.452 366.424L305.452 366.424C305.454 366.424 305.456 366.424 305.458 366.424C306.052 366.424 306.593 366.464 307.084 366.54L314.35 366.955C314.35 366.955 343.854 467.018 330.624 500.476H270.616Z" fill="#990053"/>
<path fill-rule="evenodd" clip-rule="evenodd" d="M270.613 500.475C275.09 489.715 279.681 477.155 284.1 464.185C285.744 478.469 288.483 492.816 293.043 500.475H270.613Z" fill="black" fill-opacity="0.1"/>
<path fill-rule="evenodd" clip-rule="evenodd" d="M588.628 307.124C582.162 311.021 575.81 312.904 572.828 312.135C565.35 310.208 564.663 282.854 570.448 272.07C576.234 261.286 605.977 256.585 607.476 277.952C607.996 285.367 604.883 291.985 600.282 297.386L608.531 335.834H584.569L588.628 307.124Z" fill="#B28B67"/>
<path fill-rule="evenodd" clip-rule="evenodd" d="M584.106 259.641C587.264 259.123 595.768 258.767 597.336 258.767C598.338 258.767 599.424 258.996 600.017 258.076C600.504 257.322 600.325 256.048 600.471 255.174C600.639 254.158 600.878 253.155 601.12 252.155C601.809 249.309 602.85 246.601 604.307 244.059C607.041 239.29 611.046 235.554 616.102 233.38C621.686 230.98 628.004 230.43 634.01 230.917C640.437 231.438 646.255 233.56 652.324 235.556C658.106 237.459 664.163 238.208 670.211 237.279C676.305 236.343 680.909 233.04 686.049 229.905C691.311 226.696 697.324 224.597 703.545 225.08C709.351 225.53 714.703 227.928 719.504 231.13C723.997 234.127 727.703 237.732 729.796 242.806C732.047 248.265 732.045 254.256 728.343 259.08C722.977 266.072 713.015 267.88 704.727 267.7C699.933 267.597 695.225 266.722 690.699 265.13C684.663 263.007 679.447 259.408 673.8 256.489C671.15 255.119 668.411 253.993 665.54 253.183C662.754 252.396 660.01 252.035 657.487 253.718C654.818 255.499 652.427 257.248 649.374 258.363C646.445 259.432 643.343 260.03 640.223 260.006C634.152 259.959 628.167 258.067 622.271 256.8C617.463 255.767 612.318 254.738 607.416 255.731C605.37 256.145 602.382 257.001 601.644 259.127C614.078 261.38 618.962 276.759 615.456 288.048C613.564 294.141 602.192 301.264 597.77 298.06C594.968 296.031 596.669 293.367 597.77 291.608C599.877 288.24 600.599 283.914 596.698 281.569C593.334 279.546 589.797 284.349 589.73 284.344C588.805 284.271 580.815 279.752 575.31 273.158C569.879 273.48 569.055 269.899 570.352 266.971C571.649 264.042 579.743 260.357 584.106 259.641Z" fill="#191847"/>
<path fill-rule="evenodd" clip-rule="evenodd" d="M624.471 420.146L586.955 543.031L568.782 647.538H554.533L573.736 420.146H624.471Z" fill="#997659"/>
<path fill-rule="evenodd" clip-rule="evenodd" d="M637.891 420.146C635.343 487.616 638.342 522.419 638.912 528.549C639.482 534.679 647.292 574.427 665.779 649.596L650.596 644.371C621.378 575.43 611.421 539.6 608.07 530.547C604.719 521.494 595.819 484.694 581.369 420.146H637.891Z" fill="#B28B67"/>
<path fill-rule="evenodd" clip-rule="evenodd" d="M663.119 643.083C664.069 642.658 665.2 643.082 665.558 644.059C666.29 646.058 667.34 649.232 667.34 650.991C667.34 653.693 666.441 658.877 666.441 658.877C663.313 658.877 610.213 658.877 610.213 658.877C610.213 658.877 608.021 651.617 612.743 651.038C617.465 650.459 620.589 649.992 620.589 649.992L646.825 638.273C647.282 638.069 647.817 638.283 648.008 638.746L649.731 642.933C649.731 642.933 654.102 644.977 656.835 644.977C658.567 644.977 661.329 643.884 663.119 643.083Z" fill="#E4E4E4"/>
<path fill-rule="evenodd" clip-rule="evenodd" d="M569.407 643.083C570.356 642.658 571.487 643.082 571.845 644.059C572.577 646.058 573.627 649.232 573.627 650.991C573.627 653.693 572.728 658.877 572.728 658.877C569.6 658.877 516.5 658.877 516.5 658.877C516.5 658.877 514.308 651.617 519.03 651.038C523.752 650.459 526.876 649.992 526.876 649.992L553.112 638.273C553.569 638.069 554.105 638.283 554.295 638.746L556.018 642.933C556.018 642.933 560.389 644.977 563.123 644.977C564.855 644.977 567.616 643.884 569.407 643.083Z" fill="#E4E4E4"/>
<path fill-rule="evenodd" clip-rule="evenodd" d="M629.455 420.146L613.504 482.755H564.784L572.048 420.146H629.455Z" fill="#69A1AC"/>
<path fill-rule="evenodd" clip-rule="evenodd" d="M638.428 420.146C646.3 443.79 641.419 482.755 641.419 482.755H591.701L578.03 420.146H638.428Z" fill="#89C5CC"/>
<path fill-rule="evenodd" clip-rule="evenodd" d="M692.679 451.636C688.957 446.176 663.868 372.697 663.868 372.697L642.23 375.821C642.23 375.821 678.205 452.336 680.261 455.895C682.931 460.518 680.566 468.112 678.963 473.262C678.715 474.058 678.485 474.796 678.295 475.456C681.66 476.425 682.941 474.502 684.291 472.474C685.816 470.184 687.43 467.761 692.236 469.222C694.093 469.786 695.877 470.511 697.62 471.22C703.64 473.668 709.171 475.916 715.525 470.654C716.532 469.819 717.381 467.092 714.18 465.504C706.206 461.547 694.498 454.306 692.679 451.636ZM506.205 447.839L530.38 416.629L541.94 431.389L515.225 452.622C509.536 465.132 505.944 470.696 504.45 469.316C503.19 468.152 503.48 466.641 503.747 465.249C503.956 464.165 504.15 463.153 503.587 462.434C502.3 460.792 496.597 462.637 491.259 464.62C485.922 466.602 486.817 463.723 487.789 462.149C492.405 457.224 498.544 452.454 506.205 447.839Z" fill="#B28B67"/>
<path fill-rule="evenodd" clip-rule="evenodd" d="M589.28 320.662L580.525 320.399C573.736 369.815 509.091 411.933 507.34 430.296C506.697 437.029 511.858 439.663 509.71 441.988L521.964 448.547C523.538 446.09 528.117 449.535 536.109 445.552C544.101 441.569 597.188 376.933 589.28 320.662Z" fill="#DB2721"/>
<path fill-rule="evenodd" clip-rule="evenodd" d="M603.527 308.512C605.444 308.104 607.33 309.328 607.737 311.246L609.046 317.397C626.872 327.495 671.941 358.824 691.995 426.117C694.102 433.186 692.671 437.332 691.528 440.644C690.746 442.91 690.099 444.786 690.811 446.941L676.83 452.993C676.601 451.36 674.593 450.375 672.004 449.105C668.238 447.258 663.24 444.807 660.687 438.881C658.266 433.263 654.898 426.294 650.959 418.568C652.206 429.357 651.554 439.533 648.255 448.348C640.026 470.338 572.729 456.948 563.098 437.048C557.959 426.428 561.721 416.378 566.697 403.086C573.014 386.209 581.287 364.107 575.784 328.98L573.556 318.507C573.148 316.59 574.372 314.705 576.29 314.297L603.527 308.512Z" fill="#FF4133"/>
<defs>
<clipPath id="clip0">
<rect width="837.341" height="272.541" fill="white" transform="translate(49.3301 416.965)"/>
</clipPath>
<clipPath id="clip1">
<rect width="73" height="21.6" fill="white" transform="translate(289 176.2)"/>
</clipPath>
<clipPath id="clip2">
<rect width="73" height="16.8" fill="white" transform="translate(289 234.6)"/>
</clipPath>
<clipPath id="clip3">
<rect width="73" height="16.8" fill="white" transform="translate(289 284.6)"/>
</clipPath>
<clipPath id="clip4">
<rect width="73" height="16.8" fill="white" transform="translate(289 334.6)"/>
</clipPath>
<clipPath id="clip5">
<rect width="73" height="21.6" fill="white" transform="translate(325 202.2)"/>
</clipPath>
<clipPath id="clip6">
<rect width="73" height="16.8" fill="white" transform="translate(355 260.6)"/>
</clipPath>
<clipPath id="clip7">
<rect width="73" height="16.8" fill="white" transform="translate(325 310.6)"/>
</clipPath>
<clipPath id="clip8">
<rect width="73" height="16.8" fill="white" transform="translate(355 360.6)"/>
</clipPath>
<clipPath id="clip9">
<rect width="167" height="18.8" fill="white" transform="translate(393 241.1)"/>
</clipPath>
<clipPath id="clip10">
<rect width="167" height="15.6" fill="white" transform="translate(393 293.7)"/>
</clipPath>
<clipPath id="clip11">
<rect width="167" height="15.6" fill="white" transform="translate(393 340.7)"/>
</clipPath>
<clipPath id="clip12">
<rect width="167" height="15.6" fill="white" transform="translate(393 481.7)"/>
</clipPath>
<clipPath id="clip13">
<rect width="167" height="15.6" fill="white" transform="translate(393 434.7)"/>
</clipPath>
<clipPath id="clip14">
<rect width="167" height="15.6" fill="white" transform="translate(393 387.7)"/>
</clipPath>
</defs>
</svg>
