<svg width="733" height="461" viewBox="0 0 733 461" fill="none" xmlns="http://www.w3.org/2000/svg">
<path fill-rule="evenodd" clip-rule="evenodd" d="M732.68 319.244C743.365 387.379 484.242 431.821 261.209 400.806C38.176 369.791 -64.141 248.673 42.2867 184.137C148.714 119.601 721.995 251.109 732.68 319.244Z" fill="#F2F2F2"/>
<path fill-rule="evenodd" clip-rule="evenodd" d="M506.893 83.5084C501.391 86.8248 495.985 88.4272 493.447 87.7731C487.084 86.1328 486.499 62.8534 491.422 53.6759C496.346 44.4985 521.658 40.4983 522.934 58.6818C523.377 64.9927 520.727 70.6248 516.812 75.2205L523.832 107.941H503.44L506.893 83.5084Z" fill="#B28B67"/>
<path fill-rule="evenodd" clip-rule="evenodd" d="M503.047 43.0982C505.735 42.6575 512.971 42.3545 514.306 42.3547C515.159 42.3547 516.083 42.5495 516.588 41.7664C517.002 41.1251 516.85 40.0406 516.974 39.2964C517.117 38.432 517.32 37.5787 517.526 36.7275C518.112 34.3055 518.999 32.0012 520.239 29.8378C522.565 25.7789 525.974 22.5996 530.277 20.7496C535.029 18.7069 540.406 18.2391 545.517 18.6535C550.986 19.0968 555.938 20.9024 561.102 22.6016C566.023 24.2208 571.178 24.8581 576.325 24.0674C581.511 23.2708 585.429 20.4601 589.803 17.7923C594.281 15.0612 599.399 13.275 604.693 13.6856C609.634 14.069 614.189 16.1094 618.275 18.835C622.098 21.3852 625.252 24.4534 627.033 28.7716C628.949 33.4167 628.948 38.5155 625.797 42.6207C621.23 48.5712 612.752 50.11 605.699 49.957C601.619 49.8688 597.612 49.1241 593.761 47.7694C588.624 45.9626 584.185 42.9003 579.379 40.4156C577.124 39.2497 574.793 38.2921 572.35 37.6023C569.978 36.9327 567.643 36.6256 565.496 38.0579C563.225 39.5733 561.19 41.0618 558.592 42.0104C556.099 42.9204 553.459 43.4294 550.804 43.4089C545.637 43.369 540.544 41.7592 535.526 40.6809C531.434 39.8017 527.056 38.9255 522.884 39.7706C521.143 40.1234 518.601 40.8515 517.972 42.6606C528.554 44.5785 532.71 57.6659 529.727 67.2732C528.117 72.4586 518.438 78.5204 514.675 75.7943C512.291 74.0673 513.738 71.8 514.675 70.3032C516.469 67.4369 517.083 63.7551 513.763 61.7595C510.9 60.0384 507.89 64.1256 507.833 64.1211C507.046 64.0591 500.246 60.2135 495.561 54.6019C490.939 54.8759 490.238 51.8285 491.342 49.3363C492.445 46.8441 499.334 43.7076 503.047 43.0982Z" fill="#191847"/>
<path fill-rule="evenodd" clip-rule="evenodd" d="M537.402 179.691L505.476 284.271L490.01 373.209H477.883L494.225 179.691H537.402Z" fill="#997659"/>
<path fill-rule="evenodd" clip-rule="evenodd" d="M548.825 179.691C546.656 237.111 549.208 266.729 549.694 271.946C550.179 277.163 556.825 310.989 572.559 374.96L559.637 370.514C534.772 311.843 526.298 281.35 523.447 273.646C520.595 265.942 513.02 234.624 500.723 179.691H548.825Z" fill="#B28B67"/>
<path fill-rule="evenodd" clip-rule="evenodd" d="M570.291 369.418C571.099 369.057 572.062 369.418 572.366 370.249C572.989 371.95 573.883 374.651 573.883 376.149C573.883 378.448 573.118 382.859 573.118 382.859C570.456 382.859 525.266 382.859 525.266 382.859C525.266 382.859 523.401 376.681 527.419 376.188C531.438 375.696 534.096 375.299 534.096 375.299L556.424 365.325C556.813 365.151 557.269 365.333 557.431 365.727L558.897 369.291C558.897 369.291 562.617 371.03 564.943 371.03C566.417 371.03 568.767 370.1 570.291 369.418Z" fill="#E4E4E4"/>
<path fill-rule="evenodd" clip-rule="evenodd" d="M490.541 369.418C491.349 369.057 492.312 369.418 492.616 370.249C493.239 371.95 494.133 374.651 494.133 376.149C494.133 378.448 493.368 382.859 493.368 382.859C490.706 382.859 445.516 382.859 445.516 382.859C445.516 382.859 443.651 376.681 447.669 376.188C451.688 375.696 454.346 375.299 454.346 375.299L476.674 365.325C477.063 365.151 477.519 365.333 477.681 365.727L479.147 369.291C479.147 369.291 482.867 371.03 485.193 371.03C486.667 371.03 489.017 370.1 490.541 369.418Z" fill="#E4E4E4"/>
<path fill-rule="evenodd" clip-rule="evenodd" d="M541.645 179.691L528.07 232.974H486.607L492.79 179.691H541.645Z" fill="#69A1AC"/>
<path fill-rule="evenodd" clip-rule="evenodd" d="M549.279 179.691C555.978 199.813 551.824 232.974 551.824 232.974H509.513L497.878 179.691H549.279Z" fill="#89C5CC"/>
<path fill-rule="evenodd" clip-rule="evenodd" d="M595.452 206.49C592.285 201.844 570.933 139.311 570.933 139.311L552.518 141.969C552.518 141.969 583.135 207.086 584.884 210.115C587.157 214.049 585.144 220.512 583.78 224.894C583.569 225.572 583.373 226.2 583.211 226.762C586.075 227.586 587.165 225.95 588.314 224.224C589.612 222.275 590.985 220.213 595.076 221.456C596.656 221.936 598.174 222.554 599.657 223.157C604.781 225.239 609.487 227.153 614.895 222.675C615.752 221.965 616.475 219.644 613.751 218.292C606.964 214.925 597.001 208.762 595.452 206.49ZM436.759 203.259L457.332 176.698L467.171 189.259L444.435 207.33C439.594 217.975 436.537 222.711 435.265 221.536C434.193 220.545 434.44 219.259 434.668 218.075C434.845 217.153 435.01 216.292 434.531 215.68C433.436 214.282 428.582 215.853 424.04 217.54C419.498 219.227 420.259 216.776 421.087 215.437C425.015 211.246 430.239 207.187 436.759 203.259Z" fill="#B28B67"/>
<path fill-rule="evenodd" clip-rule="evenodd" d="M507.457 95.0274L500.006 94.8043C494.229 136.858 439.214 172.702 437.724 188.329C437.177 194.06 441.569 196.301 439.741 198.28L450.169 203.861C451.509 201.771 455.406 204.702 462.207 201.313C469.009 197.923 514.187 142.916 507.457 95.0274Z" fill="#DB2721"/>
<path fill-rule="evenodd" clip-rule="evenodd" d="M519.579 84.6878C521.211 84.3411 522.815 85.383 523.162 87.015L524.276 92.2495C539.447 100.843 577.801 127.505 594.868 184.773C596.661 190.789 595.443 194.317 594.471 197.136C593.805 199.065 593.255 200.661 593.86 202.495L581.963 207.645C581.767 206.256 580.059 205.418 577.855 204.337C574.65 202.765 570.397 200.679 568.224 195.636C566.165 190.856 563.3 184.928 559.949 178.356C561.009 187.536 560.453 196.192 557.647 203.692C550.644 222.407 493.372 211.012 485.176 194.076C480.802 185.038 484.004 176.485 488.238 165.173C493.611 150.819 500.647 132.023 495.98 102.16L494.073 93.1944C493.726 91.5624 494.768 89.9583 496.4 89.6117L519.579 84.6878Z" fill="#FF4133"/>
<g opacity="0.5">
<path fill-rule="evenodd" clip-rule="evenodd" d="M159.335 94.8426C162.911 89.7432 169.548 76.7925 174.581 74.9703C177.823 73.7967 176.878 85.9371 176.918 88.252C177.074 97.208 176.202 106.107 175.125 114.988C173.186 131.005 166.842 145.268 158.143 158.9C153.666 165.915 148.415 173.014 141.142 177.391C137.794 179.406 133.766 179.743 130.46 181.48C126.61 183.502 128.707 181.867 126.971 185.88C124.562 191.45 123.791 198.637 122.676 204.581C117.557 231.867 105.163 376.108 107.311 403.863C107.502 406.323 104.072 406.911 103.901 403.908C102.991 387.984 110.867 277.71 114.84 241.647C118.814 205.584 122.835 173.724 126.867 161.248C131.758 146.111 140.592 127.908 147.946 113.792C151.361 107.234 155.085 100.903 159.335 94.8426Z" fill="#69A1AC"/>
<path fill-rule="evenodd" clip-rule="evenodd" d="M185.877 271.715C195.183 264.883 205.256 277.777 196.835 284.61C192.18 288.387 187.313 287.043 184.573 283.896C182.795 286.064 181.13 288.331 179.53 290.246C174.657 296.08 170.05 302.054 165.648 308.168C156.503 320.868 148.666 334.285 140.472 347.457C132.385 360.457 124.363 373.524 117.033 386.853C110.824 398.146 102.548 411.432 100.422 423.813C103.647 397.555 115.887 372.317 130.462 349.169C144.918 326.212 161.508 301.139 183.892 283.021C181.614 279.671 181.55 274.889 185.877 271.715Z" fill="#C1DEE2"/>
<path fill-rule="evenodd" clip-rule="evenodd" d="M9.28834 207.678C14.496 208.696 23.0052 220.477 27.2979 224.965C32.3994 230.299 37.0278 235.984 41.3906 241.941C50.7827 254.762 59.1824 268.394 66.3249 282.61C77.9691 305.784 87.2977 329.574 94.0678 354.809C98.212 370.257 100.895 386.268 102.485 402.167C102.786 405.165 105.929 428.283 101.4 428.906C97.3255 429.467 98.5838 411.352 98.3873 408.888C96.1655 381.089 89.5098 354.041 80.2517 327.839C78.2351 322.131 76.3617 315.14 73.1367 310.003C70.8143 306.304 73.1201 307.594 69.0388 306.194C65.5343 304.991 61.5415 305.285 57.9528 303.812C50.1568 300.615 43.9145 294.408 38.4426 288.165C27.8089 276.033 19.3822 262.907 14.9898 247.361C12.5531 238.741 10.314 230.071 9.07138 221.184C8.74995 218.887 5.93413 207.022 9.28834 207.678Z" fill="#69A1AC"/>
<path fill-rule="evenodd" clip-rule="evenodd" d="M29.8377 11.6727C49.4539 45.6921 65.5736 83.0614 75.9823 120.911C82.2886 143.844 86.6989 167.376 91.0808 190.738C97.8655 226.912 104.283 263.082 106.108 299.898C107.945 336.928 111.577 379.637 99.4514 415.302C105.508 379.092 99.7417 340.55 98.7207 304.115C98.2329 286.722 96.819 269.498 94.9643 252.207C93.1645 235.433 90.2242 218.739 87.486 202.097C86.1522 193.992 84.7514 185.899 83.3252 177.811C82.8995 175.398 82.7196 168.237 81.1889 166.589C79.6482 164.929 71.7874 164.253 69.3195 163.035C64.35 160.583 59.6754 157.1 55.5384 153.419C47.6076 146.363 40.7082 137.144 35.2626 128.056C22.663 107.029 17.6256 81.3669 17.8802 57.014C17.9292 52.2857 25.5332 1.37011 22.4793 0.668965C22.6632 0.453623 22.8371 0.231277 23.0011 0C25.3132 3.87115 27.582 7.76853 29.8377 11.6727Z" fill="#89C5CC"/>
<path fill-rule="evenodd" clip-rule="evenodd" d="M241.562 134.367C241.865 133.93 243.835 130.894 242.843 131.088C244.863 130.693 240.065 134.437 245.097 132.14C242.708 134.396 244.087 137.328 244.119 140.365C244.171 145.296 243.346 150.187 242.417 155.012C240.949 162.639 238.763 170.055 235.59 177.15C228.674 192.61 216.93 207.493 202.987 217.159C196.104 221.931 189.358 223.556 181.508 225.753C176.55 227.141 176.156 229.706 173.524 234.517C168.045 244.539 162.663 254.524 157.83 264.884C152.06 277.255 146.459 289.639 141.175 302.227C123.374 344.631 108.886 388.561 101.278 434.025C101.091 407.233 107.289 379.64 115.107 354.103C120.802 335.498 128.216 317.562 136.123 299.809C138.039 295.508 140.943 289.975 141.757 285.227C142.326 281.899 140.584 278.7 139.787 275.195C136.678 261.547 136.9 246.256 139.631 232.535C142.641 217.405 151.347 210.382 166.075 208.239C171.461 207.455 178.307 207.742 183.246 205.446C188.627 202.945 190.847 194.724 193.907 189.447C202.125 175.272 211.89 161.678 223.103 149.734C226.207 146.427 229.546 143.376 233.088 140.548C235.322 138.763 240.04 136.565 241.562 134.367Z" fill="#89C5CC"/>
<path fill-rule="evenodd" clip-rule="evenodd" d="M72.2074 409.966C71.8284 407.396 73.8198 405.09 76.417 405.09H128.685C131.282 405.09 133.273 407.396 132.894 409.966L128.854 437.359C127.623 445.71 120.457 451.896 112.016 451.896H93.0856C84.6446 451.896 77.4787 445.71 76.2472 437.359L72.2074 409.966Z" fill="#C1DEE2"/>
</g>
<path fill-rule="evenodd" clip-rule="evenodd" d="M268.752 163.155C274.221 166.454 279.595 168.048 282.117 167.398C288.442 165.766 289.023 142.614 284.13 133.486C279.236 124.359 254.08 120.38 252.812 138.465C252.372 144.741 255.005 150.342 258.895 154.912L251.918 187.456H272.185L268.752 163.155Z" fill="#B28B67"/>
<path fill-rule="evenodd" clip-rule="evenodd" d="M276.123 123.544C273.354 122.699 269.334 122.412 267.643 122.606C268.605 120.3 268.986 117.73 268.675 115.228C268.373 112.797 267.287 110.727 266.283 108.557C265.82 107.558 265.296 106.563 264.514 105.798C263.717 105.019 262.709 104.505 261.652 104.259C260.57 104.008 259.438 104.029 258.354 104.257C257.875 104.358 257.445 104.577 256.975 104.699C256.493 104.824 256.26 104.523 255.91 104.22C255.068 103.489 253.833 103.129 252.768 103C251.572 102.855 250.332 103.036 249.192 103.429C248.082 103.812 247.016 104.433 246.214 105.339C245.856 105.742 245.532 106.201 245.321 106.708C245.235 106.916 245.221 107.039 245.013 107.115C244.822 107.185 244.597 107.187 244.399 107.254C242.486 107.903 240.85 109.382 239.959 111.282C239.44 112.39 239.193 114.341 239.261 116.528C239.328 118.715 241.302 124.421 243.147 126.503C244.795 128.36 247.216 129.586 249.553 130.123C248.002 131.897 246.969 134.114 246.206 136.369C245.376 138.818 244.863 141.363 244.674 143.956C244.494 146.42 244.477 149.025 245.054 151.436C245.594 153.691 246.749 155.541 248.676 156.714C249.559 157.252 250.509 157.656 251.465 158.025C252.406 158.388 253.351 158.742 254.337 158.946C256.204 159.332 258.355 159.266 259.793 157.779C260.311 157.243 260.881 156.569 261.259 155.914C261.395 155.679 261.477 155.525 261.312 155.295C261.114 155.019 260.794 154.808 260.54 154.592C259.09 153.363 258.193 151.721 257.967 149.77C257.737 147.791 258.269 145.236 260.192 144.372C262.565 143.306 265.18 144.53 267.29 145.671C268.186 142.504 270.028 139.652 272.914 138.199C276.108 136.592 279.772 136.404 283.054 135.025C283.91 134.666 284.781 134.258 285.41 133.526C285.673 133.22 285.982 132.823 286.087 132.418C286.225 131.886 285.882 131.441 285.618 131.026C284.214 128.829 278.893 124.389 276.123 123.544Z" fill="#191847"/>
<path fill-rule="evenodd" clip-rule="evenodd" d="M250.226 405.478C286.138 405.478 315.249 377.67 315.249 343.367C315.249 309.064 286.138 281.256 250.226 281.256C214.315 281.256 185.203 309.064 185.203 343.367C185.203 377.67 214.315 405.478 250.226 405.478Z" fill="#C5CFD6"/>
<path fill-rule="evenodd" clip-rule="evenodd" d="M351.318 340.056C354.459 351.065 362.283 371.932 373.103 395.897L383.385 392.895C374.39 337.751 366.904 301.243 362.616 290.132C359.783 282.79 338.349 283.651 340.815 298.423C341.849 304.617 345.94 321.205 351.318 340.056ZM309.059 300.999C292.292 304.475 257.527 316.763 247.6 320.69C241.361 323.158 245.383 331.527 250.706 330.795C251.607 330.671 254.796 330.314 259.554 329.782C274.837 328.071 306.31 324.547 330.18 321.109C342.749 319.299 335.988 295.74 322.937 298.233C318.547 299.072 313.877 300 309.059 300.999Z" fill="#B28B67"/>
<path fill-rule="evenodd" clip-rule="evenodd" d="M363.274 283.908C361.56 278.311 283.636 258.44 283.636 258.44H277.25V264.395L330.946 291.749C330.875 292.632 330.919 293.565 331.092 294.549C330.704 314.827 339.377 329.976 347.964 344.975C353.579 354.784 359.157 364.528 362.141 375.6L381.869 372.654C381.294 371.184 380.386 364.552 379.143 355.485C376.01 332.623 370.756 294.278 363.384 284.133C363.359 284.098 363.333 284.063 363.306 284.028C363.297 283.988 363.286 283.948 363.274 283.908Z" fill="#1F28CF"/>
<path fill-rule="evenodd" clip-rule="evenodd" d="M281.708 307.995C276.795 307.01 272.27 306.132 268.399 305.452C243.392 301.063 236.099 287.668 240.411 258.44H286.487C294.013 260.604 333.128 277.019 353.422 285.749C366.855 291.528 362.62 312.359 355.013 317.78C354.972 318.112 354.835 318.338 354.591 318.439C325.752 330.4 301.159 329.508 285.367 328.935C278.753 328.695 273.683 328.511 270.49 329.35L265.489 313.562L281.708 307.995Z" fill="#386AEC"/>
<path fill-rule="evenodd" clip-rule="evenodd" d="M252.86 319.668C252.83 318.789 252.088 318.086 251.213 318.176C249.422 318.359 246.621 318.736 245.283 319.389C243.23 320.391 239.625 322.998 239.625 322.998C240.787 325.381 260.504 365.837 260.504 365.837C260.504 365.837 266.835 364.814 265.521 361.002C264.208 357.189 263.402 354.637 263.402 354.637L262.565 330.3C262.55 329.877 262.189 329.549 261.767 329.576L257.945 329.816C257.945 329.816 254.769 327.244 253.754 325.162C253.11 323.841 252.916 321.329 252.86 319.668Z" fill="#E4E4E4"/>
<path fill-rule="evenodd" clip-rule="evenodd" d="M370.336 390.427C369.532 390.068 368.574 390.426 368.271 391.253C367.651 392.945 366.762 395.629 366.762 397.118C366.762 399.404 367.523 403.789 367.523 403.789C370.173 403.789 415.152 403.789 415.152 403.789C415.152 403.789 417.008 397.647 413.008 397.157C409.008 396.668 406.363 396.273 406.363 396.273L384.138 386.358C383.751 386.186 383.298 386.367 383.137 386.758L381.678 390.301C381.678 390.301 377.975 392.03 375.659 392.03C374.192 392.03 371.852 391.104 370.336 390.427Z" fill="#E4E4E4"/>
<path fill-rule="evenodd" clip-rule="evenodd" d="M348.754 266.581L321.817 246.787L315.863 261.517L342.537 272.586C350.081 281.454 354.299 285.151 355.192 283.676C355.945 282.433 355.357 281.27 354.815 280.198C354.392 279.363 353.998 278.584 354.288 277.866C354.951 276.227 360.018 276.399 364.82 276.769C369.622 277.139 368.223 275 367.065 273.945C362.163 271.008 356.06 268.554 348.754 266.581ZM207.491 301.459C209.965 296.435 218.393 247.47 218.393 247.47L236.04 247.54C236.04 247.54 219.695 300.339 218.393 303.57C216.7 307.766 219.575 313.864 221.524 317.998C221.826 318.638 222.105 319.231 222.342 319.762C219.637 320.973 218.338 319.509 216.969 317.966C215.422 316.223 213.785 314.379 209.931 316.173C208.442 316.866 207.034 317.685 205.657 318.486C200.903 321.251 196.536 323.792 190.594 320.123C189.652 319.542 188.62 317.352 191.114 315.64C197.327 311.377 206.281 303.915 207.491 301.459Z" fill="#B28B67"/>
<path fill-rule="evenodd" clip-rule="evenodd" d="M268.547 173.369L275.849 172.116C302.942 195.537 314.07 240.531 347.279 264.367L339.286 274.282C281.674 267.143 267.394 212.261 268.547 173.369Z" fill="#B31068"/>
<path fill-rule="evenodd" clip-rule="evenodd" d="M236.715 265.2C236.715 265.2 280.633 265.2 301.325 265.2C304.278 265.2 303.722 260.934 303.295 258.781C298.369 233.936 279.141 207.155 279.141 171.789L260.505 168.864C245.09 193.674 239.759 224.219 236.715 265.2Z" fill="#DDE3E9"/>
<path fill-rule="evenodd" clip-rule="evenodd" d="M229.447 282.946C226.543 289.925 223.696 296.015 221.013 300.692H207.156C205.665 252.455 223.915 215.339 239.188 192.959C235.797 192.717 232.736 191.297 230.801 187.803C223.989 175.503 226.449 168.731 233.729 166.505C237.732 165.281 241.497 166.117 246.003 167.117C249.691 167.935 253.875 168.864 259.093 168.864C259.093 168.864 259.093 168.864 259.093 168.864L259.094 168.864C259.095 168.864 259.097 168.864 259.099 168.864C259.604 168.864 260.064 168.898 260.481 168.963L266.667 169.316C266.667 169.316 291.776 254.472 280.517 282.946H229.447Z" fill="#990053"/>
<path fill-rule="evenodd" clip-rule="evenodd" d="M229.449 282.946C233.259 273.789 237.166 263.102 240.925 252.064C242.325 264.22 244.656 276.428 248.536 282.946H229.449Z" fill="black" fill-opacity="0.1"/>
</svg>
