<svg width="1148" height="792" viewBox="0 0 1148 792" fill="none" xmlns="http://www.w3.org/2000/svg">
<path fill-rule="evenodd" clip-rule="evenodd" d="M83.4812 605.501C108.778 507.697 364.751 563.414 532.565 533.178C700.378 502.941 898.915 362.125 1030.31 431.104C1161.71 500.083 1021.9 666.826 720.538 704.454C419.173 742.082 58.1845 703.305 83.4812 605.501Z" fill="#F2F2F2"/>
<g opacity="0.5">
<path fill-rule="evenodd" clip-rule="evenodd" d="M300.909 183.673C299.336 185.243 299.947 190.825 299.914 192.89C299.863 196.106 300.064 199.293 300.332 202.497C300.513 204.642 301.528 225.114 304.354 223.542C305.947 222.656 304.948 216.734 304.945 214.861C304.939 210.696 304.765 206.542 304.488 202.387C304.23 198.529 304.068 194.717 304.216 190.852C304.252 189.908 305.135 179.439 300.909 183.673Z" fill="#89C5CC"/>
<path fill-rule="evenodd" clip-rule="evenodd" d="M369.409 181.149C355.896 181.256 342.388 181.923 328.881 182.331C322.381 182.528 315.886 182.778 309.394 183.138C307.181 183.261 302.436 182.553 300.593 183.731C296.501 186.349 303.1 186.96 304.859 186.896C331.59 185.927 358.329 184.651 385.082 184.59C398.206 184.561 411.323 184.935 424.448 184.851C429.465 184.819 435.02 182.657 436.287 188.497C437.717 195.087 436.074 202.424 435.627 209.045C435.329 213.466 435.435 217.794 435.634 222.211C435.762 225.04 435.429 228.229 435.93 231.005C436.411 233.679 438.333 235.282 440.095 232.287C441.148 230.498 440.624 226.079 440.694 224.005C440.788 221.213 440.7 218.421 440.7 215.629C440.699 208.812 441.661 202.022 441.534 195.206C441.452 190.811 441.219 182.844 435.676 181.788C429.572 180.625 422.069 181.795 415.822 181.723C400.344 181.547 384.892 181.028 369.409 181.149Z" fill="#89C5CC"/>
<path fill-rule="evenodd" clip-rule="evenodd" d="M332.175 223.786C327.079 223.786 321.983 223.817 316.888 223.901C312.518 223.973 305.648 223.062 301.581 224.626C298.796 225.696 298.057 228.805 301.581 229.633C305.424 230.536 311.216 229.059 315.238 228.988C335.402 228.632 355.76 228.168 375.895 229.444C394.763 230.638 413.994 231.796 432.89 230.536C434.479 230.429 442.588 230.107 438.888 227.067C436.729 225.293 427.981 226.46 425.175 226.375C415.281 226.077 405.377 226.011 395.486 225.636C385.724 225.265 376.005 224.167 366.239 223.896C354.894 223.58 343.524 223.786 332.175 223.786Z" fill="#89C5CC"/>
<path fill-rule="evenodd" clip-rule="evenodd" d="M327.075 194.804C335.017 195.151 342.875 206.669 334.839 212.236C327.3 217.459 313.172 211.735 317.364 201.606C316.761 203.071 318.126 200.015 318.143 199.995C318.94 199.056 320.371 198.016 321.354 197.276C322.478 196.428 323.649 195.496 325.005 195.071C325.895 194.793 325.755 195.841 327.075 194.804ZM323.207 190.65C319.49 192.101 317.794 193.738 315.239 196.701C313.472 198.751 311.218 199.83 311.238 202.6C311.243 203.214 312.03 203.888 312.167 204.478C312.355 205.295 312.137 206.34 312.286 207.208C313.824 216.157 324.501 219.174 332.317 217.484C339.125 216.013 344.217 209.477 342.64 202.371C341.052 195.217 330.444 187.82 323.207 190.65Z" fill="#89C5CC"/>
<path fill-rule="evenodd" clip-rule="evenodd" d="M319.898 203.143C319.898 206.362 324.984 206.362 324.984 203.143C324.984 199.96 319.898 199.823 319.898 203.143Z" fill="#89C5CC"/>
<path fill-rule="evenodd" clip-rule="evenodd" d="M326.258 202.491C326.258 205.05 330.298 205.05 330.298 202.491C330.298 199.962 326.258 199.854 326.258 202.491Z" fill="#89C5CC"/>
<path fill-rule="evenodd" clip-rule="evenodd" d="M327.51 207.767C326.216 208.265 324.575 207.233 323.513 207.913C321.632 209.117 323.517 210.207 324.526 210.691C329.066 212.87 329.874 206.862 327.51 207.767Z" fill="#89C5CC"/>
<path fill-rule="evenodd" clip-rule="evenodd" d="M396.851 200.632C396.716 200.69 396.234 200.894 396.851 200.632V200.632ZM377.079 197.743C373.681 198.51 370.812 201.683 367.12 201.259C364.29 200.933 362.375 198.203 359.581 197.806C356.008 197.298 346.284 205.449 351.397 206.848C354.38 207.664 356.034 202.213 358.67 201.923C360.754 201.694 363.589 204.25 365.749 204.614C369.779 205.293 372.547 203.074 376.085 201.642C379.929 200.086 382.116 201.487 385.46 203.216C388.099 204.581 390.584 205.47 393.604 204.906C396.438 204.378 399.998 201.464 402.851 201.763C405.645 202.056 407.639 204.972 410.513 205.242C411.697 205.354 413.461 205.757 413.262 203.929C413.103 202.465 411.47 202.713 410.448 202.181C407.82 200.813 405.362 198.389 402.19 198.596C399.805 198.751 397.633 200.428 395.434 201.23C388.234 203.855 384.187 196.149 377.079 197.743Z" fill="#89C5CC"/>
<path fill-rule="evenodd" clip-rule="evenodd" d="M383.093 244.111C369.204 244.239 355.268 244.445 341.419 245.558C338.135 245.822 304.608 248.988 304.672 249.216C304.789 249.637 309.102 250.282 309.075 250.381C308.784 249.661 308.12 249.362 307.082 249.487C338.88 249.487 370.576 246.64 402.416 247.152C410.416 247.28 418.446 247.227 426.441 247.479C428.437 247.542 433.382 248.972 434.949 248.071C439.063 245.706 431.59 245.433 430.352 245.334C414.683 244.08 398.805 243.954 383.093 244.111Z" fill="#69A1AC"/>
<path fill-rule="evenodd" clip-rule="evenodd" d="M300.558 250.86C298.481 252.941 300.393 260.43 300.475 263.245C300.593 267.314 300.496 271.413 300.853 275.471C301.261 280.108 301.893 285.047 303.109 289.545C303.779 292.023 306.131 295.962 307.063 291.459C307.728 288.243 306.718 283.976 306.366 280.7C305.896 276.317 305.782 271.992 305.765 267.588C305.749 263.75 305.675 259.897 305.36 256.071C305.197 254.085 304.198 247.239 300.558 250.86Z" fill="#69A1AC"/>
<path fill-rule="evenodd" clip-rule="evenodd" d="M352.796 288.998C342.94 289.168 333.063 289.4 323.224 290.015C319.191 290.268 315.162 290.644 311.144 291.07C310.324 291.157 301.249 291.526 305.304 294.875C307.134 296.387 314.663 294.296 317.15 294.078C321.332 293.712 325.513 293.473 329.708 293.296C339.426 292.883 349.174 292.519 358.902 292.688C376.669 292.996 394.321 293.134 412.092 292.737C414.617 292.681 434.398 293.21 435.07 290.583C435.611 288.466 428.537 289.437 427.248 289.475C422.516 289.617 417.784 289.584 413.051 289.56C393 289.457 372.832 288.66 352.796 288.998Z" fill="#69A1AC"/>
<path fill-rule="evenodd" clip-rule="evenodd" d="M431.72 247.347C432.033 256.122 433.528 264.887 434.005 273.689C434.224 277.712 434.481 281.732 434.678 285.757C434.741 287.056 434.218 290.184 435.754 290.931C437.86 291.955 438.143 289.891 438.537 288.495C439.676 284.462 438.906 279.224 438.802 275.081C438.703 271.07 438.696 267.051 438.4 263.047C438.097 258.957 437.273 254.943 436.891 250.867C436.729 249.143 437.294 246.274 435.464 245.204C433.882 244.279 431.652 245.445 431.72 247.347Z" fill="#69A1AC"/>
<path fill-rule="evenodd" clip-rule="evenodd" d="M334.847 261.945C334.885 261.973 334.922 262.003 334.959 262.032C334.922 262.003 334.884 261.974 334.847 261.945ZM326.471 259.345C329.595 260.237 332.16 259.904 335.143 262.178C337.616 264.063 340.153 266.821 340.974 269.869C342.869 276.912 336.444 280.771 330.42 280.847C324.25 280.925 315.118 279.494 315.434 271.585C315.676 265.509 320.113 259.581 326.471 259.345ZM326.691 255.365C318.592 255.768 312.059 264.863 312.129 272.519C312.214 281.798 322.728 284.188 330.196 284.253C338.625 284.325 347.031 278.505 344.772 269.026C342.962 261.431 334.48 254.96 326.691 255.365Z" fill="#69A1AC"/>
<path fill-rule="evenodd" clip-rule="evenodd" d="M318.543 267.823C318.543 270.411 322.631 270.411 322.631 267.823C322.631 265.265 318.543 265.155 318.543 267.823Z" fill="#69A1AC"/>
<path fill-rule="evenodd" clip-rule="evenodd" d="M327.117 266.687C327.117 269.295 331.238 269.295 331.238 266.687C331.238 264.109 327.117 263.998 327.117 266.687Z" fill="#69A1AC"/>
<path fill-rule="evenodd" clip-rule="evenodd" d="M322.39 272.589C319.73 275.245 329.077 279.903 331.282 276.207C333.092 273.172 329.15 274.178 327.752 274.014C326.234 273.835 323.63 271.353 322.39 272.589Z" fill="#69A1AC"/>
<path fill-rule="evenodd" clip-rule="evenodd" d="M397.125 266.741C396.869 266.849 396.869 266.849 397.125 266.741V266.741ZM362.023 262.416C359.329 262.921 350.487 265.904 350.367 269.101C350.149 274.911 358.809 268.96 360.689 268.196C365.797 266.12 368.481 270.354 373.612 270.578C378.069 270.772 382.167 266.958 386.365 267.409C390.763 267.881 392.879 272.561 397.957 270.076C400.643 268.762 400.576 266.736 397.56 266.545C395.737 266.429 394.485 267.183 392.585 266.398C389.613 265.173 388.416 263.177 384.86 263.494C382.176 263.733 379.751 265.246 377.131 265.831C371.133 267.171 367.806 261.333 362.023 262.416Z" fill="#69A1AC"/>
<path fill-rule="evenodd" clip-rule="evenodd" d="M417.817 269.263C417.632 269.341 417.632 269.341 417.817 269.263V269.263ZM418.497 266.844C418.527 266.857 418.73 267.139 418.497 266.844V266.844ZM415.408 264.997C415.292 265.087 415.292 265.087 415.408 264.997V264.997ZM415.476 264.974C416.075 265.333 420.89 268.625 417.392 269.401C415.617 269.794 414.148 266.222 415.476 264.974ZM413.881 261.327C406.168 264.844 414.468 277.429 420.522 272.316C423.069 270.164 423.404 265.815 420.926 263.573C419.441 262.23 415.897 260.406 413.881 261.327Z" fill="#69A1AC"/>
<path fill-rule="evenodd" clip-rule="evenodd" d="M341.478 310.921C331.853 310.924 322.144 310.722 312.532 311.292C310.915 311.388 304.753 311.081 303.919 312.772C302.394 315.864 308.735 314.329 309.656 314.236C328.794 312.321 348.785 313.423 367.986 313.969C383.689 314.415 399.309 314.693 414.994 315.502C419.117 315.715 423.236 315.95 427.356 316.198C428.699 316.279 432.078 317.169 432.361 315.024C432.623 313.04 428.408 313.488 427.355 313.432C418.98 312.991 410.611 312.53 402.238 312.058C382.086 310.922 361.662 310.917 341.478 310.921Z" fill="#89C5CC"/>
<path fill-rule="evenodd" clip-rule="evenodd" d="M303.609 314.36C301.812 316.147 302.654 322.971 302.604 325.227C302.517 329.171 302.33 333.113 302.247 337.057C302.16 341.178 302.281 345.319 302.524 349.435C302.627 351.163 304.045 359.515 306.278 354.736C307.276 352.6 306.254 346.651 306.269 344.23C306.297 339.826 306.534 335.44 306.753 331.041C306.942 327.26 306.949 323.475 307.114 319.693C307.166 318.488 307.309 310.65 303.609 314.36Z" fill="#89C5CC"/>
<path fill-rule="evenodd" clip-rule="evenodd" d="M433.982 349.596C424.615 350.556 415.098 350.102 405.696 350.811C397.593 351.422 389.497 351.672 381.373 351.844C362.977 352.233 344.549 352.611 326.206 354.144C322.026 354.493 317.85 354.864 313.659 355.051C311.563 355.145 302.766 354.191 302.111 356.401C300.995 360.164 310.402 358.675 312.431 358.616C316.893 358.487 321.334 358.165 325.783 357.826C344.486 356.401 363.261 355.975 382.004 355.382C392.198 355.061 402.321 354.315 412.492 353.636C417.562 353.298 422.645 353.287 427.714 352.959C429.041 352.874 433.736 353.043 434.69 351.975C435.345 351.242 435.511 349.453 433.982 349.596Z" fill="#89C5CC"/>
<path fill-rule="evenodd" clip-rule="evenodd" d="M430.807 315.001C431.128 323.983 431.636 332.958 431.939 341.94C432.031 344.641 431.214 349.483 432.719 351.865C435.137 355.695 437.025 351.641 437.468 349.254C438.866 341.721 437.363 333.4 436.972 325.821C436.824 322.929 437.722 316.493 436.324 313.905C434.993 311.44 430.688 311.688 430.807 315.001Z" fill="#89C5CC"/>
<path fill-rule="evenodd" clip-rule="evenodd" d="M415.081 327.793C418.669 328.765 419.194 336.567 415.145 337.144C409.118 338.003 411.753 329.402 415.081 327.793ZM414.076 324.691C412.981 324.657 410.454 324.355 409.78 325.246C409.215 325.992 409.786 327.564 409.72 328.275C409.483 330.813 407.419 332.279 408.341 335.275C408.968 337.309 410.645 339.221 412.689 339.927C423.474 343.655 423.343 322.816 414.076 324.691Z" fill="#89C5CC"/>
<path fill-rule="evenodd" clip-rule="evenodd" d="M316.705 326.091C316.678 326.126 316.651 326.16 316.624 326.194C316.651 326.16 316.678 326.126 316.705 326.091ZM325.175 321.584C325.133 321.224 325.091 320.863 325.049 320.502C330.896 323.262 335.549 328.397 333.608 335.289C332.126 340.546 326.774 342.411 321.787 341.113C316.266 339.676 313.628 335.126 315.117 329.538C315.803 326.961 317.912 323.496 320.638 322.668C321.907 322.282 324.713 323.265 325.175 321.584ZM321.756 319.402C320.277 319.501 318.837 320.118 317.63 320.96C318.76 320.005 320.266 319.435 321.756 319.402ZM321.798 316.006C318.144 316.117 315.75 318.329 313.583 320.986C312.903 321.82 310.603 324.03 310.888 325.154C311.113 326.042 311.702 327.341 312.942 326.351C306.445 339.301 323.231 350.346 333.478 341.341C343.041 332.937 333.553 315.612 321.798 316.006Z" fill="#89C5CC"/>
<path fill-rule="evenodd" clip-rule="evenodd" d="M318.477 328.034C318.477 329.759 321.154 329.759 321.154 328.034C321.154 326.31 318.477 326.31 318.477 328.034Z" fill="#89C5CC"/>
<path fill-rule="evenodd" clip-rule="evenodd" d="M323.047 328.329C323.047 330.082 325.767 330.082 325.767 328.329C325.767 326.576 323.047 326.576 323.047 328.329Z" fill="#89C5CC"/>
<path fill-rule="evenodd" clip-rule="evenodd" d="M325.119 334.484C323.846 334.588 319.188 334.155 318.37 335.27C317.004 337.132 319.185 337.197 320.256 337.399C321.22 337.58 325.414 337.477 326.005 336.621C326.528 335.864 326.406 334.375 325.119 334.484Z" fill="#89C5CC"/>
<path fill-rule="evenodd" clip-rule="evenodd" d="M381.242 329.654C381.023 329.744 381.023 329.744 381.242 329.654V329.654ZM363.641 328.367C360.773 328.577 358.345 330.227 355.603 330.885C352.677 331.588 351.41 330.295 348.749 329.449C345.981 328.57 344.012 328.917 341.787 330.808C340.527 331.879 337.761 334.344 338.549 336.247C340.353 340.603 344.437 333.516 346.358 333.187C349.354 332.673 352.02 335.293 355.476 334.543C358.607 333.865 361.385 331.715 364.655 331.691C367.39 331.672 369.967 333.168 372.667 333.53C376.789 334.083 379.495 332.62 383.305 331.533C386.609 330.592 388.925 331.834 392.033 332.879C393.453 333.356 398.192 335.092 397.32 331.944C397.073 331.055 390.828 329.465 389.86 329.159C386.446 328.081 384.284 328.501 381.031 329.741C378.319 330.776 376.037 331.279 373.129 330.71C369.925 330.083 367.011 328.111 363.641 328.367Z" fill="#89C5CC"/>
</g>
<g opacity="0.5">
<path fill-rule="evenodd" clip-rule="evenodd" d="M495.575 184.012C496.038 174.056 496.674 164.113 497.009 154.151C497.176 149.214 497.306 144.277 497.432 139.339C497.459 138.24 497.488 137.141 497.513 136.041C497.594 132.306 497.151 132 500.91 131.669C517.679 130.188 534.515 129.698 551.304 128.359C571.553 126.744 591.907 125.628 612.213 125.128C621.236 124.906 630.298 124.445 639.323 124.725C641.322 124.788 645.247 124.267 646.035 125.822C646.375 126.493 645.661 128.804 645.571 129.579C645.288 131.999 645.024 134.428 644.861 136.861C643.901 151.208 644.473 165.917 647.251 180.047C640.734 176.372 632.5 173.211 624.904 173.839C617.16 174.478 611.367 178.952 605.168 183.071C601.662 185.4 600.481 186.013 596.983 183.756C593.968 181.811 591.116 179.588 588.272 177.405C583.883 174.038 579.741 170.386 575.485 166.855C567.66 160.363 556.878 151.122 546.07 153.843C538.348 155.787 531.218 160.031 524.516 164.184C514.558 170.355 505.545 177.912 495.575 184.012ZM629.779 120.304C591.306 120.304 553.121 124.034 514.756 126.051C510.749 126.262 506.756 126.572 502.764 126.957C500.103 127.214 493.596 126.136 491.852 128.409C490.688 129.926 491.688 130.154 491.852 131.595C492.058 133.411 491.936 135.563 491.883 137.486C491.755 142.119 491.62 146.751 491.515 151.384C491.118 168.894 490.869 186.4 491.578 203.906C491.733 207.723 493.124 213.009 492.363 216.719C491.812 219.405 489.97 221.039 494.218 221.536C498.398 222.024 503.509 220.782 507.693 220.384C511.901 219.983 516.108 219.549 520.321 219.201C538.638 217.692 557.133 217.92 575.499 217.418C594.029 216.912 612.567 216.88 631.104 216.87C638.86 216.865 647.723 217.301 655.291 215.167C657.953 214.416 658.384 214.046 657.727 211.404C657.603 210.903 656.799 210.718 656.563 209.811C656.242 208.578 656.407 207.08 656.332 205.796C656.087 201.604 656.001 197.405 655.804 193.21C655.474 186.201 654.266 179.399 653.372 172.461C652.341 164.449 652.394 156.313 652.373 148.248C652.361 143.775 652.476 139.316 652.835 134.855C653.066 131.994 654.475 127.722 653.76 125.054C653.404 123.726 652.822 122.672 651.439 122.1C650.563 121.738 649.826 122.021 648.96 121.93C647.933 121.821 647.292 121.676 646.062 121.398C640.789 120.203 635.151 120.304 629.779 120.304Z" fill="#69A1AC"/>
<path fill-rule="evenodd" clip-rule="evenodd" d="M608.487 139.352C608.484 142.141 608.049 146.255 609.335 148.881C610.965 152.211 613.005 151.17 613.545 148.04C613.855 146.247 613.847 140.941 613.271 139.352C612.456 137.104 608.487 135.573 608.487 139.352Z" fill="#89C5CC"/>
<path fill-rule="evenodd" clip-rule="evenodd" d="M613.164 140.429C610.547 140.522 602.923 139.893 601.152 141.998C598.114 145.608 603.403 146.247 605.673 146.045C608.301 145.812 616.422 146.382 618.182 144.275C621.126 140.75 615.223 140.354 613.164 140.429Z" fill="#89C5CC"/>
<path fill-rule="evenodd" clip-rule="evenodd" d="M511.583 233.579C523.091 235.578 519.511 253.124 508.621 249.06C504.827 247.644 499.236 243.552 501.334 238.731C502.9 235.129 508.006 233.236 511.583 233.579ZM506.818 228.124C499.334 229.383 494.217 237.483 496.783 244.547C499.259 251.363 508.648 256.354 515.573 253.905C522.183 251.566 525.481 242.771 523.252 236.337C520.924 229.614 513.338 227.026 506.818 228.124Z" fill="#89C5CC"/>
<path fill-rule="evenodd" clip-rule="evenodd" d="M576.817 235.632C573.952 235.87 571.476 237.876 568.593 238.231C565.897 238.563 563.663 237.641 561.139 236.903C558.088 236.013 555.29 235.621 552.172 236.412C549.79 237.017 547.44 238.639 544.965 238.834C540.095 239.219 534.435 233.663 530.633 239.947C528.81 242.96 531.457 244.9 534.183 243.495C537.025 242.031 535.63 241.506 539.156 242.372C542.097 243.093 544.475 243.484 547.421 242.474C550.09 241.558 552.433 239.883 555.334 239.695C558.175 239.51 560.646 240.804 563.361 241.363C566.7 242.049 569.654 241.529 572.818 240.483C575.827 239.487 577.028 238.943 580.065 239.831C581.987 240.393 586.188 242.18 588.059 240.74C591.295 238.251 586.963 237.887 585.257 237.533C582.51 236.964 579.668 235.399 576.817 235.632Z" fill="#89C5CC"/>
<path fill-rule="evenodd" clip-rule="evenodd" d="M642.385 233.96C642.408 233.977 642.431 233.995 642.453 234.013C642.431 233.995 642.407 233.977 642.385 233.96ZM639.572 233.371C643.755 233.641 648.278 241.26 642.736 241.531C638.835 241.721 634.47 235.049 639.572 233.371ZM638.985 227.136C625.758 230.83 631.805 249.477 644.563 247.323C650.358 246.345 652.322 239.631 650.406 234.661C649.583 232.527 647.979 230.727 646.062 229.499C644.648 228.593 640.602 226.686 638.985 227.136Z" fill="#89C5CC"/>
<path fill-rule="evenodd" clip-rule="evenodd" d="M577.277 266.065C588.916 265.666 600.556 265.266 612.207 265.158C618.521 265.1 624.801 265.21 631.106 265.572C633.902 265.732 636.697 265.887 639.495 266.006C639.978 266.026 640.645 265.993 641.381 265.957C643.113 265.872 645.228 265.768 646.223 266.294C651.789 269.239 640.449 269.561 639.071 269.538C635.984 269.486 632.9 269.334 629.816 269.181C627.121 269.048 624.426 268.915 621.728 268.849C604.421 268.423 587.008 269.201 569.672 269.975C565.698 270.153 561.728 270.33 557.764 270.492C553.555 270.665 549.348 270.777 545.14 270.889C539.126 271.048 533.112 271.208 527.098 271.546C524.801 271.675 522.505 271.812 520.209 271.948C516.92 272.144 513.631 272.34 510.34 272.513C507.764 272.649 505.187 272.781 502.607 272.846C502.143 272.858 501.538 272.922 500.877 272.993L500.877 272.993H500.877C499.278 273.163 497.354 273.369 496.314 272.944C495.064 272.432 494.052 271.717 494.74 270.202C495.321 268.921 497.434 269.074 498.975 269.186C499.396 269.217 499.774 269.244 500.066 269.239C504.99 269.143 509.903 268.867 514.818 268.566C516.616 268.456 518.413 268.343 520.21 268.23L520.211 268.23L520.211 268.23L520.211 268.23L520.211 268.23C529.568 267.641 538.916 267.053 548.296 266.893C557.96 266.728 567.618 266.397 577.277 266.065ZM638.066 342.669L641.412 342.628C643.14 342.779 643.913 344.592 642.803 345.986C641.954 347.054 638.685 347.102 636.554 347.134C635.963 347.142 635.46 347.15 635.12 347.177C629.557 347.624 624.005 347.826 618.425 347.879C606.675 347.991 594.969 348.494 583.238 349.163C571.23 349.848 559.212 350.105 547.193 350.363H547.192C538.35 350.552 529.507 350.742 520.668 351.101C515.606 351.307 510.543 351.461 505.479 351.594C504.935 351.608 504.211 351.686 503.392 351.775C500.193 352.12 495.545 352.622 494.492 350.082C493.557 347.827 494.856 346.789 496.756 346.317C496.456 344.982 496.512 343.106 496.543 342.031C496.553 341.708 496.56 341.457 496.555 341.316C496.508 339.968 496.474 338.62 496.441 337.272C496.403 335.745 496.366 334.218 496.307 332.692C496.253 331.306 496.204 329.919 496.154 328.532C495.958 323.059 495.762 317.574 495.34 312.123C495.146 309.607 494.838 307.121 494.53 304.639C494.039 300.676 493.548 296.724 493.526 292.678C493.522 291.95 493.485 291.04 493.444 290.014C493.234 284.761 492.902 276.457 496.162 273.928C501.911 270.574 500.774 280.257 500.267 284.578C500.184 285.291 500.117 285.859 500.101 286.197C499.771 293.383 500.219 300.252 500.942 307.392C501.43 312.214 501.145 317.02 500.86 321.834C500.758 323.553 500.656 325.274 500.589 326.996C500.556 327.848 500.526 328.7 500.497 329.552C500.406 332.173 500.316 334.791 500.119 337.409C500.097 337.692 500.09 338.235 500.081 338.929C500.055 340.887 500.014 344.044 499.595 345.961C500.487 345.923 501.352 345.932 502.068 345.94C502.523 345.945 502.918 345.949 503.22 345.94C504.592 345.899 505.965 345.858 507.337 345.818C511.391 345.699 515.445 345.581 519.498 345.428C529.066 345.068 538.637 344.948 548.208 344.828C559.512 344.686 570.817 344.544 582.116 344.007C600.738 343.122 619.424 342.895 638.066 342.669ZM641.52 272.42C641.51 284.729 642.462 296.701 643.574 308.96C644.262 316.543 644.813 324.155 645.252 331.758C645.272 332.11 645.269 332.697 645.265 333.432V333.433C645.243 337.637 645.195 346.695 649.35 344.528C652.487 342.892 651.281 333.405 650.614 328.156L650.614 328.155C650.468 327.004 650.347 326.056 650.304 325.44C650.213 324.127 650.123 322.815 650.033 321.502C649.615 315.408 649.198 309.318 648.648 303.231L648.532 301.948C647.896 294.917 647.26 287.891 647.147 280.828C647.138 280.244 647.194 279.43 647.257 278.511C647.441 275.852 647.686 272.311 646.581 270.898C645.027 268.911 641.523 269.499 641.52 272.42Z" fill="#69A1AC"/>
<path fill-rule="evenodd" clip-rule="evenodd" d="M577.807 302.596C592.674 295.87 607.714 289.065 623.173 284.22C624.291 283.871 624.997 285.023 624.743 285.99C624.482 286.986 622.064 287.836 620.46 288.4C619.98 288.568 619.573 288.711 619.319 288.825C617.159 289.789 614.994 290.742 612.829 291.694C610.612 292.67 608.395 293.645 606.184 294.633C601.586 296.688 596.984 298.733 592.382 300.778C587.454 302.968 582.525 305.159 577.602 307.36C577.416 307.444 577.229 307.527 577.043 307.611C583.736 309.99 590.393 312.475 597.019 315.035C599.284 315.91 601.541 316.803 603.798 317.696C605.075 318.201 606.352 318.707 607.63 319.209C608.047 319.372 608.771 319.593 609.642 319.859C612.48 320.726 616.871 322.066 617.195 323.42C617.723 325.626 611.662 323.493 609.375 322.687C609.072 322.581 608.835 322.497 608.689 322.45C605.314 321.372 601.98 320.17 598.647 318.969L598.186 318.803C595.545 317.851 592.908 316.89 590.27 315.928C585.119 314.049 579.967 312.171 574.788 310.369C574.056 310.114 573.323 309.86 572.59 309.607C564.277 313.34 555.982 317.11 547.713 320.939C543.28 322.992 538.87 325.093 534.473 327.223C533.513 327.687 532.324 328.406 531.033 329.186C527.938 331.057 524.254 333.283 521.72 333.228C520.362 333.198 519.446 332.906 519.304 331.259C519.158 329.56 521.338 328.668 522.906 328.027C523.282 327.874 523.622 327.735 523.887 327.602C528.587 325.252 533.316 322.961 538.059 320.698C547.479 316.205 556.986 311.892 566.528 307.664C566.583 307.64 566.638 307.615 566.693 307.591C561.401 305.8 556.094 304.052 550.776 302.34C550.245 302.17 549.156 301.868 547.725 301.472C540.965 299.599 526.562 295.61 527.204 293.28C527.939 290.615 541.441 295.487 547.419 297.643C548.539 298.047 549.395 298.356 549.854 298.502C557.001 300.78 564.128 303.122 571.218 305.57C573.411 304.585 575.607 303.591 577.807 302.596Z" fill="#89C5CC"/>
<path fill-rule="evenodd" clip-rule="evenodd" d="M514.109 361.133C518.461 361.896 521.53 366.07 521.053 370.442C520.408 376.349 514.52 379.056 509.082 378.286C502.911 377.411 501.613 372.194 504.602 367.175C505.264 366.064 506.026 364.735 507.229 364.15C508.056 363.748 509.11 364.103 509.776 363.779C512.112 362.643 510.708 360.831 514.109 361.133ZM512.128 357.275C506.817 357.953 497.006 364.098 497.503 370.246C497.933 370.958 498.582 371.25 499.447 371.121C499.238 372.452 499.306 373.77 499.65 375.073C500.155 376.765 501.161 378.152 502.509 379.254C505.286 381.524 509.082 382.081 512.54 381.683C518.997 380.94 524.086 376.528 524.448 369.812C524.802 363.257 519.08 356.396 512.128 357.275Z" fill="#89C5CC"/>
<path fill-rule="evenodd" clip-rule="evenodd" d="M537.846 365.275C535.464 366.538 531.695 368.477 530.298 370.876C528.821 373.409 530.35 376.18 533.46 374.982C535.929 374.03 537.499 371.008 540.132 370.039C542.457 369.185 543.393 369.62 545.849 370.471C548.38 371.348 550.593 372.196 553.329 371.981C556.767 371.711 559.746 369.717 563.112 369.263C565.946 368.881 568.283 369.984 570.997 370.422C574.146 370.931 576.204 369.739 579.151 369.119C581.155 368.696 584.687 370.414 586.148 369.772C589.435 368.327 585.958 366.56 584.139 365.976C581.074 364.993 579.188 365.861 576.273 366.676C573.108 367.561 571.74 366.896 568.715 366.083C562.594 364.438 557.865 368.415 552.063 367.692C546.691 367.022 543.477 362.294 537.846 365.275Z" fill="#89C5CC"/>
<path fill-rule="evenodd" clip-rule="evenodd" d="M637.937 362.336C643.828 367.86 637.21 375.719 630.713 371.304C628.427 369.75 628.39 367.255 630.17 365.022C631.797 362.98 635.373 362.183 637.937 362.336ZM635.753 357.872C630.248 358.943 625.056 361.469 624.558 367.822C624.071 374.02 630.429 376.899 635.77 376.492C647.762 375.579 646.895 355.718 635.753 357.872Z" fill="#89C5CC"/>
</g>
<path opacity="0.5" fill-rule="evenodd" clip-rule="evenodd" d="M872.077 111.818C865.246 111.917 848.379 113.783 845.871 119.849C843.968 124.454 849.622 123.443 852.653 121.767C856.752 119.501 860.347 118.145 865.427 117.456C884.778 114.828 903.371 124.251 922.536 125.443C929.796 125.895 938.557 126.189 945.488 124.424C950.425 123.167 951.069 120.426 945.436 120.008C940.649 119.654 935.353 120.771 930.446 120.74C910.141 120.609 892.091 111.531 872.077 111.818Z" fill="#C1DEE2"/>
<g opacity="0.5">
<path fill-rule="evenodd" clip-rule="evenodd" d="M303.506 399.362C295.082 399.457 286.662 399.767 278.254 400.299C270.259 400.806 261.584 400.421 253.719 401.971C251.486 402.411 248.469 404.447 251.438 406.685C253.526 408.259 261.162 406.449 263.655 406.296C272.834 405.732 282.017 405.056 291.209 404.731C299.911 404.423 308.613 404.315 317.319 404.228C318.648 404.215 320.855 403.789 322.178 404.175C324.08 404.73 323.629 404.88 323.771 407.294C324.03 411.669 323.958 416.058 323.871 420.437C323.788 424.673 323.631 428.91 323.646 433.148C323.657 436.172 322.69 442.182 324.208 444.808C326.392 448.588 328.658 444.482 328.821 441.97C329.133 437.166 328.993 432.302 328.995 427.491C328.996 422.976 329.028 418.46 328.869 413.947C328.754 410.687 329.219 404.996 327.463 402.032C325.675 399.013 321.368 399.664 318.225 399.521C313.323 399.295 308.412 399.311 303.506 399.362Z" fill="#89C5CC"/>
<path fill-rule="evenodd" clip-rule="evenodd" d="M249.908 404.81C249.918 413.294 248.936 421.722 248.661 430.196C248.535 434.093 248.279 438.371 249.265 442.196C250.26 446.058 253.42 446.895 253.784 442.583C254.521 433.853 254.34 424.8 254.914 415.999C255.117 412.892 256.435 407.198 255.204 404.288C254.121 401.725 249.904 401.234 249.908 404.81Z" fill="#89C5CC"/>
<path fill-rule="evenodd" clip-rule="evenodd" d="M328.903 442.208C314.273 444.145 298.979 443.439 284.244 443.743C277.175 443.889 270.108 443.898 263.038 443.972C260.57 443.998 254.304 443.059 252.17 444.446C248.772 446.654 252.458 448.358 254.708 448.407C268.66 448.713 282.768 448.071 296.717 447.613C302.984 447.408 309.272 447.307 315.523 446.774C319.371 446.446 323.576 446.129 327.313 445.095C328.109 444.874 329.843 444.92 330.021 443.834C330.131 443.162 329.932 442.066 328.903 442.208Z" fill="#89C5CC"/>
<path fill-rule="evenodd" clip-rule="evenodd" d="M268.071 454.54C264.005 454.564 251.752 452.676 250.068 456.64C247.823 461.928 256.58 460.694 258.936 460.634C264.285 460.496 269.631 460.481 274.982 460.484C280.232 460.486 285.482 460.452 290.731 460.327C292.252 460.291 295.791 460.922 296.666 459.091C297.331 457.699 296.806 456.601 295.58 455.864C292.629 454.091 284.964 455.119 281.509 454.96C277.037 454.754 272.549 454.54 268.071 454.54Z" fill="#89C5CC"/>
<path fill-rule="evenodd" clip-rule="evenodd" d="M317.534 455.519C315.21 455.658 310.51 454.7 308.428 455.763C306.062 456.972 306.895 458.865 308.938 459.696C310.353 460.272 316.156 459.97 317.534 459.303C318.97 458.607 320.594 455.331 317.534 455.519Z" fill="#89C5CC"/>
<path fill-rule="evenodd" clip-rule="evenodd" d="M343.011 405.643C340.53 406.324 341.282 420.414 341.218 422.648C341.043 428.767 340.355 436.464 342.389 442.358C343.685 446.115 346.176 445.606 345.752 441.65C345.379 438.178 344.74 434.747 344.463 431.252C343.837 423.345 342.985 414.911 343.577 406.997C343.828 407.457 346.183 411.722 346.737 411.404C346.569 411.503 344.021 405.377 343.011 405.643Z" fill="#89C5CC"/>
<path fill-rule="evenodd" clip-rule="evenodd" d="M370.93 400.454C365.907 400.528 360.885 400.617 355.864 400.756C351.871 400.867 345.598 400.211 341.937 401.891C337.577 403.89 339.645 408.345 343.74 408.44C347.363 408.523 351.226 407.706 354.881 407.581C364.754 407.243 374.645 407.171 384.522 407.086C393.456 407.009 402.769 407.962 411.624 406.621C412.937 418.283 409.385 429.995 410.593 441.792C410.78 443.623 410.696 446.21 413.028 446.627C415.971 447.154 416.092 444.239 416.203 442.152C416.522 436.193 416.349 430.229 416.786 424.262C417.19 418.732 417.986 413.081 417.313 407.542C416.486 400.727 413.22 401.273 407.447 400.99C395.254 400.392 383.137 400.275 370.93 400.454Z" fill="#89C5CC"/>
<path fill-rule="evenodd" clip-rule="evenodd" d="M354.097 441.866C351.538 441.931 347.287 441.142 345.647 443.596C343.941 446.149 345.966 448.376 348.446 448.901C351.383 449.521 355.212 448.671 358.26 448.661C361.434 448.652 364.609 448.687 367.783 448.7C381.391 448.753 395.058 448.959 408.656 448.396C410.555 448.318 415.945 448.955 417.26 447.133C418.426 445.518 417.61 444.068 416.074 443.245C413.554 441.895 408.377 442.408 405.574 442.301C402.112 442.17 398.646 442.126 395.182 442.073C381.511 441.862 367.767 441.528 354.097 441.866Z" fill="#89C5CC"/>
<path fill-rule="evenodd" clip-rule="evenodd" d="M365.61 453.671C360.517 453.758 355.084 453.534 350.042 454.306C345.608 454.986 345.063 459.271 349.835 459.772C354.22 460.234 359.537 459.372 363.944 459.089C365.509 458.989 367.33 459.131 368.08 457.401C368.863 455.593 367.366 453.86 365.61 453.671Z" fill="#89C5CC"/>
<path fill-rule="evenodd" clip-rule="evenodd" d="M404.107 454.12C401.388 454.188 393.449 453.02 392.103 456.124C389.861 461.293 400.609 459.329 402.671 459.253C405.27 459.157 415.398 460.675 415.4 456.538C415.403 452.481 406.595 454.059 404.107 454.12Z" fill="#89C5CC"/>
<path fill-rule="evenodd" clip-rule="evenodd" d="M249.47 479.805C249.477 489.207 248.891 498.698 249.749 508.077C250.104 511.956 250.043 519.386 252.29 522.675C253.885 525.009 256.097 524.845 256.968 522.043C257.55 520.169 256.619 516.422 256.515 514.417C256.415 512.493 256.298 510.57 256.209 508.646C255.98 503.689 255.999 498.739 256.067 493.779C256.125 489.525 257.149 483.896 256.184 479.805C255.283 475.991 249.47 475.1 249.47 479.805Z" fill="#69A1AC"/>
<path fill-rule="evenodd" clip-rule="evenodd" d="M343.964 471.533C327.651 471.942 311.302 471.576 295.003 472.384C286.965 472.782 278.959 473.656 270.961 474.528C267.032 474.957 263.105 475.398 259.182 475.882C257.999 476.027 248.163 476.409 251.863 480.149C253.478 481.782 258.618 480.076 260.652 479.835C264.59 479.371 268.536 478.965 272.48 478.548C279.984 477.754 287.498 477.002 295.034 476.585C312.784 475.602 330.606 475.897 348.373 475.241C353.179 475.064 357.971 474.937 362.779 475.126C364.041 475.176 373.318 475.647 369.29 472.221C367.386 470.6 360.205 471.437 357.824 471.388C353.205 471.292 348.582 471.417 343.964 471.533Z" fill="#69A1AC"/>
<path fill-rule="evenodd" clip-rule="evenodd" d="M366.204 487.373C366.123 483.029 366.043 478.685 365.845 474.344C365.637 469.773 371.863 469.081 373.71 472.781C375.039 475.445 374.806 479.977 374.605 483.862C374.524 485.427 374.449 486.888 374.484 488.078C374.563 490.806 374.764 493.628 374.967 496.486C375.479 503.68 376.007 511.111 374.663 517.902C374.009 521.202 371.225 522.936 369.373 521.138C369.37 521.141 369.367 521.145 369.365 521.149C368.668 522.176 366.498 522.174 364.901 522.172C364.461 522.172 364.064 522.171 363.754 522.192C359.376 522.49 355.08 522.992 350.742 523.642C342.098 524.938 333.529 525.734 324.792 525.95C318.863 526.097 312.926 526.146 306.987 526.196C295.616 526.29 284.238 526.384 272.903 527.162C269.081 527.425 265.317 527.875 261.558 528.594C261.238 528.655 260.883 528.734 260.505 528.819C257.71 529.44 253.663 530.34 253.387 526.434C253.058 521.798 263.106 521.19 268.277 520.878C269.067 520.83 269.742 520.789 270.25 520.742C285.951 519.282 301.898 519.508 317.665 519.732C318.429 519.742 319.192 519.753 319.955 519.764C321.186 519.781 322.416 519.801 323.646 519.821C330.397 519.933 337.139 520.044 343.888 519.631C346.959 519.443 350.07 519.346 353.188 519.25C358.16 519.096 363.148 518.941 368.011 518.414C367.278 515.57 367.15 512.214 367.029 509.051C366.982 507.819 366.936 506.617 366.856 505.485C366.428 499.456 366.316 493.415 366.204 487.373Z" fill="#69A1AC"/>
<path fill-rule="evenodd" clip-rule="evenodd" d="M379.408 477.693C377.205 477.993 375.366 479.879 376.35 482.271C377.589 485.283 381.28 484.106 383.719 483.916C391.469 483.308 399.561 484.521 407.217 483.606C409.308 483.356 412.342 482.217 410.464 479.408C409.053 477.296 403.911 477.667 401.726 477.464C394.251 476.773 386.874 476.957 379.408 477.693Z" fill="#C1DEE2"/>
<path fill-rule="evenodd" clip-rule="evenodd" d="M392.488 490.835C389.482 491.037 382.486 490.878 381.219 494.298C378.947 500.433 387.846 498.271 390.556 497.922C393.703 497.517 401.123 498.602 402.799 495.55C405.796 490.091 395.124 490.653 392.488 490.835Z" fill="#C1DEE2"/>
<path fill-rule="evenodd" clip-rule="evenodd" d="M384.758 504.298C383.332 505.724 383.33 508.271 384.758 509.698C386.506 511.445 390.315 511.082 392.613 511.209C395.817 511.388 405.019 513.083 406.611 509.31C408.757 504.219 400.424 504.326 397.683 504.037C394.515 503.704 387.383 501.671 384.758 504.298Z" fill="#C1DEE2"/>
<path fill-rule="evenodd" clip-rule="evenodd" d="M272.438 417.159C272.438 422.632 280.986 422.632 280.986 417.159C280.986 411.715 272.438 411.632 272.438 417.159Z" fill="#89C5CC"/>
<path fill-rule="evenodd" clip-rule="evenodd" d="M288.648 417.221C288.648 423.478 298.385 423.465 298.385 417.221C298.385 410.986 288.648 410.922 288.648 417.221Z" fill="#89C5CC"/>
<path fill-rule="evenodd" clip-rule="evenodd" d="M278.842 425.54C274.109 426.847 278.469 430.858 280.667 431.774C284.16 433.231 288.926 434.304 292.42 432.121C293.81 431.252 294.938 430.097 293.92 428.411C292.834 426.616 291.348 427.414 289.696 427.579C287.603 427.79 285.911 427.758 283.889 427.086C282.381 426.585 280.488 425.087 278.842 425.54Z" fill="#89C5CC"/>
<path fill-rule="evenodd" clip-rule="evenodd" d="M364.688 417.505C364.688 421.207 370.436 421.207 370.436 417.505C370.436 413.803 364.688 413.803 364.688 417.505Z" fill="#89C5CC"/>
<path fill-rule="evenodd" clip-rule="evenodd" d="M377.402 418.062C377.402 422.175 383.788 422.176 383.788 418.062C383.788 413.949 377.402 413.949 377.402 418.062Z" fill="#89C5CC"/>
<path fill-rule="evenodd" clip-rule="evenodd" d="M376.927 426.989C373.573 427.421 363.871 428.405 363.328 432.539C362.491 438.918 373.121 433.756 375.547 433.255C378.637 432.617 381.397 432.783 384.482 432.907C386.176 432.975 388.428 433.25 388.251 430.669C387.96 426.433 379.859 426.613 376.927 426.989Z" fill="#89C5CC"/>
<path fill-rule="evenodd" clip-rule="evenodd" d="M292.589 485.815C290.158 486.463 286.977 490.667 288.65 493.239C291.393 497.458 292.603 490.98 293.751 490.357C295.839 489.222 297.535 493.368 299.717 491.193C303.162 487.762 294.758 485.234 292.589 485.815Z" fill="#69A1AC"/>
<path fill-rule="evenodd" clip-rule="evenodd" d="M320.448 482.696C317.564 482.722 311.477 486.805 311.046 489.819C310.79 491.61 311.978 493.33 313.908 493.354C316.537 493.386 317.373 489.968 319.651 489.254C322.109 488.483 321.745 490.258 323.868 491.178C325.421 491.852 327.364 491.57 327.904 489.66C328.922 486.057 323.41 482.639 320.448 482.696Z" fill="#69A1AC"/>
<path fill-rule="evenodd" clip-rule="evenodd" d="M298.377 499.954C293.766 502.656 301.354 508.449 303.985 509.174C307.956 510.267 315.949 508.226 316.89 503.375C317.265 501.444 316.057 499.695 313.926 500.041C312.172 500.326 311.047 502.527 309.422 503.315C307.228 504.378 305.278 504.306 303.414 502.705C301.896 501.4 301.083 498.376 298.377 499.954Z" fill="#69A1AC"/>
<path fill-rule="evenodd" clip-rule="evenodd" d="M301.722 539.886C297.602 540.764 293.413 540.175 289.273 541.001C285.051 541.844 282.528 543.439 278.606 541.832C278.421 541.754 278.237 541.676 278.053 541.598C275.017 540.291 271.835 539.903 268.658 541.988C266.777 543.221 261.068 547.486 261.756 550.089C263.247 555.732 269.671 546.883 271.309 546.021C274.433 544.377 276.574 546.478 279.79 547.07C283.642 547.781 286.741 545.745 290.37 544.935C294.613 543.986 299.387 543.656 303.705 543.149C305.41 542.948 311.871 544.297 312.454 542.174C313.456 538.528 303.342 539.542 301.722 539.886Z" fill="#C1DEE2"/>
<path fill-rule="evenodd" clip-rule="evenodd" d="M331.446 551.25C331.716 551.454 331.5 551.29 331.446 551.25V551.25ZM342.986 539.664C346.514 539.307 357.799 536.787 360.117 540.432C361.626 542.806 359.231 551.568 356.946 552.702C355.12 553.607 350.866 552.606 348.862 552.535C345.133 552.404 341.397 552.345 337.672 552.113C336.423 552.035 332.404 552.265 331.425 551.159C330.269 549.854 330.32 542.895 330.048 541.169C333.291 542.219 339.595 540.009 342.986 539.664ZM350.518 536.091C346.001 536.287 341.484 536.626 337 537.232C334.501 537.57 331.968 538.468 329.66 538.893C328.916 539.031 327.708 538.65 326.796 539.091C324.129 540.379 326.464 549.088 327.107 551.415C328.095 554.989 330.58 555.568 334.063 555.905C338.65 556.35 343.331 556.21 347.933 556.153C352.368 556.099 358.349 557.082 360.838 552.631C362.447 549.754 364.172 543.053 362.797 539.846C360.988 535.626 354.234 535.935 350.518 536.091Z" fill="#C1DEE2"/>
<path fill-rule="evenodd" clip-rule="evenodd" d="M401.111 553.644C400.87 553.954 400.87 553.954 401.111 553.644V553.644ZM402.101 552.451C402.027 552.564 401.68 552.93 402.101 552.451V552.451ZM391.328 552.123C393.319 551.748 395.311 551.377 397.305 551.014C395.417 553.656 393.429 552.564 390.204 552.334C390.579 552.263 390.953 552.193 391.328 552.123ZM381.827 551.188C382.332 551.019 382.836 550.85 383.341 550.681C383.326 551.065 383.408 551.425 383.589 551.76C382.725 551.667 381.861 551.567 380.999 551.46C381.275 551.369 381.551 551.279 381.827 551.188ZM377.424 547.937C377.396 547.243 378.439 547.719 379.036 547.673C377.884 548.687 377.347 548.775 377.424 547.937ZM393.17 540.072C393.321 539.879 393.522 539.889 393.772 540.101C393.499 540.193 392.449 540.638 393.17 540.072ZM403.381 538.871C403.408 538.871 403.974 539.636 403.381 538.871V538.871ZM403.094 538.621C403.243 538.734 403.243 538.734 403.094 538.621V538.621ZM401.82 538.472C403.908 538.824 403.749 541.274 401.82 538.472V538.472ZM377.291 538.305C376.867 538.657 377.012 538.315 377.291 538.305V538.305ZM385.276 533.088C381.731 533.295 375.225 533.087 372.265 534.975C368.402 537.441 370.434 545.926 370.78 549.646C371.291 555.145 373.878 556.71 379.056 557.287C385.236 557.976 391.586 558.105 397.797 557.941C403.392 557.794 406.578 555.87 407.602 549.98C407.916 548.178 408.713 545.39 408.688 543.664C408.671 542.466 408.074 541.92 407.848 540.902C406.563 535.105 404.415 534.418 398.473 534.165C394.1 533.979 389.566 532.864 385.276 533.088Z" fill="#89C5CC"/>
</g>
<g opacity="0.5">
<path fill-rule="evenodd" clip-rule="evenodd" d="M573.029 399.913C582.04 400.105 592.265 405.092 590.84 415.658C589.796 423.399 583.094 429.682 575.333 430.224C566.991 430.806 558.171 424.404 557.038 415.91C555.763 406.357 564.216 399.722 573.029 399.913ZM568.609 395.611C564.956 396.157 561.465 398.075 558.248 399.794C557.02 400.45 550.794 404.451 555.677 405.445C543.912 424.419 571.6 442.043 587.167 429.711C594.157 424.174 597.837 413.675 593.319 405.457C588.645 396.957 577.562 394.267 568.609 395.611Z" fill="#89C5CC"/>
<path fill-rule="evenodd" clip-rule="evenodd" d="M566.457 411.761C566.457 415.305 571.957 415.305 571.957 411.761C571.957 408.218 566.457 408.218 566.457 411.761Z" fill="#89C5CC"/>
<path fill-rule="evenodd" clip-rule="evenodd" d="M576.656 412.329C576.656 416.171 582.62 416.171 582.62 412.329C582.62 408.487 576.656 408.487 576.656 412.329Z" fill="#89C5CC"/>
<path fill-rule="evenodd" clip-rule="evenodd" d="M569.773 419.927C568.97 422.842 578.12 424.336 578.425 420.963C578.57 419.351 570.331 417.893 569.773 419.927Z" fill="#89C5CC"/>
<path fill-rule="evenodd" clip-rule="evenodd" d="M596.599 418.125C607.128 416.862 617.984 417.446 628.564 417.749C631.212 417.825 633.86 417.899 636.508 417.943C638.192 417.972 641.828 418.78 643.297 417.992C649.314 414.765 637.511 413.204 635.839 413.056C625.315 412.19 609.074 411.881 598.519 412.29C595.397 412.411 594.723 418.35 596.599 418.125Z" fill="#89C5CC"/>
<path fill-rule="evenodd" clip-rule="evenodd" d="M643.978 470.469C644.069 459.437 644.464 448.33 645.312 437.331C645.658 432.847 646.072 428.37 646.415 423.887C646.577 421.775 647.327 418.817 646.086 416.964C644.807 415.055 642.001 414.658 640.31 416.35C638.286 418.97 638.874 423.367 638.623 426.537C638.236 431.41 637.768 436.28 637.536 441.164C637.087 450.617 636.981 460.234 637.741 469.673C638.1 474.127 638.878 478.473 639.912 482.817C640.383 484.795 644.131 493.603 643.343 494.818C642.122 496.702 633.097 495.99 631.14 496.042C626.116 496.177 621.09 496.265 616.065 496.361C611.763 496.443 607.461 496.502 603.159 496.54C601.45 496.555 591.412 496.251 593.639 498.784C568.74 500.519 543.364 497.622 518.617 496.629C517.367 496.578 515.321 496.224 513.433 496.121C513.207 495.21 513.021 494.395 512.975 493.828C512.65 489.851 512.565 485.86 512.213 481.884C511.567 474.609 510.316 467.407 509.572 460.144C508.83 452.889 508.904 445.612 508.472 438.339C508.398 437.093 508.222 426.885 505.646 424.405C506.868 424.868 508.837 424.928 509.971 424.836C519.152 424.096 528.265 422.501 537.366 421.131C539.97 420.74 545.879 421.017 548.039 419.716C549.908 418.589 550.648 414.638 547.396 414.958C538.321 415.93 529.294 417.439 520.29 418.924C517.882 419.321 515.479 419.746 513.077 420.181C511.473 420.47 507.239 420.448 505.995 421.415C504.484 422.589 504.324 423.388 504.836 423.919C504.124 423.723 503.271 424.031 502.246 425.056C500.309 427.578 502.13 433.789 502.361 436.746C502.639 440.293 502.775 443.846 502.937 447.399C503.249 454.275 503.968 461.056 505.075 467.85C506.315 475.46 507.369 483.102 508.612 490.71C508.936 492.691 509.357 494.623 509.896 496.537C506.547 498.25 508.824 500.973 511.48 501.456C511.499 501.46 511.519 501.463 511.538 501.466C512.366 503.485 513.523 505.355 514.428 502.65C514.497 502.443 514.529 502.187 514.537 501.9C521.397 502.676 528.936 502.194 535.689 502.47C550.317 503.068 565.035 503.965 579.678 503.51C585.475 503.33 591.289 502.815 597.038 502.042C600.405 501.589 603.786 501.048 607.1 500.297C607.337 500.244 607.698 500.187 608.115 500.118C608.183 500.116 608.252 500.115 608.317 500.114C613.391 500.037 618.461 499.901 623.531 499.69C627.787 499.513 632.062 499.423 636.304 499.021C638.939 498.772 644.508 498.818 646.126 496.168C647.597 493.759 645.137 487.552 644.788 484.846C644.174 480.08 643.939 475.27 643.978 470.469Z" fill="#C1DEE2"/>
<path fill-rule="evenodd" clip-rule="evenodd" d="M592.553 438.613C588.499 438.96 584.749 440.864 580.657 440.888C577.223 440.908 573.841 439.881 570.388 440.033C566.337 440.21 564.108 442.829 560.559 443.706C557.734 444.403 555.955 442.241 553.47 441.284C550.332 440.076 548.015 440.7 545.326 442.527C543.35 443.87 538.742 446.883 538.778 449.598C538.883 457.824 548.48 446.461 550.415 446.323C552.985 446.14 555.857 449.071 558.592 449.237C562.208 449.459 564.527 447.128 567.857 446.278C571.224 445.419 574.864 446.472 578.239 446.798C582.091 447.171 585.461 446.312 589.187 445.393C592.798 444.502 595.876 444.549 599.545 445.297C602.021 445.802 608.19 448.738 609.273 444.963C610.749 439.822 595.388 438.372 592.553 438.613Z" fill="#89C5CC"/>
<path fill-rule="evenodd" clip-rule="evenodd" d="M593.787 454.302C585.479 455.108 577.12 455.815 568.774 456.042C565.159 456.14 551.263 454.591 552.495 459.184C553.551 463.123 572.462 460.643 576.313 460.343C580.566 460.013 584.811 459.551 589.042 459.015C590.542 458.826 594.163 459.022 595.221 457.764C596.23 456.565 595.732 454.107 593.787 454.302Z" fill="#89C5CC"/>
<path fill-rule="evenodd" clip-rule="evenodd" d="M536.472 475.22C536.283 475.3 536.283 475.3 536.472 475.22V475.22ZM538.224 475.197C540.295 475.131 539.851 474.039 541.918 474.608C542.871 474.871 542.968 474.481 543.707 475.392C545.149 477.169 543.791 481.039 542.37 482.47C537.109 487.773 530.795 475.432 538.224 475.197ZM538.224 469.995C523.821 470.479 529.847 492.728 542.383 488.186C547.56 486.31 550.814 477.86 547.769 473.111C546.288 470.801 544.399 470.391 541.918 470.23C541.342 470.193 540.617 471.031 540.257 470.993C539.402 470.902 539.482 469.948 538.224 469.995Z" fill="#89C5CC"/>
<path fill-rule="evenodd" clip-rule="evenodd" d="M572.67 475.983C572.413 475.903 577.218 477.3 576.692 476.753C577.814 477.92 576.306 480.679 575.037 481.16C571.964 482.327 570.239 477.548 572.67 475.983ZM574.802 469.95C570.292 470.589 566.812 472.467 566.195 477.482C565.627 482.111 568.754 486.798 573.688 486.889C584.441 487.085 584.768 468.559 574.802 469.95Z" fill="#89C5CC"/>
<path fill-rule="evenodd" clip-rule="evenodd" d="M623.891 476.186C624.521 484.406 615.997 476.882 623.891 476.186V476.186ZM620.233 467.392C619.488 468.666 620.123 470.018 621.248 470.759C611.194 472.884 613.471 488.013 623.702 485.778C628.905 484.641 629.862 479.17 629.086 474.653C628.717 472.505 623.364 462.038 620.233 467.392Z" fill="#89C5CC"/>
</g>
<path opacity="0.5" fill-rule="evenodd" clip-rule="evenodd" d="M682.628 488.345C677.978 488.966 666.987 492.821 667.083 496.962C667.231 503.425 676.573 496.365 678.651 495.416C689.814 490.315 704.273 496.925 715.896 498.331C721.226 498.975 731.651 500.167 736.358 497.485C744.729 492.717 725.369 493.911 722.903 493.719C709.502 492.68 696.169 486.529 682.628 488.345Z" fill="#C1DEE2"/>
<g opacity="0.5">
<path fill-rule="evenodd" clip-rule="evenodd" d="M785.585 436.267C785.582 441.946 785.295 447.741 786.342 453.352C786.658 455.05 786.908 458.303 788.7 459.185C790.5 460.07 792.245 459.075 792.692 457.23C793.214 455.084 792.069 451.871 791.954 449.618C791.794 446.539 791.784 443.457 791.782 440.375C791.781 438.149 792.514 434.568 789.886 433.423C787.932 432.572 785.585 434.155 785.585 436.267Z" fill="#C1DEE2"/>
<path fill-rule="evenodd" clip-rule="evenodd" d="M875.353 427.287C856.541 429.175 837.457 429.568 818.576 430.552C809.849 431.007 799.301 430.427 791.079 433.805C789.552 434.433 784.084 437.924 788.523 439.346C789.907 439.79 791.313 438.299 792.449 437.799C794.341 436.968 796.532 436.711 798.55 436.387C815.706 433.632 833.651 434.111 850.984 432.824C855.425 432.494 859.869 432.154 864.301 431.718C867.467 431.407 874.122 429.125 877.044 430.292C882.038 432.287 881.921 445.246 882.019 449.703C882.071 452.009 879.833 460.283 884.281 459.444C887.84 458.773 886.552 450.177 886.274 447.825C885.546 441.662 884.305 426.38 875.353 427.287Z" fill="#C1DEE2"/>
<path fill-rule="evenodd" clip-rule="evenodd" d="M882.293 459.145C865.952 460.62 849.235 459.173 832.826 459.753C824.226 460.058 815.634 460.542 807.032 460.826C803.312 460.949 799.588 460.955 795.866 460.981C794.086 460.993 785.985 462.072 790.996 465.602C793.215 467.164 800.287 465.906 802.833 465.875C806.658 465.83 810.48 465.671 814.302 465.521C823.154 465.175 832.001 464.696 840.858 464.456C849.33 464.227 857.807 464.178 866.279 463.948C870.494 463.834 874.767 463.704 878.945 463.089C879.888 462.95 882.95 462.84 883.605 461.788C884.224 460.794 883.789 459.001 882.293 459.145Z" fill="#89C5CC"/>
<path fill-rule="evenodd" clip-rule="evenodd" d="M801.98 446.876C801.892 447.084 801.892 447.084 801.98 446.876V446.876ZM809.057 444.725C809.315 444.835 809.315 444.835 809.057 444.725V444.725ZM808.725 444.666C812.539 448.553 806.674 453.193 803.102 449.399C799.31 445.373 806.27 444.679 808.725 444.666ZM804.681 438.785C791.545 441.122 796.196 458.629 808.464 456.099C813.85 454.988 816.93 449.562 815.077 444.35C814.352 442.314 812.774 440.079 810.575 439.437C809.479 439.117 808.509 439.62 807.465 439.503C806.469 439.391 805.917 438.562 804.681 438.785Z" fill="#C1DEE2"/>
<path fill-rule="evenodd" clip-rule="evenodd" d="M854.95 443.712C847.029 443.737 839.106 444.074 831.187 444.224C828.757 444.27 822.514 443.183 822.504 447.012C822.493 451.104 829.448 449.593 831.763 449.538C839.618 449.35 847.494 449.006 855.319 448.258C857.295 448.069 864.137 448.395 864.13 445.707C864.123 442.86 856.546 443.712 854.95 443.712Z" fill="#C1DEE2"/>
<path fill-rule="evenodd" clip-rule="evenodd" d="M873.871 470.421C854.281 470.946 834.72 471.129 815.146 472.132C807.824 472.507 800.512 472.786 793.18 472.786C791.768 472.786 788.924 472.239 787.595 473.128C783.988 475.541 788.096 477.611 790.446 477.741C806.527 478.634 822.84 476.413 838.911 475.911C848.32 475.618 857.731 475.531 867.133 475.053C869.699 474.922 872.264 474.77 874.825 474.572C876.298 474.458 880.193 474.77 881.383 473.909C886.581 470.147 875.623 470.373 873.871 470.421Z" fill="#89C5CC"/>
<path fill-rule="evenodd" clip-rule="evenodd" d="M783.986 480C783.801 485.079 783.782 490.07 784.447 495.121C784.708 497.108 784.828 499.364 787.158 499.869C789.274 500.327 790.347 498.727 790.785 496.953C791.855 492.62 790.914 486.384 790.901 481.883C790.895 479.657 790.893 477.166 788.143 476.663C786.045 476.279 784.066 477.795 783.986 480Z" fill="#89C5CC"/>
<path fill-rule="evenodd" clip-rule="evenodd" d="M894.634 492.245C862.923 493.916 831.253 495.375 799.518 496.716C797.043 496.821 777.817 496.611 784.539 503.316C786.615 505.387 791.964 503.984 794.648 503.853C798.683 503.654 802.72 503.503 806.754 503.298C822.751 502.483 838.789 502.264 854.774 501.35C863.571 500.847 872.347 500.06 881.098 499.036C885.26 498.549 890.427 498.599 894.325 496.968C896.33 496.129 898.495 492.04 894.634 492.245Z" fill="#89C5CC"/>
<path fill-rule="evenodd" clip-rule="evenodd" d="M876.399 466.48C873.988 468.881 875.228 473.62 875.41 476.588C875.66 480.674 875.963 484.762 876.473 488.824C876.805 491.464 876.63 495.571 878.038 497.851C879.686 500.521 883.317 500.225 884.807 497.646C886.126 495.365 885.459 490.565 885.424 488.038C885.377 484.542 885.16 481.041 884.952 477.552C884.779 474.637 885.439 469.964 883.835 467.468C882.206 464.933 878.659 464.232 876.399 466.48Z" fill="#89C5CC"/>
<path fill-rule="evenodd" clip-rule="evenodd" d="M803.917 485.118C803.634 485.336 803.634 485.336 803.917 485.118V485.118ZM809.549 484.412C814.805 485.47 806.307 491.606 803.621 487.394C803.202 486.736 802.983 485.927 803.657 485.356C804.271 484.833 804.657 485.758 805.238 485.509C806.238 485.081 808.482 484.373 809.549 484.412ZM808.824 479.375C805.236 479.659 800.303 479.88 798.527 483.477C796.141 488.308 800.221 493.04 804.942 493.775C809.485 494.482 816.267 491.966 816.631 486.668C816.924 482.396 812.861 479.047 808.824 479.375Z" fill="#89C5CC"/>
<path fill-rule="evenodd" clip-rule="evenodd" d="M838.78 481.93C835.065 481.99 827.764 480.892 824.528 482.702C821.326 484.494 822.754 487.684 825.675 488.447C827.606 488.951 830.762 488.138 832.772 488.056C835.417 487.948 838.063 487.925 840.709 487.888C845.16 487.828 849.608 487.879 854.059 487.879C858.604 487.879 863.227 488.003 867.765 487.669C873.507 487.246 873.352 482.947 867.737 482.41C858.198 481.497 848.349 481.78 838.78 481.93Z" fill="#89C5CC"/>
<path fill-rule="evenodd" clip-rule="evenodd" d="M829.293 530.08C829.293 532.122 831.105 530.08 831.092 530.08C831.105 530.08 829.293 528.037 829.293 530.08Z" fill="#89C5CC"/>
<path fill-rule="evenodd" clip-rule="evenodd" d="M788.297 513.637C788.414 519.574 788.491 525.517 788.744 531.449C788.825 533.325 788.288 536.989 790.561 537.945C793.092 539.01 793.879 536.356 794.171 534.558C795.094 528.862 794.189 522.358 794.1 516.594C794.07 514.659 794.489 511.964 792.291 510.999C790.498 510.212 788.261 511.674 788.297 513.637Z" fill="#89C5CC"/>
<path fill-rule="evenodd" clip-rule="evenodd" d="M885.936 513.729C886.086 514.083 886.086 514.083 885.936 513.729V513.729ZM886.147 513.669C886.269 513.72 886.761 513.926 886.147 513.669V513.669ZM838.184 508.87C829.069 509.013 819.948 509.121 810.839 509.511C806.952 509.678 803.02 509.813 799.145 510.179C796.401 510.439 789.585 510.547 787.805 512.789C784.132 517.418 791.921 516.155 793.598 515.78C796.651 515.095 799.767 514.876 802.886 514.711C809.653 514.355 816.424 514.164 823.199 514.027C841.574 513.658 859.962 513.714 878.34 513.631C880.119 513.623 883.335 512.907 884.979 513.627C886.625 514.349 886.532 516.122 886.703 518.181C886.931 520.921 885.123 526.142 886.5 528.447C888.636 532.022 891.742 528.986 892.217 526.38C892.873 522.779 891.833 518.455 890.815 515.013C889.379 510.156 887.386 509.963 882.688 509.583C877.2 509.14 871.731 508.871 866.224 508.82C856.88 508.734 847.528 508.725 838.184 508.87Z" fill="#89C5CC"/>
<path fill-rule="evenodd" clip-rule="evenodd" d="M874.236 533.413C854.467 535.709 834.135 534.356 814.26 534.437C809.427 534.457 804.589 534.496 799.761 534.73C797.21 534.854 791.165 534.151 789.418 536.118C785.735 540.265 792.369 540.869 794.791 540.697C799.688 540.349 804.597 540.19 809.506 540.152C826.799 540.018 844.189 540.825 861.468 539.972C868.707 539.615 875.784 538.376 882.889 536.993C884.463 536.686 895.238 534.638 889.093 532.182C885.462 530.732 878.051 532.968 874.236 533.413Z" fill="#89C5CC"/>
<path fill-rule="evenodd" clip-rule="evenodd" d="M816.513 525.822C816.375 525.999 816.375 525.999 816.513 525.822V525.822ZM816.38 525.791C816.333 525.918 816.188 526.232 816.38 525.791V525.791ZM815.133 524.183C815.162 524.22 815.279 524.371 815.133 524.183V524.183ZM815.085 524.171C815.561 524.739 815.882 525.373 816.046 526.072C811.95 527.182 810.372 523.868 815.085 524.171ZM814.826 524.016C814.827 524.017 815.403 524.259 814.826 524.016V524.016ZM808.097 519.079C805.446 522.38 803.258 526.227 806.563 529.998C809.518 533.37 815.464 533.805 819.214 531.554C823.078 529.235 822.744 524.352 820.049 521.165C818.314 519.113 816.907 519.17 814.389 518.835C812.675 518.607 809.552 517.274 808.097 519.079Z" fill="#89C5CC"/>
<path fill-rule="evenodd" clip-rule="evenodd" d="M835.5 525.188C835.5 529.584 854.481 527.692 857.858 527.687C860.687 527.683 877.79 529.243 876.563 524.72C875.554 521.003 858.707 522.85 855.119 522.845C852.017 522.84 835.5 520.711 835.5 525.188Z" fill="#89C5CC"/>
</g>
<g opacity="0.5">
<path fill-rule="evenodd" clip-rule="evenodd" d="M587.698 566.375C597.204 567.756 607.092 572.226 607.009 583.291C606.939 592.594 599.137 602.496 589.117 601.94C580.101 601.44 571.61 591.58 570.481 583.13C569.896 578.752 570.991 574.038 573.566 570.437C576.94 565.718 582.295 565.726 587.698 566.375ZM583.208 560.361C576.332 560.399 571.302 562.886 567.047 568.135C565.521 570.018 563.746 572.044 562.584 574.177C561.499 576.168 561.689 581.233 565.413 578.859C564.496 588.664 570.227 598.182 578.465 603.206C587.42 608.668 597.542 607.603 604.995 599.948C611.817 592.94 614.218 581.103 609.227 572.436C604.239 563.773 592.681 560.268 583.208 560.361Z" fill="#89C5CC"/>
<path fill-rule="evenodd" clip-rule="evenodd" d="M603.826 557.733C599.424 560.959 595.405 565.208 592.067 569.516C588.804 573.728 586.647 578.987 582.727 582.659C580.748 580.503 578.429 574.68 574.48 576.991C571.203 578.908 573.313 582.204 574.909 584.369C579.03 589.958 583.606 592.208 588.891 586.685C593.691 581.67 596.417 574.98 600.905 569.676C602.873 567.349 605.915 565.039 607.482 562.47C608.903 560.141 607.146 555.293 603.826 557.733Z" fill="#89C5CC"/>
</g>
<g opacity="0.5">
<path fill-rule="evenodd" clip-rule="evenodd" d="M770.177 207.877C770.184 208.317 770.19 208.731 770.199 209.111C770.405 217.416 770.286 226.146 769.611 234.431C769.378 237.291 767.297 240.917 764.923 236.974C763.879 235.24 764.026 231.68 764.133 229.06C764.162 228.358 764.188 227.724 764.188 227.21C764.186 224.288 764.339 221.335 764.493 218.375C764.794 212.588 765.097 206.77 764.24 201.086C764.223 200.971 764.206 200.86 764.19 200.754C763.818 198.254 763.793 198.082 761.044 198.139C759.898 198.162 758.752 198.193 757.607 198.224C756.48 198.255 755.353 198.285 754.225 198.309C753.106 198.332 751.987 198.354 750.868 198.375C747.358 198.443 743.848 198.51 740.339 198.639C739.754 198.661 738.661 198.798 737.282 198.97C734.526 199.316 730.626 199.805 727.344 199.803C727.345 199.817 727.346 199.831 727.347 199.845C727.349 199.87 727.351 199.896 727.351 199.922C727.388 201.734 726.921 203.756 726.452 205.788C726.06 207.49 725.666 209.198 725.564 210.795C725.324 214.594 725.321 218.433 725.318 222.273C725.315 226.947 725.312 231.622 724.879 236.225C724.858 236.449 724.845 236.687 724.832 236.927C724.831 236.958 724.829 236.99 724.827 237.022C724.976 237 725.12 236.984 725.259 236.975C727.625 236.825 730.01 236.812 732.392 236.798C733.705 236.791 735.018 236.784 736.325 236.753C738.673 236.699 741.049 236.701 743.435 236.704C748.703 236.71 754.016 236.715 759.169 236.108C760.69 235.911 761.223 237.863 760.54 238.875C759.929 239.781 758.246 239.927 757.014 240.035C756.701 240.062 756.417 240.087 756.187 240.121C752.864 240.613 749.497 240.785 746.144 240.933C742.623 241.089 739.098 241.206 735.575 241.304C734.736 241.327 733.617 241.44 732.376 241.566C729.099 241.897 724.974 242.314 722.926 241.387C720.726 240.392 720.778 239.287 721.676 238.43C721.282 237.564 721.22 236.299 721.171 235.309C721.153 234.931 721.136 234.593 721.104 234.333C720.616 230.392 720.321 226.501 720.314 222.526C720.3 214.739 720.316 206.653 722.47 199.116C721.607 198.738 721.087 198.181 721.089 197.379C721.099 193.335 733.684 193.541 739.667 193.638C740.737 193.656 741.595 193.67 742.133 193.656C746.491 193.542 750.85 193.527 755.209 193.551C756.13 193.555 757.155 193.495 758.217 193.433C760.476 193.3 762.903 193.157 764.854 193.611C769.98 194.801 770.103 202.964 770.177 207.877Z" fill="#89C5CC"/>
<path fill-rule="evenodd" clip-rule="evenodd" d="M802.235 194.498C806.994 194.246 811.756 194.188 816.521 194.17C821.566 194.145 826.619 194.236 831.662 194.391L831.778 194.394C834.013 194.461 846.433 194.834 840.727 197.929C840.394 198.11 840.019 198.261 839.61 198.386C839.852 199.819 839.881 201.299 839.842 202.011C839.695 204.715 839.598 207.421 839.501 210.127C839.435 211.961 839.369 213.795 839.288 215.628C839.063 220.693 838.849 225.757 838.675 230.824C838.653 231.446 838.686 232.259 838.723 233.166C838.844 236.163 839.007 240.18 837.379 241.665C835.951 242.968 834.974 242.707 834.317 241.822C830.228 243.009 821.833 242.623 817.611 242.429C816.594 242.382 815.819 242.346 815.405 242.347C814.665 242.347 813.29 242.439 811.553 242.556C804.324 243.041 790.83 243.948 790.802 240.384C790.799 240.041 790.911 239.734 791.12 239.459C790.548 238.874 790.032 238.016 789.701 236.945C788.513 233.102 788.401 228.954 788.313 224.968C788.189 219.34 788.187 213.705 788.186 208.072C788.185 205.179 788.185 202.286 788.167 199.394C787.395 198.356 787.853 197.169 788.818 196.341C790.87 194.579 795.966 194.558 799.652 194.542C800.644 194.538 801.534 194.535 802.235 194.498ZM794.491 237.895C799.078 236.916 806.807 237.231 810.948 237.4C812.032 237.444 812.871 237.478 813.342 237.477C817.571 237.46 821.802 237.519 826.028 237.688C826.465 237.705 827.114 237.689 827.878 237.67C829.412 237.631 831.412 237.581 833.111 237.769C833.088 237.539 833.073 237.328 833.064 237.146C832.873 233.385 833.011 229.591 833.148 225.818V225.818C833.177 225.016 833.206 224.215 833.232 223.415C833.322 220.594 833.443 217.775 833.563 214.955L833.563 214.955L833.563 214.954C833.639 213.179 833.715 211.403 833.783 209.628C833.813 208.849 833.768 207.791 833.718 206.6V206.6C833.616 204.178 833.49 201.208 833.924 198.927C832.359 198.897 830.756 198.786 829.286 198.684C827.869 198.586 826.575 198.497 825.558 198.497C824.268 198.497 822.979 198.493 821.689 198.489H821.689H821.689H821.689C818.116 198.478 814.543 198.467 810.97 198.537C810.631 198.544 810.292 198.551 809.953 198.557L809.952 198.557L809.952 198.557C805.032 198.652 800.071 198.748 795.191 199.396C794.905 199.434 794.562 199.507 794.182 199.596C794.716 201.832 794.454 204.983 794.225 207.742C794.113 209.083 794.01 210.331 794.009 211.337C794.002 217.592 794.167 223.824 794.332 230.049L794.332 230.049L794.332 230.049C794.394 232.404 794.457 234.758 794.51 237.112C794.516 237.393 794.509 237.654 794.491 237.895Z" fill="#89C5CC"/>
<path fill-rule="evenodd" clip-rule="evenodd" d="M742.283 241.124C739.156 242.951 740.842 250.259 741.926 252.787C743.707 256.943 747.321 260.195 751.221 262.352C759.103 266.713 770.465 265.554 776.426 273.114C776.488 273.192 778.548 275.232 779.017 272.591C779.402 270.422 775.556 267.112 774.065 266.025C769.826 262.935 764.39 261.938 759.487 260.394C754.258 258.748 748.52 255.713 746.327 250.322C745.551 248.413 747.031 238.337 742.283 241.124Z" fill="#C1DEE2"/>
<path fill-rule="evenodd" clip-rule="evenodd" d="M813.779 244.637C810.913 245.427 812.808 249.37 812.804 251.345C812.798 253.808 812.011 256.387 810.493 258.352C806.642 263.338 799.104 264.085 793.452 265.514C789.348 266.553 779.529 268.78 779.144 274.33C778.715 280.529 787.384 272.986 788.116 272.676C796.219 269.704 806.701 269.13 812.954 262.588C815.536 259.888 817.062 256.283 817.304 252.563C817.441 250.469 817.464 243.63 813.779 244.637Z" fill="#C1DEE2"/>
<path fill-rule="evenodd" clip-rule="evenodd" d="M754.563 299.616C754.496 288.148 765.471 281.211 775.395 278.601C787.324 275.459 798.435 283.817 799.842 295.84C801.326 308.529 791.762 318.744 779.15 319.304C768.056 319.797 754.634 311.853 754.563 299.616ZM781.209 284.115C781.854 284.992 782.436 286.392 781.136 287.154C779.886 287.883 779.262 287.007 778.633 286.126C778.236 285.568 777.837 285.009 777.278 284.851C775.828 284.443 773.497 285.968 772.29 286.857C771.799 287.218 771.102 287.995 770.286 288.904C767.69 291.795 763.899 296.017 761.804 292.384C753.448 306.814 774.28 317.612 786.126 312.151C799.136 306.154 796.604 284.23 781.209 284.115Z" fill="#89C5CC"/>
<path fill-rule="evenodd" clip-rule="evenodd" d="M770.289 295.776C770.289 298.408 774.446 298.408 774.446 295.776C774.446 293.174 770.289 293.062 770.289 295.776Z" fill="#89C5CC"/>
<path fill-rule="evenodd" clip-rule="evenodd" d="M777.602 295.282C777.602 298.506 782.696 298.506 782.696 295.282C782.696 292.094 777.602 291.958 777.602 295.282Z" fill="#89C5CC"/>
<path fill-rule="evenodd" clip-rule="evenodd" d="M772.371 302.796C768.204 305.246 780.118 310.115 780.589 305.14C780.792 302.993 778.713 303.572 777.327 303.414C776.001 303.263 773.628 302.063 772.371 302.796Z" fill="#89C5CC"/>
<path fill-rule="evenodd" clip-rule="evenodd" d="M770.56 320.181C770.741 326.44 770.654 332.695 771.841 338.867C772.067 340.039 772.224 344.291 773.15 345.162C775.429 347.304 775.467 343.198 775.555 341.625C775.871 335.989 775.28 330.179 775.149 324.531C775.121 323.316 775.443 320.798 774.869 319.622C773.959 317.754 770.472 317.2 770.56 320.181Z" fill="#C1DEE2"/>
<path fill-rule="evenodd" clip-rule="evenodd" d="M766.105 315.106C756.971 325.357 744.395 324.602 731.724 325.5C725.03 325.974 718.261 326.948 712.874 331.278C710.369 333.293 708.208 335.816 706.757 338.691C706.122 339.948 703.112 347.201 707.633 345.48C709.236 344.87 710.814 340.074 711.851 338.655C713.826 335.953 716.352 333.722 719.384 332.272C725.231 329.475 732.212 329.522 738.552 329.167C745.179 328.797 752.293 328.45 758.385 325.568C761.25 324.212 763.939 322.521 766.245 320.343C767.069 319.564 768.836 318.241 768.968 317.05C769.119 315.689 767.81 313.196 766.105 315.106Z" fill="#C1DEE2"/>
<path fill-rule="evenodd" clip-rule="evenodd" d="M719.999 346.57C711.42 346.856 702.852 347.203 694.285 347.746C692.529 347.857 686.675 347.502 688.166 351.1C689.361 353.983 696.5 352.076 698.861 351.936C707.789 351.406 716.753 351.222 725.661 350.419C727.662 350.239 736.708 350.311 732.973 346.764C731.196 345.076 722.454 346.486 719.999 346.57Z" fill="#89C5CC"/>
<path fill-rule="evenodd" clip-rule="evenodd" d="M682.719 350.707C680.015 354.259 681.258 362.891 681.462 367.16C681.66 371.298 680.856 378.863 686.257 379.504C684.542 379.279 687.559 379.609 688.05 379.635C689.146 379.694 690.248 379.713 691.346 379.725C693.883 379.753 696.421 379.719 698.957 379.668C704.702 379.553 710.462 379.386 716.2 379.068C718.612 378.935 731.696 379.046 732.214 376.541C732.876 373.339 720.331 375.15 718.085 375.253C712.616 375.503 707.138 375.556 701.664 375.628C698.951 375.664 696.235 375.69 693.522 375.637C692.401 375.615 687.965 376.075 687.284 375.328C686.703 374.692 687.156 368.842 687.144 367.947C687.104 365.03 687.107 362.106 687.211 359.19C687.281 357.227 688.342 353.492 687.477 351.648C686.636 349.856 684.185 349.244 682.719 350.707Z" fill="#89C5CC"/>
<path fill-rule="evenodd" clip-rule="evenodd" d="M726.896 350.873C727.052 357.37 727.101 363.999 728.635 370.353C729.146 372.468 729.862 376.829 731.986 377.924C734.216 379.073 736.141 377.433 736.287 375.223C736.47 372.446 734.983 368.799 734.678 365.949C734.322 362.624 734.115 359.295 733.993 355.954C733.901 353.441 734.664 349.673 732.269 348.053C730.117 346.597 726.826 348.063 726.896 350.873Z" fill="#89C5CC"/>
<path fill-rule="evenodd" clip-rule="evenodd" d="M743.966 349.286C741.298 351.944 742.491 360.359 742.824 363.774C743.069 366.275 745.806 378.58 749.908 372.164C751.723 369.325 749.418 361.82 749.434 358.511C749.445 356.403 750.191 353.738 749.831 351.713C749.355 349.036 746.387 346.869 743.966 349.286Z" fill="#89C5CC"/>
<path fill-rule="evenodd" clip-rule="evenodd" d="M762.445 347.093C770.459 346.267 778.483 345.646 786.541 345.569C786.928 345.566 787.335 345.561 787.758 345.556C793.281 345.486 801.581 345.381 805.298 349.528C807.323 351.787 808.24 355.28 809.04 358.325C809.189 358.893 809.334 359.445 809.481 359.971C809.607 360.42 809.771 360.932 809.948 361.486C810.783 364.1 811.912 367.637 810.767 369.827C810.139 371.027 809.128 372.051 807.593 371.626C807.235 371.527 806.953 371.399 806.733 371.249C807.321 371.886 807.582 372.792 807.2 373.679C806.462 375.393 804.13 375.429 802.293 375.458C801.847 375.465 801.431 375.471 801.074 375.501C794.955 376.011 788.808 376.351 782.667 376.405C779.744 376.431 776.82 376.407 773.896 376.383C770.886 376.358 767.877 376.334 764.867 376.363C762.683 376.385 760.458 376.592 758.233 376.8C755.423 377.062 752.613 377.325 749.88 377.213C747.836 377.128 745.653 376.459 746.171 373.817C746.594 371.661 748.623 371.472 750.443 371.304C750.601 371.289 750.758 371.274 750.912 371.259C756.704 370.669 762.5 370.46 768.322 370.481C780.553 370.524 792.774 370.46 805.005 370.396C805.508 370.438 805.981 370.63 806.371 370.923C805.931 370.388 805.939 369.677 805.948 368.919C805.952 368.576 805.957 368.223 805.919 367.874C805.845 367.171 805.776 366.471 805.708 365.772C805.482 363.464 805.257 361.171 804.817 358.849C804.75 358.498 804.686 358.113 804.619 357.704C804.218 355.293 803.688 352.098 801.77 350.796C799.843 349.487 796.063 349.55 793.117 349.599C792.321 349.612 791.587 349.624 790.966 349.608C783.105 349.406 775.198 349.964 767.373 350.675C766.772 350.73 766.17 350.782 765.567 350.835C762.59 351.094 759.597 351.355 756.663 351.888C756.126 351.985 755.306 352.271 754.365 352.6C751.861 353.473 748.505 354.644 747.364 353.354C743.586 349.081 760.19 347.326 762.445 347.093Z" fill="#89C5CC"/>
<path fill-rule="evenodd" clip-rule="evenodd" d="M847.707 337.363C848.055 337.811 848.055 337.811 847.707 337.363V337.363ZM793.472 310.887C788.605 313.748 797.614 322.143 799.909 323.441C805.073 326.363 812.169 326.804 817.936 327.625C825.233 328.666 833.176 329.049 840.189 331.44C843.178 332.459 845.077 334.049 847.034 336.493C848.025 337.732 850.412 343.069 852.587 341.805C856.964 339.261 845.169 328.583 842.57 327.435C836.661 324.825 829.677 324.094 823.36 323.081C817.486 322.138 811.486 321.437 805.757 319.775C802.606 318.862 800.367 317.388 798.551 314.567C797.42 312.809 796.491 309.121 793.472 310.887Z" fill="#C1DEE2"/>
<path fill-rule="evenodd" clip-rule="evenodd" d="M868.092 343.681C862.48 343.805 856.879 344.237 851.279 344.669C848.137 344.911 844.996 345.153 841.853 345.341C840.871 345.4 839.887 345.453 838.902 345.506L838.902 345.506L838.902 345.506C836.134 345.655 833.362 345.804 830.607 346.082C830.188 346.125 829.703 346.164 829.175 346.208C826.835 346.4 823.644 346.662 821.605 347.516C819.736 346.102 816.852 347.304 816.807 349.824C816.73 354.414 816.772 358.922 817.332 363.484C817.462 364.543 818.131 369.905 819.587 372.695C819.069 375.331 821.316 376.07 823.407 376.272C831.506 377.054 840 376.447 848.378 375.848C852.64 375.544 856.872 375.241 861.007 375.125C862.382 375.086 863.774 375.07 865.175 375.055C869.747 375.003 874.407 374.951 878.834 374.087C879.012 374.052 879.203 374.018 879.402 373.982C881.152 373.668 883.566 373.235 883.749 371.309C883.86 370.154 883.208 369.096 882.116 368.947C882.191 367.984 882.07 366.933 881.981 366.16L881.981 366.16C881.96 365.98 881.941 365.816 881.927 365.671C881.662 362.992 880.995 360.331 880.336 357.704L880.336 357.704L880.336 357.704C880.188 357.114 880.04 356.525 879.898 355.938C879.74 355.288 879.593 354.515 879.436 353.681C878.879 350.739 878.18 347.041 876.32 345.325C874.37 343.524 871.194 343.604 868.651 343.668C868.46 343.672 868.274 343.677 868.092 343.681ZM877.966 369.234C877.301 367.493 877.107 365.137 876.921 362.899V362.899C876.805 361.493 876.693 360.133 876.47 359.001C876.303 358.151 876.166 357.254 876.027 356.343L876.027 356.343C875.689 354.131 875.337 351.831 874.507 349.892C873.395 347.296 872.405 347.395 870.063 347.63C869.627 347.673 869.145 347.722 868.606 347.758C866.219 347.92 863.834 348.127 861.45 348.333L861.45 348.333C860.306 348.432 859.162 348.531 858.018 348.625C853.122 349.028 848.224 349.337 843.324 349.647L843.324 349.647C840.462 349.827 837.6 350.008 834.737 350.207C832.491 350.364 830.299 350.791 828.116 351.216C826.386 351.553 824.663 351.888 822.922 352.088C822.897 352.683 822.847 353.28 822.8 353.849C822.735 354.623 822.674 355.345 822.687 355.937C822.744 358.558 822.976 361.164 823.207 363.773C823.243 364.175 823.279 364.576 823.314 364.978C823.356 365.459 823.459 366.077 823.574 366.763C823.752 367.823 823.956 369.045 824.002 370.171C824.214 370.169 824.424 370.17 824.632 370.171C824.9 370.172 825.163 370.173 825.415 370.168C831.584 370.061 837.748 369.874 843.913 369.637C844.699 369.606 845.486 369.576 846.273 369.545C851.773 369.331 857.274 369.117 862.778 369.054C864.965 369.029 867.181 369.097 869.403 369.166C872.262 369.255 875.132 369.343 877.966 369.234Z" fill="#89C5CC"/>
</g>
<path fill-rule="evenodd" clip-rule="evenodd" d="M372.179 335.584C379.454 339.971 386.601 342.091 389.956 341.226C398.369 339.056 399.142 308.257 392.633 296.115C386.123 283.974 352.659 278.681 350.972 302.738C350.387 311.087 353.89 318.539 359.066 324.619L349.785 367.909H376.745L372.179 335.584Z" fill="#B28B67"/>
<path fill-rule="evenodd" clip-rule="evenodd" d="M381.984 282.891C378.3 281.767 372.952 281.386 370.703 281.643C371.982 278.575 372.49 275.157 372.076 271.829C371.674 268.594 370.23 265.841 368.894 262.955C368.279 261.625 367.581 260.302 366.541 259.285C365.481 258.248 364.14 257.564 362.733 257.238C361.294 256.904 359.789 256.931 358.347 257.235C357.709 257.369 357.137 257.661 356.512 257.823C355.871 257.989 355.56 257.588 355.096 257.185C353.975 256.213 352.333 255.734 350.915 255.562C349.325 255.37 347.675 255.61 346.159 256.133C344.682 256.642 343.264 257.469 342.197 258.674C341.722 259.21 341.29 259.82 341.01 260.494C340.895 260.771 340.876 260.935 340.6 261.036C340.345 261.13 340.047 261.133 339.784 261.222C337.238 262.085 335.062 264.053 333.877 266.579C333.186 268.054 332.858 270.649 332.948 273.558C333.038 276.467 335.663 284.058 338.118 286.827C340.309 289.298 343.53 290.929 346.639 291.643C344.576 294.003 343.202 296.952 342.186 299.951C341.083 303.209 340.4 306.595 340.148 310.044C339.909 313.321 339.887 316.787 340.654 319.994C341.373 322.994 342.909 325.454 345.473 327.015C346.647 327.73 347.911 328.268 349.182 328.759C350.434 329.242 351.691 329.713 353.003 329.984C355.486 330.498 358.348 330.41 360.26 328.432C360.95 327.719 361.708 326.823 362.211 325.951C362.392 325.638 362.501 325.433 362.281 325.127C362.018 324.76 361.592 324.479 361.254 324.192C359.326 322.557 358.132 320.373 357.831 317.778C357.526 315.145 358.233 311.746 360.791 310.597C363.949 309.179 367.427 310.807 370.233 312.325C371.426 308.112 373.875 304.318 377.715 302.386C381.963 300.248 386.838 299.998 391.204 298.163C392.342 297.685 393.5 297.143 394.338 296.169C394.688 295.762 395.099 295.234 395.238 294.695C395.422 293.988 394.966 293.395 394.614 292.844C392.747 289.921 385.668 284.015 381.984 282.891Z" fill="#191847"/>
<path fill-rule="evenodd" clip-rule="evenodd" d="M347.54 657.931C395.31 657.931 434.036 620.94 434.036 575.308C434.036 529.677 395.31 492.686 347.54 492.686C299.769 492.686 261.043 529.677 261.043 575.308C261.043 620.94 299.769 657.931 347.54 657.931Z" fill="#C5CFD6"/>
<path fill-rule="evenodd" clip-rule="evenodd" d="M482.015 570.903C486.193 585.548 496.602 613.307 510.995 645.185L524.672 641.191C512.707 567.837 502.749 519.273 497.045 504.492C493.276 494.726 464.764 495.87 468.044 515.521C469.419 523.761 474.861 545.827 482.015 570.903ZM425.799 518.947C403.495 523.572 357.25 539.919 344.044 545.142C335.745 548.425 341.095 559.558 348.175 558.584C349.375 558.419 353.617 557.944 359.946 557.236C380.276 554.96 422.142 550.273 453.896 545.7C470.615 543.292 461.621 511.952 444.261 515.268C438.421 516.384 432.209 517.619 425.799 518.947Z" fill="#B28B67"/>
<path fill-rule="evenodd" clip-rule="evenodd" d="M497.921 496.214C495.64 488.767 391.983 462.335 391.983 462.335H383.488V470.256L454.918 506.644C454.823 507.818 454.881 509.059 455.111 510.368C454.596 537.343 466.133 557.495 477.555 577.447C485.025 590.494 492.445 603.456 496.414 618.185L522.657 614.267C521.893 612.31 520.684 603.489 519.031 591.428C514.864 561.016 507.874 510.007 498.068 496.512C498.034 496.465 497.999 496.418 497.964 496.371C497.951 496.319 497.937 496.266 497.921 496.214Z" fill="#1F28CF"/>
<path fill-rule="evenodd" clip-rule="evenodd" d="M389.422 528.254C382.887 526.945 376.868 525.776 371.718 524.872C338.452 519.034 328.752 501.214 334.487 462.335H395.779C405.791 465.213 457.823 487.049 484.82 498.662C502.687 506.349 497.055 534.059 486.936 541.27C486.881 541.713 486.699 542.013 486.375 542.148C448.012 558.059 415.298 556.872 394.291 556.109C385.492 555.79 378.747 555.545 374.501 556.662L367.847 535.66L389.422 528.254Z" fill="#2B44FF"/>
<path fill-rule="evenodd" clip-rule="evenodd" d="M351.042 543.783C351.002 542.613 350.016 541.678 348.851 541.797C346.469 542.041 342.742 542.543 340.963 543.411C338.232 544.744 333.437 548.212 333.437 548.212C334.982 551.383 361.211 605.198 361.211 605.198C361.211 605.198 369.632 603.838 367.884 598.766C366.137 593.695 365.066 590.299 365.066 590.299L363.952 557.926C363.932 557.363 363.452 556.927 362.89 556.962L357.806 557.282C357.806 557.282 353.581 553.86 352.231 551.09C351.375 549.334 351.116 545.993 351.042 543.783Z" fill="#E4E4E4"/>
<path fill-rule="evenodd" clip-rule="evenodd" d="M507.317 637.909C506.247 637.431 504.973 637.908 504.57 639.008C503.745 641.258 502.562 644.829 502.562 646.81C502.562 649.85 503.575 655.684 503.575 655.684C507.1 655.684 566.933 655.684 566.933 655.684C566.933 655.684 569.403 647.513 564.082 646.862C558.761 646.21 555.241 645.685 555.241 645.685L525.678 632.496C525.163 632.267 524.56 632.508 524.345 633.029L522.404 637.741C522.404 637.741 517.478 640.041 514.399 640.041C512.447 640.041 509.334 638.81 507.317 637.909Z" fill="#E4E4E4"/>
<path fill-rule="evenodd" clip-rule="evenodd" d="M478.607 473.166L442.775 446.835L434.853 466.429L470.337 481.154C480.372 492.95 485.984 497.868 487.172 495.907C488.173 494.253 487.39 492.705 486.669 491.279C486.107 490.169 485.583 489.132 485.969 488.177C486.851 485.997 493.592 486.227 499.979 486.718C506.367 487.21 504.506 484.365 502.965 482.961C496.445 479.055 488.325 475.79 478.607 473.166ZM290.694 519.562C293.986 512.879 305.196 447.744 305.196 447.744L328.671 447.836C328.671 447.836 306.929 518.072 305.196 522.369C302.945 527.952 306.769 536.063 309.362 541.563C309.763 542.414 310.135 543.202 310.45 543.909C306.852 545.52 305.124 543.573 303.302 541.52C301.244 539.201 299.066 536.748 293.94 539.134C291.96 540.056 290.086 541.146 288.255 542.211C281.931 545.89 276.121 549.27 268.217 544.389C266.964 543.616 265.591 540.703 268.909 538.426C277.174 532.755 289.085 522.829 290.694 519.562Z" fill="#B28B67"/>
<path fill-rule="evenodd" clip-rule="evenodd" d="M371.91 349.171L381.624 347.504C417.664 378.66 432.467 438.513 476.644 470.22L466.011 483.409C389.373 473.913 370.377 400.907 371.91 349.171Z" fill="#DF8FDC"/>
<path fill-rule="evenodd" clip-rule="evenodd" d="M329.566 471.328C329.566 471.328 387.988 471.328 415.514 471.328C419.442 471.328 418.702 465.653 418.134 462.789C411.582 429.739 386.004 394.113 386.004 347.068L361.213 343.178C340.707 376.18 333.616 416.813 329.566 471.328Z" fill="#DDE3E9"/>
<path fill-rule="evenodd" clip-rule="evenodd" d="M319.899 494.934C316.037 504.218 312.249 512.319 308.68 518.541H290.247C288.264 454.374 312.54 405.001 332.857 375.23C328.346 374.907 324.274 373.018 321.7 368.371C312.639 352.009 315.911 343.001 325.595 340.04C330.92 338.411 335.928 339.523 341.923 340.853C346.828 341.942 352.395 343.177 359.336 343.178C359.339 343.178 359.341 343.178 359.343 343.178C360.016 343.178 360.628 343.223 361.184 343.309L369.41 343.779C369.41 343.779 402.811 457.057 387.833 494.934H319.899Z" fill="#CA94C8"/>
<path fill-rule="evenodd" clip-rule="evenodd" d="M319.902 494.934C324.971 482.753 330.168 468.536 335.169 453.853C337.031 470.022 340.131 486.263 345.293 494.934H319.902Z" fill="black" fill-opacity="0.1"/>
<path fill-rule="evenodd" clip-rule="evenodd" d="M688.823 264.65C681.538 269.041 674.38 271.162 671.02 270.296C662.594 268.125 661.82 237.302 668.339 225.151C674.858 212.999 708.372 207.703 710.061 231.779C710.647 240.134 707.139 247.592 701.955 253.676L711.25 297H684.25L688.823 264.65Z" fill="#B28B67"/>
<path fill-rule="evenodd" clip-rule="evenodd" d="M674.423 217.138C675.042 216.769 676.335 215.99 676.991 215.708C677.146 215.64 678.232 214.865 678.261 214.875C679.084 215.153 681.465 216.177 681.669 217.062C681.701 217.129 681.732 217.192 681.762 217.247C682.1 217.86 682.409 218.489 682.705 219.125C683.353 220.522 683.912 221.982 684.447 223.43C685.487 226.25 686.391 229.137 687.223 232.03C688.069 234.975 688.787 237.954 689.591 240.911C690.748 245.166 692.229 249.317 693.378 253.57C694.112 256.286 694.52 259.034 694.327 261.829C694.326 261.863 694.324 261.896 694.321 261.93C694.32 261.944 694.319 261.958 694.317 261.972C694.285 262.401 694.238 262.832 694.176 263.264C694.121 263.634 694.066 264.004 694.008 264.375C692.959 262.282 692.157 259.976 691.307 257.787C691.224 257.573 691.144 257.357 691.067 257.14C690.793 256.696 690.513 256.256 690.23 255.817C688.447 253.048 686.658 250.29 684.948 247.471C681.873 242.401 678.827 237.224 675.181 232.569C674.105 231.194 673.003 229.841 671.94 228.455C671.335 227.666 670.746 226.864 670.176 226.048C669.769 225.464 667.997 223.43 668.639 222.208C668.967 221.582 672.819 218.096 674.423 217.138Z" fill="#2C2C2C"/>
<path fill-rule="evenodd" clip-rule="evenodd" d="M676.796 215.81C676.195 216.012 676.487 214.76 677.07 214.32C679.768 212.28 690.086 211.539 699.065 213.403C705.079 214.652 712.075 217.759 716.879 221.755C721.21 225.356 724.188 231.13 725.722 236.708C727.332 242.566 727.576 248.672 726.679 254.679C726.482 255.998 726.058 257.255 725.822 258.547C725.557 260.001 725.42 261.401 724.947 262.816C724.657 263.682 724.164 264.531 723.916 265.403C723.634 266.397 723.806 267.316 724.012 268.327C724.348 269.975 724.764 271.62 725.356 273.194C726.244 275.557 727.322 277.77 727.998 280.223C728.897 283.486 732.659 294.105 729.91 297H677.576C678.894 293.405 682.85 289.175 683.651 285.327C684.122 283.06 684.347 278.109 684.396 277.929C685.575 269.8 687.878 265.918 689.32 264.509C690.763 263.1 692.683 262.667 692.782 261.444C693.192 256.39 691.182 251.547 689.708 246.829C687.951 241.207 686.664 235.445 684.853 229.842C684.051 227.361 679.919 214.76 676.796 215.81Z" fill="#8991DC"/>
<path fill-rule="evenodd" clip-rule="evenodd" d="M697.119 239.785C697.543 231.229 697.119 227.887 695.145 221.625H696.362C698.286 224.11 699.895 231.711 698.087 239.785H697.119ZM720.967 239.382L720.967 239.382C721.179 238.862 721.396 238.33 721.621 237.785L722.395 238.157C719.954 247.084 716.985 253.976 706.79 259.754L705.997 259.199C715.639 252.419 717.706 247.36 720.967 239.382ZM706.511 228.704C706.409 229.478 706.311 230.232 706.215 230.969C704.75 242.279 703.821 249.452 695.651 262.46L696.577 262.743C705.532 250.679 706.952 240.833 707.375 228.773L706.511 228.704ZM715.331 265.365L716.123 266.328C712.155 267.159 709.458 270.077 706.365 273.422C703.093 276.961 699.379 280.979 693.251 283.508L692.113 282.818C698.802 279.341 701.913 275.884 704.63 272.866C707.443 269.742 709.833 267.088 715.331 265.365Z" fill="black" fill-opacity="0.2"/>
<path fill-rule="evenodd" clip-rule="evenodd" d="M729.215 392L686.943 530.467L666.465 648.223H650.409L672.047 392H729.215Z" fill="#997659"/>
<path fill-rule="evenodd" clip-rule="evenodd" d="M744.338 392C741.466 468.026 744.845 507.241 745.488 514.148C746.131 521.055 754.93 565.842 775.762 650.542L758.653 644.655C725.731 566.973 714.512 526.6 710.736 516.399C706.96 506.199 696.931 464.732 680.649 392H744.338Z" fill="#B28B67"/>
<path fill-rule="evenodd" clip-rule="evenodd" d="M772.76 643.204C773.83 642.725 775.105 643.203 775.508 644.303C776.333 646.556 777.516 650.132 777.516 652.115C777.516 655.159 776.503 661 776.503 661C772.978 661 713.145 661 713.145 661C713.145 661 710.676 652.82 715.996 652.167C721.317 651.515 724.837 650.989 724.837 650.989L754.4 637.784C754.915 637.554 755.518 637.795 755.733 638.317L757.674 643.035C757.674 643.035 762.6 645.338 765.679 645.338C767.631 645.338 770.743 644.106 772.76 643.204Z" fill="#E4E4E4"/>
<path fill-rule="evenodd" clip-rule="evenodd" d="M667.166 643.204C668.236 642.725 669.511 643.203 669.914 644.303C670.739 646.556 671.922 650.132 671.922 652.115C671.922 655.159 670.909 661 670.909 661C667.385 661 607.551 661 607.551 661C607.551 661 605.082 652.82 610.403 652.167C615.724 651.515 619.243 650.989 619.243 650.989L648.806 637.784C649.321 637.554 649.924 637.795 650.139 638.317L652.08 643.035C652.08 643.035 657.006 645.338 660.086 645.338C662.037 645.338 665.149 644.106 667.166 643.204Z" fill="#E4E4E4"/>
<path fill-rule="evenodd" clip-rule="evenodd" d="M734.828 392L716.855 462.547H661.957L670.143 392H734.828Z" fill="#69A1AC"/>
<path fill-rule="evenodd" clip-rule="evenodd" d="M744.939 392C753.809 418.642 748.309 462.547 748.309 462.547H692.288L676.883 392H744.939Z" fill="#89C5CC"/>
<path fill-rule="evenodd" clip-rule="evenodd" d="M806.066 427.483C801.873 421.331 773.603 338.535 773.603 338.535L749.221 342.055C749.221 342.055 789.758 428.272 792.074 432.282C795.083 437.491 792.418 446.048 790.612 451.85C790.332 452.748 790.073 453.58 789.859 454.323C793.651 455.415 795.094 453.248 796.616 450.963C798.334 448.382 800.153 445.652 805.568 447.298C807.66 447.934 809.67 448.751 811.634 449.55C818.418 452.307 824.649 454.841 831.809 448.912C832.944 447.972 833.901 444.898 830.294 443.109C821.309 438.65 808.117 430.491 806.066 427.483ZM595.95 423.204L623.19 388.037L636.216 404.668L606.113 428.594C599.703 442.689 595.656 448.959 593.972 447.404C592.552 446.092 592.879 444.39 593.181 442.822C593.415 441.6 593.634 440.46 593 439.65C591.55 437.799 585.124 439.879 579.109 442.113C573.095 444.346 574.103 441.102 575.199 439.328C580.4 433.779 587.317 428.405 595.95 423.204Z" fill="#B28B67"/>
<path fill-rule="evenodd" clip-rule="evenodd" d="M689.56 279.903L679.695 279.608C672.045 335.289 599.204 382.747 597.231 403.437C596.507 411.025 602.321 413.992 599.902 416.612L613.709 424.003C615.482 421.235 620.642 425.116 629.648 420.628C638.653 416.141 698.471 343.309 689.56 279.903Z" fill="#D05791"/>
<path fill-rule="evenodd" clip-rule="evenodd" d="M705.609 266.212C707.77 265.753 709.894 267.132 710.354 269.293L711.828 276.224C731.915 287.603 782.697 322.904 805.294 398.729C807.668 406.694 806.056 411.365 804.768 415.098C803.887 417.651 803.158 419.765 803.959 422.193L788.207 429.012C787.948 427.172 785.686 426.063 782.768 424.632C778.524 422.551 772.893 419.789 770.016 413.111C767.289 406.781 763.495 398.93 759.057 390.227C760.462 402.382 759.726 413.846 756.01 423.778C746.737 448.557 670.908 433.469 660.056 411.045C654.265 399.08 658.504 387.755 664.11 372.777C671.227 353.765 680.548 328.867 674.353 289.3L671.838 277.475C671.379 275.314 672.758 273.19 674.919 272.731L705.609 266.212Z" fill="#B6286C"/>
</svg>
