<svg width="100" height="100" viewBox="0 0 100 100" fill="none" xmlns="http://www.w3.org/2000/svg">
<path d="M55.5044 31.0999C55.5044 29.5228 54.3565 28.2437 52.9398 28.2437H47.0586C45.6419 28.2437 44.4961 29.5228 44.4961 31.0999V34.1312H55.5065V31.0999H55.5044Z" fill="#E30425"/>
<path d="M60.8648 41.627H39.0482C37.3961 41.627 36.0586 42.9665 36.0586 44.6165V66.4353C36.0586 68.0874 37.3961 69.4228 39.0482 69.4228H60.8648C62.5169 69.4228 63.8544 68.0874 63.8544 66.4353V44.6165C63.8523 42.9665 62.5169 41.627 60.8648 41.627ZM53.0128 55.8415C52.9961 55.8686 53.0023 55.8853 52.9836 55.9124C52.2836 56.9561 52.1628 57.7499 52.1482 58.0874V61.6332C52.1482 62.8311 51.1753 63.8019 49.9794 63.8019C48.7794 63.8019 47.8086 62.8311 47.8086 61.6332V58.1707C47.8086 56.6415 46.7086 55.5707 46.7086 55.5707L46.7523 55.5644C46.1565 54.8394 45.7669 53.9436 45.7669 52.929C45.7669 50.5915 47.6607 48.6978 49.9982 48.6978C52.3357 48.6978 54.2294 50.5915 54.2294 52.929C54.2315 54.0728 53.7523 55.0832 53.0128 55.8415Z" fill="#E30425"/>
<path d="M50 0C22.3854 0 0 22.3854 0 50C0 77.6146 22.3854 100 50 100C77.6146 100 100 77.6146 100 50C100 22.3854 77.6146 0 50 0ZM71.0667 71.7375C71.0667 74.2396 69.0396 76.2667 66.5354 76.2667H33.4646C30.9625 76.2667 28.9333 74.2396 28.9333 71.7375V38.6625C28.9333 36.1604 30.9625 34.1312 33.4646 34.1312H36.1208H40.4708V28.6771C40.4708 25.9458 42.4604 23.7333 44.9125 23.7333H55.0917C57.5437 23.7333 59.5333 25.9479 59.5333 28.6771V34.1312H66.5375C69.0417 34.1312 71.0687 36.1604 71.0687 38.6625V71.7375H71.0667Z" fill="#E30425"/>
</svg>
