<svg id="Layer_1" data-name="Layer 1" xmlns="http://www.w3.org/2000/svg" viewBox="0 0 316.11 301.08"><defs><style>.cls-1{fill:#f1eb62;}.cls-1,.cls-12,.cls-14{stroke:#fff;}.cls-2{fill:#f5f08d;}.cls-3{fill:#f7f3b2;}.cls-4{fill:#c1d8ef;fill-opacity:0.81;}.cls-4,.cls-5,.cls-6{stroke:#d2d2d4;}.cls-13,.cls-14,.cls-5{fill:#fff;}.cls-6{fill:#abbac7;}.cls-7{fill:#66308e;}.cls-8{fill:#9858a2;}.cls-9{fill:#902784;}.cls-10{fill:#6b2e8e;}.cls-11{fill:#a773b0;}.cls-15{fill:#5c1c56;}</style></defs><g id="light"><ellipse id="light-2" data-name="light" class="cls-1" cx="153.14" cy="241.04" rx="46.35" ry="59.54"/><ellipse id="light-3" data-name="light" class="cls-2" cx="153.14" cy="243.54" rx="33.2" ry="42.65"/><ellipse id="light-4" data-name="light" class="cls-3" cx="153.14" cy="236.26" rx="20.76" ry="26.67"/></g><g id="wing_right" data-name="wing right"><path class="cls-4" d="M809.44,531.06c-13.94,5.79-21.15,9.76-31.92,19.25l4.56,5.32c11-4.58,16.9-5.18,27.36-5.32,19.56-1.57,30.73-.48,50.91,4.06,16.77,3.41,39.37,19.62,38.51,21.27,0,0,13,12,23,21.79a11.77,11.77,0,0,0,7.85,1.77,10.15,10.15,0,0,0,4.81-4.31c2.84-16.35,1.49-25.23-7.6-40.52-8.85-12-15.14-17.74-30.14-25.08-17.79-6.13-27.92-8.1-46.36-7.6C835.92,522.42,826.89,524.39,809.44,531.06Z" transform="translate(-624.67 -373.69)"/><path class="cls-5" d="M870.32,530.43c-12.8-2.2-19.64-1.94-31.66-.76,21.87.57,33,3.23,50.79,11.9a84,84,0,0,1,18,14.7c5.83,6.81,8.36,10.87,11.27,18.74-4.39-7.53-7.31-11.77-16.33-19.5-9.27-6.71-14.78-10.21-27.74-13.94a100,100,0,0,0-28.5-4.56c-12.57.7-19.59,1.55-32,4.56a172.5,172.5,0,0,1,28.5-2.91c11.07.45,16.93,1.22,26.34,4.05,12.36,3.13,18.66,6.25,29.13,13.56,5.49,3.63,8.46,6.41,13.8,12.91,5.56,7.16,11,18.77,11.91,19.38s.74-16.45-10.13-32.29c-6.06-7.19-9.82-10.92-17.86-16.47C886.36,534.76,880.79,532.76,870.32,530.43Z" transform="translate(-624.67 -373.69)"/><path class="cls-6" d="M777.52,550.31,774.23,547c9.26-7.44,15.11-11.54,28.37-18.24C816,523,823.44,521,836.8,518.27c16.06-2.85,25.34-2.9,42.42,0,13.85,2.84,21.11,5.92,33.44,13.05,10.16,7.38,15.3,12.46,22.54,24.82,2.93,5.71,4.1,9.41,5.07,17.22a43.9,43.9,0,0,1-3.42,19.25l-2.41,2.54c1-4.81,1.26-6.25,1.78-8.61v-6.46a39.81,39.81,0,0,0-1.78-10.14A80.93,80.93,0,0,0,930,559.05a87.4,87.4,0,0,0-9.75-13.3A79.36,79.36,0,0,0,901,531.32c-12.19-5.47-19.59-7.91-34.7-9.25-12.91-.9-20.27-.63-33.19,1.52-.1-.45-17.44,4-28.62,9.75S787.22,542.17,777.52,550.31Z" transform="translate(-624.67 -373.69)"/></g><g id="wing_left" data-name="wing left"><path class="cls-4" d="M721.13,528.72c-18.25-2.7-28.54-2-46.94,2-15.77,5.49-22.7,10.43-32.93,21.29-10.85,14.09-13.26,22.75-12.4,39.32a10.08,10.08,0,0,0,4.26,4.85,11.71,11.71,0,0,0,8-.82c11.17-8.54,25.5-18.86,25.5-18.86-.66-1.74,23.71-15.13,40.77-16.51,20.58-2.08,31.8-1.83,51,2.08,10.37,1.39,16.19,2.69,26.53,8.56l5.16-4.74c-9.55-10.71-16.23-15.51-29.38-22.93C744.21,534.23,735.49,531.2,721.13,528.72Z" transform="translate(-624.67 -373.69)"/><path class="cls-5" d="M674,541.27c-8.65,4.55-12.84,7.8-19.71,14.21-12.69,14.43-14.92,31.34-13.93,30.85s7.77-11.38,14.15-17.81c6.08-5.82,9.36-8.23,15.25-11.17,11.26-6,17.9-8.34,30.54-10,9.68-1.68,15.59-1.74,26.64-.86a172,172,0,0,1,28,6.31c-12-4.49-18.88-6.18-31.27-8.37a99.9,99.9,0,0,0-28.84,1.11c-13.32,2.14-19.2,5-29.2,10.51-9.89,6.59-13.3,10.45-18.56,17.4,3.83-7.46,6.83-11.19,13.43-17.26a84.66,84.66,0,0,1,19.62-12.43c18.74-6.47,30.07-7.78,51.85-5.73-11.8-2.61-18.55-3.69-31.53-3C689.7,536.08,683.93,537.4,674,541.27Z" transform="translate(-624.67 -373.69)"/><path class="cls-6" d="M765.37,545.8c-10.41-7.07-27.09-13.55-27.25-13.11-12.57-3.68-19.84-4.83-32.76-5.49-15.17-.48-22.8,1.06-35.56,5a79.46,79.46,0,0,0-20.84,12,87.39,87.39,0,0,0-11.28,12,81.28,81.28,0,0,0-5.7,10.29,40,40,0,0,0-3,9.84l-.77,6.42c.23,2.4.36,3.87.73,8.76l-2.09-2.8a43.9,43.9,0,0,1-1.09-19.53c1.9-7.64,3.51-11.17,7.1-16.49,8.67-11.4,14.38-15.83,25.35-21.94,13.1-5.6,20.67-7.79,34.76-9,17.31-.82,26.52.34,42.13,5.09,12.93,4.26,20.12,7.21,32.69,14.53,12.35,8.24,17.68,13,26,21.51l-3.66,2.87C781.47,556.64,775.78,552.88,765.37,545.8Z" transform="translate(-624.67 -373.69)"/></g><g id="hand_right_3" data-name="hand right 3"><ellipse class="cls-7" cx="823.39" cy="586.69" rx="1.4" ry="6.56" transform="translate(-741.92 -157.65) rotate(-13.96)"/><path class="cls-8" d="M823.53,584.08c-1,1.24-7.76-2.56-15.11-8.49s-13.74-11.7-12.74-12.94,9,2.52,16.37,8.45S824.53,582.84,823.53,584.08Z" transform="translate(-624.67 -373.69)"/></g><g id="hand_left_3" data-name="hand left 3"><ellipse class="cls-7" cx="728.86" cy="584.95" rx="6.56" ry="1.4" transform="translate(-658.6 751.21) rotate(-74.04)"/><path class="cls-8" d="M740.74,569.76c7.54-5.67,15.69-9.15,16.65-7.87s-5.64,6.81-13.19,12.48-14.43,9.24-15.39,8S733.19,575.43,740.74,569.76Z" transform="translate(-624.67 -373.69)"/></g><g id="hand_right_2" data-name="hand right 2"><ellipse class="cls-7" cx="835.66" cy="581.64" rx="2.28" ry="10.64" transform="matrix(0.99, -0.13, 0.13, 0.99, -694.83, -256.94)"/><path class="cls-8" d="M836.35,577.46c-1.84,1.82-12.08-5.51-22.87-16.39s-20.09-21.31-18.25-23.14,14.11,5.67,24.9,16.54S838.19,575.63,836.35,577.46Z" transform="translate(-624.67 -373.69)"/></g><g id="hand_left_2" data-name="hand left 2"><ellipse class="cls-7" cx="715.94" cy="583.03" rx="10.64" ry="2.28" transform="translate(-582.1 841.05) rotate(-82.33)"/><path class="cls-8" d="M731.47,555.86c10.79-10.87,23.07-18.36,24.91-16.54s-7.47,12.27-18.26,23.14-21,18.21-22.87,16.39S720.68,566.73,731.47,555.86Z" transform="translate(-624.67 -373.69)"/></g><g id="hand_right_1" data-name="hand right 1"><ellipse class="cls-7" cx="826.56" cy="540.32" rx="1.4" ry="6.56" transform="translate(-758.52 396.33) rotate(-46.62)"/><path class="cls-8" d="M825.27,538.05c-.18,1.59-7.92,2-17.31,1s-17.88-2.43-17.71-4,9-2.75,18.34-1.72S825.44,536.47,825.27,538.05Z" transform="translate(-624.67 -373.69)"/></g><g id="hand_left_1" data-name="hand left 1"><ellipse class="cls-7" cx="721.63" cy="552.45" rx="6.56" ry="1.4" transform="translate(-698.19 618.85) rotate(-66.4)"/><path class="cls-8" d="M735.43,539c8.23-4.61,16.77-7,17.55-5.58s-6.49,6-14.73,10.62-15.54,7.23-16.32,5.84S727.2,543.59,735.43,539Z" transform="translate(-624.67 -373.69)"/></g><ellipse id="body_2" data-name="body 2" class="cls-9" cx="149.94" cy="184.01" rx="25.19" ry="24.8"/><ellipse id="body_1" data-name="body 1" class="cls-10" cx="149.94" cy="160.34" rx="21.92" ry="21.61"/><path id="head" class="cls-11" d="M819.52,499.3c0,18.65-19.07,33.77-42.6,33.78S734.3,518,734.29,499.32s18.57-37.54,42.11-37.55S819.52,480.65,819.52,499.3Z" transform="translate(-624.67 -373.69)"/><path id="right_antenna" data-name="right antenna" class="cls-12" d="M785.53,460.63l-3.78-.35c6.94-16.56,11.5-22.85,16.27-30.56s11.68-18.11,19.07-26c4.48-5,24.63-26.18,28-27.4s4.75.95,4.75.95-33.34,30.55-43,43.73C797.35,435.07,792.25,443.28,785.53,460.63Z" transform="translate(-624.67 -373.69)"/><path id="left_antenna" data-name="left antenna" class="cls-12" d="M727.74,377.92c-1.9-2.13-.62-3.44,3.35-3.71,10.75,12,14.09,18,18.49,24.71a142.91,142.91,0,0,1,12.25,23.93c2.3,5.41,12.78,34.14,12.78,34.14l-2.47,2.54s-11.92-37.68-18.89-50.32C745.51,396.24,739.2,390,727.74,377.92Z" transform="translate(-624.67 -373.69)"/><g id="left_eye" data-name="left eye"><ellipse class="cls-13" cx="754.08" cy="469.84" rx="25.33" ry="24.82" transform="translate(-755.53 16.99) rotate(-26.81)"/><path d="M730.92,447.15a10.29,10.29,0,0,0,2.87,4.66l1.21,1.06-1.31,1.75a25.34,25.34,0,0,0-2.16,26.75c.6,1.14,1,1.74.83,1.38s-.59-1.67-1-2.84A15.84,15.84,0,0,1,731,469a25.5,25.5,0,0,1,8.44-12.43,32,32,0,0,1,8.83-4.33,24.41,24.41,0,0,1,28.68,15,16.08,16.08,0,0,1,.08,12.55c-1.18,3.38-.92,3.3.5-.15A25.52,25.52,0,0,0,748.75,445a21.15,21.15,0,0,0-4.68,1.5c-2.14.89-2.28.88-3.7-.54l-.92-.9.13.75a5,5,0,0,0,.64,1.48c.42.61.46.81.16,1.07-.66.58-2.15-.11-3.85-1.8-.86-.85-1-.94-1-.54a9.91,9.91,0,0,0,1.88,3.56c.44.38.49.54.27.79-.62.67-3.7-.91-5.8-3L730.56,446Z" transform="translate(-624.67 -373.69)"/><path d="M741.85,462.42a17.48,17.48,0,0,0-6,10.05,16,16,0,0,0,2,11.38,16.56,16.56,0,0,0,21.34,7,15.69,15.69,0,0,0,6.63-5.29,13.24,13.24,0,0,0,2.43-4.86,16.68,16.68,0,0,0-6.13-18.81A16.81,16.81,0,0,0,741.85,462.42ZM753,471.23a4.42,4.42,0,0,1,2.84,7,4.31,4.31,0,0,1-6.27.67A4.38,4.38,0,0,1,753,471.23Z" transform="translate(-624.67 -373.69)"/><path class="cls-13" d="M745.54,470.24c-1.31,2.15-2.91,6.83-5.24,5.41s-.63-8.42.68-10.57,5.8-2.09,8.13-.67S746.85,468.1,745.54,470.24Z" transform="translate(-624.67 -373.69)"/></g><g id="right_eye" data-name="right eye"><ellipse class="cls-13" cx="804.34" cy="470.01" rx="25.33" ry="24.82" transform="translate(-735.93 -75.57) rotate(-19.67)"/><path d="M784.17,444.62a10.4,10.4,0,0,0,2.28,5l1.07,1.2L786,452.38a25.32,25.32,0,0,0-5.46,26.26c.45,1.21.76,1.85.65,1.48s-.38-1.73-.67-2.95a15.87,15.87,0,0,1,1-10.83,25.57,25.57,0,0,1,9.92-11.29,31.58,31.58,0,0,1,9.31-3.19,24.4,24.4,0,0,1,26.59,18.4,16.1,16.1,0,0,1-1.48,12.46c-1.59,3.21-1.32,3.17.51-.08a25.51,25.51,0,0,0-24.2-38,21.07,21.07,0,0,0-4.83.9c-2.23.61-2.37.59-3.61-1l-.8-1,0,.76a5,5,0,0,0,.45,1.55c.34.65.36.85,0,1.08-.73.49-2.12-.38-3.6-2.27-.75-.94-.92-1.06-.9-.66a9.79,9.79,0,0,0,1.42,3.77c.39.43.42.6.17.82-.7.58-3.56-1.37-5.38-3.72L784,443.4Z" transform="translate(-624.67 -373.69)"/><path d="M793.13,461.13a17.45,17.45,0,0,0-7.17,9.23,16.06,16.06,0,0,0,.55,11.54,16.55,16.55,0,0,0,20.3,9.61,15.78,15.78,0,0,0,7.24-4.42,13.44,13.44,0,0,0,3-4.52,16.67,16.67,0,0,0-3.74-19.43A16.78,16.78,0,0,0,793.13,461.13Zm10,10.13a4.42,4.42,0,0,1,1.95,7.27,4.3,4.3,0,0,1-6.3-.12A4.37,4.37,0,0,1,803.09,471.26Z" transform="translate(-624.67 -373.69)"/><path class="cls-13" d="M797.41,468.6c-1.71,1.85-4.2,6.13-6.2,4.27s1-8.38,2.74-10.23,6.1-.91,8.1.94S799.12,466.75,797.41,468.6Z" transform="translate(-624.67 -373.69)"/></g><g id="mouth"><path class="cls-14" d="M779.45,514.44c-7.79-.52-12.92-1.59-24.51-5.94,9.48,5.51,15.1,7.62,26.16,8.06,9.8-1.31,14.5-4,22.64-9.26C795.7,511.36,790.69,513.19,779.45,514.44Z" transform="translate(-624.67 -373.69)"/><path class="cls-15" d="M753.42,507.6A67,67,0,0,0,758.6,513,39.21,39.21,0,0,0,769.19,520c9.23,3.6,17.84,2.28,26.41-4.07a48.16,48.16,0,0,0,5.69-4.85c1.73-1.62,3.57-3.94,3.39-4.2a8.78,8.78,0,0,0-2.94.17c-17.23,2.5-27.24,2.81-40.49,1.28A65.15,65.15,0,0,0,753.42,507.6Zm5.59,2.3c1.5.59,4.16,1.49,5.91,2a77.94,77.94,0,0,0,17.15,2A49.65,49.65,0,0,0,801.24,509l1.7-.87-1.73,1.23a46.69,46.69,0,0,1-14.7,6.14,40.43,40.43,0,0,1-20-1.79A66,66,0,0,1,756,509C755.05,508.38,755.34,508.46,759,509.9Z" transform="translate(-624.67 -373.69)"/></g></svg>