<svg width="118" height="156" viewBox="0 0 118 156" fill="none" xmlns="http://www.w3.org/2000/svg">
<rect width="118" height="156" rx="50" fill="#720D5D"/>
<path d="M43.6667 140.167C43.6667 142.458 45.5417 144.333 47.8333 144.333L64.5 144.333C66.7917 144.333 68.6667 142.458 68.6667 140.167L68.6667 136L43.6667 136L43.6667 140.167ZM56.1667 61C40.0833 61 27 74.0833 27 90.1667C27 100.083 31.9583 108.792 39.5 114.083L39.5 123.5C39.5 125.792 41.375 127.667 43.6667 127.667L68.6667 127.667C70.9583 127.667 72.8333 125.792 72.8333 123.5L72.8333 114.083C80.375 108.792 85.3333 100.083 85.3333 90.1667C85.3333 74.0833 72.25 61 56.1667 61ZM68.0417 107.25L64.5 109.75L64.5 119.333L47.8333 119.333L47.8333 109.75L44.2917 107.25C38.6667 103.333 35.3333 96.9583 35.3333 90.1667C35.3333 78.6667 44.6667 69.3333 56.1667 69.3333C67.6667 69.3333 77 78.6667 77 90.1667C77 96.9583 73.6667 103.333 68.0417 107.25Z" fill="white"/>
<path fill-rule="evenodd" clip-rule="evenodd" d="M18.318 33.462L68.3235 18.4574L108.012 52.3769L101.134 84.9929C103.426 74.1209 107.31 52.3769 104.5 52.3769L89.8296 57.8257L84.671 82.2876L52.8477 91.8434L27.593 70.2509L32.7517 45.7889L18.318 33.462ZM59.9666 58.0859L90.97 48.783L66.3633 27.753L35.3598 37.0558L59.9666 58.0859ZM54.808 82.5478L77.5401 75.7165L80.7385 60.55L58.0063 67.3814L39.9685 51.9524L36.7702 67.1188L54.808 82.5478Z" fill="black"/>
<path d="M92.9798 83.2733L101.134 84.9929C103.426 74.1209 107.31 52.3769 104.5 52.3769L98.7399 67.8251L92.9798 83.2733Z" fill="black"/>
<path d="M108 52.5H104.5L92.5 83L101 85L108 52.5Z" fill="#FF0000" stroke="#FF0000"/>
<path d="M34 37L59 60L92.5 49L67 26.5L34 37Z" fill="#1F1F1F" stroke="black"/>
</svg>
