<svg width="100" height="100" viewBox="0 0 100 100" fill="none" xmlns="http://www.w3.org/2000/svg">
<g clip-path="url(#clip0)">
<path fill-rule="evenodd" clip-rule="evenodd" d="M20.7695 86.6067V13.3933C20.7695 11.52 22.2895 10 24.1629 10H53.8273L79.2273 35.4V86.6067C79.2273 88.48 77.7073 90 75.834 90H24.1629C22.2895 90 20.7695 88.48 20.7695 86.6067Z" fill="#E30425"/>
<path fill-rule="evenodd" clip-rule="evenodd" d="M53.8281 9.99941L79.2281 35.3994H57.2215C55.3481 35.3994 53.8281 33.8794 53.8281 32.0061V9.99941Z" fill="#F0CCE2"/>
<path d="M39.9813 70.049C41.2013 71.2068 41.8102 72.7357 41.8102 74.6423C41.8102 76.5468 41.2013 78.0757 39.9813 79.2335C38.7613 80.389 37.2635 80.9668 35.488 80.9668C33.7146 80.9668 32.2169 80.389 30.9969 79.2335C29.7769 78.0757 29.168 76.5468 29.168 74.6423C29.168 72.7357 29.7769 71.2068 30.9969 70.049C32.2169 68.8935 33.7146 68.3157 35.488 68.3157C37.2635 68.3157 38.7613 68.8935 39.9813 70.049ZM38.7369 78.0935C39.6124 77.2223 40.0502 76.0601 40.0502 74.6023C40.0502 73.1446 39.6124 71.9823 38.7369 71.1112C37.8613 70.2423 36.7791 69.8068 35.488 69.8068C34.1991 69.8068 33.1169 70.2423 32.2413 71.1112C31.3657 71.9823 30.928 73.1446 30.928 74.6023C30.928 76.0468 31.3657 77.209 32.2413 78.0846C33.1169 78.9601 34.1991 79.3979 35.488 79.3979C36.7791 79.3979 37.8613 78.9624 38.7369 78.0935Z" fill="#E6E6E6"/>
<path d="M51.2176 68.4976V69.9376H47.7665V80.751H46.0509V69.9376H42.582V68.4976H51.2176Z" fill="#E6E6E6"/>
<path d="M60.3065 71.991C60.3065 73.0776 59.9109 73.9554 59.1198 74.6199C58.442 75.1976 57.4532 75.4888 56.1532 75.4954H54.4287V80.751H52.7109V68.4976H56.1532C57.4532 68.4976 58.442 68.7865 59.1198 69.3643C59.9109 70.0532 60.3065 70.9288 60.3065 71.991ZM57.7843 73.631C58.2798 73.2621 58.5287 72.7154 58.5287 71.991C58.5287 71.2688 58.2798 70.731 57.7843 70.3799C57.3332 70.0621 56.742 69.9021 56.0154 69.9021H54.4287V74.091H56.0154C56.7487 74.091 57.3376 73.9376 57.7843 73.631Z" fill="#E6E6E6"/>
</g>
<defs>
<clipPath id="clip0">
<rect width="100" height="100" fill="white"/>
</clipPath>
</defs>
</svg>
