<svg width="33" height="36" viewBox="0 0 33 36" fill="none" xmlns="http://www.w3.org/2000/svg">
<path fill-rule="evenodd" clip-rule="evenodd" d="M26.125 11.7382L20.625 17.6073H24.75C24.75 22.4639 21.0513 26.4108 16.5 26.4108C15.1112 26.4108 13.7913 26.044 12.65 25.3838L10.6425 27.526C12.3337 28.6704 14.3413 29.3454 16.5 29.3454C22.5775 29.3454 27.5 24.0926 27.5 17.6073H31.625L26.125 11.7382ZM8.25 17.6073C8.25 12.7506 11.9488 8.80367 16.5 8.80367C17.8888 8.80367 19.2087 9.17049 20.35 9.83076L22.3575 7.68855C20.6663 6.54408 18.6588 5.86914 16.5 5.86914C10.4225 5.86914 5.5 11.1219 5.5 17.6073H1.375L6.875 23.4763L12.375 17.6073H8.25Z" fill="white" fill-opacity="0.87"/>
</svg>
