<svg width="1011" height="808" viewBox="0 0 1011 808" fill="none" xmlns="http://www.w3.org/2000/svg">
<path fill-rule="evenodd" clip-rule="evenodd" d="M694 247C723.271 247 747 223.271 747 194C747 164.729 723.271 141 694 141C664.729 141 641 164.729 641 194C641 223.271 664.729 247 694 247Z" fill="#F2F2F2"/>
<path fill-rule="evenodd" clip-rule="evenodd" d="M694 155C695.657 155 697 153.657 697 152C697 150.343 695.657 149 694 149C692.343 149 691 150.343 691 152C691 153.657 692.343 155 694 155Z" fill="black" fill-opacity="0.1"/>
<path fill-rule="evenodd" clip-rule="evenodd" d="M652 197C653.657 197 655 195.657 655 194C655 192.343 653.657 191 652 191C650.343 191 649 192.343 649 194C649 195.657 650.343 197 652 197Z" fill="black" fill-opacity="0.1"/>
<path fill-rule="evenodd" clip-rule="evenodd" d="M736 197C737.657 197 739 195.657 739 194C739 192.343 737.657 191 736 191C734.343 191 733 192.343 733 194C733 195.657 734.343 197 736 197Z" fill="black" fill-opacity="0.1"/>
<path fill-rule="evenodd" clip-rule="evenodd" d="M694 239C695.657 239 697 237.657 697 236C697 234.343 695.657 233 694 233C692.343 233 691 234.343 691 236C691 237.657 692.343 239 694 239Z" fill="black" fill-opacity="0.1"/>
<path fill-rule="evenodd" clip-rule="evenodd" d="M694 158L696 193H692L694 158Z" fill="#AFB9C5"/>
<path fill-rule="evenodd" clip-rule="evenodd" d="M711.699 211.698L693.314 196.142L696.143 193.314L711.699 211.698Z" fill="#AFB9C5"/>
<path fill-rule="evenodd" clip-rule="evenodd" d="M694 198C696.209 198 698 196.209 698 194C698 191.791 696.209 190 694 190C691.791 190 690 191.791 690 194C690 196.209 691.791 198 694 198Z" fill="#C5CFD6"/>
<g opacity="0.345889" clip-path="url(#clip0)">
<path fill-rule="evenodd" clip-rule="evenodd" d="M760.307 484.966C749.797 395.227 185.901 222.021 81.2155 307.02C-23.4698 392.019 77.1721 551.54 296.554 592.39C515.936 633.239 770.816 574.705 760.307 484.966Z" fill="#F2F2F2"/>
<path fill-rule="evenodd" clip-rule="evenodd" d="M283.848 543.275C293.553 467.038 814.28 319.893 910.951 392.103C1007.62 464.313 983.153 616.198 780.566 650.901C577.979 685.604 274.143 619.511 283.848 543.275Z" fill="#DDE3E9"/>
</g>
<path fill-rule="evenodd" clip-rule="evenodd" d="M210.5 209.673C233.972 209.673 253 199.6 253 187.173C253 174.747 233.972 164.673 210.5 164.673C187.028 164.673 168 174.747 168 187.173C168 199.6 187.028 209.673 210.5 209.673Z" fill="#F2F2F2"/>
<path fill-rule="evenodd" clip-rule="evenodd" d="M260 202.673C260 175.059 237.838 152.673 210.5 152.673C183.162 152.673 161 175.059 161 202.673" fill="#DDE3E9"/>
<rect x="208" width="5" height="160" fill="#DDE3E9"/>
<g opacity="0.7">
<path fill-rule="evenodd" clip-rule="evenodd" d="M287.998 159C305.543 159 319.766 150.87 319.766 140.842C319.766 130.814 305.543 122.684 287.998 122.684C270.453 122.684 256.23 130.814 256.23 140.842C256.23 150.87 270.453 159 287.998 159Z" fill="#F2F2F2"/>
<path fill-rule="evenodd" clip-rule="evenodd" d="M325 153.351C325 131.066 308.435 113 288 113C267.565 113 251 131.066 251 153.351" fill="#DDE3E9"/>
<rect x="286" width="5" height="136" fill="#DDE3E9"/>
</g>
<path d="M775.898 346.236L814.323 324.27C816.783 322.863 819.804 322.863 822.264 324.27L914.839 377.192C919.823 380.041 922.898 385.342 922.898 391.082V716" stroke="#CBCBCB" stroke-width="8"/>
<rect x="892.898" y="715" width="59" height="7" rx="3" fill="#AFB9C5"/>
<path d="M740.396 335.335C753.283 322.447 774.178 322.447 787.065 335.335V335.335C799.952 348.222 799.952 369.116 787.065 382.004L767.266 401.803L720.597 355.134L740.396 335.335Z" fill="#E0CBE0"/>
<path fill-rule="evenodd" clip-rule="evenodd" d="M740.127 382.527C753.014 395.414 765.519 403.804 768.057 401.265C770.596 398.727 762.206 386.222 749.319 373.335C736.432 360.447 723.927 352.058 721.388 354.596C718.85 357.135 727.239 369.64 740.127 382.527Z" fill="#F2F2F2"/>
<path fill-rule="evenodd" clip-rule="evenodd" d="M199.258 484.173C202.123 483.823 205.18 483.947 207.844 485.077C213.509 487.482 215.119 494.174 215.041 499.614C214.957 505.468 213.714 511.863 218.165 516.58C220.211 518.748 222.756 520.408 224.765 522.617C226.912 524.977 228.597 527.677 229.844 530.577C232.134 535.903 233.258 542.167 231.164 547.754C229.32 552.674 224.681 557.114 225.683 562.708C226.729 568.543 232.612 573.004 236.29 577.351C240.453 582.269 244.286 588.556 244.916 595.006C245.519 601.188 242.828 607.44 238.699 612.113C230.448 621.451 218.045 626.028 205.54 626C200.23 625.988 194.219 625.748 189.637 622.895C188.22 622.013 187.473 621.023 186.631 619.648C185.877 618.414 184.88 617.612 183.725 616.739C181.19 614.822 179.359 612.239 178.19 609.347C173.652 598.114 177.279 584.218 183.631 574.243C185.136 571.88 186.369 569.605 185.637 566.789C184.874 563.848 182.999 561.196 181.34 558.669C179.701 556.17 177.83 553.787 176.549 551.087C175.207 548.257 174.829 545.294 175.066 542.198C175.512 536.381 178.023 531.013 181.578 526.336C185.002 521.83 189.022 517.518 189.031 511.615C189.041 505.357 184.858 499.791 186.64 493.429C187.378 490.795 188.86 488.092 191.249 486.513C193.539 484.998 196.564 484.502 199.258 484.173Z" fill="#DDE3E9"/>
<path fill-rule="evenodd" clip-rule="evenodd" d="M197.386 494.176C197.44 493.336 198.437 492.832 199.222 493.051C200.254 493.34 200.235 494.305 200.207 495.165C200.124 497.808 200.506 500.377 201.142 502.942C202.462 508.274 204.903 513.186 206.836 518.308C208.768 523.425 209.675 528.709 208.542 534.124C207.473 539.23 205.795 544.203 204.701 549.315C203.738 553.821 202.712 558.573 204.18 563.067C205.592 567.393 208.714 570.916 210.962 574.825C215.617 582.918 217.681 591.896 217.957 601.135C218.085 605.425 217.97 609.755 216.975 613.963C216.402 616.386 215.632 619.66 213.556 621.333C212.599 622.105 210.961 622.371 210.155 621.229C209.399 620.158 210.062 618.499 210.303 617.357C211.343 612.413 211.552 607.361 211.303 602.342C211.062 597.48 210.487 592.626 208.957 587.982C207.537 583.673 205.379 579.802 202.84 576.032C200.252 572.191 197.562 568.341 196.493 563.789C195.406 559.166 196.289 554.462 197.469 549.927C198.717 545.131 200.352 540.472 202.042 535.805C203.689 531.258 204.272 526.955 203.363 522.196C201.567 512.794 196.76 503.968 197.386 494.176Z" fill="#C5CFD6"/>
<path fill-rule="evenodd" clip-rule="evenodd" d="M274.892 495.582C278.437 496.659 281.958 498.395 284.485 501.118C289.858 506.909 288.209 515.661 285.243 522.053C282.05 528.933 277.212 535.849 279.94 543.743C281.193 547.372 283.301 550.659 284.49 554.316C285.761 558.224 286.309 562.294 286.239 566.372C286.11 573.862 284.118 581.855 278.708 587.373C273.945 592.232 266.158 595.07 264.377 602.206C262.518 609.651 267.061 617.988 269.078 625.041C271.36 633.024 272.533 642.453 269.862 650.409C267.303 658.034 260.842 664.028 253.528 667.406C238.915 674.156 221.949 673.117 207.296 666.578C201.075 663.801 194.151 660.391 190.285 654.633C189.09 652.853 188.736 651.294 188.476 649.23C188.243 647.378 187.497 645.911 186.605 644.278C184.644 640.692 183.862 636.684 184.02 632.656C184.634 617.011 196.234 602.464 208.956 593.972C211.971 591.96 214.618 589.912 215.249 586.2C215.909 582.325 215.111 578.213 214.501 574.361C213.899 570.554 212.964 566.763 212.889 562.902C212.811 558.858 213.933 555.157 215.848 551.619C219.445 544.972 225.227 539.93 231.87 536.247C238.267 532.7 245.262 529.692 248.393 522.715C251.712 515.32 249.747 506.561 255.2 499.964C257.458 497.233 260.625 494.807 264.262 494.182C267.749 493.583 271.558 494.57 274.892 495.582Z" fill="#DDE3E9"/>
<path fill-rule="evenodd" clip-rule="evenodd" d="M267.651 507.811C268.154 506.844 269.584 506.769 270.387 507.44C271.443 508.324 270.914 509.456 270.432 510.46C268.95 513.547 268.052 516.789 267.452 520.159C266.204 527.166 266.485 534.262 266.063 541.341C265.642 548.414 263.935 555.147 259.774 560.965C255.85 566.452 251.283 571.462 247.327 576.943C243.841 581.773 240.153 586.863 239.516 592.954C238.901 598.817 240.707 604.626 241.288 610.434C242.492 622.457 240.204 634.171 235.688 645.257C233.591 650.405 231.189 655.472 227.821 659.933C225.882 662.503 223.267 665.977 219.963 666.869C218.44 667.281 216.385 666.739 216.042 664.964C215.718 663.298 217.363 661.682 218.242 660.455C222.047 655.146 224.938 649.273 227.275 643.198C229.54 637.314 231.41 631.265 232.053 624.963C232.649 619.116 232.153 613.401 231.158 607.606C230.144 601.701 229.015 595.732 230.149 589.781C231.3 583.736 234.795 578.628 238.55 573.876C242.521 568.85 246.873 564.19 251.293 559.549C255.6 555.027 258.536 550.238 259.966 544.126C262.79 532.049 261.791 519.078 267.651 507.811Z" fill="#C5CFD6"/>
<path fill-rule="evenodd" clip-rule="evenodd" d="M165.306 540C171.2 540 176.382 543.124 179.953 547.558C184.133 552.748 184.977 559.086 186.675 565.272C187.519 568.35 188.972 571.406 191.517 573.498C193.833 575.4 196.772 575.78 199.543 576.71C205.082 578.567 209.555 583.041 211.321 588.499C213.476 595.158 211.193 601.873 211.586 608.622C211.947 614.819 218.058 618.685 222.974 621.656C227.821 624.586 232.189 627.328 233.649 633.035C235.197 639.088 235.716 645.844 233.572 651.823C230.002 661.779 219.552 666.163 209.456 666.842C200.293 667.459 188.772 666.491 181.891 659.84C177.773 655.86 176.282 650.293 176.467 644.755C176.582 641.311 177.264 637.899 178.146 634.571C178.771 632.213 179.616 629.864 179.856 627.427C180.496 620.942 174.503 619.697 169.401 617.916C162.918 615.654 158.38 611.38 155.224 605.425C152.285 599.881 151.052 593.658 152.814 587.554C153.714 584.437 155.346 581.61 157.559 579.205C158.533 578.146 159.907 577.263 160.786 576.151C161.607 575.112 161.428 573.766 161.145 572.55C159.837 566.931 155.762 562.278 154.305 556.668C152.989 551.605 153.767 545.304 158.395 542.038C160.395 540.627 162.862 540.016 165.306 540Z" fill="#C5CFD6"/>
<path fill-rule="evenodd" clip-rule="evenodd" d="M173.338 554.641C179.585 561.296 181.283 570.325 181.781 579.076C182.061 583.983 181.77 589.159 183.212 593.919C184.445 597.993 187.337 601.107 190.318 604.051C196.319 609.975 203.011 615.999 204.766 624.574C205.796 629.606 205.101 634.804 206.524 639.78C207.817 644.304 210.096 648.748 212.867 652.568C215.098 655.645 218.004 658 220.443 660.867C221.187 661.743 222.253 663.031 221.946 664.267C221.586 665.714 219.743 666.172 218.435 665.945C215.386 665.415 212.819 662.503 210.825 660.386C207.91 657.291 205.432 653.962 203.419 650.227C201.183 646.08 199.383 641.679 198.614 637.026C197.816 632.199 198.213 627.168 196.391 622.535C193.324 614.74 185.886 610.14 180.508 604.064C173.808 596.494 174.807 587.072 175.493 577.759C175.87 572.641 176.245 566.862 173.659 562.189C172.672 560.406 170.471 558.743 170.047 556.715C169.658 554.858 171.78 552.981 173.338 554.641Z" fill="#AFB9C5"/>
<path fill-rule="evenodd" clip-rule="evenodd" d="M180 664C180 702.058 186.211 722 219 722C251.789 722 258 702.058 258 664H180Z" fill="#CB9ABC"/>
<rect x="315" y="609" width="38" height="9" rx="2" fill="#AFB9C5"/>
<path fill-rule="evenodd" clip-rule="evenodd" d="M332.217 536H334H335H336.783C337.301 551.419 339.707 566.085 344 580H350.5C359.06 580 366 586.94 366 595.5C366 604.06 359.06 611 350.5 611H317.5C308.94 611 302 604.06 302 595.5C302 586.94 308.94 580 317.5 580H325C331.44 559.128 332.217 536 332.217 536Z" fill="#DDE3E9"/>
<path fill-rule="evenodd" clip-rule="evenodd" d="M298.622 466.679C298.622 466.679 315.811 465 333 465C350.189 465 367.378 466.679 367.378 466.679L372 546.133C372 546.133 352.5 548 333 548C313.5 548 294 546.133 294 546.133L298.622 466.679Z" fill="#C5CFD6"/>
<path fill-rule="evenodd" clip-rule="evenodd" d="M271 722V640V618H292H375H396V640V722H375V640H292V722H271Z" fill="#F2F2F2"/>
<path fill-rule="evenodd" clip-rule="evenodd" d="M689.381 440.208C698.214 461.197 713.229 475.781 721.182 497.605C725.898 510.547 727.864 524.62 727.983 539.032C728.048 546.86 727.911 554.694 727.875 562.522C727.839 570.156 727.632 577.741 726.984 585.327C726.332 592.952 725.603 600.487 725.282 608.159C725.031 614.137 724.917 621.091 722.891 626.544C721.279 630.881 717.183 631.516 716.097 626.256C715.493 623.333 715.569 620.068 715.636 617.063C715.721 613.208 715.945 609.359 716.06 605.504C716.519 590.036 715.923 574.566 716.235 559.092C716.539 543.973 718.482 528.871 716.332 513.853C714.556 501.452 710.046 490.802 704.862 480.593C699.874 470.771 694.445 461.187 691.075 450.014C690.107 446.806 689.359 443.481 689 440.03C689.157 439.957 689.284 440.016 689.381 440.208Z" fill="#C1DEE2"/>
<path fill-rule="evenodd" clip-rule="evenodd" d="M686.974 481.617C688.723 482.88 689.7 484.728 690.882 486.551C692.352 488.817 694.081 490.863 695.551 493.131C698.615 497.86 701.308 502.879 704.102 507.799C709.406 517.137 713.433 527.091 715.427 537.895C717.495 549.092 718.052 560.648 718.919 572.012C719.839 584.056 720.765 596.188 720.887 608.279C720.942 613.696 721.235 619.446 720.584 624.825C720.179 628.173 718.668 631.027 715.261 631C708.025 630.942 704.627 622.927 703.208 616.354C701.119 606.674 700.702 596.393 701.033 586.494C701.432 574.558 703.504 562.802 704.4 550.912C705.35 538.325 704.814 525.96 700.486 514.109C698.3 508.12 695.763 502.274 693.484 496.325C692.514 493.792 691.719 491.19 690.409 488.831C688.951 486.208 687.142 483.826 686 481C686.324 481.206 686.649 481.411 686.974 481.617Z" fill="#89C5CC"/>
<path fill-rule="evenodd" clip-rule="evenodd" d="M770.334 456.518C770.556 456.345 770.778 456.173 771 456C770.361 458.693 769.207 460.88 768.324 463.341C767.531 465.554 767.129 468.058 766.595 470.477C765.34 476.158 763.89 481.711 762.706 487.44C760.36 498.777 760.804 510.99 762.342 523.568C763.795 535.45 766.092 547.313 767.187 559.192C768.095 569.043 768.485 579.202 767.619 588.601C767.031 594.984 765.103 602.606 759.848 601.962C757.374 601.659 756.084 598.681 755.564 595.32C754.729 589.922 754.554 584.246 754.229 578.878C753.502 566.896 753.358 554.951 753.214 543.092C753.078 531.904 752.705 520.494 753.452 509.587C754.173 499.063 756.428 489.58 759.653 480.83C761.351 476.22 762.97 471.502 764.878 467.108C765.793 465.001 766.911 463.139 767.827 461.033C768.563 459.339 769.148 457.601 770.334 456.518Z" fill="#C1DEE2"/>
<path fill-rule="evenodd" clip-rule="evenodd" d="M689.209 516.302C690.166 514.695 692.272 519.993 692.593 520.66C692.457 520.328 692.321 519.997 692.184 519.667C694.083 522.825 695.821 526.113 696.901 529.734C697.97 533.319 698.888 536.977 699.891 540.587C701.774 547.361 704.202 553.943 705.907 560.778C707.569 567.438 707.988 573.986 707.585 580.875C707.167 588.035 706.911 595.306 707.399 602.462C707.632 605.88 708.743 609.064 709.504 612.354C710.266 615.648 710.866 618.986 711.767 622.239C711.974 621.815 712 623.232 712 623.339C711.994 624.152 711.881 624.833 711.619 625.604C710.948 627.586 709.691 629.269 707.778 629.816C704.322 630.803 701.112 627.659 699.998 624.339C698.399 619.575 697.517 614.311 696.755 609.304C696.057 604.713 695.891 600.094 696.099 595.44C696.508 586.261 698.169 577.202 698.618 568.026C699.107 558.036 697.128 548.649 695.471 538.925C694.673 534.239 693.91 529.598 692.356 525.134C691.727 523.326 690.907 521.731 690.048 520.061C689.558 519.112 688.569 517.418 689.209 516.302Z" fill="#C1DEE2"/>
<path fill-rule="evenodd" clip-rule="evenodd" d="M717.252 500.697C716.856 512.142 716.172 523.5 714.646 534.824C713.089 546.38 711.3 557.897 709.802 569.463C708.343 580.722 706.815 592.168 707.018 603.585C707.168 611.993 705.774 626.219 715.113 630.369C724.572 634.572 726.601 616.623 727.222 610.699C728.412 599.333 728.027 587.847 727.449 576.419C726.856 564.689 725.866 553.02 724.64 541.334C723.277 528.353 722.208 515.314 721.349 502.296C720.925 495.857 720.82 489.429 720.937 482.988C721.048 476.911 720.817 470.77 718.656 465C718.543 465.082 718.431 465.164 718.318 465.246" fill="#69A1AC"/>
<path fill-rule="evenodd" clip-rule="evenodd" d="M766.083 536.955C764.382 539.433 762.667 541.887 761.061 544.512C758.186 549.209 755.587 554.432 754.805 561.147C753.169 575.2 754.481 590.379 754.798 604.863C754.863 607.822 754.489 610.693 755.655 613.51C756.713 616.064 758.691 618.01 760.576 618C764.611 617.977 763.995 608.095 764.002 603.746C764.014 596.123 763.159 588.422 763.233 580.806C763.306 573.26 763.765 565.694 764.859 558.528C765.967 551.275 767.589 544.309 769.729 537.81C770.026 536.908 772.158 529.937 770.144 531.139" fill="#89C5CC"/>
<path fill-rule="evenodd" clip-rule="evenodd" d="M748.262 462C745.609 462 745.625 475.226 745.546 476.925C745.257 483.055 745.325 489.188 745.143 495.319C744.744 508.701 744.254 522.2 742.243 535.426C741.161 542.547 739.907 549.636 738.557 556.702C737.204 563.789 735.387 570.867 734.497 578.044C733.642 584.943 734.125 591.977 734.242 598.91C734.359 605.885 734.57 612.874 735.484 619.788C735.709 621.494 735.974 623.195 736.257 624.891C736.492 626.305 736.355 628.058 736.754 629.401C737.393 631.552 740.133 632.256 741.978 631.92C746.97 631.009 750.159 624.74 751.865 620.16C754.043 614.311 755.199 607.967 756.339 601.804C757.631 594.821 758.388 587.732 758.743 580.623C759.466 566.175 758.539 551.712 757.504 537.31C756.928 529.301 756.263 521.327 755.246 513.367C754.232 505.441 752.932 497.55 752.086 489.601C751.471 483.825 750.865 478.04 750.467 472.241C750.371 470.859 750.291 462 748.262 462" fill="#69A1AC"/>
<path fill-rule="evenodd" clip-rule="evenodd" d="M744.941 558.139C744.508 544.253 738.927 483.259 737.657 466.467C737.339 462.264 734.282 444.765 733.885 440C732.81 441.347 732.901 462.309 732.913 467.126C732.926 471.891 732.335 476.576 732.031 481.315C731.721 486.151 724.572 548.601 723.645 553.247C721.799 562.491 720.564 571.976 719.611 581.428C718.683 590.639 717.24 600.358 718.482 609.618C718.767 611.75 719.219 613.848 719.955 615.806C720.749 617.922 721.294 619.879 721.932 622.093C722.958 625.659 724.815 628.789 727.668 630.262C733.517 633.281 736.658 626.447 738.251 620.497C740.793 610.995 742.426 601.338 743.191 591.359C744.037 580.318 745.287 569.255 744.941 558.139" fill="#89C5CC"/>
<rect x="683" y="599" width="91" height="91" rx="2" fill="white"/>
<rect x="673" y="609" width="10" height="113" rx="2" fill="#C5CFD6"/>
<rect x="723" y="609" width="10" height="113" rx="2" fill="#C5CFD6"/>
<rect x="774" y="609" width="10" height="113" rx="2" fill="#C5CFD6"/>
<path fill-rule="evenodd" clip-rule="evenodd" d="M637.164 468.686C630.909 472.457 624.762 474.278 621.877 473.535C614.643 471.67 613.977 445.203 619.575 434.769C625.173 424.335 653.951 419.787 655.401 440.46C655.904 447.635 652.892 454.039 648.44 459.263L656.422 496.464H633.238L637.164 468.686Z" fill="#B28B67"/>
<path fill-rule="evenodd" clip-rule="evenodd" d="M609.308 420.305C609.788 418.617 611.079 417.173 612.819 416.744C613.241 416.64 613.677 416.598 614.111 416.615C614.267 416.622 614.311 416.667 614.384 416.558C614.438 416.477 614.439 416.28 614.461 416.185C614.53 415.89 614.617 415.598 614.724 415.314C615.088 414.346 615.7 413.489 616.437 412.767C617.817 411.417 619.681 410.485 621.618 410.316C622.678 410.224 623.731 410.396 624.733 410.741C625.252 410.919 625.755 411.142 626.245 411.387C626.393 411.461 626.871 411.824 627.019 411.8C627.183 411.774 627.512 411.368 627.645 411.266C629.288 410.005 631.318 409.509 633.365 409.524C635.676 409.541 637.901 409.657 639.828 411.065C640.236 411.364 640.624 411.69 640.994 412.034C641.189 412.215 641.378 412.403 641.558 412.598C641.666 412.716 641.772 412.837 641.874 412.961C642.046 413.171 642.019 413.24 642.26 413.093C643.188 412.53 644.263 412.266 645.345 412.4C645.988 412.479 646.613 412.672 647.207 412.926C647.409 413.012 647.877 413.357 648.093 413.36C648.307 413.364 648.768 413.044 648.988 412.963C650.178 412.524 651.46 412.415 652.71 412.618C653.999 412.828 655.266 413.342 656.359 414.053C656.884 414.395 657.343 414.774 657.711 415.282C657.87 415.502 658.014 415.734 658.194 415.938C658.299 416.057 658.508 416.179 658.565 416.33C658.531 416.24 659.975 415.683 660.112 415.648C660.838 415.458 661.577 415.496 662.288 415.73C663.625 416.17 664.774 417.157 665.719 418.168C666.205 418.688 666.629 419.262 666.99 419.874C667.163 420.167 667.321 420.469 667.465 420.777C667.535 420.926 667.582 421.112 667.674 421.247C667.793 421.42 667.873 421.423 668.088 421.499C669.182 421.882 670.18 422.531 670.939 423.407C671.707 424.294 672.206 425.387 672.415 426.537C672.427 426.605 672.435 426.885 672.474 426.922C672.529 426.973 672.749 426.95 672.832 426.96C673.12 426.994 673.406 427.044 673.689 427.111C674.209 427.234 674.716 427.415 675.195 427.653C677.063 428.577 678.399 430.31 679.053 432.26C679.739 434.306 679.727 436.651 678.907 438.659C678.775 438.984 678.617 439.298 678.432 439.596C678.318 439.779 678.282 439.779 678.355 439.971C678.438 440.185 678.588 440.392 678.686 440.601C679.004 441.281 679.227 442.003 679.368 442.74C679.599 443.949 679.713 445.22 679.486 446.438C679.38 447.004 679.195 447.557 678.914 448.061C678.771 448.318 678.603 448.562 678.414 448.787C678.316 448.904 678.211 449.016 678.102 449.123C678.039 449.184 677.958 449.238 677.904 449.306C677.775 449.473 677.747 449.336 677.814 449.58C677.908 449.922 678.12 450.26 678.25 450.593C678.383 450.936 678.504 451.283 678.615 451.634C678.839 452.345 679.028 453.069 679.146 453.805C679.374 455.219 679.334 456.725 678.665 458.022C678.379 458.577 677.969 459.064 677.472 459.442C677.228 459.628 676.965 459.787 676.688 459.918C676.546 459.986 676.364 460.015 676.3 460.152C676.23 460.3 676.333 460.594 676.357 460.759C676.563 462.197 676.666 463.706 676.238 465.115C675.845 466.413 674.978 467.558 673.853 468.317C671.67 469.788 668.728 469.705 666.434 468.527C665.836 468.22 665.277 467.839 664.778 467.389C663.507 469.1 660.893 469.045 659.036 468.558C656.723 467.951 654.866 466.342 653.797 464.229C652.334 466.009 649.265 465.432 648.251 463.5C648.003 463.028 647.856 462.507 647.783 461.979C647.745 461.702 647.769 461.422 647.741 461.147C647.704 460.797 647.47 460.456 647.335 460.117C647.073 459.458 646.911 458.776 646.904 458.065C646.9 457.693 646.947 457.331 646.982 456.962C647.014 456.63 646.922 456.321 646.87 455.994C647.463 456.092 648.186 455.932 648.745 455.759C649.294 455.591 649.807 455.146 650.195 454.74C651.094 453.797 651.643 452.561 652.018 451.331C652.843 448.63 652.505 445.391 649.789 443.909C648.524 443.218 644.733 443.221 643.226 443.562C641.642 443.921 639.846 447.417 639.757 447.745C639.703 447.949 639.73 448.201 639.543 448.336C639.133 448.634 638.455 448.117 638.153 447.862C637.63 447.421 637.257 446.835 636.934 446.241C636.231 444.947 635.664 443.559 635.263 442.142C634.954 441.05 634.757 439.924 634.353 438.859C633.951 437.8 633.318 436.853 632.333 436.253C631.262 435.601 630.035 435.257 628.859 434.847C627.693 434.44 626.548 433.943 625.645 433.081C625.446 432.891 625.253 432.689 625.093 432.466C624.967 432.29 624.842 431.952 624.65 431.841C624.351 431.667 623.914 432.119 623.656 432.283C622.38 433.093 621.316 434.223 620.458 435.457C619.604 436.685 618.904 437.866 618.335 439.237C617.913 440.253 617.649 441.555 616.907 442.388C616.575 442.761 614.111 442.986 613.313 442.661C612.515 442.336 611.621 441.493 611.353 440.964C611.079 440.423 611.013 439.829 611.131 439.237C611.199 438.888 611.34 438.563 611.417 438.221C611.482 437.933 611.541 437.662 611.681 437.398C611.946 436.899 612.399 436.541 612.945 436.391C612.377 435.866 611.906 435.239 611.58 434.538C611.241 433.81 610.954 432.924 610.872 432.125C610.806 431.476 610.908 430.803 611.264 430.245C611.637 429.66 612.297 429.278 612.869 428.913C611.996 428.23 611.249 427.399 610.634 426.48C609.44 424.691 608.701 422.437 609.308 420.305Z" fill="#191847"/>
<path fill-rule="evenodd" clip-rule="evenodd" d="M721.145 617.215C729.682 617.215 736.602 624.135 736.602 632.671V721.544C736.602 730.08 729.682 737 721.145 737H610.055C601.519 737 594.599 730.08 594.599 721.544V632.671C594.599 624.135 601.519 617.215 610.055 617.215H721.145ZM705.69 644.263C707.824 644.263 709.554 645.993 709.554 648.127V706.088C709.554 708.222 707.824 709.952 705.69 709.952H625.512C623.378 709.952 621.648 708.222 621.648 706.088V648.127C621.648 645.993 623.378 644.263 625.512 644.263H705.69Z" fill="#C5CFD6"/>
<path fill-rule="evenodd" clip-rule="evenodd" d="M550.44 669.94C546.847 682.526 537.896 706.379 525.518 733.774L513.757 730.342C524.047 667.306 532.61 625.572 537.515 612.87C540.756 604.478 565.275 605.462 562.455 622.348C561.272 629.429 556.592 648.391 550.44 669.94ZM598.784 625.293C617.964 629.266 657.732 643.314 669.088 647.803C676.225 650.624 671.625 660.191 665.536 659.354C664.505 659.212 660.857 658.804 655.414 658.195C637.932 656.24 601.929 652.212 574.623 648.282C560.245 646.213 567.979 619.281 582.907 622.131C587.93 623.09 593.272 624.151 598.784 625.293Z" fill="#B28B67"/>
<path fill-rule="evenodd" clip-rule="evenodd" d="M536.766 605.756C538.727 599.357 627.867 576.643 627.867 576.643H635.172V583.45L573.746 614.72C573.828 615.728 573.778 616.795 573.58 617.92C574.023 641.101 564.102 658.418 554.279 675.564C547.856 686.776 541.475 697.915 538.061 710.571L515.494 707.205C516.151 705.523 517.191 697.943 518.612 687.578C522.196 661.444 528.206 617.61 536.639 606.013C536.669 605.972 536.699 605.932 536.729 605.892C536.74 605.847 536.752 605.801 536.766 605.756Z" fill="#621FCF"/>
<path fill-rule="evenodd" clip-rule="evenodd" d="M630.072 633.29C635.692 632.165 640.867 631.161 645.295 630.384C673.902 625.367 682.244 610.054 677.312 576.643H624.604C615.995 579.116 571.25 597.881 548.034 607.861C532.668 614.467 537.513 638.282 546.216 644.477C546.263 644.856 546.42 645.114 546.698 645.229C579.688 658.902 607.821 657.882 625.886 657.227C633.452 656.953 639.252 656.742 642.904 657.702L648.625 639.654L630.072 633.29Z" fill="#531DEE"/>
<path fill-rule="evenodd" clip-rule="evenodd" d="M663.063 646.867C663.107 645.737 664.061 644.833 665.186 644.953C667.238 645.171 670.265 645.597 671.738 646.316C674.087 647.461 678.211 650.441 678.211 650.441C676.882 653.166 654.326 699.412 654.326 699.412C654.326 699.412 647.085 698.243 648.587 693.885C650.09 689.527 651.011 686.609 651.011 686.609L651.966 658.899C651.984 658.355 652.449 657.934 652.992 657.968L657.254 658.236C657.254 658.236 660.888 655.295 662.049 652.915C662.755 651.466 662.989 648.761 663.063 646.867Z" fill="#E4E4E4"/>
<path fill-rule="evenodd" clip-rule="evenodd" d="M528.475 727.614C529.51 727.159 530.741 727.62 531.126 728.683C531.83 730.623 532.773 733.531 532.773 735.17C532.773 737.783 531.903 742.796 531.903 742.796C528.872 742.796 477.418 742.796 477.418 742.796C477.418 742.796 475.295 735.775 479.87 735.215C484.446 734.655 487.473 734.204 487.473 734.204L512.796 722.914C513.294 722.693 513.875 722.925 514.083 723.429L515.711 727.377C515.711 727.377 519.947 729.354 522.595 729.354C524.207 729.354 526.74 728.378 528.475 727.614Z" fill="#E4E4E4"/>
<path fill-rule="evenodd" clip-rule="evenodd" d="M551.734 588.001L579.099 561.305L588.188 577.032L559.732 593.809C552.597 605.048 548.406 609.905 547.16 608.378C546.11 607.09 546.591 605.68 547.035 604.38C547.38 603.367 547.703 602.423 547.26 601.656C546.249 599.906 540.535 600.908 535.155 602.091C529.774 603.274 531.019 600.631 532.162 599.251C537.248 595.147 543.772 591.397 551.734 588.001ZM713.03 626.787C710.199 621.043 700.559 565.07 700.559 565.07L680.372 565.149C680.372 565.149 699.068 625.506 700.559 629.199C702.494 633.996 699.206 640.967 696.976 645.693C696.631 646.424 696.312 647.102 696.041 647.709C699.135 649.093 700.621 647.42 702.188 645.656C703.957 643.663 705.83 641.555 710.238 643.606C711.941 644.398 713.553 645.335 715.127 646.25C720.566 649.411 725.562 652.316 732.358 648.122C733.436 647.457 734.617 644.954 731.764 642.997C724.656 638.124 714.414 629.594 713.03 626.787Z" fill="#B28B67"/>
<path fill-rule="evenodd" clip-rule="evenodd" d="M643.192 480.363L634.839 478.931C620.457 514.857 595.349 547.5 559.513 576.861L586.592 609.759C622.424 567.954 644.51 524.822 643.192 480.363Z" fill="#191847"/>
<path fill-rule="evenodd" clip-rule="evenodd" d="M679.609 585.337H605.227C605.227 585.337 631.076 522.487 631.076 478.555L653.513 475.212C671.147 503.573 676.127 538.49 679.609 585.337Z" fill="#DDE3E9"/>
<path fill-rule="evenodd" clip-rule="evenodd" d="M713.418 617.215C705.283 525.441 654.005 475.212 654.005 475.212L653.987 475.228C653.984 475.223 653.981 475.218 653.978 475.212H652.513C649.885 475.303 644.505 475.539 644.505 475.539L639.084 491.033C638.223 519.369 629.036 605.243 629.036 605.243H677.724C677.641 609.18 677.458 613.173 677.163 617.215H713.418Z" fill="#2F3676"/>
<path fill-rule="evenodd" clip-rule="evenodd" d="M677.717 605.624C678.106 588.477 676.585 572.378 674.047 557.808C672.72 575.096 669.946 595.899 664.153 605.624H677.717Z" fill="black" fill-opacity="0.1"/>
<path fill-rule="evenodd" clip-rule="evenodd" d="M666.945 575.677L642.902 564.5V575.677H666.945Z" fill="white" fill-opacity="0.2"/>
<defs>
<clipPath id="clip0">
<rect width="926.295" height="376.2" fill="white" transform="translate(39.6211 284.188)"/>
</clipPath>
</defs>
</svg>
