<svg width="1011" height="792" viewBox="0 0 1011 792" fill="none" xmlns="http://www.w3.org/2000/svg">
<path fill-rule="evenodd" clip-rule="evenodd" d="M694 247C723.271 247 747 223.271 747 194C747 164.729 723.271 141 694 141C664.729 141 641 164.729 641 194C641 223.271 664.729 247 694 247Z" fill="#F2F2F2"/>
<path fill-rule="evenodd" clip-rule="evenodd" d="M694 155C695.657 155 697 153.657 697 152C697 150.343 695.657 149 694 149C692.343 149 691 150.343 691 152C691 153.657 692.343 155 694 155Z" fill="black" fill-opacity="0.1"/>
<path fill-rule="evenodd" clip-rule="evenodd" d="M652 197C653.657 197 655 195.657 655 194C655 192.343 653.657 191 652 191C650.343 191 649 192.343 649 194C649 195.657 650.343 197 652 197Z" fill="black" fill-opacity="0.1"/>
<path fill-rule="evenodd" clip-rule="evenodd" d="M736 197C737.657 197 739 195.657 739 194C739 192.343 737.657 191 736 191C734.343 191 733 192.343 733 194C733 195.657 734.343 197 736 197Z" fill="black" fill-opacity="0.1"/>
<path fill-rule="evenodd" clip-rule="evenodd" d="M694 239C695.657 239 697 237.657 697 236C697 234.343 695.657 233 694 233C692.343 233 691 234.343 691 236C691 237.657 692.343 239 694 239Z" fill="black" fill-opacity="0.1"/>
<path fill-rule="evenodd" clip-rule="evenodd" d="M694 158L696 193H692L694 158Z" fill="#AFB9C5"/>
<path fill-rule="evenodd" clip-rule="evenodd" d="M711.699 211.699L693.314 196.142L696.143 193.314L711.699 211.699Z" fill="#AFB9C5"/>
<path fill-rule="evenodd" clip-rule="evenodd" d="M694 198C696.209 198 698 196.209 698 194C698 191.791 696.209 190 694 190C691.791 190 690 191.791 690 194C690 196.209 691.791 198 694 198Z" fill="#C5CFD6"/>
<g opacity="0.345889" clip-path="url(#clip0)">
<path fill-rule="evenodd" clip-rule="evenodd" d="M760.307 484.966C749.797 395.227 185.901 222.021 81.2155 307.02C-23.4698 392.019 77.1721 551.54 296.554 592.389C515.936 633.239 770.816 574.705 760.307 484.966Z" fill="#F2F2F2"/>
<path fill-rule="evenodd" clip-rule="evenodd" d="M283.848 543.274C293.553 467.037 814.28 319.892 910.951 392.102C1007.62 464.312 983.153 616.198 780.566 650.901C577.979 685.604 274.143 619.511 283.848 543.274Z" fill="#DDE3E9"/>
</g>
<path fill-rule="evenodd" clip-rule="evenodd" d="M210.5 209.673C233.972 209.673 253 199.6 253 187.173C253 174.747 233.972 164.673 210.5 164.673C187.028 164.673 168 174.747 168 187.173C168 199.6 187.028 209.673 210.5 209.673Z" fill="#F2F2F2"/>
<path fill-rule="evenodd" clip-rule="evenodd" d="M260 202.673C260 175.059 237.838 152.673 210.5 152.673C183.162 152.673 161 175.059 161 202.673" fill="#DDE3E9"/>
<rect x="208" width="5" height="160" fill="#DDE3E9"/>
<g opacity="0.7">
<path fill-rule="evenodd" clip-rule="evenodd" d="M287.998 159C305.543 159 319.766 150.87 319.766 140.842C319.766 130.814 305.543 122.684 287.998 122.684C270.453 122.684 256.23 130.814 256.23 140.842C256.23 150.87 270.453 159 287.998 159Z" fill="#F2F2F2"/>
<path fill-rule="evenodd" clip-rule="evenodd" d="M325 153.351C325 131.066 308.435 113 288 113C267.565 113 251 131.066 251 153.351" fill="#DDE3E9"/>
<rect x="286" width="5" height="136" fill="#DDE3E9"/>
</g>
<path d="M775.898 346.236L814.323 324.27C816.783 322.863 819.804 322.863 822.264 324.27L914.839 377.192C919.823 380.041 922.898 385.342 922.898 391.082V716" stroke="#CBCBCB" stroke-width="8"/>
<rect x="892.898" y="715" width="59" height="7" rx="3" fill="#AFB9C5"/>
<path d="M740.396 335.335C753.283 322.447 774.178 322.447 787.065 335.335C799.952 348.222 799.952 369.116 787.065 382.004L767.266 401.803L720.597 355.134L740.396 335.335Z" fill="#C5CFD6"/>
<path fill-rule="evenodd" clip-rule="evenodd" d="M740.127 382.527C753.014 395.414 765.519 403.804 768.057 401.265C770.596 398.727 762.206 386.222 749.319 373.335C736.432 360.447 723.927 352.058 721.388 354.596C718.85 357.135 727.239 369.64 740.127 382.527Z" fill="#F2F2F2"/>
<path fill-rule="evenodd" clip-rule="evenodd" d="M199.258 484.173C202.123 483.823 205.18 483.947 207.844 485.077C213.509 487.482 215.119 494.174 215.041 499.614C214.957 505.468 213.714 511.863 218.165 516.58C220.211 518.748 222.756 520.408 224.765 522.617C226.912 524.977 228.597 527.677 229.844 530.577C232.134 535.903 233.258 542.167 231.164 547.754C229.32 552.674 224.681 557.114 225.683 562.708C226.729 568.543 232.612 573.004 236.29 577.351C240.453 582.269 244.286 588.556 244.916 595.006C245.519 601.188 242.828 607.44 238.699 612.113C230.448 621.451 218.045 626.028 205.54 626C200.23 625.988 194.219 625.748 189.637 622.895C188.22 622.013 187.473 621.023 186.631 619.648C185.877 618.414 184.88 617.612 183.725 616.739C181.19 614.822 179.359 612.239 178.19 609.347C173.652 598.114 177.279 584.218 183.631 574.243C185.136 571.88 186.369 569.605 185.637 566.789C184.874 563.848 182.999 561.196 181.34 558.669C179.701 556.17 177.83 553.787 176.549 551.087C175.207 548.257 174.829 545.294 175.066 542.198C175.512 536.381 178.023 531.013 181.578 526.336C185.002 521.83 189.022 517.518 189.031 511.615C189.041 505.357 184.858 499.791 186.64 493.429C187.378 490.795 188.86 488.092 191.249 486.513C193.539 484.998 196.564 484.502 199.258 484.173Z" fill="#DDE3E9"/>
<path fill-rule="evenodd" clip-rule="evenodd" d="M197.386 494.176C197.44 493.336 198.437 492.832 199.222 493.051C200.254 493.34 200.235 494.305 200.207 495.165C200.124 497.808 200.506 500.377 201.142 502.942C202.462 508.274 204.903 513.186 206.836 518.308C208.768 523.425 209.675 528.709 208.542 534.124C207.473 539.23 205.795 544.203 204.701 549.315C203.738 553.821 202.712 558.573 204.18 563.067C205.592 567.393 208.714 570.916 210.962 574.825C215.617 582.918 217.681 591.896 217.957 601.135C218.085 605.425 217.97 609.755 216.975 613.963C216.402 616.386 215.632 619.66 213.556 621.333C212.599 622.105 210.961 622.371 210.155 621.229C209.399 620.158 210.062 618.499 210.303 617.357C211.343 612.413 211.552 607.361 211.303 602.342C211.062 597.48 210.487 592.626 208.957 587.982C207.537 583.673 205.379 579.802 202.84 576.032C200.252 572.191 197.562 568.341 196.493 563.789C195.406 559.166 196.289 554.462 197.469 549.927C198.717 545.131 200.352 540.472 202.042 535.805C203.689 531.258 204.272 526.955 203.363 522.196C201.567 512.794 196.76 503.968 197.386 494.176Z" fill="#C5CFD6"/>
<path fill-rule="evenodd" clip-rule="evenodd" d="M274.892 495.582C278.437 496.659 281.958 498.395 284.485 501.118C289.858 506.909 288.209 515.661 285.243 522.053C282.05 528.933 277.212 535.849 279.94 543.743C281.193 547.372 283.301 550.659 284.49 554.316C285.761 558.224 286.309 562.294 286.239 566.372C286.11 573.862 284.118 581.855 278.708 587.373C273.945 592.232 266.158 595.07 264.377 602.206C262.518 609.651 267.061 617.988 269.078 625.041C271.36 633.024 272.533 642.453 269.862 650.409C267.303 658.034 260.842 664.028 253.528 667.406C238.915 674.156 221.949 673.117 207.296 666.578C201.075 663.801 194.151 660.391 190.285 654.633C189.09 652.853 188.736 651.294 188.476 649.23C188.243 647.378 187.497 645.911 186.605 644.278C184.644 640.692 183.862 636.684 184.02 632.656C184.634 617.011 196.234 602.464 208.956 593.972C211.971 591.96 214.618 589.912 215.249 586.2C215.909 582.325 215.111 578.213 214.501 574.361C213.899 570.554 212.964 566.763 212.889 562.902C212.811 558.858 213.933 555.157 215.848 551.619C219.445 544.972 225.227 539.93 231.87 536.247C238.267 532.7 245.262 529.692 248.393 522.715C251.712 515.32 249.747 506.561 255.2 499.964C257.458 497.233 260.625 494.807 264.262 494.182C267.749 493.583 271.558 494.57 274.892 495.582Z" fill="#DDE3E9"/>
<path fill-rule="evenodd" clip-rule="evenodd" d="M267.651 507.811C268.154 506.844 269.584 506.769 270.387 507.44C271.443 508.324 270.914 509.456 270.432 510.46C268.95 513.547 268.052 516.789 267.452 520.159C266.204 527.166 266.485 534.262 266.063 541.341C265.642 548.414 263.935 555.147 259.774 560.965C255.85 566.452 251.283 571.462 247.327 576.943C243.841 581.773 240.153 586.863 239.516 592.954C238.901 598.817 240.707 604.626 241.288 610.434C242.492 622.457 240.204 634.171 235.688 645.257C233.591 650.405 231.189 655.472 227.821 659.933C225.882 662.503 223.267 665.977 219.963 666.869C218.44 667.281 216.385 666.739 216.042 664.964C215.718 663.298 217.363 661.682 218.242 660.455C222.047 655.146 224.938 649.273 227.275 643.198C229.54 637.314 231.41 631.265 232.053 624.963C232.649 619.116 232.153 613.401 231.158 607.606C230.144 601.701 229.015 595.731 230.149 589.781C231.3 583.736 234.795 578.628 238.55 573.876C242.521 568.85 246.873 564.19 251.293 559.549C255.6 555.027 258.536 550.238 259.966 544.126C262.79 532.049 261.791 519.078 267.651 507.811Z" fill="#C5CFD6"/>
<path fill-rule="evenodd" clip-rule="evenodd" d="M165.306 540C171.2 540 176.382 543.124 179.953 547.558C184.133 552.748 184.977 559.086 186.675 565.272C187.519 568.35 188.972 571.406 191.517 573.498C193.833 575.4 196.772 575.78 199.543 576.71C205.082 578.567 209.555 583.041 211.321 588.499C213.476 595.158 211.193 601.873 211.586 608.622C211.947 614.819 218.058 618.685 222.974 621.656C227.821 624.586 232.189 627.328 233.649 633.035C235.197 639.088 235.716 645.844 233.572 651.823C230.002 661.779 219.552 666.163 209.456 666.842C200.293 667.459 188.772 666.491 181.891 659.84C177.773 655.86 176.282 650.293 176.467 644.755C176.582 641.311 177.264 637.899 178.146 634.571C178.771 632.213 179.616 629.864 179.856 627.427C180.496 620.942 174.503 619.697 169.401 617.916C162.918 615.654 158.38 611.38 155.224 605.425C152.285 599.881 151.052 593.658 152.814 587.554C153.714 584.437 155.346 581.61 157.559 579.205C158.533 578.146 159.907 577.263 160.786 576.151C161.607 575.112 161.428 573.766 161.145 572.55C159.837 566.931 155.762 562.278 154.305 556.668C152.989 551.605 153.767 545.304 158.395 542.038C160.395 540.627 162.862 540.016 165.306 540Z" fill="#C5CFD6"/>
<path fill-rule="evenodd" clip-rule="evenodd" d="M173.338 554.641C179.585 561.296 181.283 570.325 181.781 579.076C182.061 583.983 181.77 589.159 183.212 593.919C184.445 597.993 187.337 601.107 190.318 604.051C196.319 609.975 203.011 615.999 204.766 624.574C205.796 629.606 205.101 634.804 206.524 639.78C207.817 644.304 210.096 648.748 212.867 652.568C215.098 655.645 218.004 658 220.443 660.867C221.187 661.743 222.253 663.031 221.946 664.267C221.586 665.714 219.743 666.172 218.435 665.945C215.386 665.415 212.819 662.503 210.825 660.386C207.91 657.291 205.432 653.962 203.419 650.227C201.183 646.08 199.383 641.679 198.614 637.026C197.816 632.199 198.213 627.168 196.391 622.535C193.324 614.74 185.886 610.14 180.508 604.064C173.808 596.494 174.807 587.072 175.493 577.759C175.87 572.641 176.245 566.862 173.659 562.189C172.672 560.406 170.471 558.743 170.047 556.715C169.658 554.858 171.78 552.981 173.338 554.641Z" fill="#AFB9C5"/>
<path fill-rule="evenodd" clip-rule="evenodd" d="M180 664C180 702.058 186.211 722 219 722C251.789 722 258 702.058 258 664H180Z" fill="#89C5CC"/>
<rect x="315" y="609" width="38" height="9" rx="2" fill="#AFB9C5"/>
<path fill-rule="evenodd" clip-rule="evenodd" d="M332.217 536H334H335H336.783C337.301 551.419 339.707 566.085 344 580H350.5C359.06 580 366 586.94 366 595.5C366 604.06 359.06 611 350.5 611H317.5C308.94 611 302 604.06 302 595.5C302 586.94 308.94 580 317.5 580H325C331.44 559.128 332.217 536 332.217 536Z" fill="#DDE3E9"/>
<path fill-rule="evenodd" clip-rule="evenodd" d="M298.622 466.679C298.622 466.679 315.811 465 333 465C350.189 465 367.378 466.679 367.378 466.679L372 546.133C372 546.133 352.5 548 333 548C313.5 548 294 546.133 294 546.133L298.622 466.679Z" fill="#C5CFD6"/>
<path fill-rule="evenodd" clip-rule="evenodd" d="M271 722V640V618H292H375H396V640V722H375V640H292V722H271Z" fill="#F2F2F2"/>
<path fill-rule="evenodd" clip-rule="evenodd" d="M689.381 440.208C698.214 461.197 713.229 475.781 721.182 497.605C725.898 510.547 727.864 524.62 727.983 539.032C728.048 546.86 727.911 554.694 727.875 562.522C727.839 570.156 727.632 577.741 726.984 585.327C726.332 592.952 725.603 600.487 725.282 608.159C725.031 614.137 724.917 621.091 722.891 626.544C721.279 630.881 717.183 631.516 716.097 626.256C715.493 623.333 715.569 620.068 715.636 617.063C715.721 613.208 715.945 609.359 716.06 605.504C716.519 590.036 715.923 574.566 716.235 559.092C716.539 543.973 718.482 528.871 716.332 513.853C714.556 501.452 710.046 490.802 704.862 480.593C699.874 470.771 694.445 461.187 691.075 450.014C690.107 446.806 689.359 443.481 689 440.03C689.157 439.957 689.284 440.016 689.381 440.208Z" fill="#C1DEE2"/>
<path fill-rule="evenodd" clip-rule="evenodd" d="M686.974 481.617C688.723 482.88 689.7 484.728 690.882 486.551C692.352 488.817 694.081 490.863 695.551 493.131C698.615 497.86 701.308 502.879 704.102 507.799C709.406 517.137 713.433 527.091 715.427 537.895C717.495 549.092 718.052 560.648 718.919 572.012C719.839 584.056 720.765 596.188 720.887 608.279C720.942 613.696 721.235 619.446 720.584 624.825C720.179 628.173 718.668 631.027 715.261 631C708.025 630.942 704.627 622.927 703.208 616.354C701.119 606.674 700.702 596.393 701.033 586.494C701.432 574.558 703.504 562.802 704.4 550.912C705.35 538.325 704.814 525.96 700.486 514.109C698.3 508.12 695.763 502.274 693.484 496.325C692.514 493.792 691.719 491.19 690.409 488.831C688.951 486.208 687.142 483.826 686 481C686.324 481.206 686.649 481.411 686.974 481.617Z" fill="#89C5CC"/>
<path fill-rule="evenodd" clip-rule="evenodd" d="M770.334 456.518C770.556 456.345 770.778 456.173 771 456C770.361 458.693 769.207 460.88 768.324 463.341C767.531 465.554 767.129 468.058 766.595 470.477C765.34 476.158 763.89 481.711 762.706 487.44C760.36 498.777 760.804 510.99 762.342 523.568C763.795 535.45 766.092 547.313 767.187 559.192C768.095 569.043 768.485 579.202 767.619 588.601C767.031 594.984 765.103 602.606 759.848 601.962C757.374 601.659 756.084 598.681 755.564 595.32C754.729 589.922 754.554 584.246 754.229 578.878C753.502 566.896 753.358 554.951 753.214 543.092C753.078 531.904 752.705 520.494 753.452 509.587C754.173 499.063 756.428 489.58 759.653 480.83C761.351 476.22 762.97 471.502 764.878 467.108C765.793 465.001 766.911 463.139 767.827 461.033C768.563 459.339 769.148 457.601 770.334 456.518Z" fill="#C1DEE2"/>
<path fill-rule="evenodd" clip-rule="evenodd" d="M689.209 516.302C690.166 514.695 692.272 519.993 692.593 520.66C692.457 520.328 692.321 519.997 692.184 519.667C694.083 522.825 695.821 526.113 696.901 529.734C697.97 533.319 698.888 536.977 699.891 540.587C701.774 547.361 704.202 553.943 705.907 560.778C707.569 567.438 707.988 573.986 707.585 580.875C707.167 588.035 706.911 595.306 707.399 602.462C707.632 605.88 708.743 609.064 709.504 612.354C710.266 615.648 710.866 618.986 711.767 622.239C711.974 621.815 712 623.232 712 623.339C711.994 624.152 711.881 624.833 711.619 625.604C710.948 627.586 709.691 629.269 707.778 629.816C704.322 630.803 701.112 627.659 699.998 624.339C698.399 619.575 697.517 614.311 696.755 609.304C696.057 604.713 695.891 600.094 696.099 595.44C696.508 586.261 698.169 577.202 698.618 568.026C699.107 558.036 697.128 548.649 695.471 538.925C694.673 534.239 693.91 529.598 692.356 525.134C691.727 523.326 690.907 521.731 690.048 520.061C689.558 519.112 688.569 517.418 689.209 516.302Z" fill="#C1DEE2"/>
<path fill-rule="evenodd" clip-rule="evenodd" d="M717.252 500.697C716.856 512.142 716.172 523.5 714.646 534.824C713.089 546.38 711.3 557.897 709.802 569.463C708.343 580.722 706.815 592.168 707.018 603.585C707.168 611.993 705.774 626.219 715.113 630.369C724.572 634.572 726.601 616.623 727.222 610.699C728.412 599.333 728.027 587.847 727.449 576.419C726.856 564.689 725.866 553.02 724.64 541.334C723.277 528.353 722.208 515.314 721.349 502.296C720.925 495.857 720.82 489.429 720.937 482.988C721.048 476.911 720.817 470.77 718.656 465C718.543 465.082 718.431 465.164 718.318 465.246" fill="#69A1AC"/>
<path fill-rule="evenodd" clip-rule="evenodd" d="M766.083 536.955C764.382 539.433 762.667 541.887 761.061 544.512C758.186 549.209 755.587 554.432 754.805 561.147C753.169 575.2 754.481 590.379 754.798 604.863C754.863 607.822 754.489 610.693 755.655 613.51C756.713 616.064 758.691 618.01 760.576 618C764.611 617.977 763.995 608.095 764.002 603.746C764.014 596.123 763.159 588.422 763.233 580.806C763.306 573.26 763.765 565.694 764.859 558.528C765.967 551.275 767.589 544.309 769.729 537.81C770.026 536.908 772.158 529.937 770.144 531.139" fill="#89C5CC"/>
<path fill-rule="evenodd" clip-rule="evenodd" d="M748.262 462C745.609 462 745.625 475.226 745.546 476.925C745.257 483.055 745.325 489.188 745.143 495.319C744.744 508.701 744.254 522.2 742.243 535.426C741.161 542.547 739.907 549.636 738.557 556.702C737.204 563.789 735.387 570.867 734.497 578.044C733.642 584.943 734.125 591.977 734.242 598.91C734.359 605.885 734.57 612.874 735.484 619.788C735.709 621.494 735.974 623.195 736.257 624.891C736.492 626.305 736.355 628.058 736.754 629.401C737.393 631.552 740.133 632.256 741.978 631.92C746.97 631.009 750.159 624.74 751.865 620.16C754.043 614.311 755.199 607.967 756.339 601.804C757.631 594.821 758.388 587.732 758.743 580.623C759.466 566.175 758.539 551.712 757.504 537.31C756.928 529.301 756.263 521.327 755.246 513.367C754.232 505.441 752.932 497.55 752.086 489.601C751.471 483.825 750.865 478.04 750.467 472.241C750.371 470.859 750.291 462 748.262 462Z" fill="#69A1AC"/>
<path fill-rule="evenodd" clip-rule="evenodd" d="M744.941 558.139C744.508 544.253 738.927 483.259 737.657 466.467C737.339 462.264 734.282 444.765 733.885 440C732.81 441.347 732.901 462.309 732.913 467.126C732.926 471.891 732.335 476.576 732.031 481.315C731.721 486.151 724.572 548.601 723.645 553.247C721.799 562.491 720.564 571.976 719.611 581.428C718.683 590.639 717.24 600.358 718.482 609.618C718.767 611.75 719.219 613.848 719.955 615.806C720.749 617.922 721.294 619.879 721.932 622.093C722.958 625.659 724.815 628.789 727.668 630.262C733.517 633.281 736.658 626.447 738.251 620.497C740.793 610.995 742.426 601.338 743.191 591.359C744.037 580.318 745.287 569.255 744.941 558.139Z" fill="#89C5CC"/>
<rect x="683" y="599" width="91" height="91" rx="2" fill="white"/>
<rect x="673" y="609" width="10" height="113" rx="2" fill="#C5CFD6"/>
<rect x="723" y="609" width="10" height="113" rx="2" fill="#C5CFD6"/>
<rect x="774" y="609" width="10" height="113" rx="2" fill="#C5CFD6"/>
<defs>
<clipPath id="clip0">
<rect width="926.295" height="376.2" fill="white" transform="translate(39.6211 284.188)"/>
</clipPath>
</defs>
</svg>
