<svg width="100" height="100" viewBox="0 0 100 100" fill="none" xmlns="http://www.w3.org/2000/svg">
<path d="M50 100C77.6142 100 100 77.6142 100 50C100 22.3858 77.6142 0 50 0C22.3858 0 0 22.3858 0 50C0 77.6142 22.3858 100 50 100Z" fill="#E30425"/>
<g opacity="0.2">
<g opacity="0.2">
<path opacity="0.2" d="M45.2542 39.5981C44.6027 32.1075 36.7886 28.4325 36.4573 28.2825C36.1464 28.1356 35.7995 28.0918 35.4652 28.1496C26.4433 29.6465 25.087 34.8965 25.0323 35.1153C24.9573 35.4215 24.9714 35.7387 25.0667 36.0356C35.8261 69.42 58.1886 75.609 65.5402 77.645C66.1058 77.8012 66.573 77.9278 66.9277 78.0434C67.0995 78.1012 67.2761 78.1246 67.4527 78.1246C67.6948 78.1246 67.937 78.0731 68.1589 77.9715C68.3839 77.87 73.6964 75.3668 74.9948 67.2043C75.0527 66.8496 74.9948 66.4809 74.8308 66.1606C74.7152 65.9356 71.9355 60.6481 64.2308 58.7793C63.6917 58.6403 63.1402 58.7825 62.7245 59.1371C60.2933 61.2137 56.9355 63.4262 55.487 63.6543C45.773 58.9043 40.3495 49.7918 40.1448 48.0637C40.0261 47.0918 42.2511 43.6793 44.812 40.9043C45.1355 40.5528 45.2995 40.0762 45.2542 39.5981Z" fill="#231F20"/>
</g>
</g>
<path d="M45.2542 36.4731C44.6027 28.9825 36.7886 25.3075 36.4573 25.1575C36.1464 25.0106 35.7995 24.9668 35.4652 25.0246C26.4433 26.5215 25.087 31.7715 25.0323 31.9903C24.9573 32.2965 24.9714 32.6137 25.0667 32.9106C35.8261 66.295 58.1886 72.484 65.5402 74.52C66.1058 74.6762 66.573 74.8028 66.9277 74.9184C67.0995 74.9762 67.2761 74.9996 67.4527 74.9996C67.6948 74.9996 67.937 74.9481 68.1589 74.8465C68.3839 74.745 73.6964 72.2418 74.9948 64.0793C75.0527 63.7246 74.9948 63.3559 74.8308 63.0356C74.7152 62.8106 71.9355 57.5231 64.2308 55.6543C63.6917 55.5153 63.1402 55.6575 62.7245 56.0121C60.2933 58.0887 56.9355 60.3012 55.487 60.5293C45.773 55.7793 40.3495 46.6668 40.1448 44.9387C40.0261 43.9668 42.2511 40.5543 44.812 37.7793C45.1355 37.4278 45.2995 36.9512 45.2542 36.4731Z" fill="white"/>
</svg>
