<svg width="1920" height="270" viewBox="0 0 1920 270" fill="none" xmlns="http://www.w3.org/2000/svg">
<path d="M0 217.8L66.1333 190.7C132.267 163.6 264.533 109.4 396.8 64.1767C529.067 19.6311 661.333 -17.6314 793.6 9.97668C925.867 36.5686 1058.13 128.031 1190.4 154.623C1322.67 182.231 1454.93 144.969 1587.2 154.623C1719.47 163.6 1851.73 217.8 1917.87 244.9L1984 272H1917.87C1851.73 272 1719.47 272 1587.2 272C1454.93 272 1322.67 272 1190.4 272C1058.13 272 925.867 272 793.6 272C661.333 272 529.067 272 396.8 272C264.533 272 132.267 272 66.1333 272H0V217.8Z" fill="#F0CCE2"/>
</svg>
