<svg width="1915" height="221" viewBox="0 0 1915 221" fill="none" xmlns="http://www.w3.org/2000/svg">
<path d="M0 90.6512L53.25 112.698C106.5 134.744 213 178.837 319.5 149.488C426 119.587 532.5 17.6221 639 2.4651C745.5 -12.6919 852 61.7151 958.5 105.395C1065 149.901 1171.5 163.68 1278 134.744C1384.5 105.808 1491 31.4012 1597.5 9.76801C1704 -12.6919 1810.5 17.6221 1863.75 31.8145L1917 46.5581V222.93H1863.75C1810.5 222.93 1704 222.93 1597.5 222.93C1491 222.93 1384.5 222.93 1278 222.93C1171.5 222.93 1065 222.93 958.5 222.93C852 222.93 745.5 222.93 639 222.93C532.5 222.93 426 222.93 319.5 222.93C213 222.93 106.5 222.93 53.25 222.93H0V90.6512Z" fill="#720D5D"/>
</svg>
